<?xml version="1.0" encoding="UTF-8"?>
<svg id="Calque_2" data-name="Calque 2" xmlns="http://www.w3.org/2000/svg" xmlns:xlink="http://www.w3.org/1999/xlink" viewBox="0 0 365.42 223.08">
  <defs>
    <style>
      .cls-1 {
        fill: #1d1d1b;
      }

      .cls-2 {
        fill: url(#Dégradé_sans_nom_7);
      }
    </style>
    <linearGradient id="Dégradé_sans_nom_7" data-name="Dégradé sans nom 7" x1="0" y1="111.54" x2="148.57" y2="111.54" gradientUnits="userSpaceOnUse">
      <stop offset="0" stop-color="#afd1ea"/>
      <stop offset=".5" stop-color="#bea9cb"/>
      <stop offset="1" stop-color="#ecb59f"/>
    </linearGradient>
  </defs>
  <g id="Calque_1-2" data-name="Calque 1">
    <g>
      <path class="cls-2" d="m54.62,222.93v-25.09c-5.21-1.45-10.06-2.54-14.73-4.15-11.09-3.81-20-10.78-27.13-19.95-6.21-7.99-10.37-17.03-11.89-27.1-.59-3.93-.82-7.94-.84-11.92C-.03,115.1.12,95.47,0,75.84c-.11-17.4,4.58-33.27,15.43-46.91C32.56,7.42,55.04-2.22,82.49.43c19.74,1.9,35.91,10.98,48.67,25.96,10.09,11.84,16.15,25.69,16.9,41.26.73,15.27.44,30.59.47,45.88.02,9.72.19,19.47-.37,29.17-.9,15.33-5.96,29.36-14.63,42.08-9.67,14.19-22.42,24.66-38.17,31.38-12.8,5.46-26.26,7.5-40.73,6.77Zm-.72-39.21c0-3.48-.12-6.71.04-9.92.11-2.16-.51-3.14-2.75-3.77-15.14-4.29-25.4-18.03-25.4-33.72,0-21.04.02-42.08.07-63.12,0-1.91.09-3.84.39-5.71,4.05-25.22,24.8-42.3,50.31-41.45,25.35.84,46.14,22.36,46.16,47.76,0,20.79.03,41.58.02,62.38,0,13.47-3.82,25.72-11.91,36.55-7.45,9.97-16.89,17.38-28.77,21.33-4.61,1.53-9.4,2.52-14.04,3.73v11.53c1.15-.06,2.08.02,2.94-.18,5.64-1.36,11.47-2.25,16.86-4.29,13.86-5.24,25.14-14.06,33.8-26.16,8.67-12.11,13.44-25.61,13.63-40.47.27-21.95.17-43.91.09-65.87-.03-8.59-2.04-16.81-5.81-24.54C117.44,22.96,90.85,8.16,61.55,14.15c-28.09,5.75-48.47,31.35-48.5,60.17-.02,20.38-.04,40.75.07,61.13.08,15.05,5.82,27.62,17.22,37.49,6.68,5.79,14.4,9.42,23.57,10.77Zm13.28.69c4.53-1.27,8.69-1.88,12.37-3.55,19.32-8.76,29.71-23.78,30.03-45.11.31-20.2.12-40.42.1-60.62,0-10.4-3.44-19.44-11.25-26.47-10.92-9.85-23.54-12.7-37.19-7.08-14.02,5.78-21.89,16.8-22.25,32.02-.48,20.86-.14,41.74-.08,62.62.01,5.44,1.93,10.27,5.5,14.36,2.4,2.76,5.15,5.09,8.94,6.21.03-.73.08-1.21.07-1.69-.32-16.7-.67-33.4-.98-50.1-.2-10.97-.63-21.94-.46-32.91.15-10.45,9.51-21.22,22.79-20.82,12.87.39,21.89,10.2,21.91,23.08.03,20.54.08,41.08-.02,61.62-.02,3.29-.31,6.72-1.27,9.84-4.03,13.1-12.74,21.47-26.11,24.92-.81.21-1.99,1.14-2.03,1.78-.19,3.71-.09,7.43-.09,11.92Zm-.89-26.79c9.67-1.95,17.3-11.31,17.36-20.91.14-20.95.09-41.89.06-62.84,0-5.1-4.16-9.34-9.04-9.49-5.12-.16-9.38,3.76-9.66,9.05-.11,2.06.14,4.14.18,6.22.37,17.52.79,35.04,1.08,52.57.14,8.37.02,16.75.02,25.42Z"/>
      <g>
        <path class="cls-1" d="m192.69,88.96c1.12,4.59,2.85,8.31,7.19,8.31,1.49,0,3.22-.74,4.4-1.86l3.41,6.63c-2.85,2.23-5.21,3.72-9.67,3.72-10.29,0-13.45-11.53-13.95-16.12h-5.77v15.44h-9.55v-43.4h19.28c8.93,0,13.83,6.63,13.83,14.26,0,6.14-3.47,11.22-9.18,13.02Zm-5.89-7.01c3.41,0,5.46-2.48,5.46-6.08s-2.05-6.14-5.46-6.14h-8.49v12.21h8.49Z"/>
        <path class="cls-1" d="m207.76,105.08l16.74-43.4h9.36l16.99,43.4h-10.04l-3.1-8.12v.12h-17.05v-.12l-2.98,8.12h-9.92Zm15.5-15.87h11.72l-5.77-17.36-5.95,17.36Z"/>
        <path class="cls-1" d="m272.49,105.08h-16.24v-43.4h16.24c14.2,0,23.06,9.73,23.06,21.7s-8.87,21.7-23.06,21.7Zm0-35.77h-6.63v28.15h6.63c8.25,0,13.39-6.32,13.39-14.07s-5.15-14.07-13.39-14.07Z"/>
        <path class="cls-1" d="m312.79,105.08h-9.61v-43.4h9.61v43.4Z"/>
        <path class="cls-1" d="m342.92,61c12.4,0,22.5,10.04,22.5,22.38s-10.11,22.38-22.5,22.38-22.57-10.04-22.57-22.38,10.11-22.38,22.57-22.38Zm0,35.96c7.13,0,13.02-5.64,13.02-13.58s-5.89-13.58-13.02-13.58-13.08,5.64-13.08,13.58,5.89,13.58,13.08,13.58Z"/>
        <path class="cls-1" d="m198.09,154.45v7.63h-29.26v-43.4h9.61v35.77h19.65Z"/>
        <path class="cls-1" d="m214.08,162.08h-9.61v-43.4h9.61v43.4Z"/>
        <path class="cls-1" d="m248.87,139.57c5.21.93,9.05,5.83,9.05,10.29,0,7.38-6.14,12.21-15.38,12.21h-18.17v-43.46l16.31.06c8.8,0,15.25,4.46,15.25,11.84,0,3.66-2.42,7.44-7.07,9.05Zm-10.91-2.67c6.82,0,8.25-3.1,8.25-5.95,0-3.1-2.6-4.65-5.52-4.65h-6.7v10.6h3.97Zm-3.97,6.7v10.85h8.56c3.22,0,5.64-1.86,5.64-4.77s-1.18-6.08-9.18-6.08h-5.02Z"/>
        <path class="cls-1" d="m289.29,145.96c1.12,4.59,2.85,8.31,7.19,8.31,1.49,0,3.22-.74,4.4-1.86l3.41,6.63c-2.85,2.23-5.21,3.72-9.67,3.72-10.29,0-13.45-11.53-13.95-16.12h-5.77v15.44h-9.55v-43.4h19.28c8.93,0,13.83,6.63,13.83,14.26,0,6.14-3.47,11.22-9.18,13.02Zm-5.89-7.01c3.41,0,5.46-2.48,5.46-6.08s-2.05-6.14-5.46-6.14h-8.49v12.21h8.49Z"/>
        <path class="cls-1" d="m309.13,162.08v-43.4h28.83v7.63h-19.22v10.66h16.68v7.62h-16.68v9.86h19.22v7.63h-28.83Z"/>
      </g>
    </g>
  </g>
</svg>