<?xml version="1.0" encoding="UTF-8"?>
<svg id="Calque_2" data-name="Calque 2" xmlns="http://www.w3.org/2000/svg" xmlns:xlink="http://www.w3.org/1999/xlink" viewBox="0 0 1038.5 1468.74">
  <defs>
    <style>
      .cls-1 {
        fill: none;
      }

      .cls-2 {
        clip-path: url(#clippath);
      }

      .cls-3 {
        fill: url(#Dégradé_sans_nom_7);
      }

      .cls-4 {
        fill: url(#Dégradé_sans_nom_7-17);
      }

      .cls-5 {
        fill: url(#Dégradé_sans_nom_7-16);
      }

      .cls-6 {
        fill: url(#Dégradé_sans_nom_7-11);
      }

      .cls-7 {
        fill: url(#Dégradé_sans_nom_7-10);
      }

      .cls-8 {
        fill: url(#Dégradé_sans_nom_7-19);
      }

      .cls-9 {
        fill: url(#Dégradé_sans_nom_7-18);
      }

      .cls-10 {
        fill: url(#Dégradé_sans_nom_7-13);
      }

      .cls-11 {
        fill: url(#Dégradé_sans_nom_7-12);
      }

      .cls-12 {
        fill: url(#Dégradé_sans_nom_7-15);
      }

      .cls-13 {
        fill: url(#Dégradé_sans_nom_7-14);
      }

      .cls-14 {
        fill: url(#Dégradé_sans_nom_7-30);
      }

      .cls-15 {
        fill: url(#Dégradé_sans_nom_7-35);
      }

      .cls-16 {
        fill: url(#Dégradé_sans_nom_7-37);
      }

      .cls-17 {
        fill: url(#Dégradé_sans_nom_7-36);
      }

      .cls-18 {
        fill: url(#Dégradé_sans_nom_7-34);
      }

      .cls-19 {
        fill: url(#Dégradé_sans_nom_7-33);
      }

      .cls-20 {
        fill: url(#Dégradé_sans_nom_7-32);
      }

      .cls-21 {
        fill: url(#Dégradé_sans_nom_7-31);
      }

      .cls-22 {
        fill: url(#Dégradé_sans_nom_7-39);
      }

      .cls-23 {
        fill: url(#Dégradé_sans_nom_7-38);
      }

      .cls-24 {
        fill: url(#Dégradé_sans_nom_7-22);
      }

      .cls-25 {
        fill: url(#Dégradé_sans_nom_7-27);
      }

      .cls-26 {
        fill: url(#Dégradé_sans_nom_7-26);
      }

      .cls-27 {
        fill: url(#Dégradé_sans_nom_7-24);
      }

      .cls-28 {
        fill: url(#Dégradé_sans_nom_7-25);
      }

      .cls-29 {
        fill: url(#Dégradé_sans_nom_7-21);
      }

      .cls-30 {
        fill: url(#Dégradé_sans_nom_7-20);
      }

      .cls-31 {
        fill: url(#Dégradé_sans_nom_7-28);
      }

      .cls-32 {
        fill: url(#Dégradé_sans_nom_7-29);
      }

      .cls-33 {
        fill: url(#Dégradé_sans_nom_7-23);
      }

      .cls-34 {
        fill: url(#Dégradé_sans_nom_7-9);
      }

      .cls-35 {
        fill: url(#Dégradé_sans_nom_7-7);
      }

      .cls-36 {
        fill: url(#Dégradé_sans_nom_7-3);
      }

      .cls-37 {
        fill: url(#Dégradé_sans_nom_7-4);
      }

      .cls-38 {
        fill: url(#Dégradé_sans_nom_7-2);
      }

      .cls-39 {
        fill: url(#Dégradé_sans_nom_7-8);
      }

      .cls-40 {
        fill: url(#Dégradé_sans_nom_7-5);
      }

      .cls-41 {
        fill: url(#Dégradé_sans_nom_7-6);
      }
    </style>
    <clipPath id="clippath">
      <rect class="cls-1" x="-215.12" y="215.12" width="1468.74" height="1038.5" transform="translate(1253.62 215.12) rotate(90)"/>
    </clipPath>
    <linearGradient id="Dégradé_sans_nom_7" data-name="Dégradé sans nom 7" x1="4.57" y1="245.17" x2="887.67" y2="1498.85" gradientUnits="userSpaceOnUse">
      <stop offset="0" stop-color="#9fd7f0"/>
      <stop offset=".5" stop-color="#bda6d0"/>
      <stop offset="1" stop-color="#f6b29a"/>
    </linearGradient>
    <linearGradient id="Dégradé_sans_nom_7-2" data-name="Dégradé sans nom 7" x1="18.38" y1="235.44" x2="901.47" y2="1489.12" xlink:href="#Dégradé_sans_nom_7"/>
    <linearGradient id="Dégradé_sans_nom_7-3" data-name="Dégradé sans nom 7" x1="32.18" y1="225.71" x2="915.28" y2="1479.39" xlink:href="#Dégradé_sans_nom_7"/>
    <linearGradient id="Dégradé_sans_nom_7-4" data-name="Dégradé sans nom 7" x1="45.99" y1="215.99" x2="929.09" y2="1469.67" xlink:href="#Dégradé_sans_nom_7"/>
    <linearGradient id="Dégradé_sans_nom_7-5" data-name="Dégradé sans nom 7" x1="59.8" y1="206.26" x2="942.89" y2="1459.94" xlink:href="#Dégradé_sans_nom_7"/>
    <linearGradient id="Dégradé_sans_nom_7-6" data-name="Dégradé sans nom 7" x1="73.61" y1="196.54" x2="956.7" y2="1450.22" xlink:href="#Dégradé_sans_nom_7"/>
    <linearGradient id="Dégradé_sans_nom_7-7" data-name="Dégradé sans nom 7" x1="87.41" y1="186.81" x2="970.51" y2="1440.49" xlink:href="#Dégradé_sans_nom_7"/>
    <linearGradient id="Dégradé_sans_nom_7-8" data-name="Dégradé sans nom 7" x1="-64.46" y1="293.79" x2="818.63" y2="1547.47" xlink:href="#Dégradé_sans_nom_7"/>
    <linearGradient id="Dégradé_sans_nom_7-9" data-name="Dégradé sans nom 7" x1="-50.66" y1="284.07" x2="832.44" y2="1537.75" xlink:href="#Dégradé_sans_nom_7"/>
    <linearGradient id="Dégradé_sans_nom_7-10" data-name="Dégradé sans nom 7" x1="-36.85" y1="274.34" x2="846.25" y2="1528.02" xlink:href="#Dégradé_sans_nom_7"/>
    <linearGradient id="Dégradé_sans_nom_7-11" data-name="Dégradé sans nom 7" x1="-23.04" y1="264.62" x2="860.05" y2="1518.3" xlink:href="#Dégradé_sans_nom_7"/>
    <linearGradient id="Dégradé_sans_nom_7-12" data-name="Dégradé sans nom 7" x1="-9.24" y1="254.89" x2="873.86" y2="1508.57" xlink:href="#Dégradé_sans_nom_7"/>
    <linearGradient id="Dégradé_sans_nom_7-13" data-name="Dégradé sans nom 7" x1="-78.27" y1="303.52" x2="804.82" y2="1557.2" xlink:href="#Dégradé_sans_nom_7"/>
    <linearGradient id="Dégradé_sans_nom_7-14" data-name="Dégradé sans nom 7" x1="197.19" y1="109.48" x2="1080.29" y2="1363.16" xlink:href="#Dégradé_sans_nom_7"/>
    <linearGradient id="Dégradé_sans_nom_7-15" data-name="Dégradé sans nom 7" x1="211" y1="99.76" x2="1094.1" y2="1353.44" xlink:href="#Dégradé_sans_nom_7"/>
    <linearGradient id="Dégradé_sans_nom_7-16" data-name="Dégradé sans nom 7" x1="224.81" y1="90.03" x2="1107.9" y2="1343.71" xlink:href="#Dégradé_sans_nom_7"/>
    <linearGradient id="Dégradé_sans_nom_7-17" data-name="Dégradé sans nom 7" x1="238.62" y1="80.3" x2="1121.71" y2="1333.98" xlink:href="#Dégradé_sans_nom_7"/>
    <linearGradient id="Dégradé_sans_nom_7-18" data-name="Dégradé sans nom 7" x1="252.42" y1="70.58" x2="1135.52" y2="1324.26" xlink:href="#Dégradé_sans_nom_7"/>
    <linearGradient id="Dégradé_sans_nom_7-19" data-name="Dégradé sans nom 7" x1="266.23" y1="60.86" x2="1149.32" y2="1314.54" xlink:href="#Dégradé_sans_nom_7"/>
    <linearGradient id="Dégradé_sans_nom_7-20" data-name="Dégradé sans nom 7" x1="280.03" y1="51.13" x2="1163.13" y2="1304.81" xlink:href="#Dégradé_sans_nom_7"/>
    <linearGradient id="Dégradé_sans_nom_7-21" data-name="Dégradé sans nom 7" x1="128.16" y1="158.11" x2="1011.25" y2="1411.79" xlink:href="#Dégradé_sans_nom_7"/>
    <linearGradient id="Dégradé_sans_nom_7-22" data-name="Dégradé sans nom 7" x1="141.97" y1="148.38" x2="1025.06" y2="1402.06" xlink:href="#Dégradé_sans_nom_7"/>
    <linearGradient id="Dégradé_sans_nom_7-23" data-name="Dégradé sans nom 7" x1="155.77" y1="138.66" x2="1038.87" y2="1392.34" xlink:href="#Dégradé_sans_nom_7"/>
    <linearGradient id="Dégradé_sans_nom_7-24" data-name="Dégradé sans nom 7" x1="169.58" y1="128.93" x2="1052.68" y2="1382.61" xlink:href="#Dégradé_sans_nom_7"/>
    <linearGradient id="Dégradé_sans_nom_7-25" data-name="Dégradé sans nom 7" x1="183.39" y1="119.21" x2="1066.48" y2="1372.89" xlink:href="#Dégradé_sans_nom_7"/>
    <linearGradient id="Dégradé_sans_nom_7-26" data-name="Dégradé sans nom 7" x1="114.35" y1="167.84" x2="997.45" y2="1421.52" xlink:href="#Dégradé_sans_nom_7"/>
    <linearGradient id="Dégradé_sans_nom_7-27" data-name="Dégradé sans nom 7" x1="215.46" y1="98.71" x2="1095.72" y2="1348.35" xlink:href="#Dégradé_sans_nom_7"/>
    <linearGradient id="Dégradé_sans_nom_7-28" data-name="Dégradé sans nom 7" x1="227.41" y1="90.24" x2="1107.79" y2="1340.06" xlink:href="#Dégradé_sans_nom_7"/>
    <linearGradient id="Dégradé_sans_nom_7-29" data-name="Dégradé sans nom 7" x1="239.36" y1="81.78" x2="1119.85" y2="1331.76" xlink:href="#Dégradé_sans_nom_7"/>
    <linearGradient id="Dégradé_sans_nom_7-30" data-name="Dégradé sans nom 7" x1="251.31" y1="73.32" x2="1131.91" y2="1323.45" xlink:href="#Dégradé_sans_nom_7"/>
    <linearGradient id="Dégradé_sans_nom_7-31" data-name="Dégradé sans nom 7" x1="263.26" y1="64.86" x2="1143.95" y2="1315.12" xlink:href="#Dégradé_sans_nom_7"/>
    <linearGradient id="Dégradé_sans_nom_7-32" data-name="Dégradé sans nom 7" x1="275.22" y1="56.4" x2="1156" y2="1306.79" xlink:href="#Dégradé_sans_nom_7"/>
    <linearGradient id="Dégradé_sans_nom_7-33" data-name="Dégradé sans nom 7" x1="287.17" y1="47.94" x2="1168.04" y2="1298.46" xlink:href="#Dégradé_sans_nom_7"/>
    <linearGradient id="Dégradé_sans_nom_7-34" data-name="Dégradé sans nom 7" x1="155.77" y1="141.11" x2="1035.18" y2="1389.56" xlink:href="#Dégradé_sans_nom_7"/>
    <linearGradient id="Dégradé_sans_nom_7-35" data-name="Dégradé sans nom 7" x1="167.7" y1="132.62" x2="1047.32" y2="1381.36" xlink:href="#Dégradé_sans_nom_7"/>
    <linearGradient id="Dégradé_sans_nom_7-36" data-name="Dégradé sans nom 7" x1="179.63" y1="124.13" x2="1059.43" y2="1373.14" xlink:href="#Dégradé_sans_nom_7"/>
    <linearGradient id="Dégradé_sans_nom_7-37" data-name="Dégradé sans nom 7" x1="191.57" y1="115.65" x2="1071.54" y2="1364.89" xlink:href="#Dégradé_sans_nom_7"/>
    <linearGradient id="Dégradé_sans_nom_7-38" data-name="Dégradé sans nom 7" x1="203.51" y1="107.18" x2="1083.63" y2="1356.63" xlink:href="#Dégradé_sans_nom_7"/>
    <linearGradient id="Dégradé_sans_nom_7-39" data-name="Dégradé sans nom 7" x1="143.84" y1="149.6" x2="1023.02" y2="1397.72" xlink:href="#Dégradé_sans_nom_7"/>
  </defs>
  <g id="Layer_1" data-name="Layer 1">
    <g class="cls-2">
      <path class="cls-3" d="m704.96,1468.74h9.29v-388.39c.02-1.88-.07-3.88-.11-5.82-.08-1.95-.04-3.91-.21-5.86-.31-3.9-.51-7.81-1.09-11.68-.87-7.78-2.51-15.45-4.42-23.03-1.07-3.76-2.08-7.55-3.41-11.23-1.18-3.73-2.67-7.35-4.1-10.99-12.01-28.91-31.89-54.46-56.93-73.23-25.05-18.76-55.19-30.65-86.33-33.94-1.94-.23-3.9-.32-5.85-.49-1.95-.14-3.9-.33-5.85-.34l-11.48-.29c-3.71-.01-7.4-.36-11.09-.64-1.85-.09-3.68-.43-5.52-.63-1.83-.26-3.69-.4-5.5-.77-3.65-.65-7.3-1.25-10.9-2.16-3.63-.76-7.18-1.83-10.74-2.84-7.06-2.23-14.06-4.71-20.76-7.88l-3.87,8.45c7.08,3.34,14.47,5.97,21.93,8.32,3.76,1.07,7.51,2.19,11.34,3,3.8.96,7.66,1.59,11.51,2.28,1.92.38,3.87.53,5.81.81,1.94.22,3.87.56,5.83.66,3.9.29,7.8.66,11.71.67l11.36.29c1.85,0,3.7.19,5.55.33,1.85.16,3.7.24,5.54.46,29.48,3.11,58,14.37,81.74,32.13,23.72,17.79,42.55,41.99,53.92,69.36,1.36,3.45,2.77,6.87,3.88,10.41,1.26,3.48,2.21,7.07,3.23,10.63,1.81,7.18,3.36,14.44,4.19,21.8.55,3.67.73,7.37,1.03,11.06.16,1.85.12,3.7.2,5.55.03,1.87.13,3.67.11,5.6v388.39Z"/>
      <path class="cls-38" d="m723.55,1468.74h9.29v-389.82l-.04-1.61-.08-3.24c-.08-2.16-.05-4.32-.23-6.47-.34-4.31-.57-8.63-1.2-12.91-.98-8.6-2.77-17.09-4.9-25.48-1.18-4.17-2.3-8.35-3.77-12.43-1.31-4.13-2.95-8.14-4.54-12.17-13.29-32-35.27-60.23-62.95-80.98-27.68-20.74-61.07-33.92-95.51-37.54-2.15-.25-4.31-.36-6.46-.54-2.16-.15-4.31-.36-6.47-.38l-11.72-.3c-3.3,0-6.58-.33-9.87-.56-1.65-.07-3.27-.39-4.9-.56-1.63-.24-3.28-.34-4.89-.68-3.23-.59-6.48-1.1-9.67-1.92-3.22-.66-6.36-1.63-9.53-2.51-6.26-1.98-12.47-4.17-18.41-6.99l-3.87,8.45c6.32,2.99,12.93,5.33,19.58,7.44,3.36.95,6.71,1.97,10.13,2.67,3.39.86,6.84,1.42,10.28,2.04,1.71.35,3.46.47,5.19.72,1.74.19,3.46.51,5.21.6,3.49.26,6.97.59,10.48.6l11.6.29c2.06.01,4.11.21,6.16.36,2.05.17,4.11.27,6.15.51,32.79,3.45,64.55,15.99,90.92,35.74,26.36,19.77,47.29,46.65,59.94,77.11,1.52,3.83,3.08,7.65,4.32,11.58,1.4,3.88,2.46,7.86,3.59,11.83,2.02,7.98,3.74,16.07,4.66,24.25.6,4.08.82,8.19,1.15,12.29.17,2.05.14,4.11.22,6.17l.08,3.08.04,1.54v389.82Z"/>
      <path class="cls-36" d="m742.13,1468.74h9.29v-389.82l-.04-1.76-.08-3.54c-.09-2.36-.07-4.72-.26-7.09-.36-4.72-.63-9.45-1.31-14.14-1.08-9.42-3.03-18.74-5.37-27.93-1.29-4.57-2.53-9.16-4.13-13.63-1.45-4.52-3.23-8.93-4.99-13.34-14.57-35.09-38.64-66-68.97-88.73-15.22-11.27-31.85-20.74-49.56-27.62-17.64-7.04-36.31-11.44-55.14-13.53-2.35-.27-4.72-.4-7.08-.6-2.36-.17-4.72-.39-7.08-.41l-11.95-.31c-2.9,0-5.76-.29-8.64-.49-1.44-.05-2.86-.34-4.29-.5-1.42-.21-2.87-.29-4.27-.59-2.82-.52-5.66-.95-8.44-1.68-2.82-.57-5.55-1.42-8.32-2.19-5.46-1.74-10.89-3.63-16.07-6.11l-3.87,8.45c5.56,2.65,11.38,4.69,17.24,6.55,2.96.83,5.9,1.74,8.92,2.35,2.98.77,6.03,1.24,9.06,1.8,1.51.32,3.05.41,4.58.63,1.53.16,3.05.47,4.59.53,3.08.22,6.15.53,9.25.53l11.84.3c2.26.02,4.52.23,6.78.39,2.26.19,4.52.31,6.77.57,36.09,3.79,71.1,17.61,100.1,39.35,29.01,21.74,52.03,51.31,65.96,84.86,1.68,4.22,3.38,8.42,4.77,12.75,1.53,4.28,2.71,8.66,3.95,13.03,2.23,8.79,4.11,17.7,5.14,26.71.65,4.49.91,9.01,1.26,13.53.19,2.26.16,4.52.25,6.78l.08,3.39.04,1.69v389.82Z"/>
      <path class="cls-37" d="m760.71,1468.74h9.29v-389.82l-.04-1.91-.09-3.85c-.09-2.57-.08-5.13-.28-7.7-.38-5.13-.69-10.27-1.43-15.38-1.18-10.24-3.29-20.38-5.85-30.38-1.39-4.97-2.76-9.96-4.49-14.83-1.58-4.92-3.51-9.71-5.43-14.51-15.85-38.18-42.02-71.77-74.99-96.48-16.54-12.27-34.63-22.55-53.9-30.04-19.2-7.66-39.5-12.46-59.98-14.72-2.56-.29-5.13-.44-7.69-.65-2.57-.18-5.13-.41-7.7-.45l-12.19-.31c-2.49.02-4.94-.26-7.41-.42-1.24-.03-2.44-.3-3.67-.43-1.21-.19-2.46-.23-3.65-.5-2.41-.46-4.85-.81-7.22-1.44-2.41-.47-4.74-1.22-7.11-1.87-4.66-1.5-9.3-3.09-13.73-5.22l-3.87,8.45c4.81,2.3,9.84,4.04,14.9,5.66,2.56.7,5.1,1.51,7.71,2.03,2.57.68,5.21,1.07,7.83,1.56,1.3.28,2.64.35,3.96.54,1.33.14,2.64.42,3.98.46,2.67.18,5.33.47,8.02.45l12.07.31c2.46.03,4.93.25,7.39.43,2.46.2,4.93.34,7.38.62,19.65,2.18,39.14,6.78,57.56,14.13,18.49,7.18,35.85,17.06,51.73,28.83,31.65,23.72,56.77,55.97,71.98,92.6,1.84,4.6,3.69,9.2,5.21,13.92,1.67,4.67,2.97,9.46,4.31,14.23,2.45,9.6,4.48,19.33,5.61,29.16.71,4.9,1,9.83,1.37,14.76.2,2.46.18,4.93.27,7.39l.09,3.7.04,1.83v389.82Z"/>
      <path class="cls-40" d="m779.3,1468.74h9.29v-389.82l-.04-2.05-.09-4.16c-.1-2.77-.09-5.54-.31-8.31-.41-5.54-.76-11.09-1.54-16.61-1.28-11.06-3.55-22.02-6.32-32.83-1.5-5.38-2.98-10.76-4.85-16.03-1.72-5.32-3.79-10.5-5.87-15.68-17.13-41.27-45.4-77.54-81.01-104.23-17.86-13.26-37.42-24.36-58.24-32.46-20.75-8.27-42.7-13.47-64.82-15.91-2.76-.31-5.54-.48-8.31-.71-2.77-.2-5.54-.44-8.31-.48l-12.43-.32c-2.08.03-4.12-.22-6.18-.34-1.04-.02-2.03-.26-3.05-.36-1.01-.16-2.05-.18-3.04-.41-2-.39-4.03-.66-5.99-1.2-2-.38-3.93-1.02-5.9-1.54-3.86-1.26-7.72-2.55-11.39-4.34l-3.87,8.45c4.05,1.95,8.3,3.4,12.56,4.78,2.16.58,4.3,1.28,6.5,1.71,2.17.58,4.4.89,6.6,1.32,1.1.25,2.23.28,3.35.45,1.12.11,2.22.37,3.36.39,2.26.14,4.51.41,6.79.38l12.31.32c2.67.04,5.34.27,8,.46,2.67.22,5.34.37,8,.68,21.3,2.35,42.43,7.35,62.4,15.32,20.04,7.79,38.87,18.49,56.07,31.25,34.29,25.7,61.51,60.63,78,100.35,2,4.99,4,9.98,5.65,15.1,1.8,5.07,3.22,10.25,4.67,15.43,2.66,10.41,4.85,20.96,6.09,31.61.76,5.32,1.09,10.65,1.48,15.99.21,2.67.2,5.33.3,8l.09,4,.04,1.98v389.82Z"/>
      <path class="cls-41" d="m797.88,1468.74h9.29v-389.82l-.04-2.2-.1-4.46c-.1-2.98-.11-5.94-.33-8.92-.43-5.96-.82-11.91-1.65-17.84-1.39-11.88-3.82-23.67-6.8-35.28-1.61-5.78-3.21-11.57-5.21-17.23-1.85-5.71-4.07-11.29-6.31-16.86-18.42-44.36-48.77-83.31-87.03-111.98-19.19-14.25-40.2-26.17-62.58-34.88-22.3-8.88-45.9-14.48-69.67-17.1-2.97-.34-5.95-.52-8.92-.76-2.98-.22-5.96-.47-8.93-.51l-12.67-.33c-1.68.04-3.31-.19-4.95-.27-.83,0-1.62-.22-2.44-.29-.8-.13-1.64-.12-2.42-.32-1.59-.32-3.21-.52-4.76-.96-1.6-.29-3.12-.82-4.68-1.22-3.06-1.02-6.14-2.02-9.05-3.45l-3.87,8.45c3.29,1.61,6.76,2.76,10.22,3.89,1.76.46,3.49,1.05,5.29,1.38,1.76.49,3.58.72,5.38,1.08.89.22,1.82.22,2.73.37.92.09,1.81.32,2.74.32,1.85.1,3.68.34,5.57.31l12.55.33c2.87.04,5.75.29,8.62.5,2.87.23,5.75.41,8.62.73,22.94,2.53,45.72,7.93,67.25,16.5,21.6,8.41,41.88,19.92,60.41,33.67,36.94,27.68,66.25,65.29,84.02,108.1,2.16,5.38,4.31,10.75,6.09,16.27,1.93,5.46,3.48,11.05,5.03,16.63,2.87,11.21,5.23,22.59,6.56,34.06.81,5.73,1.17,11.48,1.59,17.23.22,2.88.22,5.74.32,8.62l.1,4.31.04,2.13v389.82Z"/>
      <path class="cls-35" d="m816.47,1468.74h9.29v-389.82l-.04-2.35-.1-4.77c-.11-3.18-.12-6.35-.36-9.53-.45-6.37-.88-12.73-1.76-19.07-1.49-12.7-4.08-25.31-7.27-37.74-1.71-6.19-3.44-12.37-5.57-18.43-1.98-6.11-4.35-12.07-6.75-18.03-19.7-47.45-52.15-89.08-93.05-119.73-20.51-15.24-42.99-27.98-66.92-37.31-23.86-9.49-49.1-15.5-74.51-18.28-3.18-.36-6.36-.56-9.54-.82-3.18-.23-6.37-.49-9.54-.55l-9.53-.23-1.19-.02h-.6s-.17-.02-.17-.02l-.47-.03-.94-.04c-1.27.05-2.49-.15-3.72-.2-.63.02-1.21-.18-1.82-.22-.6-.11-1.23-.07-1.81-.23-1.18-.26-2.39-.37-3.54-.72-1.19-.19-2.31-.62-3.47-.9-2.26-.77-4.55-1.48-6.71-2.56l-3.87,8.45c2.53,1.26,5.22,2.11,7.88,3.01,1.36.34,2.69.82,4.08,1.06,1.35.39,2.77.55,4.15.84.68.18,1.41.16,2.11.28.71.06,1.4.27,2.13.26,1.44.06,2.86.28,4.34.23l1.1.04.55.03h.19s.58.02.58.02l1.15.02,9.23.22c3.07.05,6.16.31,9.23.53,3.08.25,6.16.44,9.23.79,24.59,2.7,49.01,8.5,72.09,17.69,23.15,9.02,44.9,21.35,64.75,36.1,39.58,29.66,70.99,69.95,90.04,115.85,2.32,5.76,4.61,11.53,6.53,17.44,2.07,5.86,3.73,11.85,5.39,17.83,3.09,12.02,5.6,24.21,7.03,36.51.86,6.14,1.26,12.3,1.71,18.46.23,3.08.24,6.15.35,9.23l.1,4.61.04,2.27v389.82Z"/>
      <path class="cls-39" d="m612.04,1468.74h9.29v-389.82l-.03-.73-.05-1.4c-.05-.93.03-1.88-.08-2.8-.19-1.84-.21-3.71-.53-5.52-.36-3.67-1.21-7.23-2.05-10.77-.54-1.74-.94-3.52-1.6-5.23-.51-1.75-1.26-3.42-1.9-5.13-5.61-13.46-15.01-25.61-26.83-34.49-11.89-8.83-25.78-14.31-40.41-15.89-.91-.12-1.85-.12-2.77-.21-.92-.07-1.84-.2-2.78-.17l-10.29-.25c-5.74-.07-11.49-.54-17.24-1-2.87-.19-5.74-.64-8.6-.97-2.86-.39-5.74-.68-8.58-1.21-5.7-.98-11.4-1.98-17.03-3.36-5.66-1.22-11.23-2.84-16.79-4.45-11.06-3.44-21.97-7.41-32.46-12.31l-3.87,8.45c10.87,5.07,22.18,9.19,33.63,12.75,5.76,1.67,11.53,3.34,17.4,4.61,5.83,1.43,11.74,2.46,17.64,3.48,2.95.55,5.92.85,8.89,1.25,2.97.35,5.94.81,8.91,1,5.95.48,11.91.97,17.85,1.04l10.17.25c.84-.04,1.65.1,2.47.15.82.08,1.65.08,2.46.18,12.97,1.41,25.25,6.25,35.81,14.09,10.5,7.89,18.86,18.7,23.82,30.61.55,1.52,1.23,2.99,1.68,4.54.59,1.5.93,3.09,1.42,4.63.74,3.14,1.5,6.29,1.82,9.55.29,1.6.29,3.26.47,4.9.1.82.02,1.66.07,2.49l.05,1.25.03.65v389.82Z"/>
      <path class="cls-34" d="m630.63,1468.74h9.29v-389.82l-.03-.88-.05-1.71c-.06-1.14.01-2.28-.11-3.41-.22-2.25-.27-4.53-.64-6.75-.47-4.49-1.47-8.87-2.53-13.23-.65-2.15-1.17-4.33-1.96-6.43-.64-2.15-1.54-4.21-2.34-6.3-6.89-16.55-18.39-31.38-32.85-42.24-14.52-10.81-31.66-17.58-49.59-19.5-1.12-.14-2.26-.16-3.38-.27-1.13-.08-2.25-.23-3.4-.2l-10.53-.26c-5.33-.05-10.67-.5-16.01-.93-2.67-.17-5.32-.59-7.99-.9-2.66-.37-5.33-.62-7.97-1.12-5.29-.92-10.58-1.83-15.8-3.12-5.25-1.13-10.42-2.63-15.58-4.13-10.26-3.2-20.39-6.87-30.12-11.42l-3.87,8.45c10.11,4.73,20.64,8.55,31.29,11.87,5.36,1.55,10.73,3.11,16.19,4.29,5.43,1.33,10.92,2.28,16.42,3.24,2.74.52,5.51.78,8.27,1.16,2.76.32,5.52.76,8.29.93,5.54.45,11.08.91,16.62.97l10.41.25c1.04-.03,2.06.11,3.09.19,1.02.1,2.06.11,3.08.24,16.28,1.75,31.8,7.87,45,17.69,13.15,9.87,23.59,23.36,29.84,38.36.72,1.9,1.54,3.76,2.12,5.72.73,1.9,1.19,3.88,1.78,5.83.95,3.95,1.88,7.92,2.29,12,.35,2.02.38,4.09.59,6.13.11,1.02.04,2.07.1,3.1l.05,1.55.03.8v389.82Z"/>
      <path class="cls-7" d="m649.21,1468.74h9.29v-389.82l-.03-1.02-.06-2.01c-.06-1.34,0-2.69-.13-4.02-.24-2.66-.33-5.35-.75-7.98-.57-5.31-1.73-10.52-3-15.68-.75-2.55-1.39-5.13-2.32-7.63-.78-2.54-1.83-4.99-2.78-7.47-8.17-19.64-21.76-37.15-38.87-49.99-17.15-12.8-37.55-20.85-58.77-23.11-1.32-.16-2.67-.2-4-.32-1.33-.1-2.66-.26-4.01-.24l-10.77-.27c-4.93-.04-9.86-.47-14.78-.86-2.46-.15-4.91-.55-7.37-.83-2.45-.34-4.92-.56-7.35-1.03-4.88-.85-9.76-1.68-14.58-2.88-4.85-1.04-9.61-2.43-14.37-3.8-9.46-2.95-18.81-6.33-27.78-10.54l-3.87,8.45c9.35,4.38,19.09,7.9,28.95,10.98,4.96,1.43,9.92,2.88,14.98,3.97,5.02,1.24,10.1,2.11,15.19,3,2.54.48,5.1.72,7.66,1.08,2.56.29,5.11.71,7.68.87,5.13.41,10.26.84,15.39.89l10.65.26c1.25-.02,2.47.13,3.7.22,1.23.11,2.47.14,3.69.29,19.58,2.09,38.35,9.5,54.18,21.3,15.79,11.85,28.33,28.02,35.86,46.11.88,2.29,1.85,4.54,2.56,6.89.86,2.3,1.44,4.68,2.14,7.03,1.17,4.76,2.25,9.55,2.76,14.45.4,2.43.47,4.91.7,7.36.13,1.23.06,2.48.12,3.72l.06,1.86.03.95v389.82Z"/>
      <path class="cls-6" d="m667.79,1468.74h9.29v-389.82l-.03-1.17-.06-2.32c-.07-1.54-.01-3.1-.16-4.64-.26-3.08-.39-6.17-.87-9.21-.67-6.13-1.99-12.16-3.48-18.13-.86-2.95-1.62-5.94-2.68-8.83-.91-2.94-2.11-5.78-3.22-8.65-9.45-22.73-25.14-42.92-44.89-57.73-19.78-14.79-43.43-24.12-67.96-26.72-1.53-.18-3.08-.24-4.61-.38-1.54-.11-3.07-.28-4.62-.27l-11-.27c-4.52-.03-9.04-.43-13.55-.78-2.26-.13-4.5-.51-6.75-.77-2.24-.32-4.51-.51-6.73-.94-4.47-.79-8.94-1.54-13.35-2.64-4.44-.94-8.8-2.23-13.16-3.48-8.66-2.71-17.22-5.79-25.44-9.65l-3.87,8.45c8.59,4.03,17.55,7.26,26.61,10.09,4.56,1.31,9.12,2.65,13.77,3.64,4.61,1.15,9.29,1.94,13.96,2.76,2.33.45,4.69.66,7.04.99,2.35.27,4.7.66,7.06.8,4.72.37,9.44.78,14.17.82l10.88.27c1.45-.01,2.88.15,4.32.26,1.43.13,2.88.18,4.31.35,22.88,2.43,44.9,11.12,63.37,24.91,18.43,13.83,33.07,32.67,41.88,53.86,1.04,2.67,2.16,5.32,3,8.06,1,2.69,1.7,5.48,2.5,8.23,1.38,5.56,2.62,11.18,3.24,16.9.45,2.84.56,5.73.81,8.6.14,1.43.08,2.89.15,4.33l.06,2.17.03,1.1v389.82Z"/>
      <path class="cls-11" d="m686.38,1468.74h9.29v-389.82l-.03-1.32-.07-2.63c-.07-1.75-.03-3.5-.18-5.25-.29-3.49-.45-6.99-.98-10.45-.77-6.96-2.25-13.8-3.95-20.58-.97-3.36-1.85-6.74-3.04-10.03-1.05-3.34-2.39-6.57-3.66-9.82-10.73-25.82-28.51-48.69-50.91-65.48-22.42-16.77-49.31-27.39-77.14-30.33-1.74-.2-3.49-.28-5.23-.43-1.74-.13-3.49-.31-5.24-.31l-11.24-.28c-4.12-.02-8.22-.4-12.32-.71-2.06-.11-4.09-.47-6.14-.7-2.04-.29-4.1-.45-6.12-.85-4.06-.72-8.12-1.39-12.12-2.4-4.03-.85-7.99-2.03-11.95-3.16-7.86-2.47-15.64-5.25-23.1-8.77l-3.87,8.45c7.84,3.69,16.01,6.62,24.27,9.21,4.16,1.19,8.32,2.42,12.55,3.32,4.2,1.05,8.47,1.76,12.74,2.52,2.13.42,4.28.6,6.43.9,2.15.24,4.29.61,6.44.73,4.31.33,8.62.72,12.94.75l11.12.28c1.65,0,3.29.17,4.93.29,1.64.14,3.29.21,4.92.4,26.18,2.77,51.45,12.74,72.55,28.52,21.08,15.81,37.81,37.33,47.9,61.61,1.2,3.06,2.46,6.09,3.44,9.23,1.13,3.09,1.95,6.27,2.86,9.43,1.59,6.37,2.99,12.81,3.71,19.35.5,3.25.64,6.55.92,9.83.15,1.64.1,3.29.17,4.94l.07,2.47.03,1.24v389.82Z"/>
      <path class="cls-10" d="m593.46,1103.2v365.54h9.29v-389.82l-.03-.58-.04-1.1c-.05-.73.04-1.47-.06-2.18-.17-1.43-.15-2.89-.42-4.28-.26-2.85-.94-5.59-1.58-8.32-.43-1.34-.71-2.72-1.24-4.03-.38-1.36-.98-2.63-1.46-3.96-4.33-10.37-11.63-19.84-20.81-26.74-4.64-3.34-9.57-6.26-14.84-8.24-5.21-2.15-10.72-3.34-16.38-4.04-.71-.1-1.44-.08-2.15-.16-.72-.05-1.43-.18-2.17-.14l-10.05-.24c-6.15-.08-12.31-.57-18.47-1.08-3.08-.21-6.15-.68-9.22-1.04-3.07-.42-6.15-.73-9.2-1.3-6.11-1.05-12.22-2.12-18.26-3.6-6.07-1.32-12.04-3.04-18-4.77-11.86-3.68-23.56-7.95-34.8-13.2l-3.87,8.45c11.63,5.42,23.72,9.84,35.98,13.64,6.16,1.8,12.34,3.57,18.61,4.93,6.24,1.52,12.55,2.63,18.87,3.72,3.15.58,6.33.91,9.5,1.34,3.17.37,6.35.85,9.53,1.07,6.36.52,12.73,1.03,19.08,1.11l4.77.11,2.38.04h.54s.12.02.12.02l.24.02c.63.04,1.26.06,1.89.06.64-.04,1.24.08,1.86.12.61.07,1.24.04,1.84.13,4.84.61,9.52,1.61,13.96,3.44,4.49,1.68,8.69,4.18,12.67,7.03,7.86,5.91,14.12,14.04,17.8,22.86.39,1.13.93,2.21,1.24,3.37.46,1.11.68,2.29,1.06,3.43.53,2.33,1.13,4.66,1.34,7.1.24,1.19.2,2.44.36,3.67.09.61,0,1.25.05,1.88l.04.94.03.51v24.27Z"/>
      <path class="cls-13" d="m466.1,897l3.87-8.45c-26.94-12.31-50.54-31.95-67.38-56.35-16.9-24.33-27.26-53.22-29.18-82.81-1.14-14.79-.06-29.7,2.72-44.24,1.52-7.24,3.3-14.45,5.79-21.43,1.11-3.54,2.59-6.94,3.92-10.39.73-1.7,1.52-3.38,2.27-5.07l1.14-2.53,1.26-2.47,2.54-4.94,2.77-4.82c.89-1.62,1.89-3.18,2.9-4.74,1.01-1.55,1.97-3.14,3.03-4.66,2.16-3.01,4.24-6.08,6.59-8.94,2.23-2.96,4.71-5.72,7.13-8.52,1.21-1.4,2.54-2.7,3.8-4.05,1.27-1.35,2.54-2.69,3.91-3.95l4.02-3.84,4.2-3.64,2.11-1.81,2.19-1.72c1.46-1.13,2.9-2.31,4.38-3.41,3.03-2.13,5.99-4.36,9.16-6.29,12.42-8.09,26.01-14.3,40.11-18.82l5.34-1.53,2.67-.76,2.71-.63,5.41-1.25,5.47-.98,2.73-.49,2.76-.35,5.51-.7,5.54-.42,2.77-.21,2.78-.08,11.4-.29c3.91,0,7.81-.45,11.71-.71,7.77-.87,15.53-1.97,23.13-3.86,3.83-.8,7.56-2,11.33-3.03,1.87-.58,3.71-1.24,5.57-1.86l2.78-.94c.92-.33,1.82-.71,2.73-1.06l5.46-2.15,5.35-2.41c.89-.41,1.79-.8,2.67-1.22l2.61-1.34c1.74-.9,3.49-1.76,5.21-2.7,27.47-15.02,50.73-37.54,66.73-64.43,16.13-26.85,24.47-58.18,24.54-89.45h-9.29c-.08,29.63-7.96,59.27-23.24,84.7-15.15,25.46-37.19,46.81-63.2,61.02-1.62.89-3.29,1.7-4.93,2.55l-2.47,1.27c-.83.4-1.69.77-2.53,1.15l-5.06,2.29-5.17,2.04c-.86.33-1.72.69-2.59,1.01l-2.63.89c-1.76.58-3.5,1.21-5.27,1.76-3.57.97-7.1,2.12-10.73,2.87-7.19,1.8-14.54,2.83-21.9,3.66-3.7.24-7.38.67-11.09.67l-11.44.29-2.93.08-2.92.22-5.85.45-5.82.74-2.91.37-2.89.51-5.78,1.03-5.72,1.32-2.86.67-2.82.8-5.64,1.62c-14.9,4.77-29.25,11.34-42.37,19.88-3.34,2.04-6.47,4.4-9.67,6.65-1.57,1.16-3.09,2.4-4.63,3.6l-2.31,1.81-2.22,1.91-4.43,3.85-4.25,4.05c-1.44,1.32-2.78,2.75-4.13,4.17-1.33,1.43-2.73,2.8-4.01,4.28-2.56,2.96-5.17,5.87-7.52,9-2.48,3.03-4.68,6.26-6.96,9.44-1.12,1.6-2.13,3.28-3.2,4.92-1.06,1.64-2.12,3.29-3.07,5l-2.92,5.09-2.68,5.22-1.33,2.62-1.21,2.67c-.8,1.79-1.63,3.56-2.4,5.36-1.41,3.65-2.97,7.24-4.14,10.98-2.63,7.37-4.51,14.99-6.12,22.64-2.94,15.36-4.07,31.1-2.87,46.7,2.03,31.24,12.97,61.79,30.82,87.47,17.78,25.76,42.69,46.49,71.14,59.5Z"/>
      <path class="cls-12" d="m473.84,880.1l3.87-8.45c-23.9-10.92-44.9-28.38-59.86-50.06-15-21.62-24.2-47.21-25.9-73.51-1.03-13.15-.05-26.43,2.41-39.33,1.36-6.42,2.92-12.82,5.14-19.01.97-3.14,2.31-6.15,3.47-9.22.65-1.51,1.35-3,2.02-4.5l1.01-2.25,1.12-2.19,2.25-4.39,2.46-4.27c.79-1.45,1.68-2.83,2.58-4.2.9-1.37,1.74-2.79,2.69-4.14,1.92-2.67,3.76-5.4,5.86-7.94,1.97-2.64,4.19-5.08,6.33-7.58,1.08-1.25,2.26-2.39,3.38-3.6,1.13-1.2,2.26-2.4,3.47-3.51l3.57-3.41,3.73-3.23,1.87-1.61,1.94-1.52c1.3-1.01,2.57-2.06,3.89-3.04,2.7-1.88,5.32-3.88,8.14-5.59,11.03-7.2,23.09-12.69,35.6-16.71l4.74-1.35,2.37-.68,2.4-.55,4.8-1.11,4.86-.86,2.43-.44,2.45-.3,4.89-.63,4.93-.37,2.46-.19,2.47-.06,11.32-.29c4.32-.02,8.63-.49,12.94-.79,8.59-.95,17.18-2.19,25.59-4.27,4.24-.89,8.37-2.2,12.54-3.36,2.07-.64,4.11-1.37,6.16-2.05l3.07-1.05c1.02-.37,2.02-.78,3.03-1.17l6.04-2.39,5.92-2.67c.98-.45,1.98-.89,2.95-1.35l2.89-1.47c1.92-.99,3.86-1.95,5.76-2.99,30.39-16.61,56.08-41.49,73.78-71.23,17.84-29.69,27.09-64.42,27.15-98.94h-9.29c-.07,32.89-8.86,65.92-25.85,94.2-16.85,28.32-41.32,52.01-70.26,67.83-1.81.99-3.66,1.9-5.49,2.84l-2.75,1.41c-.93.45-1.87.86-2.81,1.29l-5.63,2.54-5.75,2.27c-.96.37-1.91.77-2.88,1.12l-2.93.99c-1.95.65-3.9,1.34-5.86,1.95-3.97,1.1-7.9,2.36-11.94,3.2-8,1.99-16.18,3.16-24.36,4.07-4.11.28-8.21.74-12.32.75l-11.36.29-2.63.07-2.62.2-5.23.4-5.2.67-2.6.33-2.58.46-5.16.92-5.11,1.18-2.55.59-2.52.72-5.04,1.44c-13.3,4.27-26.13,10.12-37.85,17.77-2.99,1.82-5.78,3.94-8.65,5.94-1.41,1.04-2.76,2.15-4.14,3.22l-2.07,1.62-1.99,1.71-3.96,3.44-3.8,3.62c-1.29,1.18-2.49,2.46-3.69,3.73-1.19,1.28-2.45,2.5-3.59,3.82-2.28,2.65-4.63,5.25-6.73,8.05-2.22,2.7-4.18,5.6-6.23,8.44-1.01,1.43-1.9,2.94-2.86,4.4-.95,1.47-1.9,2.94-2.74,4.47l-2.62,4.55-2.39,4.67-1.19,2.33-1.08,2.39c-.71,1.6-1.46,3.18-2.15,4.78-1.24,3.27-2.66,6.47-3.69,9.81-2.36,6.58-4.02,13.39-5.47,20.22-2.62,13.72-3.65,27.81-2.57,41.78,1.81,27.95,11.59,55.19,27.54,78.16,15.9,23.04,38.2,41.59,63.62,53.21Z"/>
      <path class="cls-5" d="m481.57,863.2l3.87-8.45c-20.87-9.53-39.27-24.8-52.33-43.77-13.11-18.92-21.14-41.19-22.62-64.21-.91-11.52-.03-23.16,2.1-34.41,1.2-5.61,2.54-11.2,4.49-16.6.83-2.75,2.02-5.36,3.02-8.05.56-1.32,1.19-2.61,1.77-3.92l.88-1.97.99-1.91,1.96-3.84,2.16-3.73c.68-1.27,1.47-2.47,2.25-3.67.79-1.2,1.52-2.44,2.35-3.62,1.69-2.33,3.28-4.73,5.13-6.94,1.72-2.31,3.67-4.44,5.53-6.63.94-1.09,1.98-2.09,2.96-3.14.99-1.05,1.97-2.11,3.04-3.07l3.12-2.99,3.27-2.83,1.63-1.42,1.7-1.33c1.14-.88,2.25-1.8,3.4-2.66,2.37-1.63,4.65-3.4,7.11-4.88,9.64-6.3,20.18-11.08,31.08-14.6l4.14-1.17,2.07-.6,2.1-.48,4.19-.98,4.24-.75,2.12-.39,2.14-.26,4.28-.55,4.31-.32,2.15-.18,2.17-.05,11.24-.28c4.72-.03,9.45-.53,14.16-.87,9.41-1.03,18.82-2.4,28.05-4.68,4.65-.99,9.18-2.41,13.75-3.69,2.27-.7,4.51-1.49,6.76-2.25l3.37-1.15c1.12-.4,2.21-.85,3.32-1.28l6.62-2.62,6.49-2.92c1.08-.5,2.16-.97,3.23-1.49l3.17-1.61c2.11-1.09,4.23-2.14,6.31-3.28,33.31-18.21,61.44-45.44,80.83-78.04,19.54-32.54,29.72-70.66,29.76-108.44h-9.29c-.05,36.15-9.77,72.58-28.46,103.69-18.55,31.17-45.46,57.22-77.31,74.63-1.99,1.09-4.02,2.09-6.04,3.13l-3.03,1.54c-1.02.49-2.06.95-3.09,1.42l-6.21,2.79-6.33,2.5c-1.06.41-2.11.84-3.17,1.23l-3.22,1.1c-2.15.72-4.29,1.48-6.46,2.15-4.37,1.22-8.71,2.59-13.15,3.53-8.82,2.18-17.81,3.49-26.82,4.47-4.51.32-9.03.8-13.55.83l-11.28.28-2.32.06-2.31.18-4.62.34-4.59.59-2.29.28-2.27.41-4.55.8-4.5,1.05-2.25.51-2.22.64-4.44,1.26c-11.71,3.77-23.01,8.91-33.34,15.65-2.64,1.59-5.09,3.48-7.63,5.23-1.24.92-2.43,1.91-3.65,2.85l-1.82,1.42-1.75,1.51-3.5,3.03-3.35,3.2c-1.15,1.04-2.2,2.17-3.26,3.29-1.05,1.13-2.17,2.2-3.17,3.37-2.01,2.34-4.09,4.63-5.93,7.1-1.97,2.38-3.69,4.94-5.49,7.44-.89,1.26-1.67,2.59-2.52,3.88-.84,1.29-1.68,2.58-2.42,3.94l-2.31,4-2.1,4.11-1.05,2.05-.94,2.11c-.62,1.41-1.29,2.8-1.89,4.21-1.08,2.88-2.35,5.69-3.25,8.64-2.09,5.79-3.53,11.79-4.82,17.8-2.3,12.08-3.23,24.53-2.26,36.87,1.59,24.66,10.2,48.59,24.26,68.86,14.01,20.33,33.71,36.69,56.09,46.92Z"/>
      <path class="cls-4" d="m489.3,846.3l3.87-8.45c-17.83-8.14-33.63-21.23-44.81-37.49-11.22-16.22-18.09-35.18-19.34-54.9-.28-2.45-.18-4.95-.31-7.43-.02-1.24.07-2.48.08-3.72.04-1.24,0-2.49.15-3.71l.28-3.69c.07-1.23.31-2.44.44-3.67.23-2.46.76-4.85,1.16-7.28,1.04-4.79,2.16-9.57,3.84-14.18.7-2.35,1.74-4.58,2.58-6.88.48-1.13,1.02-2.23,1.52-3.35l.74-1.68.85-1.63,1.67-3.28,1.85-3.19c.58-1.09,1.25-2.11,1.93-3.14.68-1.02,1.29-2.1,2.01-3.1,1.46-1.99,2.81-4.05,4.39-5.94,1.46-1.99,3.15-3.8,4.74-5.68.8-.94,1.71-1.78,2.54-2.69.84-.9,1.68-1.81,2.6-2.63l2.67-2.56,2.8-2.42,1.39-1.22,1.46-1.13c.98-.75,1.92-1.55,2.91-2.28,2.04-1.39,3.98-2.92,6.09-4.17,8.24-5.4,17.26-9.47,26.57-12.49l3.54-1,1.76-.52,1.79-.4,3.58-.84,3.63-.63,1.81-.34,1.83-.22,3.66-.48,3.7-.26,1.85-.16,1.86-.04,11.16-.28c5.13-.05,10.26-.57,15.39-.95,10.24-1.11,20.47-2.62,30.51-5.09,5.05-1.08,9.99-2.61,14.96-4.02,2.47-.76,4.91-1.62,7.35-2.44l3.67-1.26c1.21-.44,2.41-.93,3.61-1.39l7.2-2.86,7.06-3.17c1.17-.54,2.35-1.06,3.52-1.62l3.45-1.75c2.29-1.18,4.6-2.33,6.87-3.57,36.23-19.81,66.8-49.39,87.89-84.84l3.85-6.71c1.27-2.24,2.4-4.57,3.59-6.86,2.42-4.56,4.44-9.32,6.57-14.02.99-2.38,1.93-4.79,2.87-7.19l1.41-3.61,1.26-3.66,2.46-7.35,2.13-7.45c.34-1.24.71-2.48,1.03-3.74l.89-3.77c.58-2.52,1.18-5.03,1.7-7.56l1.37-7.62c.21-1.27.46-2.54.64-3.82l.5-3.83c.32-2.56.66-5.11.94-7.67l.6-7.69c.09-1.28.2-2.57.26-3.85l.11-3.85.18-7.7h-9.29c-.04,39.41-10.67,79.23-31.07,113.19-20.24,34.03-49.59,62.43-84.36,81.44-2.17,1.19-4.39,2.29-6.59,3.42l-3.31,1.68c-1.12.54-2.25,1.04-3.37,1.55l-6.78,3.05-6.91,2.74c-1.16.45-2.3.92-3.47,1.34l-3.52,1.2c-2.35.79-4.69,1.61-7.06,2.34-4.77,1.34-9.51,2.82-14.36,3.85-9.63,2.37-19.45,3.81-29.28,4.88-4.92.36-9.85.87-14.78.91l-11.2.28-2.01.04-2,.17-4,.29-3.97.52-1.99.24-1.96.36-3.93.69-3.88.91-1.95.44-1.91.56-3.84,1.09c-10.11,3.27-19.89,7.69-28.83,13.54-2.29,1.37-4.4,3.02-6.6,4.53-1.07.79-2.1,1.66-3.16,2.47l-1.58,1.23-1.51,1.32-3.04,2.62-2.9,2.78c-1,.89-1.9,1.88-2.82,2.85-.91.98-1.88,1.9-2.75,2.92-1.73,2.04-3.54,4.01-5.14,6.16-1.72,2.05-3.19,4.29-4.76,6.44-.77,1.09-1.44,2.25-2.18,3.36-.73,1.12-1.46,2.23-2.09,3.41l-2,3.46-1.82,3.56-.92,1.77-.81,1.82c-.54,1.22-1.12,2.42-1.64,3.64-.92,2.5-2.03,4.92-2.8,7.47-1.81,5-3.05,10.19-4.17,15.39-1.97,10.43-2.8,21.25-1.95,31.95,1.37,21.36,8.82,41.99,20.98,59.55,12.12,17.61,29.22,31.79,48.57,40.63Z"/>
      <path class="cls-9" d="m497.04,829.4l3.87-8.45c-14.79-6.75-27.99-17.66-37.28-31.2-.63-.81-1.16-1.69-1.7-2.56-.53-.87-1.15-1.7-1.65-2.59-.98-1.79-2.09-3.52-2.95-5.37-1-1.78-1.76-3.68-2.63-5.51-.44-.92-.74-1.9-1.13-2.83-.37-.95-.8-1.87-1.07-2.85-.31-.97-.64-1.93-.99-2.88-.31-.97-.54-1.96-.83-2.93l-.43-1.46c-.15-.49-.22-.99-.34-1.49-.22-.99-.45-1.98-.7-2.97l-.53-3.01-.29-1.5c-.09-.5-.12-1.02-.19-1.52-.12-1.02-.25-2.03-.4-3.04l-.23-3.08c-.26-2.04-.14-4.13-.26-6.2-.02-1.04.07-2.07.08-3.11.03-1.04-.01-2.08.12-3.1.09-1.03.17-2.05.23-3.08.05-1.03.27-2.03.37-3.05.17-2.05.64-4.03.96-6.05.88-3.97,1.78-7.94,3.19-11.76.56-1.96,1.45-3.79,2.13-5.71l1.26-2.78.61-1.4.71-1.35,1.38-2.73c.53-.88,1.04-1.76,1.54-2.65.47-.91,1.04-1.76,1.61-2.61.57-.85,1.07-1.75,1.66-2.58,1.22-1.65,2.33-3.38,3.66-4.94,1.21-1.66,2.62-3.16,3.94-4.73.66-.79,1.43-1.48,2.12-2.24.7-.75,1.39-1.52,2.17-2.19.75-.7,1.49-1.42,2.22-2.14l2.34-2.01,1.16-1.02,1.22-.94c.82-.62,1.6-1.29,2.42-1.9,1.7-1.14,3.3-2.43,5.07-3.47,6.85-4.51,14.34-7.85,22.06-10.38l2.93-.82,1.46-.44,1.49-.33c.99-.22,1.98-.46,2.97-.71,1.01-.16,2.01-.33,3.01-.52l1.5-.29,1.53-.17c1.02-.12,2.03-.26,3.04-.41,1.03-.06,2.05-.13,3.08-.21l1.54-.14,1.55-.02c1.04-.02,2.07-.05,3.11-.1l7.97-.18c5.54-.06,11.08-.61,16.62-1.03,11.06-1.19,22.11-2.83,32.96-5.49,5.46-1.18,10.8-2.82,16.17-4.35,2.67-.83,5.3-1.74,7.95-2.63l3.96-1.36c1.31-.48,2.61-1,3.91-1.5l7.78-3.09,7.64-3.43c1.27-.58,2.54-1.15,3.8-1.75l3.73-1.89c2.48-1.28,4.97-2.52,7.42-3.86,39.15-21.4,72.15-53.34,94.94-91.65l4.16-7.25c1.37-2.43,2.6-4.93,3.88-7.41,2.61-4.93,4.8-10.07,7.1-15.15,1.07-2.57,2.09-5.18,3.11-7.77l1.52-3.9,1.37-3.96,2.66-7.94,2.31-8.05c.37-1.35.76-2.69,1.11-4.04l.96-4.07c.63-2.72,1.27-5.44,1.84-8.17l1.49-8.23c.23-1.37.5-2.75.69-4.12l.55-4.14c.35-2.76.72-5.52,1.01-8.29l.65-8.31c.1-1.39.21-2.77.28-4.16l.13-4.15.19-8.31h-9.29l-.18,8-.12,4c-.07,1.33-.18,2.67-.27,4l-.62,8c-.28,2.66-.64,5.32-.97,7.98l-.52,3.99c-.19,1.33-.44,2.65-.67,3.97l-1.43,7.93c-.55,2.63-1.17,5.24-1.77,7.86l-.92,3.92c-.33,1.3-.71,2.59-1.07,3.89l-2.22,7.75-2.56,7.65-1.31,3.81-1.46,3.76c-.99,2.5-1.96,5.01-2.99,7.48-2.21,4.89-4.32,9.84-6.84,14.58-1.24,2.38-2.42,4.8-3.73,7.13l-4.01,6.98c-21.94,36.88-53.73,67.64-91.41,88.25-2.35,1.29-4.76,2.49-7.14,3.71l-3.59,1.82c-1.21.58-2.44,1.13-3.66,1.69l-7.35,3.3-7.49,2.97c-1.25.48-2.5.99-3.76,1.45l-3.81,1.31c-2.55.86-5.09,1.74-7.65,2.54-5.17,1.47-10.31,3.05-15.57,4.18-10.44,2.56-21.09,4.14-31.74,5.29-5.33.4-10.67.93-16.01.99l-11.12.28-1.71.03-1.69.15-3.39.24-3.35.45-1.68.19-1.66.31-3.32.57c-1.09.27-2.18.53-3.27.77l-1.64.36-1.61.48-3.24.91c-8.51,2.77-16.77,6.48-24.31,11.43-1.94,1.15-3.71,2.56-5.58,3.82-.91.67-1.77,1.41-2.67,2.09l-1.34,1.03-1.28,1.12-2.57,2.21-2.45,2.35c-.85.75-1.61,1.59-2.39,2.41-.76.83-1.6,1.6-2.33,2.47-1.46,1.73-3,3.38-4.34,5.21-1.46,1.73-2.69,3.63-4.03,5.44-.66.92-1.21,1.9-1.83,2.84-.62.94-1.24,1.88-1.77,2.88l-1.7,2.92-1.53,3.01-.78,1.49-.68,1.54-1.39,3.07c-.76,2.11-1.72,4.14-2.36,6.3-1.54,4.21-2.56,8.59-3.52,12.97-.35,2.22-.86,4.41-1.06,6.66-.12,1.12-.35,2.23-.41,3.36l-.25,3.39c-.14,1.12-.1,2.27-.14,3.41,0,1.14-.1,2.28-.08,3.42.13,2.27.02,4.57.29,6.81,1.14,18.07,7.43,35.39,17.7,50.25,10.23,14.89,24.73,26.89,41.04,34.34Z"/>
      <path class="cls-8" d="m504.77,812.5l3.87-8.45c-11.75-5.37-22.35-14.09-29.76-24.91-.51-.64-.93-1.35-1.36-2.04-.42-.7-.93-1.35-1.32-2.06-.77-1.44-1.67-2.8-2.34-4.28-.81-1.41-1.39-2.93-2.1-4.38-.36-.73-.57-1.51-.89-2.25-.29-.75-.65-1.48-.86-2.26-.25-.77-.51-1.53-.79-2.29-.25-.77-.42-1.56-.65-2.33l-.35-1.16c-.12-.39-.17-.79-.26-1.18-.17-.79-.36-1.58-.56-2.36l-.41-2.4-.24-1.19c-.07-.4-.09-.81-.14-1.21-.09-.81-.2-1.62-.33-2.43l-.17-2.46c-.23-1.63-.09-3.32-.22-4.97-.02-.83.07-1.67.07-2.5.03-.83-.03-1.67.09-2.49.08-.82.14-1.64.18-2.46.03-.83.23-1.62.3-2.43.12-1.64.52-3.21.76-4.82.72-3.15,1.4-6.32,2.54-9.34.43-1.56,1.17-3.01,1.69-4.54l1.01-2.21.48-1.12.57-1.07c.38-.72.73-1.45,1.09-2.18.43-.69.84-1.4,1.24-2.11.36-.73.83-1.4,1.28-2.08.46-.67.84-1.4,1.32-2.06.99-1.3,1.85-2.7,2.93-3.94.95-1.34,2.1-2.52,3.15-3.79.52-.63,1.15-1.18,1.7-1.79.56-.6,1.1-1.22,1.73-1.75.6-.56,1.19-1.13,1.77-1.72.63-.53,1.26-1.05,1.87-1.6l.92-.82.98-.74c.66-.49,1.27-1.04,1.93-1.53,1.37-.89,2.63-1.95,4.05-2.76,5.46-3.61,11.43-6.24,17.54-8.27.78-.22,1.56-.41,2.33-.64l1.16-.36,1.19-.25c.79-.17,1.57-.36,2.36-.57.8-.12,1.6-.25,2.4-.4l1.19-.24,1.22-.13c.81-.09,1.62-.21,2.43-.34.82-.04,1.64-.09,2.46-.16l1.23-.12h1.25c.83-.02,1.66-.05,2.5-.1l8.51-.19c5.94-.07,11.9-.65,17.85-1.11,11.88-1.27,23.76-3.05,35.42-5.9,5.86-1.27,11.61-3.02,17.38-4.68,2.87-.89,5.7-1.87,8.55-2.83l4.26-1.47c1.41-.51,2.8-1.07,4.2-1.61l8.36-3.32,8.21-3.68c1.36-.63,2.73-1.24,4.08-1.89l4.01-2.03c2.66-1.37,5.34-2.71,7.97-4.15,42.07-23,77.51-57.29,101.99-98.45l4.47-7.79c1.47-2.61,2.79-5.3,4.17-7.96,2.8-5.3,5.17-10.82,7.63-16.28,1.16-2.77,2.25-5.56,3.35-8.35l1.63-4.2,1.47-4.25c.97-2.84,1.93-5.68,2.85-8.54l2.48-8.65c.4-1.45.82-2.89,1.19-4.34l1.04-4.38c.67-2.92,1.36-5.84,1.97-8.78l1.6-8.85c.25-1.48.53-2.95.74-4.43l.59-4.45c.38-2.97.77-5.94,1.08-8.91l.7-8.93c.1-1.49.22-2.98.3-4.47l.14-4.46.2-8.92h-9.29l-.19,8.62-.13,4.31c-.07,1.44-.19,2.87-.29,4.31l-.68,8.62c-.3,2.87-.68,5.74-1.04,8.6l-.57,4.29c-.2,1.43-.48,2.85-.72,4.28l-1.54,8.54c-.59,2.83-1.26,5.65-1.91,8.47l-1,4.23c-.36,1.4-.76,2.79-1.15,4.19l-2.39,8.35-2.76,8.24-1.42,4.11-1.57,4.05c-1.06,2.69-2.11,5.39-3.23,8.06-2.38,5.28-4.66,10.6-7.36,15.72-1.33,2.57-2.61,5.17-4.03,7.68l-4.32,7.52c-23.64,39.74-57.86,72.85-98.47,95.05-2.54,1.39-5.12,2.68-7.7,4l-3.87,1.96c-1.3.63-2.62,1.22-3.94,1.82l-7.92,3.55-8.07,3.21c-1.35.52-2.69,1.06-4.05,1.55l-4.11,1.41c-2.75.92-5.48,1.88-8.25,2.73-5.57,1.59-11.12,3.29-16.78,4.51-11.26,2.76-22.72,4.47-34.19,5.7-5.74.44-11.5,1-17.24,1.07l-8.24.19c-.93.05-1.87.08-2.8.09l-1.4.02-1.38.13c-.92.08-1.85.14-2.77.19-.91.14-1.82.26-2.73.37l-1.37.15-1.35.26c-.9.17-1.8.32-2.71.46-.88.23-1.77.44-2.66.64l-1.34.29-1.31.4-2.63.73c-6.92,2.27-13.64,5.26-19.8,9.32-1.6.92-3.03,2.1-4.56,3.11-.74.55-1.44,1.16-2.17,1.71l-1.1.84-1.04.92-2.11,1.8c-.65.65-1.32,1.3-2,1.93-.7.61-1.32,1.3-1.95,1.97-.62.69-1.32,1.3-1.91,2.01-1.18,1.42-2.46,2.76-3.54,4.26-1.21,1.41-2.19,2.97-3.29,4.44-.54.75-.98,1.56-1.49,2.32-.51.77-1.03,1.53-1.44,2.35-.45.8-.91,1.59-1.39,2.38l-1.24,2.45-.64,1.21-.54,1.26-1.14,2.49c-.6,1.72-1.41,3.37-1.91,5.13-1.27,3.42-2.07,6.99-2.87,10.55-.27,1.81-.71,3.59-.86,5.43-.09.92-.3,1.81-.34,2.74-.05.92-.12,1.85-.2,2.77-.13.92-.08,1.86-.11,2.79,0,.93-.09,1.87-.07,2.8.13,1.86,0,3.75.24,5.59l.2,2.77c.14.91.26,1.82.37,2.73.06.46.08.92.16,1.37l.26,1.35.47,2.7c.23.88.44,1.77.63,2.66.11.44.17.9.3,1.33l.39,1.31c.27.87.46,1.76.74,2.63.31.86.61,1.72.89,2.59.24.88.63,1.71.96,2.56.36.84.61,1.72,1.01,2.54.79,1.65,1.46,3.35,2.36,4.95.76,1.67,1.77,3.21,2.64,4.82.45.8,1.01,1.54,1.48,2.33.49.78.96,1.57,1.53,2.3,8.35,12.18,20.25,21.99,33.52,28.05Z"/>
      <path class="cls-30" d="m512.5,795.61l3.87-8.45c-8.72-3.98-16.72-10.51-22.23-18.62-.4-.47-.69-1-1.01-1.52-.31-.52-.7-1-.99-1.53-.55-1.08-1.26-2.08-1.74-3.19-.62-1.04-1.02-2.18-1.56-3.25-.28-.53-.41-1.13-.66-1.67-.22-.56-.5-1.09-.64-1.68-.18-.57-.37-1.14-.59-1.69-.19-.57-.29-1.16-.48-1.73l-.27-.86c-.1-.28-.12-.59-.19-.88-.12-.59-.26-1.17-.43-1.75-.11-.59-.17-1.19-.3-1.78l-.19-.89c-.06-.3-.06-.61-.1-.91-.06-.61-.15-1.21-.25-1.81-.05-.61-.06-1.23-.12-1.85-.2-1.22-.05-2.5-.17-3.75-.02-.63.07-1.26.06-1.89.02-.63-.04-1.27.07-1.87.06-.61.11-1.23.13-1.85,0-.62.18-1.21.23-1.82.07-1.23.4-2.39.55-3.59.55-2.34,1.02-4.69,1.89-6.92.29-1.16.89-2.22,1.24-3.37.24-.55.53-1.08.76-1.64l.34-.83.44-.79c4.23-8.66,11.21-16.32,19.41-21.57,4.07-2.71,8.51-4.63,13.03-6.15.58-.16,1.16-.29,1.73-.47l.85-.27.88-.17c.59-.12,1.17-.27,1.75-.44.6-.08,1.2-.17,1.79-.29l.89-.19.91-.08c.61-.07,1.21-.15,1.81-.26.62-.02,1.23-.05,1.85-.11l.92-.1h.94c.63,0,1.26-.02,1.89-.07l9.04-.2c6.35-.08,12.72-.68,19.08-1.18,12.71-1.35,25.4-3.26,37.88-6.31,6.27-1.37,12.42-3.23,18.59-5,3.07-.95,6.1-2,9.14-3.02l4.55-1.57c1.51-.55,3-1.14,4.49-1.72l8.94-3.56c2.94-1.29,5.86-2.6,8.78-3.93,1.46-.67,2.92-1.33,4.36-2.02l4.29-2.17c2.85-1.46,5.71-2.9,8.52-4.44,44.99-24.6,82.87-61.24,109.05-105.26l4.78-8.33c1.57-2.79,2.99-5.67,4.46-8.51,2.99-5.67,5.53-11.57,8.15-17.42,1.24-2.96,2.41-5.95,3.58-8.93l1.74-4.49,1.58-4.55c1.04-3.04,2.06-6.08,3.05-9.13l2.66-9.26c.43-1.55.87-3.09,1.27-4.64l1.11-4.68c.72-3.13,1.46-6.25,2.11-9.39l1.71-9.46c.27-1.58.56-3.16.79-4.74l.63-4.76c.4-3.17.82-6.35,1.15-9.53l.75-9.54c.11-1.59.23-3.18.32-4.77l.15-4.77.21-9.53h-9.29l-.2,9.23-.14,4.61c-.08,1.54-.2,3.08-.31,4.62l-.73,9.23c-.32,3.07-.73,6.15-1.12,9.22l-.61,4.6c-.22,1.53-.51,3.06-.76,4.59l-1.66,9.15c-.63,3.04-1.34,6.06-2.04,9.08l-1.07,4.53c-.38,1.5-.82,3-1.23,4.49l-2.57,8.95c-.96,2.95-1.95,5.9-2.95,8.84l-1.53,4.4-1.68,4.34c-1.14,2.89-2.27,5.78-3.46,8.64-2.54,5.66-5,11.37-7.89,16.85-1.43,2.75-2.8,5.54-4.32,8.23l-4.63,8.06c-25.33,42.59-61.99,78.06-105.52,101.86-2.72,1.49-5.49,2.88-8.25,4.3l-4.15,2.1c-1.4.67-2.81,1.31-4.22,1.95-2.82,1.29-5.65,2.56-8.49,3.81l-8.65,3.44c-1.45.56-2.89,1.14-4.35,1.67l-4.4,1.52c-2.94.99-5.88,2.01-8.84,2.93-5.97,1.71-11.92,3.52-17.99,4.84-12.07,2.95-24.36,4.8-36.65,6.1-6.15.48-12.32,1.07-18.47,1.14l-8.77.19c-.73.05-1.46.07-2.19.08h-1.1s-1.08.11-1.08.11c-.72.06-1.44.11-2.16.13-.7.12-1.41.22-2.12.3l-1.06.11-1.04.22c-.69.13-1.39.25-2.09.34-.68.19-1.36.36-2.05.5l-1.03.21-1.01.31c-.67.21-1.35.37-2.03.55-5.32,1.78-10.52,4.05-15.29,7.21-9.6,6.15-17.71,15.07-22.69,25.22l-.5.93-.41.98-.89,1.92c-.43,1.34-1.1,2.59-1.46,3.95-1,2.63-1.58,5.39-2.21,8.13-.19,1.4-.56,2.77-.65,4.2-.06.71-.25,1.4-.27,2.12-.03.72-.08,1.44-.16,2.16-.11.71-.06,1.45-.08,2.18,0,.73-.09,1.46-.06,2.19.13,1.45-.02,2.94.2,4.36l.14,2.16c.12.7.21,1.41.29,2.12.05.35.05.71.12,1.06l.21,1.04.35,2.09c.18.68.35,1.36.5,2.05.08.34.12.7.23,1.03l.31,1.01c.21.67.35,1.36.56,2.03.25.66.48,1.32.69,1.99.17.68.49,1.32.75,1.97.28.64.45,1.33.78,1.96.62,1.27,1.11,2.59,1.83,3.82.57,1.3,1.38,2.48,2.04,3.73.34.63.79,1.19,1.15,1.8.37.61.73,1.23,1.19,1.78,6.46,9.46,15.76,17.09,25.99,21.76Z"/>
      <path class="cls-29" d="m427.44,981.49l3.87-8.45c-42.13-19.26-78.73-49.81-105.01-87.8-1.69-2.34-3.26-4.76-4.82-7.2-1.55-2.44-3.15-4.84-4.61-7.34-2.91-5-5.83-9.98-8.4-15.17-2.71-5.11-5.06-10.4-7.42-15.69-1.19-2.64-2.19-5.36-3.27-8.04-1.05-2.7-2.14-5.38-3.04-8.14l-2.77-8.24c-.88-2.76-1.64-5.56-2.44-8.34l-1.17-4.18c-.39-1.4-.69-2.81-1.03-4.22l-1.94-8.47c-.57-2.84-1.06-5.69-1.58-8.53l-.74-4.28c-.23-1.43-.4-2.86-.59-4.29l-1.07-8.6c-.29-2.87-.49-5.74-.71-8.62-.52-5.75-.53-11.49-.68-17.23-.03-2.87.08-5.74.14-8.62.09-2.87.12-5.74.37-8.62l.66-8.62c.22-2.87.65-5.74.99-8.6.65-5.74,1.72-11.43,2.76-17.12,2.33-11.33,5.2-22.59,9.05-33.52,1.78-5.52,4.01-10.86,6.15-16.25,1.13-2.66,2.34-5.29,3.53-7.93l1.81-3.95,1.95-3.88c1.31-2.58,2.63-5.15,3.98-7.71l4.3-7.53c1.42-2.52,2.96-4.96,4.53-7.39,1.57-2.42,3.09-4.88,4.74-7.25,3.32-4.72,6.63-9.46,10.25-13.94,3.51-4.59,7.31-8.92,11.11-13.26,1.9-2.17,3.93-4.22,5.91-6.31,1.99-2.09,3.98-4.17,6.09-6.14l6.27-5.95c2.15-1.92,4.33-3.8,6.52-5.69l3.29-2.81,3.39-2.69c2.27-1.78,4.52-3.58,6.84-5.3,4.69-3.36,9.35-6.77,14.26-9.82,19.38-12.58,40.6-22.37,62.68-29.38,2.77-.84,5.56-1.62,8.35-2.41l4.19-1.16,4.22-1.01,8.47-1.93,8.54-1.55,4.28-.74,4.29-.57,8.6-1.07,8.62-.68,4.31-.3,4.31-.14,8.62-.2,3.18-.1c1.88.05,3.71-.26,5.56-.32,3.65-.47,7.31-.89,10.84-1.83,1.8-.32,3.51-.97,5.29-1.39.87-.27,1.72-.61,2.59-.88l1.3-.42c.43-.15.84-.35,1.27-.51.85-.34,1.7-.67,2.55-.98.82-.39,1.65-.78,2.49-1.15.42-.19.84-.35,1.26-.55l1.21-.65c.81-.43,1.64-.81,2.45-1.25,12.88-7.03,23.95-17.78,31.47-30.4.44-.8.9-1.6,1.38-2.38.47-.79.82-1.64,1.26-2.44.92-1.59,1.53-3.32,2.35-4.95l.99-2.55.52-1.26.42-1.3c.28-.87.59-1.72.89-2.58.23-.88.47-1.76.73-2.64.12-.44.27-.87.39-1.31l.29-1.34.63-2.67c.14-.91.29-1.81.46-2.71.08-.45.19-.89.25-1.35l.15-1.37.36-2.74c.05-.93.11-1.85.19-2.77.04-.46.1-.92.12-1.39v-1.4c.03-.93.06-1.87.11-2.8h-9.29c-.05.83-.08,1.66-.09,2.5v1.25c-.03.41-.09.82-.12,1.23-.07.82-.13,1.64-.17,2.46l-.33,2.43-.13,1.22c-.05.4-.16.8-.23,1.2-.15.8-.29,1.6-.41,2.4l-.56,2.36-.25,1.19c-.1.39-.24.77-.35,1.16-.23.77-.44,1.55-.64,2.34-.27.76-.55,1.52-.8,2.29l-.37,1.15-.47,1.12-.87,2.26c-.75,1.44-1.26,2.98-2.09,4.39-.39.71-.69,1.47-1.11,2.17-.42.7-.83,1.4-1.22,2.11-6.67,11.19-16.52,20.76-27.94,27-.71.39-1.46.72-2.17,1.1l-1.07.58c-.37.17-.75.32-1.11.48-.74.32-1.47.67-2.2,1.02-.76.27-1.52.56-2.26.87-.38.15-.74.32-1.12.46l-1.15.37c-.77.24-1.52.54-2.29.79-1.58.36-3.08.96-4.68,1.23-3.12.84-6.37,1.2-9.61,1.62-1.65.04-3.27.34-4.95.28l-2.91.1-8.92.2-4.46.15-4.47.31-8.93.71-8.91,1.1-4.45.59-4.43.76-8.84,1.61-8.77,2-4.38,1.04-4.34,1.2c-2.89.82-5.78,1.63-8.65,2.5-22.88,7.26-44.86,17.41-64.93,30.43-5.08,3.17-9.91,6.69-14.77,10.18-2.4,1.78-4.73,3.65-7.08,5.49l-3.51,2.79-3.41,2.9c-2.26,1.95-4.52,3.9-6.75,5.89l-6.5,6.17c-2.18,2.04-4.25,4.2-6.31,6.36-2.05,2.17-4.15,4.3-6.12,6.54-3.94,4.49-7.87,8.99-11.51,13.73-3.75,4.65-7.18,9.55-10.62,14.44-1.7,2.45-3.28,5-4.91,7.51-1.62,2.52-3.22,5.04-4.69,7.65l-4.46,7.8c-1.4,2.65-2.77,5.31-4.13,7.98l-2.02,4.02-1.88,4.09c-1.23,2.73-2.49,5.46-3.66,8.22-2.21,5.58-4.52,11.12-6.37,16.83-3.98,11.33-6.96,22.99-9.37,34.73-1.08,5.89-2.19,11.79-2.86,17.73-.35,2.97-.8,5.94-1.03,8.91l-.69,8.93c-.25,2.98-.3,5.95-.39,8.92-.06,2.97-.18,5.95-.15,8.92.15,5.95.17,11.89.7,17.85.23,2.98.44,5.95.73,8.92l1.11,8.91c.2,1.48.38,2.97.61,4.45l.77,4.43c.53,2.95,1.04,5.9,1.63,8.84l2.01,8.77c.35,1.46.67,2.92,1.07,4.37l1.21,4.34c.83,2.88,1.62,5.78,2.53,8.64l2.87,8.53c.94,2.85,2.05,5.64,3.15,8.43,1.12,2.78,2.16,5.6,3.39,8.33,2.44,5.48,4.88,10.96,7.68,16.26,2.66,5.37,5.69,10.54,8.7,15.72,1.51,2.58,3.17,5.07,4.77,7.6,1.61,2.52,3.24,5.03,4.99,7.45,27.22,39.34,65.12,70.99,108.77,90.94Z"/>
      <path class="cls-24" d="m435.17,964.59l3.87-8.45c-39.09-17.87-73.09-46.24-97.48-81.51-1.58-2.17-3.03-4.42-4.47-6.68-1.43-2.27-2.92-4.49-4.28-6.81-2.69-4.64-5.41-9.27-7.79-14.08-2.52-4.74-4.7-9.66-6.89-14.56-1.1-2.45-2.03-4.97-3.03-7.46-.98-2.5-1.99-4.99-2.82-7.55l-2.58-7.64c-.82-2.56-1.52-5.16-2.26-7.74l-1.09-3.88c-.36-1.29-.63-2.61-.95-3.92l-1.8-7.86c-.53-2.63-.98-5.28-1.46-7.92l-.69-3.97c-.22-1.32-.37-2.66-.55-3.98l-1-7.98c-.26-2.66-.45-5.33-.65-8-1.6-21.31-.13-42.78,3.95-63.9,2.17-10.51,4.82-20.96,8.4-31.1,1.65-5.12,3.73-10.08,5.7-15.08,1.05-2.47,2.18-4.91,3.28-7.36l1.68-3.66,1.81-3.6,3.69-7.15,4-6.98c1.31-2.34,2.75-4.6,4.2-6.86,1.46-2.25,2.87-4.53,4.4-6.73,3.09-4.38,6.15-8.78,9.52-12.94,3.25-4.26,6.79-8.28,10.31-12.31,1.76-2.01,3.65-3.91,5.49-5.86,1.84-1.94,3.7-3.87,5.65-5.7l5.82-5.53c2-1.78,4.03-3.53,6.05-5.28l3.05-2.61,3.15-2.49c2.11-1.65,4.2-3.33,6.35-4.92,4.36-3.11,8.68-6.29,13.24-9.12,17.99-11.68,37.68-20.75,58.16-27.27,2.57-.78,5.16-1.5,7.75-2.24l3.88-1.08,3.92-.93,7.86-1.79,7.92-1.44,3.97-.69,3.99-.53,7.98-.99,8-.63,4-.29,4-.13,11.72-.3c2.29.04,4.53-.3,6.79-.4,4.48-.55,8.95-1.11,13.3-2.23,2.21-.41,4.32-1.18,6.5-1.72,1.07-.33,2.12-.73,3.18-1.08l1.6-.52c.53-.19,1.04-.42,1.56-.62,1.04-.42,2.08-.82,3.14-1.22l3.06-1.4c.51-.23,1.03-.44,1.54-.69l1.49-.78c.99-.53,2.01-1,3-1.54,15.8-8.63,29.3-21.73,38.52-37.2l1.69-2.92c.57-.97,1.02-2,1.55-2.99,1.11-1.96,1.89-4.07,2.88-6.09l1.23-3.13.63-1.56.52-1.6,1.09-3.18c.29-1.08.59-2.16.9-3.24.15-.54.33-1.07.47-1.61l.36-1.64.76-3.28c.18-1.11.37-2.22.58-3.32.09-.55.23-1.1.3-1.66l.2-1.68.43-3.35.24-3.39c.04-.56.11-1.13.14-1.69l.02-1.71.11-3.42h-9.29c-.05,1.04-.08,2.07-.1,3.11l-.02,1.56c-.03.52-.09,1.03-.13,1.54-.09,1.03-.16,2.05-.22,3.08l-.4,3.05-.17,1.53c-.06.51-.19,1-.27,1.5-.19,1-.36,2.01-.52,3.01l-.7,2.97-.32,1.49c-.13.49-.29.97-.43,1.46-.29.97-.56,1.95-.81,2.94l-.99,2.88-.47,1.45-.58,1.41-1.11,2.84c-.91,1.82-1.6,3.74-2.62,5.52-.49.9-.88,1.84-1.4,2.72-.52.88-1.03,1.76-1.53,2.65-8.37,14.05-20.65,25.97-34.99,33.8-.9.49-1.82.91-2.72,1.39l-1.35.71c-.46.22-.93.41-1.4.62-.93.41-1.85.84-2.78,1.27-.95.35-1.9.72-2.84,1.1-.47.18-.94.4-1.41.57l-1.45.47c-.97.31-1.92.68-2.88.98-1.97.48-3.89,1.19-5.89,1.56-3.94,1.03-8,1.52-12.07,2.03-2.06.08-4.09.4-6.18.36l-3.45.11-8.31.19-4.15.14-4.16.29-8.31.66-8.29,1.03-4.14.55-4.12.71-8.23,1.49-8.16,1.86-4.07.97-4.03,1.12c-2.69.76-5.38,1.52-8.05,2.32-21.28,6.76-41.74,16.19-60.42,28.32-4.73,2.94-9.22,6.23-13.75,9.47-2.23,1.66-4.4,3.4-6.59,5.11l-3.27,2.59-3.17,2.71c-2.1,1.82-4.21,3.63-6.28,5.48l-6.05,5.74c-2.03,1.9-3.95,3.91-5.87,5.92-1.91,2.02-3.86,4-5.7,6.09-3.66,4.18-7.33,8.36-10.71,12.79-3.5,4.33-6.68,8.89-9.89,13.44-1.59,2.28-3.05,4.66-4.57,6.99-1.51,2.34-3,4.69-4.36,7.12l-4.15,7.25c-1.3,2.46-2.57,4.95-3.84,7.43l-1.88,3.74-1.74,3.8c-1.15,2.54-2.31,5.08-3.4,7.65-2.05,5.19-4.21,10.34-5.92,15.66-3.71,10.54-6.47,21.39-8.72,32.31-1,5.49-2.04,10.97-2.66,16.5-.33,2.76-.75,5.52-.96,8.29l-.64,8.31c-.24,2.77-.27,5.54-.36,8.31-.06,2.77-.17,5.54-.14,8.31.14,5.54.15,11.08.65,16.62.21,2.77.41,5.54.68,8.31l1.04,8.29c.19,1.38.35,2.76.57,4.14l.72,4.12c.49,2.74.97,5.49,1.52,8.23l1.87,8.16c.33,1.36.62,2.72.99,4.07l1.13,4.03c.77,2.68,1.5,5.38,2.35,8.04l2.67,7.94c.87,2.66,1.91,5.24,2.93,7.84,1.04,2.59,2.01,5.21,3.15,7.76,2.27,5.1,4.54,10.2,7.15,15.12,2.47,5,5.29,9.81,8.09,14.63,1.41,2.4,2.95,4.72,4.44,7.07,1.5,2.35,3.01,4.69,4.64,6.94,25.33,36.63,60.64,66.09,101.24,84.65Z"/>
      <path class="cls-33" d="m442.91,947.7l3.87-8.45c-36.05-16.48-67.45-42.67-89.96-75.22-1.46-2-2.79-4.08-4.13-6.16-1.32-2.09-2.7-4.14-3.95-6.28-2.48-4.28-5-8.55-7.19-12.99-2.33-4.37-4.33-8.91-6.35-13.43-1.02-2.26-1.87-4.59-2.8-6.89-.9-2.31-1.84-4.6-2.6-6.96l-2.38-7.05c-.75-2.36-1.39-4.76-2.08-7.14l-1-3.58c-.33-1.19-.58-2.41-.88-3.61l-1.66-7.25c-.49-2.43-.9-4.87-1.34-7.31l-.64-3.66c-.2-1.22-.33-2.45-.5-3.68l-.93-7.36c-.24-2.46-.41-4.92-.6-7.39-1.48-19.68-.11-39.51,3.64-58.98,2.01-9.7,4.44-19.34,7.74-28.69,1.51-4.72,3.44-9.29,5.25-13.91.97-2.28,2.01-4.53,3.03-6.79l1.54-3.38,1.67-3.32,3.41-6.6,3.69-6.44c1.21-2.16,2.54-4.25,3.88-6.33,1.35-2.07,2.64-4.19,4.05-6.21,2.86-4.04,5.67-8.1,8.79-11.94,2.99-3.94,6.27-7.64,9.52-11.37,1.63-1.86,3.37-3.61,5.07-5.41,1.7-1.79,3.41-3.58,5.22-5.26l5.37-5.11,5.59-4.87,2.82-2.41,2.91-2.3c1.95-1.52,3.87-3.07,5.86-4.55,4.03-2.87,8.01-5.81,12.22-8.41,16.6-10.78,34.76-19.14,53.65-25.16,2.37-.72,4.76-1.38,7.14-2.06l3.58-1,3.62-.86,7.25-1.66,7.31-1.32,3.66-.64,3.68-.48,7.36-.92,7.39-.58,3.69-.27,3.7-.12,11.64-.3c2.69.03,5.35-.33,8.02-.48,5.3-.63,10.6-1.32,15.75-2.64,2.62-.51,5.13-1.38,7.71-2.05,1.27-.4,2.52-.86,3.78-1.27l1.89-.63c.63-.23,1.24-.49,1.85-.73l3.72-1.45,3.63-1.66c.61-.28,1.22-.53,1.82-.82l1.77-.92c1.18-.62,2.38-1.19,3.55-1.83,18.72-10.23,34.66-25.68,45.57-44.01l2-3.46c.67-1.15,1.21-2.37,1.84-3.55,1.3-2.33,2.25-4.82,3.41-7.22l1.46-3.71.74-1.85.63-1.89,1.29-3.77,1.08-3.84c.18-.64.38-1.27.55-1.92l.44-1.95.9-3.89.69-3.93c.11-.66.26-1.31.35-1.97l.24-1.99.51-3.97.29-4c.05-.67.12-1.33.16-2l.04-2.01.12-4.03h-9.29l-.11,3.72-.03,1.86c-.03.62-.1,1.23-.15,1.85l-.27,3.69-.47,3.66-.22,1.83c-.08.61-.22,1.21-.32,1.81l-.63,3.63-.83,3.58-.4,1.79c-.15.59-.34,1.18-.51,1.77l-.99,3.54-1.19,3.48-.58,1.74-.69,1.7-1.34,3.42c-1.07,2.21-1.94,4.51-3.14,6.65-.58,1.08-1.08,2.21-1.69,3.27l-1.84,3.19c-10.06,16.9-24.79,31.18-42.04,40.61-1.08.59-2.19,1.11-3.28,1.68l-1.63.85c-.55.26-1.12.5-1.68.75l-3.35,1.53-3.43,1.33c-.57.22-1.13.47-1.71.68l-1.75.57c-1.16.38-2.31.81-3.48,1.18-2.37.61-4.69,1.43-7.1,1.89-4.75,1.22-9.64,1.85-14.52,2.44-2.47.12-4.91.47-7.41.44l-11.68.3-3.85.12-3.85.28-7.69.6-7.67.96-3.83.5-3.81.66-7.62,1.38-7.55,1.73-3.77.89-3.73,1.04c-2.48.71-4.97,1.4-7.44,2.15-19.69,6.26-38.61,14.98-55.91,26.21-4.38,2.72-8.53,5.77-12.73,8.76-2.07,1.53-4.07,3.15-6.1,4.73l-3.03,2.4-2.94,2.51-5.82,5.07-5.6,5.32c-1.88,1.76-3.66,3.62-5.43,5.48-1.76,1.87-3.58,3.7-5.28,5.64-3.39,3.88-6.79,7.74-9.91,11.84-3.24,4-6.18,8.24-9.16,12.44-1.47,2.11-2.82,4.31-4.23,6.47-1.4,2.17-2.78,4.34-4.04,6.59l-3.84,6.71-3.55,6.88-1.74,3.45-1.61,3.52c-1.06,2.35-2.14,4.7-3.15,7.07-1.89,4.81-3.9,9.57-5.48,14.49-3.44,9.75-5.98,19.79-8.07,29.89-3.92,20.29-5.34,40.94-3.8,61.44.2,2.57.37,5.13.63,7.69l.96,7.67c.17,1.28.32,2.56.52,3.83l.67,3.81c.46,2.54.89,5.08,1.4,7.61l1.73,7.55c.3,1.25.57,2.52.91,3.76l1.05,3.73c.72,2.48,1.39,4.98,2.17,7.44l2.48,7.34c.8,2.46,1.77,4.85,2.71,7.26.97,2.39,1.85,4.82,2.92,7.18,2.11,4.71,4.2,9.44,6.62,13.99,2.28,4.63,4.9,9.07,7.49,13.54,1.3,2.23,2.74,4.37,4.11,6.55,1.39,2.17,2.78,4.34,4.3,6.42,23.45,33.91,56.15,61.19,93.72,78.36Z"/>
      <path class="cls-27" d="m450.64,930.8l3.87-8.45c-33.01-15.09-61.82-39.09-82.43-68.93-20.69-29.73-33.38-65.24-35.74-101.42-1.37-18.05-.1-36.24,3.34-54.07,1.85-8.88,4.06-17.71,7.09-26.27,1.38-4.33,3.16-8.51,4.81-12.74.89-2.09,1.85-4.14,2.77-6.21l1.41-3.1,1.54-3.03,3.12-6.05,3.38-5.9c1.1-1.98,2.32-3.89,3.55-5.8,1.24-1.9,2.42-3.84,3.71-5.69,2.62-3.69,5.2-7.43,8.06-10.94,2.74-3.61,5.75-7,8.72-10.42,1.49-1.71,3.1-3.31,4.64-4.96,1.56-1.64,3.12-3.28,4.78-4.82l4.92-4.68,5.12-4.46,2.58-2.21,2.67-2.11c1.79-1.39,3.55-2.82,5.37-4.17,3.7-2.62,7.34-5.33,11.2-7.71,15.2-9.89,31.84-17.53,49.14-23.04,2.17-.65,4.36-1.26,6.54-1.88l3.28-.92,3.31-.78,6.64-1.52,6.7-1.21,3.35-.59,3.37-.44,6.75-.85,6.77-.53,3.39-.25,3.39-.1,11.56-.29c3.1.01,6.17-.37,9.25-.55,6.12-.71,12.24-1.54,18.21-3.05,3.02-.6,5.94-1.59,8.92-2.38,1.47-.46,2.91-.99,4.37-1.47l2.19-.73c.72-.26,1.43-.56,2.15-.84l4.3-1.69,4.2-1.91c.7-.32,1.41-.62,2.1-.95l2.05-1.06c1.36-.71,2.75-1.38,4.1-2.12,21.63-11.82,40.01-29.63,52.62-50.82,12.72-21.17,19.22-45.71,19.32-70.45h-9.29c-.11,23.12-6.15,45.95-18.02,65.7-11.76,19.76-28.92,36.39-49.1,47.41-1.26.69-2.56,1.31-3.83,1.97l-1.91.99c-.65.31-1.31.59-1.96.89l-3.92,1.78-4.01,1.57c-.67.26-1.33.55-2,.79l-2.04.68c-1.36.45-2.71.94-4.08,1.37-2.77.73-5.49,1.66-8.31,2.21-5.56,1.42-11.27,2.18-16.98,2.85-2.88.16-5.74.54-8.63.51l-11.6.29-3.54.11-3.54.26-7.08.55-7.05.88-3.53.46-3.5.61-7,1.26-6.94,1.59-3.46.82-3.43.96c-2.28.65-4.57,1.29-6.84,1.97-18.09,5.76-35.49,13.76-51.39,24.1-4.04,2.49-7.84,5.31-11.71,8.06-1.9,1.41-3.74,2.9-5.61,4.36l-2.79,2.2-2.7,2.31-5.36,4.67-5.15,4.89c-1.74,1.61-3.37,3.33-5,5.04-1.62,1.73-3.3,3.4-4.86,5.18-3.11,3.57-6.25,7.12-9.12,10.89-2.99,3.68-5.68,7.58-8.42,11.44-1.36,1.94-2.59,3.97-3.88,5.95-1.29,1.99-2.56,3.99-3.71,6.06l-3.54,6.17-3.26,6.32-1.61,3.18-1.48,3.24c-.97,2.16-1.97,4.32-2.9,6.5-1.73,4.42-3.59,8.79-5.03,13.32-3.17,8.96-5.49,18.19-7.42,27.48-3.59,18.65-4.91,37.66-3.49,56.52,2.47,37.83,15.75,74.99,37.38,106.07,21.56,31.19,51.66,56.29,86.19,72.08Z"/>
      <path class="cls-28" d="m458.37,913.9l3.87-8.45c-29.98-13.7-56.18-35.52-74.91-62.64-18.79-27.03-30.32-59.23-32.46-92.12-1.25-16.42-.08-32.97,3.03-49.15,1.69-8.06,3.68-16.08,6.44-23.85,1.24-3.93,2.88-7.72,4.36-11.56.81-1.9,1.68-3.76,2.52-5.64l1.28-2.81,1.4-2.76,2.83-5.5,3.08-5.36c1-1.8,2.11-3.54,3.23-5.27,1.13-1.72,2.19-3.49,3.37-5.18,2.39-3.35,4.72-6.75,7.32-9.94,2.48-3.29,5.23-6.36,7.92-9.47,1.35-1.55,2.82-3,4.22-4.5,1.42-1.49,2.83-2.99,4.35-4.38l4.47-4.26,4.66-4.05,2.34-2.01,2.43-1.91c1.63-1.26,3.22-2.57,4.88-3.79,3.36-2.37,6.66-4.84,10.18-7,13.81-8.99,28.93-15.92,44.62-20.93l5.94-1.71,2.97-.84,3.01-.7,6.02-1.39,6.08-1.09,3.04-.54,3.06-.39,6.13-.77,6.16-.47,3.08-.23,3.08-.09,11.48-.29c3.51,0,6.99-.41,10.48-.63,6.95-.79,13.89-1.75,20.67-3.46,3.43-.7,6.75-1.79,10.12-2.71,1.67-.52,3.31-1.11,4.97-1.66l2.48-.84c.82-.3,1.63-.64,2.44-.95l4.88-1.92,4.78-2.16c.79-.36,1.6-.71,2.39-1.09l2.33-1.2c1.55-.81,3.12-1.57,4.66-2.41,24.55-13.42,45.37-33.58,59.68-57.62,14.43-24.01,21.85-51.95,21.93-79.95h-9.29c-.09,26.37-7.05,52.61-20.63,75.2-13.46,22.61-33.06,41.6-56.15,54.22-1.44.79-2.92,1.5-4.38,2.26l-2.19,1.13c-.74.36-1.5.68-2.24,1.02l-4.49,2.03-4.59,1.8c-.77.3-1.52.62-2.29.9l-2.34.78c-1.56.51-3.1,1.08-4.67,1.56-3.17.85-6.3,1.89-9.52,2.54-6.38,1.61-12.91,2.51-19.44,3.25-3.29.2-6.56.6-9.86.59l-11.52.29-3.24.1-3.23.24-6.46.5-6.44.81-3.22.42-3.2.56-6.39,1.15-6.33,1.45-3.16.74-3.13.88c-2.08.6-4.17,1.17-6.24,1.79-16.49,5.27-32.37,12.55-46.88,21.99-3.69,2.27-7.16,4.86-10.69,7.35-1.74,1.29-3.41,2.65-5.12,3.98l-2.55,2.01-2.46,2.11-4.89,4.26-4.7,4.47c-1.59,1.47-3.08,3.04-4.56,4.6-1.48,1.58-3.01,3.1-4.43,4.73-2.83,3.26-5.71,6.5-8.32,9.94-2.73,3.35-5.18,6.92-7.69,10.44-1.24,1.77-2.36,3.62-3.54,5.43-1.17,1.82-2.34,3.64-3.39,5.53l-3.23,5.63-2.97,5.77-1.47,2.89-1.34,2.96c-.88,1.98-1.8,3.94-2.65,5.93-1.57,4.04-3.28,8.02-4.59,12.15-2.9,8.16-5,16.59-6.77,25.06-3.27,17-4.49,34.38-3.18,51.61,2.25,34.54,14.36,68.39,34.1,96.77,19.67,28.48,47.17,51.39,78.67,65.79Z"/>
      <path class="cls-26" d="m383.84,496.35c-5.43,3.39-10.6,7.15-15.79,10.88-2.57,1.9-5.06,3.9-7.58,5.87l-3.75,2.98c-1.23,1.02-2.43,2.07-3.65,3.1-2.42,2.09-4.83,4.17-7.21,6.3l-6.95,6.59c-2.33,2.19-4.54,4.49-6.74,6.8-2.19,2.32-4.43,4.6-6.54,6.99-4.21,4.8-8.41,9.61-12.3,14.68-4.01,4.98-7.68,10.21-11.35,15.44-1.82,2.63-3.51,5.34-5.25,8.03-1.73,2.69-3.43,5.4-5.01,8.18l-4.77,8.34c-1.5,2.83-2.96,5.68-4.42,8.54l-2.16,4.3-2.01,4.37c-1.32,2.92-2.66,5.84-3.91,8.79-2.38,5.96-4.83,11.9-6.82,18-4.25,12.12-7.45,24.59-10.02,37.15-1.16,6.3-2.34,12.61-3.07,18.97-.38,3.17-.84,6.35-1.1,9.53l-.74,9.54c-.27,3.18-.32,6.36-.41,9.54-.07,3.18-.19,6.36-.15,9.53.15,6.36.19,12.7.75,19.07.24,3.18.47,6.36.79,9.54l1.19,9.52c.22,1.59.4,3.17.66,4.75l.82,4.74c.56,3.15,1.11,6.31,1.75,9.45l2.14,9.38c.38,1.56.72,3.13,1.14,4.67l1.29,4.64c.88,3.09,1.73,6.18,2.7,9.24l3.07,9.13c1.01,3.05,2.2,6.03,3.37,9.02,1.19,2.98,2.32,5.99,3.63,8.91,2.6,5.86,5.22,11.72,8.22,17.39,2.85,5.74,6.08,11.27,9.3,16.81,1.62,2.76,3.39,5.43,5.1,8.13,1.73,2.69,3.47,5.38,5.34,7.97,29.11,42.06,69.61,75.89,116.29,97.23l3.87-8.45c-45.16-20.65-84.37-53.38-112.53-94.09-1.81-2.51-3.49-5.1-5.16-7.71-1.66-2.61-3.37-5.19-4.94-7.86-3.12-5.35-6.24-10.7-9-16.26-2.9-5.48-5.43-11.15-7.95-16.82-1.27-2.83-2.35-5.74-3.51-8.62-1.13-2.89-2.28-5.77-3.26-8.72l-2.97-8.83c-.94-2.96-1.76-5.96-2.62-8.94l-1.25-4.49c-.41-1.5-.74-3.01-1.1-4.52l-2.07-9.08c-.62-3.04-1.15-6.09-1.69-9.15l-.79-4.58c-.25-1.53-.43-3.07-.64-4.6l-1.15-9.21c-.31-3.07-.53-6.15-.76-9.23-.55-6.16-.58-12.31-.72-18.46-.03-3.08.08-6.15.15-9.23.09-3.08.14-6.15.4-9.23l.71-9.24c.24-3.08.7-6.15,1.06-9.22.7-6.15,1.84-12.25,2.97-18.35,2.5-12.15,5.58-24.22,9.7-35.94,1.92-5.91,4.3-11.65,6.59-17.42,1.21-2.86,2.51-5.68,3.78-8.5l1.94-4.23,2.09-4.16c1.41-2.76,2.82-5.52,4.27-8.26l4.61-8.07c1.52-2.7,3.18-5.32,4.85-7.92,1.68-2.6,3.32-5.23,5.08-7.77,3.56-5.06,7.11-10.13,10.99-14.94,3.76-4.91,7.83-9.56,11.9-14.21,2.04-2.32,4.21-4.52,6.33-6.77,2.13-2.24,4.27-4.46,6.52-6.58l6.72-6.38c2.3-2.06,4.64-4.08,6.98-6.1l3.53-3,3.63-2.88c2.43-1.91,4.85-3.84,7.33-5.68,5.02-3.61,10.02-7.25,15.28-10.53,20.77-13.48,43.51-23.98,67.19-31.49,2.97-.9,5.96-1.74,8.95-2.59l4.49-1.24,4.53-1.08,9.08-2.07,9.15-1.67,4.58-.79,4.6-.61,9.22-1.14,9.23-.73,4.62-.32,4.61-.16,9.23-.21,2.65-.09c1.48.06,2.89-.22,4.33-.24,2.83-.39,5.66-.68,8.38-1.42,1.4-.22,2.7-.77,4.08-1.07l1.99-.69,1.01-.31c.33-.12.65-.28.97-.4.65-.27,1.31-.52,1.97-.75.63-.31,1.27-.62,1.92-.9.32-.15.65-.27.97-.42l.93-.51c.62-.34,1.27-.62,1.9-.96,9.96-5.44,18.59-13.83,24.41-23.59.34-.62.69-1.24,1.07-1.84.37-.61.62-1.27.97-1.89.73-1.22,1.16-2.57,1.82-3.82.26-.66.48-1.32.76-1.97l.41-.97.31-1.01c.21-.67.46-1.33.7-1.99.16-.68.35-1.36.55-2.03.1-.34.22-.67.31-1.01l.21-1.04c.14-.69.34-1.37.49-2.05.1-.7.21-1.4.35-2.09.06-.35.16-.69.2-1.04l.11-1.06c.07-.71.2-1.41.29-2.12.03-.72.07-1.44.14-2.16.03-.36.08-.72.1-1.08v-1.1c0-.73.04-1.46.09-2.19h-9.29c-.05.63-.08,1.26-.08,1.89v.94c-.01.31-.06.62-.09.92-.06.61-.1,1.23-.11,1.85-.08.61-.19,1.2-.25,1.81l-.09.91c-.03.3-.13.59-.18.89-.12.59-.22,1.19-.29,1.79-.14.59-.31,1.16-.43,1.75l-.17.88c-.07.29-.18.57-.27.86-.18.57-.33,1.15-.46,1.73-.21.56-.42,1.12-.6,1.69l-.26.86-.36.83c-.24.55-.42,1.12-.64,1.68-.58,1.06-.92,2.22-1.56,3.26-.3.53-.5,1.1-.82,1.62-.32.51-.63,1.04-.91,1.57-4.98,8.34-12.39,15.55-20.89,20.19-.53.29-1.09.52-1.62.81l-.79.44c-.27.13-.56.23-.83.35-.55.24-1.09.5-1.63.77-.57.19-1.13.4-1.68.63-.28.11-.55.25-.83.35l-.86.26c-.57.17-1.12.41-1.69.59-1.18.24-2.28.73-3.47.9-2.31.65-4.73.87-7.15,1.22-1.24,0-2.45.27-3.72.2l-.94.03-.47.03-.24.02h-.14s-.6.02-.6.02l-9.53.22-4.77.16-4.77.33c-3.18.23-6.36.48-9.54.76l-9.52,1.18-4.76.64-4.74.81c-3.16.55-6.31,1.13-9.46,1.72l-9.39,2.13-4.68,1.12-4.64,1.29c-3.09.87-6.18,1.74-9.25,2.68-24.48,7.76-47.98,18.62-69.45,32.55Z"/>
      <path class="cls-25" d="m704.96,396.25h9.29c-.08-8.87-.72-17.74-2-26.52-1.4-8.77-3.39-17.43-5.99-25.92-2.69-8.46-6.02-16.71-9.88-24.7-3.87-7.99-8.49-15.6-13.52-22.91-5.02-7.32-10.71-14.17-16.81-20.61-3-3.27-6.27-6.28-9.49-9.33l-5.03-4.36c-1.66-1.47-3.46-2.77-5.19-4.16-13.99-10.93-29.71-19.6-46.32-25.84-8.34-3.04-16.89-5.51-25.57-7.35-8.71-1.72-17.53-2.84-26.39-3.37-8.97-.33-17.49-.21-26.16-.23H-17.79c-2.57,0-4.65,2.08-4.65,4.65h0c0,2.57,2.08,4.65,4.65,4.65h539.69c8.62.02,17.38-.09,25.68.22,8.39.5,16.75,1.56,24.99,3.19,8.22,1.75,16.31,4.08,24.21,6.96,15.73,5.91,30.61,14.12,43.86,24.47,1.63,1.32,3.35,2.55,4.92,3.94l4.77,4.13c3.05,2.89,6.15,5.74,8.99,8.84,5.78,6.1,11.18,12.58,15.92,19.52,4.76,6.92,9.14,14.13,12.8,21.69,3.66,7.56,6.81,15.37,9.36,23.38,2.46,8.04,4.34,16.24,5.67,24.54,1.21,8.32,1.81,16.72,1.89,25.13Z"/>
      <path class="cls-31" d="m723.55,396.25h9.29c-.08-9.8-.79-19.59-2.21-29.31-1.54-9.7-3.75-19.29-6.63-28.69-2.97-9.37-6.65-18.5-10.94-27.34-4.29-8.84-9.38-17.26-14.95-25.34-5.55-8.1-11.84-15.67-18.58-22.78-3.32-3.61-6.93-6.94-10.5-10.31l-5.56-4.82c-1.84-1.62-3.83-3.07-5.74-4.61-15.47-12.08-32.85-21.68-51.25-28.58-9.23-3.37-18.69-6.1-28.3-8.13-9.64-1.91-19.39-3.15-29.18-3.72l-7.35-.2-1.84-.04-.91-.02H-17.79c-2.57,0-4.65,2.08-4.65,4.65h0c0,2.57,2.08,4.65,4.65,4.65h539.69c8.7.03,17-.11,26.63.25,9.33.55,18.61,1.72,27.79,3.54,9.15,1.94,18.15,4.53,26.94,7.74,17.51,6.57,34.06,15.71,48.79,27.21,1.82,1.46,3.71,2.84,5.46,4.39l5.29,4.59c3.4,3.21,6.83,6.38,9.99,9.82,6.42,6.78,12.41,13.98,17.7,21.69,5.3,7.69,10.15,15.71,14.23,24.12,4.08,8.41,7.58,17.1,10.41,26.02,2.74,8.94,4.84,18.07,6.31,27.3,1.35,9.25,2.02,18.58,2.1,27.92Z"/>
      <path class="cls-32" d="m742.13,396.25h9.29c-.08-10.72-.86-21.45-2.42-32.1-1.68-10.63-4.1-21.15-7.27-31.45-3.25-10.27-7.29-20.29-11.99-29.97-4.71-9.69-10.28-18.92-16.38-27.77-6.09-8.86-12.97-17.16-20.36-24.96-3.65-3.95-7.58-7.61-11.5-11.29l-6.09-5.28c-2.02-1.77-4.19-3.37-6.28-5.05-16.95-13.23-36-23.76-56.17-31.32-10.12-3.7-20.49-6.69-31.03-8.92-10.56-2.11-21.25-3.46-31.98-4.08l-8.04-.22-2.01-.04-1-.02H-17.79c-2.57,0-4.65,2.08-4.65,4.65h0c0,2.57,2.08,4.65,4.65,4.65h556.7l.95.02,1.92.04,7.69.21c10.26.59,20.48,1.89,30.58,3.9,10.08,2.13,20,4.99,29.67,8.52,19.28,7.23,37.5,17.3,53.71,29.95,2,1.61,4.08,3.13,6.01,4.83l5.82,5.05c3.74,3.52,7.51,7.02,11,10.8,7.07,7.46,13.65,15.39,19.47,23.87,5.83,8.46,11.17,17.29,15.66,26.56,4.49,9.26,8.35,18.83,11.46,28.66,3.02,9.85,5.34,19.9,6.95,30.07,1.49,10.18,2.23,20.45,2.31,30.71Z"/>
      <path class="cls-14" d="m760.71,396.25h9.29c-.08-11.64-.93-23.31-2.63-34.89-1.82-11.57-4.46-23.01-7.91-34.22-3.54-11.18-7.92-22.08-13.04-32.61-5.12-10.54-11.18-20.59-17.81-30.2-6.63-9.64-14.1-18.66-22.13-27.13-3.97-4.29-8.24-8.28-12.5-12.27l-6.62-5.74c-2.2-1.92-4.55-3.66-6.83-5.49-18.43-14.38-39.14-25.84-61.09-34.06-11.01-4.03-22.3-7.29-33.76-9.7-11.49-2.3-23.12-3.77-34.77-4.44l-8.73-.24-2.18-.05-1.08-.02H-17.79c-2.57,0-4.65,2.08-4.65,4.65h0c0,2.57,2.08,4.65,4.65,4.65h556.7l1.04.02,2.1.05,8.39.23c11.19.64,22.35,2.06,33.37,4.26,11,2.32,21.84,5.44,32.4,9.31,21.06,7.89,40.94,18.89,58.63,32.69,2.19,1.75,4.45,3.42,6.56,5.27l6.35,5.51c4.09,3.83,8.19,7.66,12,11.78,7.71,8.13,14.89,16.8,21.24,26.05,6.37,9.23,12.18,18.88,17.1,28.99,4.91,10.11,9.12,20.56,12.52,31.29,3.31,10.75,5.84,21.74,7.59,32.83,1.63,11.12,2.44,22.32,2.52,33.5Z"/>
      <path class="cls-21" d="m779.3,396.25h9.29c-.08-12.56-1-25.17-2.84-37.68-1.96-12.5-4.81-24.87-8.55-36.98-3.82-12.08-8.56-23.86-14.1-35.25-5.54-11.39-12.07-22.25-19.25-32.64-7.16-10.41-15.23-20.16-23.91-29.31-4.29-4.63-8.9-8.94-13.51-13.25l-7.15-6.2c-2.38-2.07-4.91-3.96-7.38-5.93-19.9-15.53-42.28-27.92-66.01-36.8-11.89-4.37-24.1-7.88-36.5-10.48-12.42-2.49-24.98-4.08-37.56-4.79l-9.43-.26-2.36-.05-1.16-.02H-17.79c-2.57,0-4.65,2.08-4.65,4.65h0c0,2.57,2.08,4.65,4.65,4.65h556.7l1.12.02,2.27.05,9.08.25c12.12.69,24.21,2.22,36.17,4.61,11.93,2.51,23.68,5.89,35.13,10.09,22.84,8.55,44.39,20.48,63.55,35.43,2.37,1.9,4.82,3.71,7.1,5.71l6.88,5.97c4.44,4.15,8.87,8.3,13,12.76,8.35,8.81,16.12,18.2,23.02,28.22,6.91,10,13.2,20.46,18.53,31.42,5.33,10.96,9.89,22.29,13.57,33.93,3.59,11.66,6.33,23.57,8.23,35.6,1.77,12.05,2.65,24.18,2.73,36.29Z"/>
      <path class="cls-20" d="m797.88,396.25h9.29c-.08-13.49-1.07-27.02-3.05-40.47-2.11-13.43-5.17-26.73-9.18-39.75-4.1-12.99-9.2-25.65-15.15-37.88-5.96-12.23-12.97-23.91-20.68-35.07-7.7-11.18-16.36-21.65-25.68-31.48-4.61-4.97-9.55-9.61-14.51-14.23-2.54-2.24-5.1-4.46-7.68-6.66-2.56-2.22-5.27-4.26-7.92-6.37-21.38-16.68-45.43-30-70.94-39.54-12.78-4.7-25.9-8.47-39.23-11.27-13.34-2.68-26.84-4.39-40.36-5.15-3.37-.13-6.75-.21-10.12-.29l-2.53-.05-1.24-.02H-17.79c-2.57,0-4.65,2.08-4.65,4.65h0c0,2.57,2.08,4.65,4.65,4.65h556.7l1.2.02,2.44.05c3.26.07,6.52.16,9.77.28,13.05.74,26.08,2.39,38.96,4.97,12.86,2.7,25.52,6.34,37.86,10.87,24.62,9.21,47.83,22.07,68.47,38.17,2.56,2.04,5.18,4,7.65,6.15l7.41,6.43c4.78,4.46,9.56,8.94,14.01,13.74,9,9.49,17.36,19.61,24.79,30.4,7.44,10.77,14.22,22.04,19.96,33.85,5.74,11.81,10.66,24.03,14.62,36.56,3.87,12.56,6.83,25.4,8.87,38.36,1.91,12.98,2.86,26.05,2.95,39.07Z"/>
      <path class="cls-19" d="m816.47,396.25h9.29c-.08-14.41-1.13-28.88-3.26-43.26-2.25-14.36-5.52-28.59-9.82-42.51-4.39-13.9-9.83-27.44-16.2-40.52-6.37-13.08-13.86-25.57-22.11-37.5-8.24-11.95-17.49-23.15-27.45-33.66-4.93-5.3-10.21-10.27-15.51-15.2-2.72-2.4-5.45-4.77-8.2-7.12-2.73-2.38-5.63-4.56-8.47-6.81-22.86-17.82-48.57-32.08-75.86-42.29-13.67-5.03-27.71-9.06-41.96-12.05-14.27-2.87-28.71-4.7-43.15-5.51-3.6-.14-7.21-.23-10.82-.31l-2.7-.05-1.33-.02H-17.79c-2.57,0-4.65,2.08-4.65,4.65h0c0,2.57,2.08,4.65,4.65,4.65h556.7l1.28.02,2.62.05c3.49.07,6.98.17,10.47.3,13.98.78,27.95,2.56,41.75,5.33,13.79,2.89,27.36,6.8,40.59,11.66,26.4,9.87,51.27,23.67,73.4,40.92,2.74,2.18,5.55,4.29,8.2,6.59,2.66,2.28,5.31,4.58,7.94,6.89,5.13,4.77,10.24,9.58,15.01,14.71,9.64,10.17,18.6,21.01,26.57,32.57,7.98,11.54,15.23,23.62,21.4,36.28,6.16,12.65,11.43,25.76,15.67,39.2,4.16,13.47,7.33,27.23,9.5,41.13,2.06,13.91,3.07,27.92,3.16,41.86Z"/>
      <path class="cls-18" d="m612.04,396.25h9.29c-.08-4.26-.38-8.45-.95-12.58-.69-4.1-1.62-8.14-2.8-12.1-1.27-3.94-2.83-7.77-4.62-11.52-1.79-3.75-4.01-7.3-6.35-10.75-9.56-13.76-23.48-24.57-38.97-30.31-3.9-1.39-7.87-2.55-11.92-3.43-4.08-.77-8.21-1.3-12.42-1.58-1.06,0-2.12-.02-3.18-.06l-.8-.03-.42-.02H-17.79c-2.57,0-4.65,2.08-4.65,4.65h0c0,2.57,2.08,4.65,4.65,4.65h556.7l.38.02.71.03c.94.04,1.89.05,2.83.05,3.74.26,7.41.73,11.02,1.4,3.59.79,7.1,1.81,10.55,3.04,13.71,5.07,26.1,14.69,34.59,26.91,2.08,3.07,4.06,6.21,5.64,9.53,1.58,3.32,2.97,6.72,4.09,10.2,1.04,3.51,1.86,7.08,2.48,10.72.5,3.66.76,7.39.84,11.18Z"/>
      <path class="cls-15" d="m630.63,396.25h9.29c-.08-5.18-.44-10.31-1.16-15.37-.83-5.04-1.97-10-3.44-14.86-1.55-4.84-3.47-9.56-5.67-14.16-2.21-4.6-4.9-8.96-7.79-13.18-11.7-16.84-28.69-30.05-47.75-37.1-4.78-1.72-9.67-3.14-14.65-4.22-5-.96-10.08-1.61-15.21-1.94l-3.88-.08-.97-.03-.5-.02H-17.79c-2.57,0-4.65,2.08-4.65,4.65h0c0,2.57,2.08,4.65,4.65,4.65h556.7l.46.02.88.03c1.18.04,2.35.06,3.53.07,4.67.31,9.28.89,13.82,1.76,4.51.98,8.94,2.27,13.28,3.82,17.28,6.4,32.73,18.41,43.36,33.71,2.61,3.84,5.07,7.79,7.07,11.97,1.99,4.17,3.74,8.45,5.15,12.84,1.32,4.42,2.36,8.91,3.12,13.48.64,4.59.97,9.25,1.05,13.97Z"/>
      <path class="cls-17" d="m649.21,396.25h9.29c-.08-6.1-.51-12.16-1.37-18.15-.97-5.97-2.33-11.86-4.08-17.63-1.84-5.75-4.11-11.35-6.73-16.79-2.62-5.45-5.8-10.62-9.22-15.61-13.84-19.92-33.9-35.52-56.52-43.9-5.67-2.05-11.47-3.73-17.38-5-5.93-1.15-11.94-1.92-18.01-2.3l-4.57-.11-1.14-.04-.58-.02H-17.79c-2.57,0-4.65,2.08-4.65,4.65h0c0,2.57,2.08,4.65,4.65,4.65h410.08s103.68,0,103.68,0h42.93l.54.02,1.06.04,4.22.09c5.6.36,11.14,1.06,16.61,2.12,5.44,1.17,10.78,2.72,16.01,4.61,20.84,7.72,39.37,22.13,52.14,40.5,3.15,4.61,6.09,9.38,8.5,14.4,2.41,5.02,4.5,10.18,6.2,15.47,1.61,5.32,2.85,10.75,3.76,16.25.78,5.53,1.18,11.12,1.26,16.76Z"/>
      <path class="cls-16" d="m667.79,396.25h9.29c-.08-7.03-.58-14.02-1.58-20.94-1.12-6.9-2.68-13.71-4.71-20.39-2.12-6.65-4.74-13.14-7.78-19.43-3.04-6.29-6.7-12.28-10.65-18.05-15.98-22.99-39.11-41-65.3-50.7-6.56-2.38-13.28-4.32-20.11-5.78-6.86-1.34-13.8-2.22-20.8-2.65l-5.26-.13-1.32-.04-.67-.02H-17.79c-2.57,0-4.65,2.08-4.65,4.65h0c0,2.57,2.08,4.65,4.65,4.65h556.7l.62.02,1.23.04,4.92.12c6.53.4,13.01,1.23,19.4,2.47,6.37,1.36,12.63,3.17,18.74,5.39,24.41,9.04,46,25.85,60.91,47.3,3.69,5.38,7.1,10.96,9.94,16.83,2.83,5.87,5.27,11.91,7.25,18.11,1.89,6.23,3.35,12.58,4.39,19.01.92,6.46,1.39,12.98,1.47,19.55Z"/>
      <path class="cls-23" d="m686.38,396.25h9.29c-.08-7.95-.65-15.88-1.79-23.73-1.26-7.83-3.04-15.57-5.35-23.16-2.4-7.56-5.38-14.92-8.83-22.06-3.46-7.14-7.59-13.94-12.08-20.48-18.12-26.07-44.32-46.47-74.07-57.5-7.45-2.71-15.08-4.92-22.84-6.57-7.78-1.53-15.67-2.53-23.59-3.01-7.64-.29-16.63-.2-25.21-.21H-17.79c-2.57,0-4.65,2.08-4.65,4.65h0c0,2.57,2.08,4.65,4.65,4.65h556.7l.71.02,1.4.04,5.61.14c7.46.45,14.88,1.39,22.2,2.83,7.3,1.55,14.47,3.63,21.47,6.17,27.97,10.36,52.64,29.57,69.69,54.1,4.22,6.15,8.12,12.54,11.37,19.26,3.24,6.72,6.04,13.64,8.31,20.75,2.17,7.13,3.85,14.41,5.03,21.78,1.07,7.39,1.6,14.85,1.68,22.34Z"/>
      <path class="cls-22" d="m392.3,341.74h146.61l.29.02.53.03c.71.04,1.43.04,2.14.03,2.81.21,5.54.56,8.23,1.05,2.66.6,5.26,1.36,7.82,2.26,5.06,1.95,9.95,4.57,14.33,8.03.52.46,1.14.8,1.64,1.3.51.47,1.04.93,1.59,1.36.97,1.01,2.06,1.89,2.97,2.96,1.91,2.03,3.75,4.15,5.28,6.47,1.54,2.3,3.04,4.63,4.2,7.1,1.16,2.47,2.2,4.99,3.04,7.57.76,2.61,1.36,5.25,1.84,7.95.36,2.73.55,5.52.63,8.39h9.29c-.08-3.33-.31-6.59-.74-9.79-.55-3.17-1.26-6.28-2.16-9.34-.99-3.03-2.2-5.99-3.57-8.88-1.37-2.9-3.11-5.63-4.92-8.32-7.41-10.68-18.27-19.1-30.2-23.51-3.01-1.06-6.06-1.95-9.19-2.65-3.15-.58-6.35-.99-9.63-1.23-.83,0-1.66,0-2.49-.04l-.62-.03-.34-.02H-17.79c-2.57,0-4.65,2.08-4.65,4.65h0c0,2.57,2.08,4.65,4.65,4.65h410.08Z"/>
    </g>
  </g>
</svg>