<?xml version="1.0" encoding="UTF-8"?>
<svg id="Calque_2" data-name="Calque 2" xmlns="http://www.w3.org/2000/svg" xmlns:xlink="http://www.w3.org/1999/xlink" viewBox="0 0 1038.5 1468.74">
  <defs>
    <style>
      .cls-1 {
        fill: none;
      }

      .cls-2 {
        clip-path: url(#clippath);
      }

      .cls-3 {
        fill: url(#Dégradé_sans_nom_7);
      }

      .cls-4 {
        fill: url(#Dégradé_sans_nom_7-56);
      }

      .cls-5 {
        fill: url(#Dégradé_sans_nom_7-58);
      }

      .cls-6 {
        fill: url(#Dégradé_sans_nom_7-59);
      }

      .cls-7 {
        fill: url(#Dégradé_sans_nom_7-53);
      }

      .cls-8 {
        fill: url(#Dégradé_sans_nom_7-51);
      }

      .cls-9 {
        fill: url(#Dégradé_sans_nom_7-50);
      }

      .cls-10 {
        fill: url(#Dégradé_sans_nom_7-57);
      }

      .cls-11 {
        fill: url(#Dégradé_sans_nom_7-55);
      }

      .cls-12 {
        fill: url(#Dégradé_sans_nom_7-52);
      }

      .cls-13 {
        fill: url(#Dégradé_sans_nom_7-54);
      }

      .cls-14 {
        fill: url(#Dégradé_sans_nom_7-47);
      }

      .cls-15 {
        fill: url(#Dégradé_sans_nom_7-44);
      }

      .cls-16 {
        fill: url(#Dégradé_sans_nom_7-45);
      }

      .cls-17 {
        fill: url(#Dégradé_sans_nom_7-46);
      }

      .cls-18 {
        fill: url(#Dégradé_sans_nom_7-43);
      }

      .cls-19 {
        fill: url(#Dégradé_sans_nom_7-40);
      }

      .cls-20 {
        fill: url(#Dégradé_sans_nom_7-41);
      }

      .cls-21 {
        fill: url(#Dégradé_sans_nom_7-42);
      }

      .cls-22 {
        fill: url(#Dégradé_sans_nom_7-48);
      }

      .cls-23 {
        fill: url(#Dégradé_sans_nom_7-49);
      }

      .cls-24 {
        fill: url(#Dégradé_sans_nom_7-17);
      }

      .cls-25 {
        fill: url(#Dégradé_sans_nom_7-16);
      }

      .cls-26 {
        fill: url(#Dégradé_sans_nom_7-11);
      }

      .cls-27 {
        fill: url(#Dégradé_sans_nom_7-10);
      }

      .cls-28 {
        fill: url(#Dégradé_sans_nom_7-19);
      }

      .cls-29 {
        fill: url(#Dégradé_sans_nom_7-18);
      }

      .cls-30 {
        fill: url(#Dégradé_sans_nom_7-13);
      }

      .cls-31 {
        fill: url(#Dégradé_sans_nom_7-12);
      }

      .cls-32 {
        fill: url(#Dégradé_sans_nom_7-15);
      }

      .cls-33 {
        fill: url(#Dégradé_sans_nom_7-14);
      }

      .cls-34 {
        fill: url(#Dégradé_sans_nom_7-30);
      }

      .cls-35 {
        fill: url(#Dégradé_sans_nom_7-35);
      }

      .cls-36 {
        fill: url(#Dégradé_sans_nom_7-37);
      }

      .cls-37 {
        fill: url(#Dégradé_sans_nom_7-36);
      }

      .cls-38 {
        fill: url(#Dégradé_sans_nom_7-34);
      }

      .cls-39 {
        fill: url(#Dégradé_sans_nom_7-33);
      }

      .cls-40 {
        fill: url(#Dégradé_sans_nom_7-32);
      }

      .cls-41 {
        fill: url(#Dégradé_sans_nom_7-31);
      }

      .cls-42 {
        fill: url(#Dégradé_sans_nom_7-39);
      }

      .cls-43 {
        fill: url(#Dégradé_sans_nom_7-38);
      }

      .cls-44 {
        fill: url(#Dégradé_sans_nom_7-22);
      }

      .cls-45 {
        fill: url(#Dégradé_sans_nom_7-27);
      }

      .cls-46 {
        fill: url(#Dégradé_sans_nom_7-26);
      }

      .cls-47 {
        fill: url(#Dégradé_sans_nom_7-24);
      }

      .cls-48 {
        fill: url(#Dégradé_sans_nom_7-25);
      }

      .cls-49 {
        fill: url(#Dégradé_sans_nom_7-21);
      }

      .cls-50 {
        fill: url(#Dégradé_sans_nom_7-20);
      }

      .cls-51 {
        fill: url(#Dégradé_sans_nom_7-28);
      }

      .cls-52 {
        fill: url(#Dégradé_sans_nom_7-29);
      }

      .cls-53 {
        fill: url(#Dégradé_sans_nom_7-23);
      }

      .cls-54 {
        fill: url(#Dégradé_sans_nom_7-61);
      }

      .cls-55 {
        fill: url(#Dégradé_sans_nom_7-63);
      }

      .cls-56 {
        fill: url(#Dégradé_sans_nom_7-60);
      }

      .cls-57 {
        fill: url(#Dégradé_sans_nom_7-65);
      }

      .cls-58 {
        fill: url(#Dégradé_sans_nom_7-62);
      }

      .cls-59 {
        fill: url(#Dégradé_sans_nom_7-64);
      }

      .cls-60 {
        fill: url(#Dégradé_sans_nom_7-9);
      }

      .cls-61 {
        fill: url(#Dégradé_sans_nom_7-7);
      }

      .cls-62 {
        fill: url(#Dégradé_sans_nom_7-3);
      }

      .cls-63 {
        fill: url(#Dégradé_sans_nom_7-4);
      }

      .cls-64 {
        fill: url(#Dégradé_sans_nom_7-2);
      }

      .cls-65 {
        fill: url(#Dégradé_sans_nom_7-8);
      }

      .cls-66 {
        fill: url(#Dégradé_sans_nom_7-5);
      }

      .cls-67 {
        fill: url(#Dégradé_sans_nom_7-6);
      }
    </style>
    <clipPath id="clippath">
      <rect class="cls-1" x="-215.12" y="215.12" width="1468.74" height="1038.5" transform="translate(1253.62 215.12) rotate(90)"/>
    </clipPath>
    <linearGradient id="Dégradé_sans_nom_7" data-name="Dégradé sans nom 7" x1="416.03" y1="127.55" x2="1494.97" y2="127.55" gradientUnits="userSpaceOnUse">
      <stop offset="0" stop-color="#9fd7f0"/>
      <stop offset=".5" stop-color="#bda6d0"/>
      <stop offset="1" stop-color="#f6b29a"/>
    </linearGradient>
    <linearGradient id="Dégradé_sans_nom_7-2" data-name="Dégradé sans nom 7" x1="397.45" y1="136.84" y2="136.84" xlink:href="#Dégradé_sans_nom_7"/>
    <linearGradient id="Dégradé_sans_nom_7-3" data-name="Dégradé sans nom 7" x1="378.86" y1="146.13" y2="146.13" xlink:href="#Dégradé_sans_nom_7"/>
    <linearGradient id="Dégradé_sans_nom_7-4" data-name="Dégradé sans nom 7" x1="360.28" y1="155.42" y2="155.42" xlink:href="#Dégradé_sans_nom_7"/>
    <linearGradient id="Dégradé_sans_nom_7-5" data-name="Dégradé sans nom 7" x1="341.69" y1="164.71" y2="164.71" xlink:href="#Dégradé_sans_nom_7"/>
    <linearGradient id="Dégradé_sans_nom_7-6" data-name="Dégradé sans nom 7" x1="323.11" y1="174.01" y2="174.01" xlink:href="#Dégradé_sans_nom_7"/>
    <linearGradient id="Dégradé_sans_nom_7-7" data-name="Dégradé sans nom 7" x1="304.53" y1="183.3" y2="183.3" xlink:href="#Dégradé_sans_nom_7"/>
    <linearGradient id="Dégradé_sans_nom_7-8" data-name="Dégradé sans nom 7" x1="508.95" y1="81.09" y2="81.09" xlink:href="#Dégradé_sans_nom_7"/>
    <linearGradient id="Dégradé_sans_nom_7-9" data-name="Dégradé sans nom 7" x1="490.37" y1="90.38" y2="90.38" xlink:href="#Dégradé_sans_nom_7"/>
    <linearGradient id="Dégradé_sans_nom_7-10" data-name="Dégradé sans nom 7" x1="471.78" y1="99.67" y2="99.67" xlink:href="#Dégradé_sans_nom_7"/>
    <linearGradient id="Dégradé_sans_nom_7-11" data-name="Dégradé sans nom 7" x1="453.2" y1="108.96" y2="108.96" xlink:href="#Dégradé_sans_nom_7"/>
    <linearGradient id="Dégradé_sans_nom_7-12" data-name="Dégradé sans nom 7" x1="434.61" y1="118.26" y2="118.26" xlink:href="#Dégradé_sans_nom_7"/>
    <linearGradient id="Dégradé_sans_nom_7-13" data-name="Dégradé sans nom 7" x1="527.53" y1="71.79" y2="71.79" xlink:href="#Dégradé_sans_nom_7"/>
    <linearGradient id="Dégradé_sans_nom_7-14" data-name="Dégradé sans nom 7" x1="437.62" y1="1513.27" x2="1062.76" y2="580.98" xlink:href="#Dégradé_sans_nom_7"/>
    <linearGradient id="Dégradé_sans_nom_7-15" data-name="Dégradé sans nom 7" x1="427.06" y1="1506.18" x2="1052.19" y2="573.89" xlink:href="#Dégradé_sans_nom_7"/>
    <linearGradient id="Dégradé_sans_nom_7-16" data-name="Dégradé sans nom 7" x1="416.49" y1="1499.1" x2="1041.63" y2="566.81" xlink:href="#Dégradé_sans_nom_7"/>
    <linearGradient id="Dégradé_sans_nom_7-17" data-name="Dégradé sans nom 7" x1="405.93" y1="1492.01" x2="1031.06" y2="559.73" xlink:href="#Dégradé_sans_nom_7"/>
    <linearGradient id="Dégradé_sans_nom_7-18" data-name="Dégradé sans nom 7" x1="395.36" y1="1484.93" x2="1020.5" y2="552.64" xlink:href="#Dégradé_sans_nom_7"/>
    <linearGradient id="Dégradé_sans_nom_7-19" data-name="Dégradé sans nom 7" x1="384.8" y1="1477.84" x2="1009.94" y2="545.56" xlink:href="#Dégradé_sans_nom_7"/>
    <linearGradient id="Dégradé_sans_nom_7-20" data-name="Dégradé sans nom 7" x1="374.23" y1="1470.76" x2="999.37" y2="538.47" xlink:href="#Dégradé_sans_nom_7"/>
    <linearGradient id="Dégradé_sans_nom_7-21" data-name="Dégradé sans nom 7" x1="490.45" y1="1548.69" x2="1115.58" y2="616.4" xlink:href="#Dégradé_sans_nom_7"/>
    <linearGradient id="Dégradé_sans_nom_7-22" data-name="Dégradé sans nom 7" x1="479.88" y1="1541.6" x2="1105.02" y2="609.31" xlink:href="#Dégradé_sans_nom_7"/>
    <linearGradient id="Dégradé_sans_nom_7-23" data-name="Dégradé sans nom 7" x1="469.32" y1="1534.52" x2="1094.45" y2="602.23" xlink:href="#Dégradé_sans_nom_7"/>
    <linearGradient id="Dégradé_sans_nom_7-24" data-name="Dégradé sans nom 7" x1="458.75" y1="1527.43" x2="1083.89" y2="595.15" xlink:href="#Dégradé_sans_nom_7"/>
    <linearGradient id="Dégradé_sans_nom_7-25" data-name="Dégradé sans nom 7" x1="448.19" y1="1520.35" x2="1073.32" y2="588.06" xlink:href="#Dégradé_sans_nom_7"/>
    <linearGradient id="Dégradé_sans_nom_7-26" data-name="Dégradé sans nom 7" x1="501.01" y1="1555.77" x2="1126.15" y2="623.48" xlink:href="#Dégradé_sans_nom_7"/>
    <linearGradient id="Dégradé_sans_nom_7-27" data-name="Dégradé sans nom 7" x1="246.5" y1="1385.11" x2="871.63" y2="452.82" xlink:href="#Dégradé_sans_nom_7"/>
    <linearGradient id="Dégradé_sans_nom_7-28" data-name="Dégradé sans nom 7" x1="232.37" y1="1375.64" x2="857.51" y2="443.35" xlink:href="#Dégradé_sans_nom_7"/>
    <linearGradient id="Dégradé_sans_nom_7-29" data-name="Dégradé sans nom 7" x1="218.25" y1="1366.17" x2="843.39" y2="433.88" xlink:href="#Dégradé_sans_nom_7"/>
    <linearGradient id="Dégradé_sans_nom_7-30" data-name="Dégradé sans nom 7" x1="204.12" y1="1356.7" x2="829.26" y2="424.41" xlink:href="#Dégradé_sans_nom_7"/>
    <linearGradient id="Dégradé_sans_nom_7-31" data-name="Dégradé sans nom 7" x1="190" y1="1347.22" x2="815.13" y2="414.94" xlink:href="#Dégradé_sans_nom_7"/>
    <linearGradient id="Dégradé_sans_nom_7-32" data-name="Dégradé sans nom 7" x1="175.87" y1="1337.75" x2="801.01" y2="405.46" xlink:href="#Dégradé_sans_nom_7"/>
    <linearGradient id="Dégradé_sans_nom_7-33" data-name="Dégradé sans nom 7" x1="161.74" y1="1328.28" x2="786.88" y2="395.99" xlink:href="#Dégradé_sans_nom_7"/>
    <linearGradient id="Dégradé_sans_nom_7-34" data-name="Dégradé sans nom 7" x1="317.13" y1="1432.47" x2="942.27" y2="500.19" xlink:href="#Dégradé_sans_nom_7"/>
    <linearGradient id="Dégradé_sans_nom_7-35" data-name="Dégradé sans nom 7" x1="303.01" y1="1423" x2="928.15" y2="490.71" xlink:href="#Dégradé_sans_nom_7"/>
    <linearGradient id="Dégradé_sans_nom_7-36" data-name="Dégradé sans nom 7" x1="288.88" y1="1413.53" x2="914.02" y2="481.24" xlink:href="#Dégradé_sans_nom_7"/>
    <linearGradient id="Dégradé_sans_nom_7-37" data-name="Dégradé sans nom 7" x1="274.75" y1="1404.05" x2="899.89" y2="471.77" xlink:href="#Dégradé_sans_nom_7"/>
    <linearGradient id="Dégradé_sans_nom_7-38" data-name="Dégradé sans nom 7" x1="260.62" y1="1394.58" x2="885.76" y2="462.29" xlink:href="#Dégradé_sans_nom_7"/>
    <linearGradient id="Dégradé_sans_nom_7-39" data-name="Dégradé sans nom 7" x1="331.26" y1="1441.95" x2="956.4" y2="509.66" xlink:href="#Dégradé_sans_nom_7"/>
    <linearGradient id="Dégradé_sans_nom_7-40" data-name="Dégradé sans nom 7" x1="-390.65" y1="587.12" x2="239.48" y2="587.12" xlink:href="#Dégradé_sans_nom_7"/>
    <linearGradient id="Dégradé_sans_nom_7-41" data-name="Dégradé sans nom 7" x1="-372.07" y1="577.83" x2="220.89" y2="577.83" xlink:href="#Dégradé_sans_nom_7"/>
    <linearGradient id="Dégradé_sans_nom_7-42" data-name="Dégradé sans nom 7" x1="-353.48" y1="568.53" x2="202.31" y2="568.53" xlink:href="#Dégradé_sans_nom_7"/>
    <linearGradient id="Dégradé_sans_nom_7-43" data-name="Dégradé sans nom 7" x1="-334.9" y1="559.24" x2="183.72" y2="559.24" xlink:href="#Dégradé_sans_nom_7"/>
    <linearGradient id="Dégradé_sans_nom_7-44" data-name="Dégradé sans nom 7" x1="-316.31" y1="549.95" x2="165.14" y2="549.95" xlink:href="#Dégradé_sans_nom_7"/>
    <linearGradient id="Dégradé_sans_nom_7-45" data-name="Dégradé sans nom 7" x1="-297.73" y1="540.66" x2="146.56" y2="540.66" xlink:href="#Dégradé_sans_nom_7"/>
    <linearGradient id="Dégradé_sans_nom_7-46" data-name="Dégradé sans nom 7" x1="-279.15" y1="531.37" x2="127.97" y2="531.37" xlink:href="#Dégradé_sans_nom_7"/>
    <linearGradient id="Dégradé_sans_nom_7-47" data-name="Dégradé sans nom 7" x1="-483.57" y1="633.58" x2="332.4" y2="633.58" xlink:href="#Dégradé_sans_nom_7"/>
    <linearGradient id="Dégradé_sans_nom_7-48" data-name="Dégradé sans nom 7" x1="-464.99" y1="624.29" x2="313.81" y2="624.29" xlink:href="#Dégradé_sans_nom_7"/>
    <linearGradient id="Dégradé_sans_nom_7-49" data-name="Dégradé sans nom 7" x1="-446.4" y1="614.99" x2="295.23" y2="614.99" xlink:href="#Dégradé_sans_nom_7"/>
    <linearGradient id="Dégradé_sans_nom_7-50" data-name="Dégradé sans nom 7" x1="-427.82" y1="605.7" x2="276.64" y2="605.7" xlink:href="#Dégradé_sans_nom_7"/>
    <linearGradient id="Dégradé_sans_nom_7-51" data-name="Dégradé sans nom 7" x1="-409.24" y1="596.41" x2="258.06" y2="596.41" xlink:href="#Dégradé_sans_nom_7"/>
    <linearGradient id="Dégradé_sans_nom_7-52" data-name="Dégradé sans nom 7" x1="-502.16" y1="642.87" x2="350.98" y2="642.87" xlink:href="#Dégradé_sans_nom_7"/>
    <linearGradient id="Dégradé_sans_nom_7-53" data-name="Dégradé sans nom 7" x1="-390.65" y1="272.05" x2="239.48" y2="272.05" xlink:href="#Dégradé_sans_nom_7"/>
    <linearGradient id="Dégradé_sans_nom_7-54" data-name="Dégradé sans nom 7" x1="-372.07" y1="281.35" x2="220.89" y2="281.35" xlink:href="#Dégradé_sans_nom_7"/>
    <linearGradient id="Dégradé_sans_nom_7-55" data-name="Dégradé sans nom 7" x1="-353.48" y1="290.64" x2="202.31" y2="290.64" xlink:href="#Dégradé_sans_nom_7"/>
    <linearGradient id="Dégradé_sans_nom_7-56" data-name="Dégradé sans nom 7" x1="-334.9" y1="299.93" x2="183.72" y2="299.93" xlink:href="#Dégradé_sans_nom_7"/>
    <linearGradient id="Dégradé_sans_nom_7-57" data-name="Dégradé sans nom 7" x1="-316.31" y1="309.22" x2="165.14" y2="309.22" xlink:href="#Dégradé_sans_nom_7"/>
    <linearGradient id="Dégradé_sans_nom_7-58" data-name="Dégradé sans nom 7" x1="-297.73" y1="318.51" x2="146.56" y2="318.51" xlink:href="#Dégradé_sans_nom_7"/>
    <linearGradient id="Dégradé_sans_nom_7-59" data-name="Dégradé sans nom 7" x1="-279.15" y1="327.81" x2="127.97" y2="327.81" xlink:href="#Dégradé_sans_nom_7"/>
    <linearGradient id="Dégradé_sans_nom_7-60" data-name="Dégradé sans nom 7" x1="-483.57" y1="225.59" x2="332.4" y2="225.59" xlink:href="#Dégradé_sans_nom_7"/>
    <linearGradient id="Dégradé_sans_nom_7-61" data-name="Dégradé sans nom 7" x1="-464.99" y1="234.89" x2="313.81" y2="234.89" xlink:href="#Dégradé_sans_nom_7"/>
    <linearGradient id="Dégradé_sans_nom_7-62" data-name="Dégradé sans nom 7" x1="-446.4" y1="244.18" x2="295.23" y2="244.18" xlink:href="#Dégradé_sans_nom_7"/>
    <linearGradient id="Dégradé_sans_nom_7-63" data-name="Dégradé sans nom 7" x1="-427.82" y1="253.47" x2="276.64" y2="253.47" xlink:href="#Dégradé_sans_nom_7"/>
    <linearGradient id="Dégradé_sans_nom_7-64" data-name="Dégradé sans nom 7" x1="-409.24" y1="262.76" x2="258.06" y2="262.76" xlink:href="#Dégradé_sans_nom_7"/>
    <linearGradient id="Dégradé_sans_nom_7-65" data-name="Dégradé sans nom 7" x1="-502.16" y1="216.3" x2="350.98" y2="216.3" xlink:href="#Dégradé_sans_nom_7"/>
  </defs>
  <g id="Layer_1" data-name="Layer 1">
    <g class="cls-2">
      <path class="cls-3" d="m425.32,0h-9.29c.12,12.91,1.05,25.81,2.91,38.6,2.04,12.76,4.94,25.37,8.72,37.72,3.91,12.31,8.75,24.32,14.38,35.94l4.42,8.62c1.54,2.84,3.2,5.61,4.79,8.42,1.55,2.83,3.35,5.52,5.08,8.24,1.74,2.72,3.45,5.46,5.37,8.06,7.3,10.66,15.59,20.62,24.46,29.99,4.37,4.76,9.12,9.13,13.81,13.57l7.32,6.34c1.2,1.08,2.47,2.08,3.74,3.07l3.81,2.99c20.36,15.91,43.23,28.52,67.41,37.6,12.14,4.43,24.57,8.01,37.21,10.69,12.67,2.51,25.51,4.14,38.4,4.9,13.01.49,25.57.31,38.27.34h798.83v-9.29h-798.83c-12.66-.03-25.46.13-37.8-.33-12.43-.74-24.79-2.31-37-4.72-12.18-2.58-24.15-6.04-35.84-10.3-23.29-8.75-45.33-20.9-64.95-36.23l-3.67-2.88c-1.23-.95-2.45-1.92-3.61-2.96l-7.06-6.11c-4.52-4.28-9.1-8.49-13.31-13.08-8.55-9.03-16.55-18.63-23.58-28.9-1.86-2.5-3.5-5.14-5.18-7.76-1.67-2.62-3.41-5.21-4.9-7.94-1.54-2.71-3.13-5.38-4.62-8.11l-4.25-8.31c-5.42-11.2-10.09-22.76-13.86-34.62-3.64-11.9-6.43-24.05-8.4-36.34-1.79-12.32-2.68-24.75-2.8-37.2Z"/>
      <path class="cls-64" d="m406.74,0h-9.29c.12,13.84,1.12,27.67,3.12,41.39,2.18,13.69,5.29,27.22,9.36,40.48,4.19,13.22,9.39,26.11,15.44,38.58l4.74,9.25c1.65,3.04,3.43,6.02,5.14,9.03,1.67,3.04,3.59,5.92,5.46,8.84,1.87,2.92,3.71,5.85,5.76,8.64,7.84,11.43,16.72,22.11,26.24,32.16,4.69,5.1,9.78,9.8,14.82,14.55l7.85,6.8c1.29,1.15,2.65,2.23,4.02,3.29l4.08,3.21c21.83,17.06,46.37,30.6,72.33,40.34,13.02,4.76,26.37,8.61,39.94,11.48,13.6,2.7,27.37,4.45,41.19,5.25l10.37.27,2.59.06,1.29.03h823.79v-9.29h-798.83c-12.74-.04-25.08.15-38.75-.35-13.36-.78-26.66-2.47-39.8-5.08-13.1-2.77-25.99-6.49-38.57-11.09-25.07-9.41-48.77-22.49-69.87-38.97l-3.95-3.1c-1.32-1.03-2.63-2.06-3.88-3.18l-7.58-6.57c-4.86-4.59-9.79-9.13-14.31-14.06-9.2-9.71-17.78-20.03-25.35-31.07-1.99-2.69-3.76-5.53-5.57-8.35-1.8-2.82-3.66-5.61-5.27-8.54-1.65-2.91-3.37-5.78-4.97-8.72l-4.58-8.94c-5.84-12.05-10.86-24.49-14.91-37.26-3.92-12.81-6.93-25.88-9.04-39.1-1.93-13.25-2.89-26.62-3.01-39.99Z"/>
      <path class="cls-62" d="m388.15,0h-9.29c.12,14.76,1.19,29.53,3.33,44.18,2.32,14.62,5.65,29.08,9.99,43.25,4.48,14.12,10.03,27.89,16.49,41.21l5.06,9.88c1.76,3.25,3.65,6.43,5.49,9.65,1.79,3.24,3.84,6.32,5.83,9.44,2,3.11,3.96,6.25,6.16,9.23,8.37,12.2,17.85,23.61,28.01,34.34,5.01,5.44,10.44,10.47,15.82,15.53l8.38,7.26c1.38,1.23,2.83,2.38,4.29,3.51l4.36,3.43c23.31,18.2,49.52,32.68,77.25,43.09,13.91,5.09,28.18,9.2,42.67,12.26,14.53,2.89,29.23,4.75,43.99,5.61l11.07.3,2.77.06,1.37.03h823.79v-9.29h-823.79l-1.33-.03-2.68-.06-10.72-.29c-14.29-.83-28.53-2.64-42.59-5.43-14.03-2.96-27.84-6.94-41.3-11.87-26.85-10.07-52.22-24.09-74.79-41.71l-4.22-3.32c-1.41-1.1-2.82-2.21-4.15-3.4l-8.11-7.03c-5.21-4.91-10.47-9.77-15.32-15.04-9.84-10.39-19.02-21.44-27.12-33.25-2.12-2.88-4.03-5.92-5.96-8.93-1.93-3.02-3.91-6-5.64-9.14-1.77-3.11-3.61-6.19-5.31-9.34l-4.9-9.57c-6.25-12.9-11.63-26.22-15.96-39.9-4.2-13.71-7.43-27.71-9.68-41.87-2.07-14.18-3.1-28.48-3.22-42.78Z"/>
      <path class="cls-63" d="m369.57,0h-9.29c.12,15.68,1.26,31.38,3.54,46.96,2.46,15.55,6,30.94,10.63,46.01,4.76,15.03,10.66,29.68,17.54,43.85l5.39,10.51c1.88,3.46,3.88,6.85,5.84,10.26,1.91,3.44,4.08,6.73,6.19,10.04,2.12,3.31,4.22,6.64,6.55,9.81,8.91,12.97,18.98,25.11,29.78,36.51,5.34,5.78,11.1,11.13,16.82,16.51l8.91,7.72c1.47,1.3,3.01,2.53,4.56,3.74l4.63,3.65c24.79,19.35,52.66,34.76,82.17,45.83,14.8,5.42,29.98,9.79,45.4,13.04,15.45,3.08,31.09,5.06,46.78,5.97l11.76.32,2.94.06,1.46.03h823.79v-9.29h-823.79l-1.41-.03-2.85-.06-11.41-.31c-15.22-.88-30.39-2.81-45.38-5.79-14.96-3.16-29.68-7.4-44.04-12.65-28.62-10.73-55.66-25.68-79.71-44.46l-4.5-3.54c-1.5-1.17-3-2.36-4.42-3.63l-8.64-7.49c-5.55-5.22-11.15-10.41-16.32-16.02-10.48-11.06-20.26-22.84-28.9-35.43-2.26-3.08-4.29-6.31-6.35-9.52-2.05-3.22-4.16-6.4-6.01-9.74-1.89-3.31-3.84-6.6-5.66-9.96l-5.23-10.2c-6.67-13.74-12.39-27.95-17.01-42.53-4.49-14.62-7.92-29.54-10.32-44.63-2.21-15.12-3.31-30.35-3.43-45.57Z"/>
      <path class="cls-66" d="m350.99,0h-9.29c.12,16.6,1.32,33.24,3.75,49.75,2.6,16.49,6.36,32.8,11.27,48.78,5.04,15.94,11.3,31.47,18.59,46.49l5.71,11.14c1.99,3.67,4.11,7.26,6.18,10.88,2.03,3.65,4.32,7.13,6.56,10.64,2.25,3.51,4.48,7.03,6.94,10.4,9.44,13.74,20.11,26.61,31.56,38.69,5.66,6.12,11.75,11.8,17.83,17.49l9.44,8.19c1.56,1.38,3.19,2.68,4.83,3.96l4.91,3.86c26.27,20.5,55.81,36.84,87.1,48.57,15.69,5.75,31.78,10.39,48.13,13.83,16.38,3.27,32.96,5.37,49.57,6.32l12.46.34,3.11.07,1.54.03h823.79v-9.29h-823.79l-1.5-.03-3.03-.07-12.11-.33c-16.15-.93-32.26-2.97-48.18-6.15-15.89-3.35-31.52-7.85-46.77-13.44-30.4-11.39-59.1-27.27-84.64-47.2l-4.77-3.76c-1.59-1.25-3.18-2.51-4.69-3.85l-9.17-7.96c-5.9-5.54-11.83-11.05-17.33-17-11.13-11.74-21.49-24.25-30.67-37.6-2.39-3.27-4.56-6.69-6.74-10.11-2.18-3.41-4.41-6.8-6.38-10.34-2.01-3.52-4.08-7.01-6.01-10.57l-5.55-10.83c-7.09-14.59-13.16-29.68-18.07-45.17-4.77-15.52-8.42-31.37-10.95-47.4-2.35-16.05-3.52-32.22-3.64-48.36Z"/>
      <path class="cls-67" d="m332.4,0h-9.29c.12,17.53,1.39,35.1,3.96,52.54,2.74,17.42,6.71,34.66,11.91,51.54,5.33,16.84,11.94,33.26,19.65,49.12l6.04,11.77c2.1,3.87,4.34,7.67,6.53,11.49,2.15,3.85,4.56,7.53,6.93,11.24,2.38,3.71,4.74,7.43,7.33,10.98,9.98,14.51,21.24,28.1,33.33,40.86,5.98,6.45,12.41,12.46,18.83,18.47l9.97,8.65c1.65,1.45,3.37,2.83,5.1,4.18l5.18,4.08c27.75,21.65,58.95,38.92,92.02,51.31,16.58,6.08,33.59,10.98,50.86,14.61,17.31,3.46,34.82,5.68,52.37,6.68,4.38.16,8.77.27,13.15.37l3.29.07,1.62.03h823.79v-9.29h-823.79l-1.58-.03-3.2-.07-12.8-.35c-17.08-.97-34.13-3.14-50.97-6.5-16.81-3.54-33.36-8.3-49.5-14.22-32.18-12.05-62.55-28.86-89.56-49.94l-5.05-3.97c-1.69-1.32-3.36-2.65-4.97-4.07l-9.7-8.42c-6.25-5.85-12.51-11.7-18.33-17.98-11.77-12.42-22.73-25.65-32.44-39.78-2.53-3.46-4.82-7.08-7.13-10.69-2.31-3.61-4.66-7.2-6.75-10.95-2.13-3.72-4.31-7.42-6.36-11.19l-5.87-11.45c-7.5-15.44-13.93-31.41-19.12-47.8-5.06-16.43-8.92-33.21-11.59-50.16-2.5-16.98-3.73-34.08-3.85-51.15Z"/>
      <path class="cls-61" d="m313.82,0h-9.29c.12,18.45,1.46,36.96,4.17,55.33,2.89,18.35,7.07,36.52,12.55,54.31,5.61,17.75,12.57,35.04,20.7,51.76,2.1,4.15,4.22,8.28,6.36,12.4,2.21,4.08,4.56,8.08,6.88,12.11,2.27,4.05,4.81,7.94,7.3,11.85,2.5,3.91,5,7.82,7.72,11.57,10.52,15.28,22.36,29.6,35.11,43.04,6.3,6.79,13.07,13.13,19.83,19.45,3.48,3.06,6.98,6.09,10.49,9.11,1.74,1.53,3.55,2.97,5.37,4.41l5.46,4.3c29.23,22.8,62.09,41,96.94,54.05,17.47,6.41,35.39,11.57,53.59,15.39,18.23,3.65,36.68,5.99,55.16,7.04,4.61.17,9.23.28,13.84.39l3.46.07,1.7.03h823.79v-9.29h-823.79l-1.66-.03-3.38-.07c-4.5-.1-9-.22-13.5-.38-18.01-1.02-36-3.3-53.77-6.86-17.74-3.73-35.2-8.76-52.23-15-33.96-12.71-65.99-30.45-94.48-52.68l-5.32-4.19c-1.78-1.39-3.54-2.8-5.24-4.3l-10.23-8.88c-6.59-6.16-13.19-12.34-19.33-18.96-12.42-13.1-23.97-27.06-34.22-41.95-2.66-3.65-5.09-7.47-7.53-11.28-2.43-3.81-4.91-7.6-7.12-11.55-2.25-3.92-4.55-7.82-6.7-11.8l-6.2-12.08c-7.92-16.29-14.7-33.15-20.17-50.44-5.34-17.33-9.42-35.04-12.23-52.92-2.64-17.91-3.94-35.95-4.06-53.94Z"/>
      <path class="cls-65" d="m518.24,0h-9.29c.12,8.3.7,16.52,1.86,24.65,1.33,8.09,3.16,16.07,5.52,23.9,2.49,7.79,5.57,15.38,9.12,22.76.95,1.82,1.88,3.64,2.8,5.47.98,1.8,2.06,3.55,3.06,5.34.96,1.82,2.14,3.5,3.24,5.24,1.11,1.73,2.16,3.49,3.42,5.13,4.61,6.81,9.94,13.13,15.59,19.11,2.76,3.06,5.84,5.8,8.8,8.67,1.57,1.33,3.13,2.67,4.67,4.04.75.7,1.57,1.33,2.39,1.95l2.43,1.9c12.96,10.16,27.51,18.12,42.8,23.9,7.69,2.78,15.55,5.05,23.55,6.78,8.04,1.55,16.19,2.59,24.43,3.11l6.21.14,1.55.05.8.03h823.79v-9.29h-823.79l-.75-.03-1.47-.05c-1.95-.07-3.91-.1-5.86-.13-7.78-.5-15.46-1.48-23.03-2.94-7.54-1.63-14.94-3.77-22.19-6.39-14.4-5.45-28.11-12.94-40.34-22.53l-2.29-1.79c-.77-.59-1.55-1.18-2.25-1.84-1.45-1.29-2.92-2.55-4.41-3.81-2.78-2.71-5.7-5.29-8.29-8.18-5.33-5.64-10.36-11.6-14.71-18.02-1.19-1.54-2.17-3.21-3.22-4.84-1.04-1.63-2.16-3.22-3.05-4.94-.94-1.69-1.96-3.34-2.88-5.03-.86-1.73-1.73-3.45-2.63-5.16-3.34-6.96-6.24-14.11-8.59-21.44-2.22-7.38-3.95-14.89-5.21-22.52-1.08-7.66-1.63-15.42-1.75-23.26Z"/>
      <path class="cls-60" d="m499.66,0h-9.29c.12,9.22.77,18.38,2.07,27.44,1.47,9.03,3.52,17.93,6.16,26.66,2.78,8.69,6.21,17.17,10.17,25.4l3.12,6.1c1.09,2.01,2.29,3.96,3.41,5.95,1.08,2.02,2.38,3.91,3.61,5.84,1.23,1.93,2.42,3.89,3.81,5.71,5.15,7.58,11.07,14.63,17.37,21.28,3.08,3.4,6.5,6.47,9.8,9.65l5.2,4.5c.84.78,1.75,1.48,2.66,2.18l2.71,2.12c14.44,11.31,30.65,20.2,47.72,26.64,8.58,3.11,17.35,5.64,26.28,7.56,8.97,1.74,18.05,2.9,27.22,3.47l6.9.16,1.73.05.88.03h823.79v-9.29h-823.79l-.84-.03-1.64-.05-6.56-.15c-8.71-.55-17.32-1.64-25.83-3.29-8.47-1.82-16.78-4.23-24.92-7.17-16.18-6.11-31.56-14.54-45.26-25.27l-2.57-2.01c-.86-.66-1.73-1.32-2.53-2.06-1.63-1.44-3.28-2.86-4.94-4.27-3.13-3.02-6.38-5.93-9.3-9.16-5.98-6.32-11.6-13-16.48-20.2-1.32-1.73-2.44-3.59-3.61-5.42-1.16-1.83-2.41-3.62-3.42-5.54-1.06-1.89-2.19-3.74-3.23-5.65-.97-1.94-1.95-3.87-2.96-5.79-3.75-7.81-7.01-15.84-9.65-24.08-2.5-8.28-4.44-16.72-5.84-25.28-1.22-8.59-1.84-17.29-1.96-26.05Z"/>
      <path class="cls-27" d="m481.07,0h-9.29c.12,10.14.84,20.24,2.28,30.23,1.61,9.96,3.87,19.79,6.8,29.43,3.06,9.6,6.85,18.95,11.23,28.03l3.44,6.73c1.2,2.21,2.52,4.37,3.75,6.57,1.19,2.22,2.62,4.31,3.98,6.44,1.36,2.12,2.68,4.28,4.2,6.3,5.69,8.35,12.2,16.12,19.14,23.46,3.4,3.74,7.15,7.14,10.8,10.63l5.73,4.96c.93.85,1.93,1.63,2.93,2.4l2.98,2.34c15.92,12.46,33.8,22.28,52.64,29.38,9.47,3.44,19.16,6.24,29.01,8.34,9.89,1.94,19.92,3.21,30.02,3.83l7.6.19,1.9.06.96.03h823.79v-9.29h-823.79l-.92-.03-1.81-.05-7.25-.17c-9.64-.59-19.19-1.81-28.62-3.65-9.39-2.01-18.63-4.68-27.65-7.95-17.95-6.77-35-16.13-50.18-28.01l-2.84-2.23c-.96-.73-1.91-1.47-2.8-2.29l-5.47-4.73c-3.48-3.34-7.06-6.57-10.3-10.14-6.62-7-12.83-14.41-18.25-22.37-1.45-1.92-2.7-3.98-4-6.01-1.29-2.03-2.66-4.02-3.79-6.14-1.18-2.1-2.43-4.15-3.58-6.26l-3.28-6.42c-4.17-8.65-7.78-17.57-10.7-26.71-2.79-9.19-4.94-18.55-6.48-28.04-1.36-9.52-2.05-19.15-2.17-28.83Z"/>
      <path class="cls-26" d="m462.49,0h-9.29c.12,11.07.91,22.1,2.49,33.02,1.75,10.89,4.23,21.65,7.44,32.19,3.34,10.5,7.48,20.74,12.28,30.67l3.77,7.36c1.32,2.42,2.74,4.78,4.1,7.18,1.31,2.43,2.86,4.71,4.35,7.04,1.49,2.32,2.93,4.67,4.59,6.88,6.22,9.12,13.33,17.62,20.92,25.64,3.72,4.08,7.81,7.8,11.81,11.61l6.26,5.42c1.02.93,2.11,1.78,3.2,2.62l3.26,2.56c17.4,13.61,36.94,24.36,57.56,32.12,10.36,3.77,20.96,6.83,31.75,9.13,10.82,2.13,21.78,3.52,32.81,4.18l8.29.21,2.07.06,1.04.03h823.79v-9.29h-823.79l-1-.03-1.99-.06-7.94-.2c-10.57-.64-21.06-1.98-31.42-4.01-10.32-2.2-20.47-5.13-30.38-8.74-19.73-7.43-38.44-17.72-55.1-30.75l-3.12-2.45c-1.05-.81-2.09-1.62-3.07-2.51l-6-5.19c-3.82-3.65-7.74-7.21-11.3-11.12-7.27-7.67-14.07-15.81-20.03-24.55-1.59-2.12-2.97-4.37-4.39-6.59-1.42-2.23-2.91-4.41-4.16-6.74-1.3-2.3-2.67-4.56-3.93-6.88l-3.61-7.05c-4.59-9.5-8.55-19.3-11.75-29.35-3.07-10.09-5.44-20.38-7.12-30.81-1.51-10.46-2.26-21.02-2.38-31.62Z"/>
      <path class="cls-31" d="m443.91,0h-9.29c.12,11.99.98,23.95,2.7,35.81,1.89,11.82,4.58,23.51,8.08,34.96,3.63,11.41,8.12,22.53,13.33,33.3l4.09,7.99c1.43,2.63,2.97,5.2,4.45,7.8,1.43,2.63,3.11,5.12,4.72,7.64,1.62,2.52,3.19,5.07,4.98,7.47,6.76,9.89,14.46,19.12,22.69,27.81,4.05,4.42,8.47,8.47,12.81,12.59l6.79,5.88c1.11,1,2.29,1.93,3.47,2.84l3.53,2.77c18.88,14.76,40.09,26.44,62.49,34.86,11.25,4.1,22.77,7.42,34.48,9.91,11.75,2.32,23.64,3.83,35.61,4.54,11.68.44,24.7.29,37.32.32h798.83v-9.29h-823.79l-1.09-.03-2.16-.06-8.64-.22c-11.5-.69-22.93-2.14-34.21-4.36-11.25-2.39-22.31-5.59-33.11-9.52-21.51-8.09-41.89-19.31-60.02-33.49l-3.39-2.67c-1.14-.88-2.27-1.77-3.34-2.73l-6.53-5.65c-4.17-3.97-8.42-7.85-12.31-12.1-7.91-8.35-15.31-17.22-21.8-26.72-1.72-2.31-3.23-4.76-4.79-7.18-1.55-2.43-3.16-4.81-4.53-7.34-1.42-2.5-2.9-4.97-4.27-7.49l-3.93-7.68c-5-10.35-9.32-21.03-12.8-31.99-3.35-11-5.94-22.22-7.76-33.57-1.65-11.39-2.47-22.89-2.59-34.41Z"/>
      <path class="cls-30" d="m886.34,134.29h-215.16l-.67-.03-1.29-.05c-1.72-.06-3.45-.09-5.17-.11-6.84-.45-13.59-1.31-20.24-2.58-6.61-1.44-13.1-3.32-19.46-5.6-12.62-4.79-24.67-11.35-35.41-19.79l-2.02-1.57c-.68-.51-1.36-1.03-1.98-1.62-1.28-1.14-2.57-2.25-3.88-3.34-2.44-2.4-5.01-4.65-7.29-7.2-4.69-4.96-9.12-10.19-12.93-15.84-1.05-1.35-1.91-2.82-2.83-4.25-.91-1.44-1.91-2.82-2.68-4.33-.82-1.49-1.72-2.93-2.54-4.42-.74-1.52-1.51-3.03-2.31-4.53-2.92-6.11-5.47-12.38-7.54-18.81-1.94-6.47-3.45-13.06-4.57-19.75-.94-6.73-1.42-13.55-1.54-20.47h-9.29c.12,7.37.64,14.67,1.65,21.86,1.19,7.16,2.81,14.21,4.89,21.13,2.21,6.88,4.94,13.59,8.07,20.12.85,1.6,1.67,3.22,2.47,4.84.87,1.59,1.83,3.13,2.71,4.72.84,1.61,1.89,3.1,2.87,4.63.98,1.53,1.9,3.1,3.02,4.54,4.08,6.04,8.81,11.63,13.82,16.93,2.44,2.72,5.18,5.14,7.79,7.69,1.4,1.17,2.78,2.36,4.15,3.58.67.63,1.39,1.18,2.12,1.73l2.15,1.68c11.48,9.01,24.37,16.04,37.87,21.16,6.8,2.45,13.75,4.46,20.82,5.99,7.11,1.36,14.33,2.28,21.64,2.76,1.84.02,3.68.05,5.52.12l1.38.05.71.03h823.79v-9.29h-608.63Z"/>
      <g>
        <path class="cls-33" d="m1494.97,613.79v-9.29h-824.03s-3.63.09-3.63.09c-4.84.13-9.69.16-14.51.63l-7.25.55c-2.41.25-4.81.59-7.21.89-19.21,2.49-38.18,7.03-56.32,13.86l3.25,8.71c17.48-6.59,35.75-10.95,54.26-13.35,2.32-.28,4.63-.61,6.95-.86l6.98-.53c4.65-.46,9.32-.48,13.99-.61l3.5-.09h3.56s7.13,0,7.13,0h813.32Z"/>
        <path class="cls-32" d="m1494.97,595.21v-9.29h-824.04s-3.89.1-3.89.1c-5.19.14-10.38.18-15.56.68l-7.77.6c-2.58.27-5.16.63-7.74.95-20.61,2.67-40.98,7.55-60.45,14.88l3.25,8.71c18.81-7.08,38.48-11.79,58.39-14.37,2.49-.31,4.98-.66,7.47-.92l7.51-.57c5-.48,10.02-.52,15.03-.65l3.76-.09h3.58s7.13,0,7.13,0h813.32Z"/>
        <path class="cls-25" d="m1494.97,576.63v-9.29h-824.05s-4.15.1-4.15.1c-5.54.14-11.07.2-16.6.72l-8.29.64c-2.76.29-5.51.67-8.26,1.01-22.01,2.85-43.77,8.07-64.58,15.9l3.25,8.71c20.14-7.58,41.21-12.63,62.51-15.39,2.67-.33,5.33-.7,8-.98l8.03-.62c5.35-.51,10.72-.56,16.08-.7l4.02-.09h3.59s7.13,0,7.13,0h813.32Z"/>
        <path class="cls-24" d="m1494.97,558.04v-9.29h-824.07s-4.41.1-4.41.1c-5.88.15-11.77.22-17.64.76l-8.82.69c-2.93.31-5.86.71-8.79,1.07-23.41,3.03-46.57,8.6-68.71,16.92l3.25,8.71c21.47-8.08,43.94-13.47,66.64-16.41,2.84-.35,5.68-.74,8.52-1.04l8.55-.66c5.7-.53,11.41-.6,17.12-.74l4.28-.1h3.6s7.13,0,7.13,0h813.32Z"/>
        <path class="cls-29" d="m1494.97,539.46v-9.29h-824.08s-4.67.1-4.67.1c-6.23.15-12.46.24-18.69.81l-9.34.73c-3.11.32-6.21.74-9.31,1.13-24.81,3.21-49.36,9.12-72.83,17.94l3.25,8.71c22.8-8.57,46.66-14.31,70.77-17.43,3.02-.37,6.03-.78,9.05-1.1l9.08-.71c6.05-.56,12.11-.64,18.17-.79l4.54-.1h3.61s7.13,0,7.13,0h813.32Z"/>
        <path class="cls-28" d="m1494.97,520.87v-9.29h-824.09s-4.93.11-4.93.11c-6.58.16-13.15.26-19.73.85l-9.86.78c-3.28.34-6.56.78-9.84,1.19-26.21,3.39-52.16,9.64-76.96,18.96l3.25,8.71c24.14-9.07,49.39-15.16,74.9-18.45,3.19-.4,6.38-.83,9.58-1.16l9.6-.75c6.4-.58,12.81-.68,19.21-.83l4.8-.1h3.63s7.13,0,7.13,0h813.32Z"/>
        <path class="cls-50" d="m1494.97,502.29v-9.29h-824.11s-5.19.11-5.19.11c-6.93.16-13.85.28-20.78.9l-10.39.82c-3.46.36-6.91.82-10.36,1.25-27.6,3.56-54.95,10.16-81.08,19.98l3.25,8.71c25.47-9.57,52.12-16,79.02-19.47,3.37-.42,6.73-.87,10.1-1.22l10.13-.8c6.76-.61,13.5-.72,20.25-.88l5.06-.1h3.64s7.13,0,7.13,0h813.32Z"/>
        <path class="cls-49" d="m1494.97,706.72v-9.29h-823.97s-2.33.08-2.33.08c-3.1.11-6.22.06-9.29.41l-4.63.33c-1.53.17-3.05.41-4.58.59-1.52.22-3.07.32-4.58.6l-4.53.83-2.27.39c-.76.12-1.5.35-2.24.51l-4.49,1.03c-1.51.28-2.97.78-4.44,1.19l-4.43,1.24c-1.46.46-2.9,1-4.35,1.48l-2.18.73c-.73.23-1.46.47-2.16.78l3.25,8.71c.66-.29,1.35-.51,2.04-.73l2.06-.68c1.37-.45,2.72-.96,4.1-1.4l4.17-1.16c1.39-.39,2.76-.86,4.18-1.12l4.23-.97c.71-.15,1.4-.37,2.12-.48l2.14-.36,4.27-.78c1.42-.27,2.88-.36,4.32-.56,1.44-.17,2.88-.4,4.32-.56l4.36-.31c2.9-.33,5.84-.28,8.77-.38l2.2-.08h3.5s7.13,0,7.13,0h813.32Z"/>
        <path class="cls-44" d="m1494.97,688.13v-9.29h-823.98s-2.59.09-2.59.09c-3.45.11-6.92.08-10.34.45l-5.15.37c-1.71.18-3.41.45-5.11.65-1.7.24-3.42.37-5.1.67l-5.06.92-2.53.44c-.85.13-1.67.38-2.51.56l-5.01,1.15c-1.68.32-3.31.86-4.96,1.32l-4.94,1.39c-1.63.52-3.24,1.11-4.86,1.65l-2.43.81c-.81.26-1.63.53-2.41.87l3.25,8.71c.74-.33,1.52-.57,2.29-.82l2.31-.77c1.54-.51,3.06-1.07,4.61-1.56l4.69-1.31c1.56-.44,3.1-.95,4.7-1.26l4.74-1.09c.79-.17,1.57-.41,2.38-.54l2.4-.41,4.8-.87c1.6-.3,3.23-.41,4.84-.64,1.62-.19,3.23-.44,4.85-.62l4.89-.35c3.25-.36,6.54-.32,9.81-.43l2.46-.08h3.51s7.13,0,7.13,0h813.32Z"/>
        <path class="cls-53" d="m1494.97,669.55v-9.29h-823.99s-2.85.09-2.85.09c-3.8.12-7.61.1-11.38.5l-5.67.42c-1.88.2-3.76.48-5.63.71-1.87.26-3.77.41-5.63.75l-5.58,1.01-2.79.49c-.93.15-1.84.42-2.77.62l-5.52,1.27c-1.86.37-3.66.95-5.48,1.46l-5.46,1.54c-1.8.57-3.58,1.22-5.37,1.81l-2.69.9c-.9.29-1.8.59-2.66.96l3.25,8.71c.83-.36,1.68-.64,2.54-.91l2.56-.86c1.71-.56,3.4-1.18,5.12-1.73l5.2-1.46c1.73-.48,3.45-1.05,5.22-1.39l5.26-1.21c.88-.19,1.74-.45,2.64-.59l2.66-.46,5.32-.96c1.77-.32,3.58-.46,5.37-.71,1.79-.22,3.58-.49,5.37-.68l5.41-.4c3.6-.38,7.23-.36,10.86-.47l2.72-.08h3.53s7.13,0,7.13,0h813.32Z"/>
        <path class="cls-47" d="m1494.97,650.96v-9.29h-824s-3.11.09-3.11.09c-4.15.12-8.3.12-12.42.54l-6.2.46c-2.06.22-4.11.52-6.16.77-2.05.29-4.12.46-6.15.82l-6.11,1.1-3.06.54c-1.02.17-2.02.45-3.03.67l-6.04,1.39c-2.03.41-4,1.04-5.99,1.59l-5.97,1.69c-1.97.62-3.92,1.32-5.88,1.97l-2.94.99c-.98.32-1.96.65-2.92,1.05l3.25,8.71c.91-.39,1.85-.7,2.79-1.01l2.81-.95c1.88-.62,3.74-1.3,5.62-1.89l5.71-1.61c1.9-.53,3.79-1.14,5.73-1.53l5.78-1.33c.97-.21,1.92-.49,2.9-.65l2.93-.51,5.84-1.05c1.95-.35,3.93-.51,5.89-.79,1.97-.24,3.93-.53,5.9-.74l5.94-.44c3.95-.41,7.93-.4,11.9-.52l2.98-.09h3.54s7.13,0,7.13,0h813.32Z"/>
        <path class="cls-48" d="m1494.97,632.38v-9.29h-824.02s-3.37.09-3.37.09c-4.49.13-8.99.14-13.47.59l-6.72.51c-2.23.24-4.46.56-6.69.83-2.22.31-4.47.51-6.68.9l-6.63,1.19-3.32.59c-1.11.19-2.19.49-3.29.73l-6.56,1.51c-2.2.45-4.35,1.13-6.51,1.73l-6.48,1.84c-2.14.67-4.26,1.43-6.39,2.14l-3.19,1.08c-1.07.35-2.13.71-3.17,1.14l3.25,8.71c.99-.42,2.02-.76,3.04-1.1l3.06-1.03c2.05-.68,4.08-1.41,6.13-2.06l6.22-1.76c2.08-.58,4.13-1.23,6.25-1.66l6.3-1.45c1.05-.23,2.09-.52,3.16-.7l3.19-.56,6.37-1.14c2.12-.38,4.28-.57,6.41-.86,2.14-.26,4.28-.57,6.42-.8l6.46-.49c4.3-.43,8.63-.44,12.95-.56l3.24-.09h3.55s7.13,0,7.13,0h813.32Z"/>
        <path class="cls-46" d="m1038.37,725.3h456.6v-9.29h-823.95s-2.07.08-2.07.08c-2.76.1-5.53.04-8.25.36l-4.1.28c-1.36.15-2.7.37-4.06.53-1.35.2-2.72.27-4.05.52-1.34.26-2.67.5-4.01.74l-2.01.34c-.67.1-1.32.31-1.98.46-1.32.32-2.64.62-3.97.91-1.34.24-2.62.69-3.93,1.05-1.3.38-2.61.74-3.92,1.09-1.29.41-2.56.89-3.85,1.31l-1.93.64c-.65.2-1.29.41-1.91.69l3.25,8.71c.58-.26,1.18-.45,1.79-.64l1.8-.59c1.2-.39,2.39-.85,3.59-1.23,1.23-.32,2.45-.66,3.66-1.01,1.22-.34,2.42-.77,3.67-.99,1.24-.27,2.47-.55,3.71-.85.62-.13,1.22-.34,1.85-.43l1.88-.31c1.25-.22,2.5-.45,3.75-.69,1.25-.24,2.53-.3,3.79-.49,1.27-.15,2.53-.36,3.8-.5,1.28-.07,2.56-.16,3.84-.26,2.54-.31,5.14-.24,7.73-.34l1.94-.08h3.49s7.13,0,7.13,0h356.72Z"/>
        <path class="cls-45" d="m585.26,629.24l-3.25-8.71c-18.14,6.82-35.51,15.68-51.68,26.35-2.07,1.26-3.99,2.74-5.98,4.12l-5.92,4.21-5.71,4.49c-1.89,1.51-3.84,2.95-5.64,4.58-3.64,3.2-7.4,6.26-10.83,9.68l-5.26,5.02-5.03,5.25c-6.74,6.97-12.87,14.49-18.79,22.15-1.46,1.93-2.82,3.94-4.24,5.9l-2.11,2.96c-.71.98-1.41,1.97-2.05,3l-3.92,6.12-1.96,3.06-1.81,3.15c-9.79,16.72-17.72,34.53-23.54,53.02-5.72,18.52-9.32,37.69-10.74,57-.15,2.42-.43,4.83-.48,7.25l-.18,7.26c-.18,4.88-.09,9.58-.11,14.35v599.29h9.29v-599.29c.02-4.74-.06-9.56.11-14.19l.18-7c.04-2.33.32-4.66.47-6.99,1.38-18.62,4.84-37.08,10.35-54.92,5.61-17.81,13.25-34.97,22.68-51.08l1.74-3.04,1.89-2.95,3.78-5.9c.61-1,1.29-1.94,1.97-2.89l2.03-2.85c1.36-1.89,2.68-3.83,4.08-5.69,5.71-7.38,11.62-14.63,18.11-21.34l4.84-5.06,5.07-4.83c3.31-3.3,6.94-6.24,10.44-9.33,1.73-1.57,3.61-2.96,5.44-4.41l5.5-4.33,5.71-4.06c1.91-1.33,3.77-2.76,5.76-3.97,15.58-10.28,32.31-18.82,49.79-25.39Z"/>
        <path class="cls-51" d="m578.77,611.83l-3.25-8.71c-19.48,7.31-38.11,16.83-55.46,28.28-2.21,1.36-4.29,2.93-6.42,4.42l-6.35,4.52-6.13,4.81c-2.03,1.62-4.12,3.17-6.05,4.91-3.91,3.42-7.93,6.72-11.62,10.38l-5.64,5.38c-1.82,1.85-3.6,3.75-5.39,5.62-7.22,7.48-13.8,15.53-20.15,23.76-1.57,2.07-3.03,4.22-4.55,6.33l-2.26,3.18c-.76,1.06-1.51,2.12-2.19,3.22l-4.21,6.56-2.09,3.29-1.95,3.38c-10.51,17.94-19.01,37.06-25.26,56.9-6.15,19.88-10.01,40.45-11.54,61.17-.17,2.59-.46,5.18-.51,7.77l-.2,7.78-.09,3.89-.02.97v609.1h9.29v-599.29c.02-4.8-.07-9.37.11-14.51l.19-7.52c.05-2.51.34-5.01.5-7.51,1.48-20.02,5.2-39.89,11.14-59.09,6.04-19.17,14.25-37.64,24.4-54.96l1.88-3.26,2.02-3.17,4.07-6.34c.66-1.07,1.39-2.09,2.12-3.11l2.18-3.07c1.47-2.04,2.88-4.11,4.4-6.11,6.13-7.94,12.49-15.73,19.47-22.95,1.74-1.81,3.45-3.64,5.21-5.44l5.45-5.2c3.56-3.54,7.45-6.72,11.23-10.03,1.87-1.68,3.88-3.18,5.85-4.74l5.92-4.65,6.13-4.37c2.06-1.44,4.06-2.96,6.2-4.27,16.76-11.06,34.76-20.25,53.57-27.32Z"/>
        <path class="cls-52" d="m572.28,594.41l-3.25-8.71c-20.81,7.81-40.71,17.97-59.23,30.2-2.36,1.46-4.58,3.13-6.85,4.72l-6.77,4.84-6.55,5.13c-2.17,1.73-4.39,3.39-6.46,5.24-4.18,3.65-8.46,7.18-12.41,11.08l-6.01,5.75c-1.94,1.98-3.84,4-5.76,6-30.66,32.09-53.55,71.47-66.92,113.86-6.57,21.23-10.69,43.22-12.33,65.33-.18,2.77-.48,5.53-.54,8.3l-.22,8.3-.1,4.15-.02,1.03v609.1h9.29v-609.1l.02-1,.1-4.02.21-8.04c.06-2.68.35-5.36.53-8.03,1.58-21.41,5.57-42.69,11.93-63.25,12.95-41.03,35.1-79.16,64.79-110.24,1.86-1.94,3.7-3.9,5.58-5.81l5.82-5.56c3.82-3.78,7.97-7.19,12.02-10.73,2-1.79,4.15-3.4,6.25-5.08l6.34-4.97,6.56-4.68c2.2-1.54,4.35-3.16,6.64-4.57,17.93-11.84,37.2-21.68,57.34-29.24Z"/>
        <path class="cls-34" d="m565.79,577l-3.25-8.71c-22.14,8.31-43.32,19.12-63.01,32.13-2.51,1.56-4.87,3.33-7.29,5.02l-7.2,5.15-6.97,5.45c-2.31,1.84-4.66,3.61-6.87,5.58-4.45,3.87-8.99,7.64-13.19,11.78l-6.39,6.11c-2.07,2.1-4.09,4.25-6.13,6.38-32.58,34.12-56.95,76-71.17,121.11-6.99,22.59-11.38,45.99-13.12,69.5-.19,2.94-.5,5.88-.57,8.82l-.23,8.82-.1,4.41-.02,1.09v609.1h9.29v-609.1l.02-1.06.1-4.28.23-8.56c.07-2.85.37-5.71.56-8.56,1.68-22.81,5.94-45.5,12.72-67.41,13.79-43.75,37.42-84.38,69.04-117.49,1.98-2.07,3.94-4.15,5.94-6.19l6.2-5.93c4.07-4.02,8.49-7.67,12.8-11.43,2.13-1.91,4.42-3.63,6.66-5.41l6.76-5.29,6.99-4.99c2.35-1.64,4.63-3.36,7.07-4.87,19.11-12.62,39.65-23.11,61.12-31.17Z"/>
        <path class="cls-41" d="m559.29,559.59l-3.25-8.71c-23.47,8.8-45.92,20.27-66.79,34.05-2.66,1.65-5.16,3.53-7.73,5.32l-7.63,5.46-7.38,5.78c-2.44,1.95-4.94,3.83-7.27,5.91-4.71,4.1-9.52,8.1-13.98,12.48l-6.77,6.48c-2.19,2.22-4.34,4.5-6.5,6.75-34.51,36.15-60.36,80.53-75.42,128.36-7.42,23.95-12.07,48.75-13.91,73.66-.21,3.11-.53,6.23-.61,9.34l-.25,9.34-.1,4.67-.02,1.15v609.1h9.29v-609.1l.02-1.12.1-4.54.24-9.08c.07-3.03.39-6.05.59-9.08,1.79-24.21,6.31-48.31,13.51-71.58,14.64-46.47,39.75-89.6,73.29-124.74,2.1-2.19,4.18-4.4,6.31-6.57l6.58-6.3c4.33-4.26,9.01-8.14,13.59-12.13,2.27-2.02,4.69-3.85,7.07-5.74l7.17-5.61,7.41-5.3c2.49-1.74,4.92-3.56,7.51-5.17,20.28-13.4,42.09-24.54,64.9-33.09Z"/>
        <path class="cls-40" d="m552.8,542.17l-3.25-8.71c-24.81,9.3-48.52,21.41-70.57,35.98-2.8,1.75-5.46,3.72-8.16,5.61l-8.05,5.77-7.8,6.1c-2.58,2.06-5.21,4.05-7.68,6.24-4.98,4.33-10.05,8.56-14.77,13.18l-7.15,6.85c-2.32,2.35-4.58,4.75-6.86,7.13-36.44,38.19-63.76,85.06-79.67,135.61-7.84,25.31-12.76,51.52-14.7,77.82-.22,3.29-.55,6.58-.64,9.87l-.27,9.87-.1,4.93-.02,1.22v609.1h9.29v-609.1l.02-1.18.1-4.8.26-9.61c.08-3.2.41-6.4.62-9.6,1.89-25.61,6.67-51.11,14.31-75.74,15.49-49.19,42.07-94.82,77.55-131.99,2.22-2.32,4.43-4.66,6.68-6.94l6.96-6.66c4.59-4.5,9.53-8.62,14.37-12.83,2.4-2.13,4.96-4.08,7.48-6.08l7.59-5.94,7.84-5.61c2.63-1.84,5.21-3.76,7.94-5.47,21.46-14.18,44.54-25.96,68.68-35.02Z"/>
        <path class="cls-39" d="m546.31,524.76l-3.25-8.71c-26.14,9.8-51.13,22.56-74.35,37.9-2.95,1.85-5.75,3.92-8.6,5.91l-8.48,6.08-8.22,6.42c-2.72,2.16-5.49,4.27-8.09,6.58-5.25,4.55-10.59,9.02-15.55,13.88l-7.52,7.21c-2.44,2.47-4.83,5-7.23,7.51-38.37,40.22-67.17,89.59-83.92,142.86-8.27,26.67-13.45,54.29-15.49,81.99-.23,3.46-.57,6.93-.67,10.39l-.28,10.39-.11,5.19-.02,1.28v609.1h9.29v-609.1l.02-1.25.11-5.06.27-10.13c.09-3.37.43-6.75.65-10.13,1.99-27,7.04-53.92,15.1-79.91,16.33-51.92,44.39-100.04,81.8-139.24,2.34-2.45,4.67-4.91,7.05-7.32l7.34-7.03c4.84-4.74,10.04-9.09,15.16-13.53,2.54-2.25,5.23-4.3,7.89-6.41l8.01-6.26,8.27-5.92c2.78-1.94,5.5-3.96,8.38-5.76,22.63-14.96,46.98-27.39,72.46-36.94Z"/>
        <path class="cls-38" d="m617.73,716.3l-3.25-8.71c-11.48,4.33-22.49,9.95-32.79,16.73-1.33.78-2.53,1.75-3.8,2.63l-3.78,2.66-3.63,2.88c-1.2.96-2.47,1.85-3.6,2.91-2.29,2.07-4.74,3.96-6.9,6.18l-3.37,3.18-3.19,3.36c-4.32,4.42-8.19,9.25-12,14.11-.93,1.23-1.78,2.52-2.68,3.77l-1.35,1.88c-.46.62-.91,1.24-1.3,1.91l-2.49,3.9-1.26,1.94-1.13,2.01c-6.21,10.63-11.24,21.91-14.94,33.6-3.6,11.73-5.87,23.85-6.78,36.18-.09,1.54-.32,3.07-.32,4.63l-.1,4.66-.08,2.33-.02.6v609.1h9.29v-609.1l.02-.57.08-2.2.09-4.4c0-1.47.23-2.91.31-4.37.86-11.63,3-23.05,6.39-34.1,3.5-11.01,8.23-21.63,14.08-31.65l1.07-1.9,1.19-1.82,2.34-3.67c.37-.63.8-1.21,1.23-1.8l1.27-1.77c.86-1.17,1.65-2.4,2.53-3.56,3.6-4.57,7.23-9.14,11.32-13.3l3.01-3.17,3.18-3c2.03-2.1,4.35-3.87,6.51-5.83,1.06-1,2.26-1.83,3.4-2.74l3.42-2.72,3.57-2.51c1.19-.83,2.32-1.76,3.58-2.48,9.71-6.39,20.09-11.68,30.9-15.77Z"/>
        <path class="cls-35" d="m611.24,698.89l-3.25-8.71c-12.81,4.83-25.09,11.1-36.57,18.65-1.48.87-2.83,1.95-4.24,2.93l-4.21,2.97-4.04,3.2c-1.34,1.07-2.75,2.07-4.01,3.24-2.56,2.29-5.27,4.42-7.69,6.88l-3.75,3.55-3.56,3.74c-4.81,4.93-9.12,10.3-13.36,15.72-1.04,1.37-1.99,2.8-3,4.19l-1.5,2.1c-.51.69-1.01,1.39-1.45,2.13l-2.77,4.34-1.4,2.16-1.27,2.24c-6.93,11.85-12.53,24.43-16.66,37.48-4.03,13.09-6.56,26.62-7.58,40.35-.1,1.72-.34,3.42-.36,5.15l-.12,5.18-.08,2.59-.02.66v609.1h9.29v-609.1l.02-.63.08-2.46.11-4.92c.01-1.64.24-3.26.34-4.89.97-13.03,3.37-25.86,7.18-38.27,3.92-12.37,9.23-24.3,15.8-35.54l1.2-2.13,1.33-2.05,2.63-4.12c.41-.7.9-1.36,1.38-2.02l1.43-1.99c.96-1.32,1.85-2.68,2.84-3.98,4.02-5.13,8.11-10.24,12.67-14.91l3.37-3.55,3.56-3.37c2.29-2.34,4.87-4.35,7.3-6.53,1.2-1.12,2.53-2.06,3.81-3.08l3.84-3.04,4-2.82c1.34-.93,2.61-1.96,4.02-2.78,10.89-7.17,22.53-13.11,34.68-17.69Z"/>
        <path class="cls-37" d="m604.74,681.48l-3.25-8.71c-14.14,5.33-27.69,12.24-40.34,20.58-1.63.97-3.12,2.15-4.67,3.23l-4.64,3.28-4.46,3.52c-1.48,1.18-3.02,2.29-4.42,3.58-2.83,2.52-5.81,4.88-8.48,7.58l-4.12,3.92-3.92,4.12c-5.29,5.44-10.06,11.35-14.71,17.32-1.14,1.51-2.2,3.09-3.31,4.62l-1.65,2.31c-.56.77-1.11,1.53-1.6,2.35l-3.06,4.78-1.54,2.39-1.4,2.47c-7.65,13.06-13.83,26.96-18.38,41.37-4.45,14.44-7.25,29.38-8.37,44.51-.11,1.89-.36,3.78-.39,5.68l-.14,5.7-.08,2.85-.02.72v609.1h9.29v-609.1l.02-.69.08-2.72.13-5.44c.02-1.82.26-3.61.37-5.42,1.07-14.43,3.73-28.67,7.97-42.43,4.34-13.73,10.24-26.97,17.52-39.42l1.34-2.35,1.47-2.27,2.92-4.56c.46-.77.99-1.51,1.53-2.24l1.58-2.2c1.06-1.46,2.06-2.97,3.15-4.41,4.44-5.7,8.99-11.34,14.03-16.52l3.74-3.93,3.94-3.73c2.54-2.58,5.39-4.82,8.08-7.23,1.33-1.23,2.8-2.28,4.21-3.41l4.25-3.36,4.42-3.13c1.48-1.03,2.9-2.16,4.46-3.08,12.06-7.94,24.98-14.54,38.45-19.62Z"/>
        <path class="cls-36" d="m598.25,664.06l-3.25-8.71c-15.48,5.82-30.3,13.39-44.12,22.5-1.77,1.07-3.41,2.34-5.11,3.53l-5.06,3.59-4.88,3.84c-1.62,1.29-3.3,2.51-4.83,3.91-3.1,2.74-6.34,5.34-9.26,8.28l-4.5,4.28-4.29,4.49c-5.77,5.95-11,12.39-16.07,18.93-1.25,1.65-2.41,3.37-3.62,5.05l-1.8,2.53c-.61.84-1.21,1.68-1.75,2.56l-3.35,5.23-1.68,2.61-1.54,2.69c-8.36,14.28-15.12,29.48-20.1,45.25-4.87,15.8-7.94,32.15-9.16,48.68-.13,2.07-.39,4.13-.42,6.2l-.15,6.22-.09,3.11-.02.78v609.1h9.29v-609.1l.02-.75.08-2.98.14-5.96c.03-1.99.28-3.96.4-5.94,1.17-15.82,4.1-31.47,8.76-46.59,4.77-15.09,11.24-29.64,19.24-43.31l1.47-2.58,1.61-2.5,3.2-5.01c.51-.85,1.09-1.65,1.67-2.45l1.73-2.42c1.16-1.61,2.27-3.25,3.46-4.83,4.87-6.26,9.86-12.43,15.39-18.13l4.11-4.3,4.31-4.1c2.8-2.82,5.9-5.3,8.87-7.93,1.46-1.34,3.07-2.51,4.62-3.74l4.67-3.68,4.85-3.44c1.63-1.13,3.19-2.36,4.89-3.38,13.24-8.72,27.42-15.97,42.23-21.54Z"/>
        <path class="cls-43" d="m591.76,646.65l-3.25-8.71c-16.81,6.32-32.9,14.54-47.9,24.43-1.92,1.17-3.7,2.54-5.55,3.83l-5.49,3.9-5.3,4.17c-1.76,1.4-3.57,2.73-5.23,4.24-3.37,2.97-6.87,5.8-10.05,8.98l-4.88,4.65-4.66,4.87c-6.25,6.46-11.93,13.44-17.43,20.54-1.36,1.79-2.61,3.65-3.93,5.47l-1.95,2.74c-.66.91-1.31,1.82-1.9,2.78l-3.63,5.67-1.82,2.84-1.68,2.92c-9.08,15.5-16.42,32.01-21.82,49.13-5.3,17.16-8.63,34.92-9.95,52.84-.14,2.24-.41,4.48-.45,6.72l-.17,6.74c-.17,4.37-.09,9.32-.11,14.03v599.29h9.29v-609.1l.02-.81.09-3.24.16-6.48c.03-2.16.3-4.31.43-6.46,1.27-17.22,4.47-34.28,9.56-50.76,5.19-16.45,12.24-32.3,20.96-47.19l1.61-2.81,1.75-2.72,3.49-5.45c.56-.92,1.19-1.8,1.82-2.67l1.88-2.64c1.26-1.75,2.47-3.54,3.77-5.26,5.29-6.82,10.74-13.53,16.75-19.74l4.48-4.68,4.69-4.47c3.05-3.06,6.42-5.77,9.66-8.63,1.6-1.46,3.34-2.73,5.03-4.08l5.09-4.01,5.28-3.75c1.77-1.23,3.48-2.56,5.33-3.68,14.41-9.5,29.87-17.4,46.01-23.47Z"/>
        <path class="cls-42" d="m536.83,1012.14v-152.5l.02-.51.07-1.94c.04-1.29.07-2.58.08-3.88,0-1.3.21-2.56.28-3.84.76-10.24,2.63-20.25,5.6-29.94,3.08-9.65,7.23-18.97,12.37-27.77l.93-1.67,1.05-1.6c.7-1.07,1.38-2.14,2.06-3.23.32-.55.7-1.07,1.08-1.58l1.12-1.55c.75-1.03,1.44-2.11,2.22-3.13,3.18-4.01,6.36-8.04,9.96-11.7l2.64-2.8c.95-.87,1.88-1.74,2.8-2.63,1.78-1.86,3.83-3.4,5.73-5.13.93-.89,1.99-1.61,2.99-2.41,1.01-.79,2.01-1.59,3-2.4l3.14-2.2c1.05-.73,2.04-1.56,3.15-2.19,8.54-5.61,17.64-10.26,27.12-13.84l-3.25-8.71c-10.15,3.84-19.88,8.81-29.01,14.8-1.19.68-2.24,1.56-3.37,2.33l-3.36,2.35-3.21,2.56c-1.07.85-2.2,1.63-3.19,2.58-2.03,1.84-4.21,3.5-6.12,5.48l-2.99,2.82-2.82,2.99c-3.84,3.91-7.25,8.21-10.64,12.5-.83,1.09-1.57,2.24-2.37,3.34l-1.2,1.66c-.41.55-.81,1.1-1.16,1.69-.72,1.16-1.45,2.31-2.2,3.45l-1.12,1.71-1,1.78c-5.5,9.41-9.94,19.38-13.22,29.71-3.18,10.37-5.18,21.08-5.99,32.02-.08,1.37-.29,2.72-.29,4.11l-.09,4.14-.08,2.07-.02.54v609.1h9.29v-456.6Z"/>
      </g>
      <path class="cls-19" d="m239.48,429.59h-9.29c-.02,40.04-7.88,80.06-23.24,117.02-15.31,36.98-38.01,70.88-66.32,99.19-28.31,28.31-62.21,51.01-99.19,66.32-36.97,15.36-76.98,23.23-117.02,23.24-40.04-.02-80.06-7.88-117.02-23.24-36.98-15.31-70.88-38.01-99.19-66.32-28.31-28.31-51.01-62.21-66.32-99.19-15.36-36.97-23.22-76.98-23.24-117.02h-9.29c.01,41.24,8.12,82.49,23.95,120.58,15.78,38.12,39.17,73.03,68.33,102.2,29.17,29.16,64.09,52.55,102.2,68.33,38.1,15.83,79.35,23.94,120.58,23.95,41.24-.01,82.49-8.12,120.58-23.95,38.12-15.78,73.04-39.17,102.2-68.33,29.16-29.17,52.55-64.08,68.33-102.2,15.83-38.1,23.94-79.35,23.95-120.58Z"/>
      <path class="cls-20" d="m220.89,429.59h-9.29c-.02,37.66-7.4,75.2-21.82,109.91-14.37,34.72-35.69,66.56-62.29,93.17-26.6,26.6-58.45,47.92-93.17,62.29-34.71,14.42-72.25,21.8-109.91,21.82-37.66-.02-75.2-7.4-109.9-21.82-34.72-14.37-66.56-35.69-93.17-62.29-26.6-26.6-47.92-58.45-62.29-93.17-14.42-34.71-21.8-72.25-21.82-109.91h-9.29c.02,38.85,7.64,77.63,22.53,113.46,14.84,35.85,36.85,68.72,64.3,96.18,27.46,27.45,60.33,49.47,96.18,64.3,35.84,14.89,74.61,22.51,113.46,22.53,38.85-.02,77.63-7.64,113.47-22.53,35.85-14.84,68.72-36.85,96.18-64.3,27.45-27.46,49.47-60.33,64.3-96.18,14.89-35.84,22.51-74.61,22.53-113.46Z"/>
      <path class="cls-21" d="m202.31,429.59h-9.29c-.03,35.28-6.93,70.34-20.41,102.79-13.43,32.45-33.38,62.25-58.27,87.14-24.9,24.89-54.69,44.83-87.14,58.27-32.45,13.48-67.51,20.38-102.79,20.41-35.28-.03-70.34-6.93-102.79-20.41-32.46-13.43-62.25-33.38-87.14-58.27-24.89-24.9-44.83-54.69-58.27-87.14-13.48-32.45-20.38-67.51-20.41-102.79h-9.29c.02,36.47,7.17,72.77,21.12,106.35,13.9,33.59,34.53,64.41,60.28,90.16,25.75,25.74,56.57,46.38,90.16,60.28,33.58,13.95,69.88,21.09,106.35,21.11,36.47-.02,72.77-7.17,106.35-21.11,33.59-13.9,64.41-34.53,90.16-60.28,25.74-25.75,46.38-56.57,60.28-90.16,13.95-33.58,21.09-69.88,21.12-106.35Z"/>
      <path class="cls-18" d="m183.72,429.59h-9.29c-.03,32.89-6.45,65.48-18.99,95.67-12.49,30.19-31.06,57.93-54.24,81.12-23.19,23.18-50.93,41.75-81.12,54.24-30.19,12.54-62.78,18.96-95.67,18.99-32.89-.03-65.48-6.45-95.67-18.99-30.19-12.49-57.93-31.06-81.12-54.24-23.18-23.19-41.75-50.93-54.24-81.12-12.54-30.19-18.96-62.78-18.99-95.67h-9.29c.03,34.08,6.69,67.91,19.7,99.23,12.96,31.32,32.22,60.09,56.25,84.13,24.04,24.03,52.81,43.29,84.13,56.25,31.32,13.01,65.14,19.67,99.23,19.7,34.08-.03,67.91-6.69,99.23-19.7,31.32-12.96,60.09-32.22,84.13-56.25,24.03-24.04,43.29-52.81,56.25-84.13,13.01-31.32,19.67-65.14,19.7-99.23Z"/>
      <path class="cls-15" d="m165.14,429.59h-9.29c-.03,30.51-5.98,60.62-17.57,88.55-11.55,27.93-28.74,53.62-50.21,75.1-21.48,21.47-47.17,38.66-75.1,50.21-27.93,11.59-58.04,17.54-88.55,17.57-30.51-.03-60.62-5.98-88.55-17.57-27.93-11.55-53.62-28.74-75.1-50.21-21.47-21.48-38.66-47.17-50.21-75.1-11.59-27.93-17.54-58.04-17.57-88.55h-9.29c.03,31.7,6.22,63.05,18.28,92.11,12.02,29.06,29.9,55.78,52.23,78.11,22.33,22.33,49.05,40.2,78.11,52.23,29.06,12.06,60.41,18.25,92.11,18.28,31.7-.03,63.05-6.22,92.11-18.28,29.06-12.02,55.78-29.9,78.11-52.23,22.33-22.33,40.2-49.05,52.23-78.11,12.06-29.06,18.25-60.41,18.28-92.11Z"/>
      <path class="cls-16" d="m146.56,429.59h-9.29c-.04,28.12-5.5,55.76-16.15,81.43-10.62,25.66-26.43,49.3-46.19,69.08-19.77,19.76-43.42,35.57-69.08,46.19-25.67,10.65-53.31,16.11-81.43,16.15-28.12-.04-55.76-5.5-81.43-16.15-25.66-10.62-49.3-26.43-69.08-46.19-19.76-19.77-35.57-43.41-46.19-69.08-10.65-25.67-16.11-53.31-16.15-81.43h-9.29c.04,29.32,5.74,58.19,16.86,84.99,11.09,26.79,27.58,51.46,48.2,72.09,20.63,20.62,45.29,37.12,72.09,48.2,26.8,11.12,55.67,16.83,84.99,16.86,29.32-.04,58.19-5.74,84.99-16.86,26.79-11.09,51.46-27.58,72.09-48.2,20.62-20.63,37.12-45.29,48.2-72.09,11.12-26.8,16.83-55.67,16.86-84.99Z"/>
      <path class="cls-17" d="m127.97,429.59h-9.29c-.04,25.74-5.03,50.9-14.74,74.31-9.68,23.4-24.11,44.99-42.16,63.05-18.06,18.05-39.66,32.48-63.05,42.16-23.42,9.71-48.57,14.69-74.31,14.74-25.74-.04-50.9-5.03-74.31-14.74-23.4-9.68-44.99-24.11-63.05-42.16-18.05-18.06-32.48-39.66-42.16-63.05-9.71-23.42-14.69-48.57-14.74-74.31h-9.29c.04,26.93,5.26,53.33,15.45,77.87,10.15,24.53,25.27,47.15,44.18,66.07,18.92,18.91,41.54,34.03,66.07,44.18,24.54,10.18,50.94,15.4,77.87,15.45,26.93-.04,53.33-5.26,77.87-15.45,24.53-10.15,47.15-25.27,66.07-44.18,18.91-18.92,34.03-41.54,44.18-66.07,10.18-24.54,15.4-50.94,15.45-77.87Z"/>
      <path class="cls-14" d="m332.4,429.59h-9.29c-.02,25.98-2.55,52.07-7.63,77.7-5.07,25.63-12.69,50.78-22.7,74.92-20,48.31-49.59,92.45-86.45,129.3-36.85,36.85-81,66.45-129.3,86.45-24.14,10.01-49.29,17.63-74.92,22.7-25.63,5.08-51.72,7.61-77.7,7.63-25.98-.02-52.07-2.55-77.7-7.63-25.63-5.07-50.78-12.69-74.92-22.7-48.31-20-92.45-49.59-129.3-86.45-36.85-36.85-66.45-81-86.45-129.3-10.01-24.14-17.63-49.29-22.7-74.92-5.08-25.63-7.61-51.72-7.63-77.7h-9.29c.02,26.57,2.61,53.27,7.81,79.5,5.19,26.23,12.99,51.97,23.23,76.67,20.47,49.44,50.75,94.61,88.46,132.31,37.71,37.71,82.88,67.99,132.31,88.46,24.7,10.24,50.45,18.04,76.67,23.23,26.23,5.2,52.93,7.78,79.5,7.81,26.57-.02,53.27-2.61,79.5-7.81,26.23-5.19,51.97-12.99,76.67-23.23,49.44-20.47,94.61-50.75,132.31-88.46,37.71-37.71,67.99-82.88,88.46-132.31,10.24-24.7,18.04-50.45,23.23-76.67,5.2-26.23,7.78-52.93,7.81-79.5Z"/>
      <path class="cls-22" d="m313.81,429.59h-9.29c-.02,24.79-2.43,49.66-7.28,74.09-4.83,24.43-12.09,48.4-21.64,71.41-19.06,46.04-47.28,88.14-82.42,123.28-35.14,35.14-77.24,63.36-123.28,82.42-23.01,9.54-46.98,16.8-71.41,21.64-24.43,4.84-49.31,7.25-74.09,7.28-24.79-.02-49.66-2.43-74.09-7.28-24.43-4.83-48.4-12.1-71.41-21.64-46.04-19.06-88.14-47.28-123.28-82.42-35.14-35.14-63.36-77.24-82.42-123.28-9.54-23.01-16.8-46.98-21.64-71.41-4.84-24.43-7.25-49.31-7.28-74.09h-9.29c.02,25.38,2.49,50.87,7.45,75.89,4.95,25.03,12.39,49.59,22.17,73.16,19.53,47.17,48.43,90.29,84.43,126.29,36,36,79.12,64.9,126.29,84.43,23.57,9.77,48.13,17.21,73.16,22.17,25.03,4.96,50.51,7.43,75.89,7.45,25.38-.02,50.87-2.49,75.89-7.45,25.03-4.95,49.59-12.39,73.16-22.17,47.17-19.53,90.29-48.43,126.29-84.43,36-36,64.9-79.12,84.43-126.29,9.78-23.57,17.21-48.13,22.17-73.16,4.96-25.03,7.43-50.51,7.45-75.89Z"/>
      <path class="cls-23" d="m295.23,429.59h-9.29c0,47.19-9.31,94.64-27.49,138.38-18.12,43.78-44.96,83.82-78.39,117.26-33.44,33.43-73.48,60.27-117.26,78.39-43.74,18.19-91.18,27.49-138.38,27.49-47.19,0-94.64-9.31-138.38-27.49-43.78-18.12-83.82-44.96-117.26-78.39-33.43-33.44-60.27-73.48-78.39-117.26-18.19-43.74-27.49-91.18-27.49-138.38h-9.29c.02,24.19,2.38,48.46,7.1,72.29,4.72,23.83,11.8,47.21,21.1,69.65,18.59,44.91,46.12,85.98,80.41,120.27,34.29,34.29,75.36,61.82,120.27,80.41,22.44,9.31,45.82,16.39,69.65,21.1,23.83,4.72,48.1,7.07,72.29,7.1,24.19-.02,48.46-2.38,72.29-7.1,23.83-4.72,47.21-11.8,69.65-21.1,44.91-18.59,85.98-46.12,120.27-80.41,34.29-34.29,61.82-75.36,80.41-120.27,9.31-22.44,16.39-45.82,21.1-69.65,4.72-23.83,7.07-48.1,7.1-72.29Z"/>
      <path class="cls-9" d="m276.64,429.59h-9.29c0,44.81-8.83,89.78-26.08,131.26-17.18,41.51-42.64,79.51-74.37,111.23-31.73,31.73-69.72,57.19-111.23,74.37-41.49,17.24-86.45,26.07-131.26,26.08-44.81,0-89.78-8.83-131.26-26.08-41.51-17.18-79.51-42.64-111.23-74.37-31.73-31.73-57.19-69.72-74.37-111.23-17.24-41.48-26.07-86.45-26.08-131.26h-9.29c0,46,9.07,92.21,26.78,134.82,17.65,42.64,43.8,81.66,76.38,114.25,32.58,32.58,71.6,58.73,114.25,76.38,42.61,17.72,88.82,26.78,134.82,26.78,46,0,92.21-9.07,134.82-26.78,42.64-17.65,81.66-43.8,114.25-76.38,32.58-32.58,58.73-71.6,76.38-114.25,17.72-42.61,26.78-88.82,26.78-134.82Z"/>
      <path class="cls-8" d="m258.06,429.59h-9.29c-.01,42.43-8.36,84.92-24.66,124.14-16.25,39.25-40.33,75.19-70.34,105.21-30.02,30.02-65.96,54.1-105.21,70.34-39.23,16.3-81.72,24.65-124.14,24.66-42.43-.01-84.92-8.36-124.14-24.66-39.25-16.25-75.19-40.33-105.21-70.34-30.02-30.02-54.1-65.96-70.34-105.21-16.3-39.23-24.65-81.72-24.66-124.14h-9.29c0,43.62,8.59,87.35,25.37,127.7,16.71,40.38,41.49,77.35,72.36,108.22,30.87,30.87,67.84,55.64,108.22,72.36,40.36,16.77,84.08,25.36,127.7,25.37,43.62,0,87.35-8.59,127.7-25.37,40.38-16.71,77.35-41.48,108.22-72.36,30.87-30.87,55.64-67.84,72.36-108.22,16.77-40.36,25.36-84.08,25.37-127.7Z"/>
      <path class="cls-12" d="m-75.59,856.15c27.76-.02,55.68-2.72,83.11-8.16,27.43-5.43,54.35-13.58,80.19-24.3,51.7-21.41,98.92-53.07,138.34-92.48,39.42-39.41,71.08-86.63,92.48-138.34,10.71-25.83,18.87-52.76,24.3-80.19,5.44-27.43,8.14-55.34,8.16-83.11h-9.29c-.02,27.17-2.67,54.48-7.98,81.3-5.31,26.83-13.28,53.16-23.76,78.43-20.94,50.57-51.91,96.77-90.47,135.32-38.56,38.56-84.75,69.54-135.32,90.47-25.27,10.48-51.6,18.45-78.43,23.76-26.83,5.32-54.14,7.96-81.3,7.98-27.17-.02-54.48-2.67-81.3-7.98-26.83-5.31-53.16-13.29-78.43-23.76-50.57-20.94-96.77-51.91-135.32-90.47-38.56-38.56-69.54-84.75-90.47-135.32-10.48-25.27-18.45-51.6-23.76-78.43-5.32-26.83-7.96-54.14-7.98-81.3h-9.29c.02,27.76,2.72,55.68,8.16,83.11,5.43,27.43,13.58,54.35,24.3,80.19,21.41,51.7,53.07,98.92,92.48,138.34,39.41,39.42,86.63,71.08,138.34,92.48,25.83,10.71,52.76,18.87,80.19,24.3,27.43,5.44,55.34,8.14,83.11,8.16Z"/>
      <path class="cls-7" d="m-390.65,429.59h9.29c.02-40.04,7.88-80.06,23.24-117.02,15.31-36.98,38.01-70.88,66.32-99.19,28.31-28.31,62.21-51.01,99.19-66.32,36.97-15.36,76.98-23.23,117.02-23.24,40.04.02,80.06,7.88,117.02,23.24,36.98,15.31,70.88,38.01,99.19,66.32,28.31,28.31,51.01,62.21,66.32,99.19,15.36,36.97,23.23,76.98,23.24,117.02h9.29c-.01-41.24-8.12-82.49-23.95-120.58-15.78-38.12-39.17-73.03-68.33-102.2-29.17-29.16-64.09-52.55-102.2-68.33-38.1-15.83-79.35-23.94-120.58-23.95-41.24.01-82.49,8.12-120.58,23.95-38.12,15.78-73.04,39.17-102.2,68.33-29.16,29.17-52.55,64.08-68.33,102.2-15.83,38.1-23.94,79.35-23.95,120.58Z"/>
      <path class="cls-13" d="m-372.07,429.59h9.29c.02-37.66,7.41-75.2,21.82-109.91,14.37-34.72,35.69-66.56,62.29-93.17,26.6-26.6,58.45-47.92,93.17-62.29,34.71-14.42,72.25-21.8,109.91-21.82,37.66.02,75.2,7.41,109.9,21.82,34.72,14.37,66.56,35.69,93.17,62.29,26.6,26.6,47.92,58.45,62.29,93.17,14.42,34.71,21.8,72.25,21.82,109.91h9.29c-.02-38.85-7.64-77.63-22.53-113.46-14.84-35.85-36.85-68.72-64.3-96.18-27.46-27.45-60.33-49.47-96.18-64.3-35.84-14.89-74.61-22.51-113.46-22.53-38.85.02-77.63,7.64-113.47,22.53-35.85,14.84-68.72,36.85-96.18,64.3-27.45,27.46-49.47,60.33-64.3,96.18-14.89,35.84-22.51,74.61-22.53,113.46Z"/>
      <path class="cls-11" d="m-353.48,429.59h9.29c.03-35.28,6.93-70.34,20.41-102.79,13.43-32.45,33.38-62.25,58.27-87.14,24.9-24.89,54.69-44.83,87.14-58.27,32.45-13.48,67.51-20.38,102.79-20.41,35.28.03,70.34,6.93,102.79,20.41,32.46,13.43,62.25,33.38,87.14,58.27,24.89,24.9,44.83,54.69,58.27,87.14,13.48,32.45,20.38,67.51,20.41,102.79h9.29c-.02-36.47-7.17-72.77-21.12-106.35-13.9-33.59-34.53-64.41-60.28-90.16-25.75-25.74-56.57-46.38-90.16-60.28-33.58-13.95-69.88-21.09-106.35-21.12-36.47.02-72.77,7.17-106.35,21.11-33.59,13.9-64.41,34.53-90.16,60.28-25.74,25.75-46.38,56.57-60.28,90.16-13.95,33.58-21.09,69.88-21.12,106.35Z"/>
      <path class="cls-4" d="m-334.9,429.59h9.29c.03-32.89,6.45-65.48,18.99-95.67,12.49-30.19,31.06-57.93,54.24-81.12,23.19-23.18,50.93-41.75,81.12-54.24,30.19-12.54,62.78-18.96,95.67-18.99,32.89.03,65.48,6.45,95.67,18.99,30.19,12.49,57.93,31.06,81.12,54.24,23.18,23.19,41.75,50.93,54.24,81.12,12.54,30.19,18.96,62.78,18.99,95.67h9.29c-.03-34.08-6.69-67.91-19.7-99.23-12.96-31.32-32.22-60.09-56.25-84.13-24.04-24.03-52.81-43.29-84.13-56.25-31.32-13.01-65.14-19.67-99.23-19.7-34.08.03-67.91,6.69-99.23,19.7-31.32,12.96-60.09,32.22-84.13,56.25-24.03,24.04-43.29,52.81-56.25,84.13-13.01,31.32-19.67,65.14-19.7,99.23Z"/>
      <path class="cls-10" d="m-316.31,429.59h9.29c.03-30.51,5.98-60.62,17.57-88.55,11.55-27.93,28.74-53.62,50.21-75.1,21.48-21.47,47.17-38.66,75.1-50.21,27.93-11.59,58.04-17.54,88.55-17.57,30.51.03,60.62,5.98,88.55,17.57,27.93,11.55,53.62,28.74,75.1,50.21,21.47,21.48,38.66,47.17,50.21,75.1,11.59,27.93,17.54,58.04,17.57,88.55h9.29c-.03-31.7-6.22-63.05-18.28-92.11-12.02-29.06-29.9-55.78-52.23-78.11-22.33-22.33-49.05-40.2-78.11-52.23-29.06-12.06-60.41-18.25-92.11-18.28-31.7.03-63.05,6.22-92.11,18.28-29.06,12.02-55.78,29.9-78.11,52.23-22.33,22.33-40.2,49.05-52.23,78.11-12.06,29.06-18.25,60.41-18.28,92.11Z"/>
      <path class="cls-5" d="m-297.73,429.59h9.29c.04-28.12,5.5-55.76,16.15-81.43,10.62-25.66,26.43-49.3,46.19-69.08,19.77-19.76,43.42-35.57,69.08-46.19,25.67-10.65,53.31-16.11,81.43-16.15,28.12.04,55.76,5.5,81.43,16.15,25.66,10.62,49.3,26.43,69.08,46.19,19.76,19.77,35.57,43.41,46.19,69.08,10.65,25.67,16.11,53.31,16.15,81.43h9.29c-.04-29.32-5.74-58.19-16.86-84.99-11.09-26.79-27.58-51.46-48.2-72.09-20.63-20.62-45.29-37.12-72.09-48.2-26.8-11.12-55.67-16.83-84.99-16.86-29.32.04-58.19,5.74-84.99,16.86-26.79,11.09-51.46,27.58-72.09,48.2-20.62,20.63-37.12,45.29-48.2,72.09-11.12,26.8-16.83,55.67-16.86,84.99Z"/>
      <path class="cls-6" d="m-279.15,429.59h9.29c.04-25.74,5.03-50.9,14.74-74.31,9.68-23.4,24.11-44.99,42.16-63.05,18.06-18.05,39.66-32.48,63.05-42.16,23.42-9.71,48.57-14.69,74.31-14.74,25.74.04,50.9,5.03,74.31,14.74,23.4,9.68,44.99,24.11,63.05,42.16,18.05,18.06,32.48,39.66,42.16,63.05,9.71,23.42,14.69,48.57,14.74,74.31h9.29c-.04-26.93-5.26-53.33-15.45-77.87-10.15-24.53-25.27-47.15-44.18-66.07-18.92-18.91-41.54-34.03-66.07-44.18-24.54-10.18-50.94-15.4-77.87-15.45-26.93.04-53.33,5.26-77.87,15.45-24.53,10.15-47.15,25.27-66.07,44.18-18.91,18.92-34.03,41.54-44.18,66.07-10.18,24.54-15.4,50.94-15.45,77.87Z"/>
      <path class="cls-56" d="m-483.57,429.59h9.29c.02-25.98,2.55-52.07,7.63-77.7,5.07-25.63,12.69-50.78,22.7-74.92,20-48.31,49.59-92.45,86.45-129.3,36.85-36.85,81-66.45,129.3-86.45,24.14-10.01,49.29-17.63,74.92-22.7,25.63-5.08,51.72-7.61,77.7-7.63,25.98.02,52.07,2.55,77.7,7.63,25.63,5.07,50.78,12.69,74.92,22.7,48.31,20,92.45,49.59,129.3,86.45,36.85,36.85,66.45,81,86.45,129.3,10.01,24.14,17.63,49.29,22.7,74.92,5.08,25.63,7.61,51.72,7.63,77.7h9.29c-.02-26.57-2.61-53.27-7.81-79.5-5.19-26.23-12.99-51.97-23.23-76.67-20.47-49.44-50.75-94.61-88.46-132.31-37.71-37.71-82.88-67.99-132.31-88.46C55.88,42.39,30.14,34.6,3.91,29.41c-26.23-5.2-52.93-7.78-79.5-7.81-26.57.02-53.27,2.61-79.5,7.81-26.23,5.19-51.97,12.99-76.67,23.23-49.44,20.47-94.61,50.75-132.31,88.46-37.71,37.71-67.99,82.88-88.46,132.31-10.24,24.7-18.04,50.45-23.23,76.67-5.2,26.23-7.78,52.93-7.81,79.5Z"/>
      <path class="cls-54" d="m-464.99,429.59h9.29c.02-24.79,2.43-49.66,7.28-74.09,4.83-24.43,12.09-48.4,21.64-71.41,19.06-46.04,47.28-88.14,82.42-123.28,35.14-35.14,77.24-63.36,123.28-82.42,23.01-9.54,46.98-16.8,71.41-21.64,24.43-4.84,49.31-7.25,74.09-7.28,24.79.02,49.66,2.43,74.09,7.28,24.43,4.83,48.4,12.1,71.41,21.64,46.04,19.06,88.14,47.28,123.28,82.42,35.14,35.14,63.36,77.24,82.42,123.28,9.54,23.01,16.8,46.98,21.64,71.41,4.84,24.43,7.25,49.31,7.28,74.09h9.29c-.02-25.38-2.49-50.87-7.45-75.89-4.95-25.03-12.39-49.59-22.17-73.16-19.53-47.17-48.43-90.29-84.43-126.29-36-36-79.12-64.9-126.29-84.43C49.9,60.03,25.34,52.59.31,47.64c-25.03-4.96-50.51-7.43-75.89-7.45-25.38.02-50.87,2.49-75.89,7.45-25.03,4.95-49.59,12.39-73.16,22.17-47.17,19.53-90.29,48.43-126.29,84.43-36,36-64.9,79.12-84.43,126.29-9.78,23.57-17.21,48.13-22.17,73.16-4.96,25.03-7.43,50.51-7.45,75.89Z"/>
      <path class="cls-58" d="m-446.4,429.59h9.29c0-47.19,9.31-94.64,27.49-138.38,18.12-43.78,44.96-83.82,78.39-117.26,33.44-33.43,73.48-60.27,117.26-78.39,43.74-18.19,91.18-27.49,138.38-27.49,47.19,0,94.64,9.31,138.38,27.49,43.78,18.12,83.82,44.96,117.26,78.39,33.43,33.44,60.27,73.48,78.39,117.26,18.19,43.74,27.49,91.18,27.49,138.38h9.29c-.02-24.19-2.38-48.46-7.1-72.29-4.72-23.83-11.8-47.21-21.1-69.65-18.59-44.91-46.12-85.98-80.41-120.27-34.29-34.29-75.36-61.82-120.27-80.41-22.44-9.31-45.82-16.39-69.65-21.1-23.83-4.72-48.1-7.07-72.29-7.1-24.19.02-48.46,2.38-72.29,7.1-23.83,4.72-47.21,11.8-69.65,21.1-44.91,18.59-85.98,46.12-120.27,80.41-34.29,34.29-61.82,75.36-80.41,120.27-9.31,22.44-16.39,45.82-21.1,69.65-4.72,23.83-7.07,48.1-7.1,72.29Z"/>
      <path class="cls-55" d="m-427.82,429.59h9.29c0-44.81,8.83-89.78,26.08-131.26,17.18-41.51,42.64-79.51,74.37-111.23,31.73-31.73,69.72-57.19,111.23-74.37,41.48-17.24,86.45-26.07,131.26-26.08,44.81,0,89.78,8.83,131.26,26.08,41.51,17.18,79.51,42.64,111.23,74.37,31.73,31.73,57.18,69.72,74.37,111.23,17.24,41.48,26.07,86.45,26.08,131.26h9.29c0-46-9.07-92.21-26.78-134.82-17.65-42.64-43.8-81.66-76.38-114.25-32.58-32.58-71.6-58.73-114.25-76.38-42.61-17.72-88.82-26.78-134.82-26.78-46,0-92.21,9.07-134.82,26.78-42.64,17.65-81.66,43.8-114.25,76.38-32.58,32.58-58.73,71.6-76.38,114.25-17.72,42.61-26.78,88.82-26.78,134.82Z"/>
      <path class="cls-59" d="m-409.24,429.59h9.29c.01-42.43,8.36-84.92,24.66-124.14,16.25-39.25,40.33-75.19,70.34-105.21,30.02-30.02,65.96-54.1,105.21-70.34,39.23-16.3,81.72-24.65,124.14-24.66,42.43.01,84.92,8.36,124.14,24.66,39.25,16.25,75.19,40.33,105.21,70.34,30.02,30.02,54.1,65.96,70.34,105.21,16.3,39.23,24.65,81.72,24.66,124.14h9.29c0-43.62-8.59-87.35-25.37-127.7-16.71-40.38-41.48-77.35-72.36-108.22-30.87-30.87-67.84-55.64-108.22-72.36-40.36-16.77-84.08-25.36-127.7-25.37-43.62,0-87.35,8.59-127.7,25.37-40.38,16.71-77.35,41.48-108.22,72.36-30.87,30.87-55.64,67.84-72.36,108.22-16.77,40.36-25.36,84.08-25.37,127.7Z"/>
      <path class="cls-57" d="m-75.59,3.02c-27.76.02-55.68,2.72-83.11,8.16-27.43,5.43-54.35,13.58-80.19,24.3-51.7,21.41-98.92,53.07-138.34,92.48-39.42,39.41-71.08,86.63-92.48,138.34-10.71,25.83-18.87,52.76-24.3,80.19-5.44,27.43-8.14,55.34-8.16,83.11h9.29c.02-27.17,2.67-54.48,7.98-81.3,5.31-26.83,13.28-53.16,23.76-78.43,20.94-50.57,51.91-96.77,90.47-135.32,38.56-38.56,84.75-69.54,135.32-90.47,25.27-10.48,51.6-18.45,78.43-23.76,26.83-5.32,54.14-7.96,81.3-7.98,27.17.02,54.48,2.67,81.3,7.98,26.83,5.31,53.16,13.29,78.43,23.76,50.57,20.94,96.77,51.91,135.32,90.47,38.56,38.56,69.54,84.75,90.47,135.32,10.48,25.27,18.45,51.6,23.76,78.43,5.32,26.83,7.96,54.14,7.98,81.3h9.29c-.02-27.76-2.72-55.68-8.16-83.11-5.43-27.43-13.58-54.35-24.3-80.19-21.41-51.7-53.07-98.92-92.48-138.34-39.41-39.42-86.63-71.08-138.34-92.48C61.87,24.76,34.95,16.6,7.52,11.18-19.91,5.74-47.82,3.04-75.59,3.02Z"/>
    </g>
  </g>
</svg>