<svg width="976" height="256" viewBox="0 0 976 256" fill="none" xmlns="http://www.w3.org/2000/svg">
<path d="M0 55.3556C0 14.9047 41.8197 -11.853 78.3055 5.25309L132.605 30.7111L282.891 110.645H55.0329C24.6391 110.645 0 85.8912 0 55.3556Z" fill="#0C0C0C"/>
<path d="M24.1618 147.371H253.025C282.864 147.371 307.053 171.673 307.053 201.651C307.053 242.001 264.786 268.245 228.864 250.2L24.1618 147.371Z" fill="#0C0C0C"/>
<path d="M408.544 227.107C399.094 227.107 390.309 225.376 382.19 221.914C374.204 218.452 367.283 213.658 361.427 207.532C355.704 201.274 351.511 194.016 348.849 185.76L371.409 175.973C375.003 184.495 380.194 191.22 386.982 196.147C393.77 200.941 401.423 203.338 409.941 203.338C414.733 203.338 418.859 202.605 422.319 201.141C425.913 199.543 428.641 197.412 430.505 194.749C432.501 192.086 433.499 188.89 433.499 185.161C433.499 180.767 432.168 177.172 429.506 174.375C426.978 171.446 423.118 169.182 417.927 167.584L389.377 158.396C377.798 154.8 369.08 149.407 363.224 142.217C357.367 135.026 354.439 126.57 354.439 116.849C354.439 108.327 356.502 100.803 360.628 94.2784C364.887 87.7535 370.744 82.6934 378.197 79.098C385.784 75.3695 394.435 73.5052 404.151 73.5052C413.069 73.5052 421.254 75.1031 428.708 78.299C436.161 81.3617 442.55 85.6895 447.874 91.2823C453.331 96.7419 457.39 103.2 460.052 110.657L437.692 120.644C434.764 113.187 430.372 107.461 424.515 103.467C418.659 99.3386 411.871 97.2746 404.151 97.2746C399.626 97.2746 395.633 98.0735 392.173 99.6715C388.712 101.136 385.983 103.267 383.987 106.063C382.124 108.726 381.192 111.922 381.192 115.651C381.192 119.779 382.523 123.441 385.185 126.637C387.847 129.699 391.906 132.096 397.363 133.827L424.715 142.416C436.561 146.278 445.412 151.605 451.268 158.396C457.257 165.187 460.252 173.576 460.252 183.563C460.252 192.086 458.056 199.609 453.664 206.134C449.271 212.659 443.215 217.786 435.496 221.514C427.776 225.243 418.792 227.107 408.544 227.107Z" fill="#0C0C0C"/>
<path d="M478.512 224.71V116.05H503.068V137.423L501.072 133.628C503.601 127.103 507.727 122.176 513.45 118.847C519.306 115.385 526.094 113.653 533.814 113.653C541.8 113.653 548.854 115.385 554.977 118.847C561.232 122.309 566.09 127.169 569.551 133.428C573.011 139.553 574.742 146.678 574.742 154.8V224.71H548.588V160.992C548.588 156.199 547.656 152.071 545.793 148.608C543.929 145.146 541.334 142.483 538.007 140.619C534.812 138.621 531.019 137.623 526.627 137.623C522.368 137.623 518.574 138.621 515.247 140.619C511.919 142.483 509.324 145.146 507.461 148.608C505.597 152.071 504.666 156.199 504.666 160.992V224.71H478.512Z" fill="#0C0C0C"/>
<path d="M625.806 227.107C618.219 227.107 611.631 225.842 606.041 223.312C600.451 220.782 596.125 217.187 593.064 212.526C590.003 207.732 588.472 202.206 588.472 195.947C588.472 189.955 589.803 184.629 592.465 179.968C595.127 175.174 599.253 171.179 604.843 167.983C610.433 164.788 617.487 162.524 626.005 161.192L661.543 155.4V175.374L630.997 180.567C625.806 181.499 621.946 183.164 619.417 185.561C616.888 187.958 615.624 191.087 615.624 194.949C615.624 198.677 617.021 201.673 619.816 203.937C622.745 206.068 626.338 207.133 630.597 207.133C636.054 207.133 640.846 206.001 644.972 203.737C649.231 201.34 652.492 198.078 654.755 193.95C657.15 189.822 658.348 185.294 658.348 180.367V152.403C658.348 147.743 656.485 143.881 652.758 140.818C649.164 137.623 644.373 136.025 638.384 136.025C632.793 136.025 627.802 137.556 623.41 140.619C619.151 143.548 616.023 147.476 614.027 152.403L592.664 142.017C594.794 136.291 598.121 131.364 602.647 127.236C607.305 122.975 612.762 119.646 619.018 117.249C625.273 114.852 632.061 113.653 639.382 113.653C648.299 113.653 656.152 115.318 662.94 118.647C669.728 121.843 674.985 126.37 678.712 132.229C682.572 137.955 684.502 144.68 684.502 152.403V224.71H659.746V206.134L665.336 205.735C662.541 210.395 659.213 214.324 655.354 217.52C651.494 220.582 647.101 222.979 642.177 224.71C637.252 226.308 631.795 227.107 625.806 227.107Z" fill="#0C0C0C"/>
<path d="M752.245 225.909C740 225.909 730.483 222.58 723.695 215.922C717.04 209.13 713.713 199.609 713.713 187.358V139.42H694.946V116.05H696.942C702.266 116.05 706.392 114.652 709.32 111.856C712.249 109.059 713.713 104.998 713.713 99.6715V91.2823H739.866V116.05H764.822V139.42H739.866V185.96C739.866 189.556 740.465 192.618 741.663 195.148C742.994 197.678 744.991 199.609 747.653 200.941C750.448 202.273 753.975 202.938 758.234 202.938C759.166 202.938 760.23 202.872 761.428 202.739C762.759 202.605 764.024 202.472 765.222 202.339V224.71C763.358 224.977 761.229 225.243 758.833 225.509C756.437 225.776 754.241 225.909 752.245 225.909Z" fill="#0C0C0C"/>
<path d="M822.537 227.107C810.958 227.107 800.842 224.377 792.191 218.918C783.673 213.325 777.816 205.801 774.622 196.347L794.187 186.959C796.983 193.084 800.842 197.878 805.767 201.34C810.825 204.803 816.415 206.534 822.537 206.534C827.329 206.534 831.122 205.468 833.917 203.338C836.712 201.207 838.11 198.411 838.11 194.949C838.11 192.818 837.511 191.087 836.313 189.755C835.248 188.291 833.717 187.092 831.721 186.16C829.858 185.095 827.795 184.229 825.532 183.563L807.763 178.57C798.58 175.906 791.592 171.845 786.801 166.385C782.142 160.926 779.813 154.467 779.813 147.01C779.813 140.352 781.477 134.56 784.804 129.633C788.265 124.573 792.99 120.644 798.979 117.848C805.102 115.052 812.089 113.653 819.942 113.653C830.19 113.653 839.241 116.117 847.094 121.044C854.947 125.971 860.537 132.895 863.864 141.817L843.899 151.205C842.036 146.278 838.908 142.35 834.516 139.42C830.124 136.491 825.199 135.026 819.742 135.026C815.35 135.026 811.889 136.025 809.361 138.022C806.832 140.019 805.567 142.616 805.567 145.812C805.567 147.809 806.1 149.54 807.165 151.005C808.229 152.47 809.693 153.669 811.557 154.601C813.553 155.533 815.816 156.398 818.345 157.197L835.714 162.391C844.632 165.054 851.486 169.049 856.278 174.375C861.202 179.702 863.665 186.227 863.665 193.95C863.665 200.475 861.934 206.267 858.474 211.327C855.013 216.254 850.222 220.116 844.099 222.913C837.977 225.709 830.789 227.107 822.537 227.107Z" fill="#0C0C0C"/>
<path d="M879.77 224.71V73.5052H905.924V137.423L902.33 133.628C904.859 127.103 908.985 122.176 914.709 118.847C920.565 115.385 927.353 113.653 935.072 113.653C943.058 113.653 950.112 115.385 956.235 118.847C962.491 122.309 967.349 127.169 970.809 133.428C974.27 139.553 976 146.678 976 154.8V224.71H949.846V160.992C949.846 156.199 948.915 152.071 947.051 148.608C945.188 145.146 942.592 142.483 939.265 140.619C936.071 138.621 932.277 137.623 927.885 137.623C923.626 137.623 919.833 138.621 916.505 140.619C913.178 142.483 910.582 145.146 908.719 148.608C906.856 152.071 905.924 156.199 905.924 160.992V224.71H879.77Z" fill="#0C0C0C"/>
</svg>
