<svg width="976" height="256" viewBox="0 0 976 256" fill="none" xmlns="http://www.w3.org/2000/svg">
<path d="M0 55.3556C0 14.9047 41.8198 -11.853 78.3056 5.25309L132.605 30.7111L282.891 110.645H55.033C24.6391 110.645 0 85.8912 0 55.3556Z" fill="white"/>
<path d="M24.1618 147.371H253.026C282.864 147.371 307.053 171.673 307.053 201.651C307.053 242.001 264.787 268.245 228.864 250.2L24.1618 147.371Z" fill="white"/>
<path d="M408.543 227.107C399.093 227.107 390.308 225.376 382.19 221.914C374.204 218.452 367.283 213.658 361.426 207.532C355.703 201.274 351.51 194.016 348.849 185.76L371.409 175.973C375.002 184.495 380.193 191.22 386.981 196.147C393.769 200.941 401.422 203.338 409.94 203.338C414.732 203.338 418.858 202.605 422.319 201.141C425.912 199.543 428.641 197.412 430.504 194.749C432.501 192.086 433.499 188.89 433.499 185.161C433.499 180.767 432.168 177.172 429.506 174.375C426.977 171.446 423.117 169.182 417.926 167.584L389.377 158.396C377.797 154.8 369.079 149.407 363.223 142.217C357.367 135.026 354.439 126.57 354.439 116.849C354.439 108.327 356.502 100.803 360.628 94.2784C364.887 87.7535 370.743 82.6934 378.197 79.098C385.783 75.3695 394.435 73.5052 404.151 73.5052C413.068 73.5052 421.254 75.1031 428.707 78.299C436.161 81.3617 442.549 85.6895 447.873 91.2823C453.33 96.7419 457.39 103.2 460.052 110.657L437.691 120.644C434.763 113.187 430.371 107.461 424.515 103.467C418.658 99.3386 411.87 97.2746 404.151 97.2746C399.625 97.2746 395.632 98.0735 392.172 99.6715C388.711 101.136 385.983 103.267 383.986 106.063C382.123 108.726 381.191 111.922 381.191 115.651C381.191 119.779 382.522 123.441 385.184 126.637C387.846 129.699 391.906 132.096 397.363 133.827L424.714 142.416C436.56 146.278 445.411 151.605 451.267 158.396C457.257 165.187 460.251 173.576 460.251 183.563C460.251 192.086 458.055 199.609 453.663 206.134C449.271 212.659 443.215 217.786 435.495 221.514C427.776 225.243 418.791 227.107 408.543 227.107Z" fill="white"/>
<path d="M478.511 224.71V116.05H503.068V137.423L501.071 133.628C503.6 127.103 507.726 122.176 513.45 118.847C519.306 115.385 526.094 113.653 533.813 113.653C541.799 113.653 548.854 115.385 554.976 118.847C561.232 122.309 566.09 127.169 569.55 133.428C573.011 139.553 574.741 146.678 574.741 154.8V224.71H548.587V160.992C548.587 156.199 547.656 152.071 545.792 148.608C543.929 145.146 541.333 142.483 538.006 140.619C534.812 138.621 531.018 137.623 526.626 137.623C522.367 137.623 518.574 138.621 515.246 140.619C511.919 142.483 509.323 145.146 507.46 148.608C505.597 152.071 504.665 156.199 504.665 160.992V224.71H478.511Z" fill="white"/>
<path d="M625.805 227.107C618.219 227.107 611.631 225.842 606.04 223.312C600.45 220.782 596.125 217.187 593.063 212.526C590.002 207.732 588.471 202.206 588.471 195.947C588.471 189.955 589.802 184.629 592.464 179.968C595.126 175.174 599.252 171.179 604.843 167.983C610.433 164.788 617.487 162.524 626.005 161.192L661.542 155.4V175.374L630.996 180.567C625.805 181.499 621.946 183.164 619.417 185.561C616.888 187.958 615.623 191.087 615.623 194.949C615.623 198.677 617.021 201.673 619.816 203.937C622.744 206.068 626.338 207.133 630.597 207.133C636.054 207.133 640.845 206.001 644.972 203.737C649.231 201.34 652.492 198.078 654.754 193.95C657.15 189.822 658.348 185.294 658.348 180.367V152.403C658.348 147.743 656.484 143.881 652.758 140.818C649.164 137.623 644.373 136.025 638.383 136.025C632.793 136.025 627.802 137.556 623.41 140.619C619.151 143.548 616.023 147.476 614.026 152.403L592.664 142.017C594.794 136.291 598.121 131.364 602.646 127.236C607.305 122.975 612.762 119.646 619.017 117.249C625.273 114.852 632.061 113.653 639.381 113.653C648.299 113.653 656.152 115.318 662.94 118.647C669.728 121.843 674.985 126.37 678.712 132.229C682.572 137.955 684.502 144.68 684.502 152.403V224.71H659.745V206.134L665.335 205.735C662.54 210.395 659.213 214.324 655.353 217.52C651.493 220.582 647.101 222.979 642.176 224.71C637.252 226.308 631.795 227.107 625.805 227.107Z" fill="white"/>
<path d="M752.244 225.909C739.999 225.909 730.483 222.58 723.695 215.922C717.04 209.13 713.712 199.609 713.712 187.358V139.42H694.946V116.05H696.942C702.266 116.05 706.392 114.652 709.32 111.856C712.248 109.059 713.712 104.998 713.712 99.6715V91.2823H739.866V116.05H764.822V139.42H739.866V185.96C739.866 189.556 740.465 192.618 741.663 195.148C742.994 197.678 744.99 199.609 747.652 200.941C750.447 202.273 753.975 202.938 758.234 202.938C759.165 202.938 760.23 202.872 761.428 202.739C762.759 202.605 764.023 202.472 765.221 202.339V224.71C763.358 224.977 761.228 225.243 758.833 225.509C756.437 225.776 754.241 225.909 752.244 225.909Z" fill="white"/>
<path d="M822.537 227.107C810.958 227.107 800.842 224.377 792.191 218.918C783.672 213.325 777.816 205.801 774.622 196.347L794.187 186.959C796.982 193.084 800.842 197.878 805.767 201.34C810.824 204.803 816.415 206.534 822.537 206.534C827.329 206.534 831.122 205.468 833.917 203.338C836.712 201.207 838.11 198.411 838.11 194.949C838.11 192.818 837.511 191.087 836.313 189.755C835.248 188.291 833.717 187.092 831.721 186.16C829.857 185.095 827.794 184.229 825.532 183.563L807.763 178.57C798.58 175.906 791.592 171.845 786.8 166.385C782.142 160.926 779.813 154.467 779.813 147.01C779.813 140.352 781.476 134.56 784.804 129.633C788.264 124.573 792.989 120.644 798.979 117.848C805.101 115.052 812.089 113.653 819.942 113.653C830.19 113.653 839.241 116.117 847.094 121.044C854.946 125.971 860.536 132.895 863.864 141.817L843.899 151.205C842.036 146.278 838.908 142.35 834.516 139.42C830.124 136.491 825.199 135.026 819.742 135.026C815.35 135.026 811.889 136.025 809.36 138.022C806.832 140.019 805.567 142.616 805.567 145.812C805.567 147.809 806.099 149.54 807.164 151.005C808.229 152.47 809.693 153.669 811.556 154.601C813.553 155.533 815.816 156.398 818.345 157.197L835.714 162.391C844.631 165.054 851.486 169.049 856.277 174.375C861.202 179.702 863.664 186.227 863.664 193.95C863.664 200.475 861.934 206.267 858.473 211.327C855.013 216.254 850.221 220.116 844.099 222.913C837.976 225.709 830.789 227.107 822.537 227.107Z" fill="white"/>
<path d="M879.77 224.71V73.5052H905.924V137.423L902.33 133.628C904.859 127.103 908.985 122.176 914.708 118.847C920.565 115.385 927.353 113.653 935.072 113.653C943.058 113.653 950.112 115.385 956.235 118.847C962.491 122.309 967.349 127.169 970.809 133.428C974.27 139.553 976 146.678 976 154.8V224.71H949.846V160.992C949.846 156.199 948.915 152.071 947.051 148.608C945.188 145.146 942.592 142.483 939.265 140.619C936.071 138.621 932.277 137.623 927.885 137.623C923.626 137.623 919.833 138.621 916.505 140.619C913.178 142.483 910.582 145.146 908.719 148.608C906.856 152.071 905.924 156.199 905.924 160.992V224.71H879.77Z" fill="white"/>
</svg>
