<?xml version="1.0" encoding="UTF-8"?>
<svg id="Calque_2" data-name="Calque 2" xmlns="http://www.w3.org/2000/svg" viewBox="0 0 212.77 281.13">
  <defs>
    <style>
      .cls-1 {
        fill: #ec633c;
      }
    </style>
  </defs>
  <g id="Calque_1-2" data-name="Calque 1">
    <g>
      <path class="cls-1" d="m.98,0c9.69,9.41,19.42,18.85,29.15,28.29,7.28,7.07,14.68,14.02,21.83,21.22,8.72,8.78,12.98,19.44,12.93,31.85-.13,34.59-.19,69.17-.29,103.76,0,.5-.05,1-.02,1.5.11,1.58-.69,3.7,1.15,4.45,1.61.66,2.54-1.29,3.52-2.28,9.73-9.8,19.66-19.42,28.98-29.6,11.62-12.68,25.57-18.96,42.88-18.53,16.65.41,33.31.13,49.97.09,3.83,0,7.3.32,9.09,4.52,1.87,4.38-.93,6.83-3.54,9.43-11.32,11.26-22.64,22.53-33.98,33.78-11.27,11.19-24.74,16.93-40.77,16.8-17.99-.15-35.98-.07-53.97.05-7.9.05-14.64-2.42-20.27-7.99-11.83-11.7-23.73-23.32-35.52-35.06C4.4,154.55.19,145.11.16,134.16.04,90.42.08,46.69.1,2.96c0-.9-.54-2.01.88-2.96Z"/>
      <path class="cls-1" d="m212.77,281.13c-25.29-.99-49.09,1.22-72.79-1.25-9.17-.95-17.16-5.36-23.76-11.71-12.82-12.36-25.37-25-38.04-37.52-1.81-1.79-3.31-3.73-3.18-6.5.19-3.78,2.01-7,5.75-6.97,21.1.18,42.33-2.27,63.23,2.1,6.88,1.44,13.23,4.98,18.2,9.98,16.64,16.75,32.99,33.78,50.59,51.87Z"/>
    </g>
    <ellipse class="cls-1" cx="32.34" cy="249.05" rx="32.34" ry="31.77"/>
  </g>
</svg>