<svg width="1737" height="1153" viewBox="0 0 1737 1153" fill="none" xmlns="http://www.w3.org/2000/svg">
<path d="M1736.44 773.845V1015.85C1735.03 1016.71 1733.51 1017.69 1731.88 1018.56C1713.32 1029.52 1692.38 1041.13 1669.7 1052.85C1580.17 1098.76 1454.61 1148.24 1324.49 1148.24C1138.6 1148.24 978.965 1051.55 840.493 967.772L838.431 966.469L833.005 963.214C686.177 874.335 561.161 800.758 420.518 800.758C324.586 800.758 224.205 838.09 144.225 879.219C104.94 899.295 72.2757 919.371 49.5949 934.456C43.8433 938.146 37.4406 942.595 32.3401 946.068C29.7356 947.912 27.4567 949.432 25.9374 950.517L24.2011 951.819L23.767 952.145H23.6585L3.36511 966.578L0.326538 959.416V725.879C21.8136 712.857 47.2074 698.315 75.5313 683.882C165.061 637.978 290.619 588.492 420.735 588.492C606.631 588.492 766.048 685.076 904.629 768.962L906.691 770.156H906.799L912.225 773.52C1058.95 862.398 1184.07 935.975 1324.71 935.975C1420.64 935.975 1521.03 898.644 1601.01 857.515C1640.29 837.438 1672.95 817.362 1695.64 802.278C1698.35 800.433 1704.86 795.984 1710.72 791.968C1716.58 787.953 1721.68 784.372 1721.68 784.372L1736.66 773.737L1736.44 773.845Z" fill="#75BEC9"/>
<path d="M1324.49 1144.01C1139.9 1144.01 982.22 1048.51 842.988 964.298L835.5 959.74C696.811 875.854 565.935 796.525 420.517 796.525C317.64 796.525 212.266 839.391 141.945 875.528C101.25 896.364 67.8254 917.2 46.7724 930.982C41.1293 934.78 34.6181 939.23 29.5176 942.702L5.10047 959.848L0 948.237V970.266L1.19373 972.979L34.8351 949.213C39.9356 945.632 46.4468 941.183 52.0899 937.602C72.8173 924.037 105.916 903.201 146.286 882.582C215.63 847.096 319.485 804.664 420.409 804.664C563.005 804.664 692.904 883.341 830.4 966.468L837.996 971.026C978.205 1055.89 1137.08 1152.15 1324.39 1152.15C1430.84 1152.15 1547.72 1119.81 1671.76 1056.32C1693.68 1045.04 1715.17 1033.21 1736.33 1020.62V1010.74C1713.76 1024.42 1690.64 1037.33 1667.42 1049.16C1544.57 1112.1 1429.22 1144.01 1324.28 1144.01H1324.49ZM1718.75 781.115C1718.75 781.115 1698.46 795.223 1692.81 798.912C1672.09 812.478 1638.99 833.205 1598.62 853.932C1529.16 889.419 1425.31 931.85 1324.49 931.85C1181.79 931.85 1051.89 853.173 914.395 770.046L906.907 765.38C766.698 680.625 607.715 584.367 420.517 584.367C314.059 584.367 197.182 616.598 73.0344 680.191C48.2917 692.779 23.8745 706.561 0.108521 720.995V730.761C25.2853 715.352 51.6558 700.484 77.3752 687.245C200.112 624.411 315.578 592.506 420.517 592.506C605.111 592.506 762.791 688.004 901.915 772.216L909.511 776.774C1048.2 860.661 1179.08 939.989 1324.49 939.989C1427.37 939.989 1532.64 897.015 1602.85 860.986C1643.65 840.042 1677.19 819.314 1698.02 805.424C1700.63 803.687 1723.96 787.843 1724.18 787.518L1736.44 778.836V768.527L1718.75 781.007V781.115Z" fill="#75BEC9"/>
<path d="M1736.44 189.587V431.588C1735.03 432.456 1733.51 433.324 1731.88 434.301C1713.32 445.261 1692.38 456.873 1669.7 468.593C1580.17 514.497 1454.61 563.874 1324.49 563.874C1138.6 563.874 978.965 467.291 840.493 383.513L838.431 382.211L833.005 378.847C686.177 290.077 561.161 216.391 420.518 216.391C324.586 216.391 224.204 253.831 144.225 294.852C104.94 314.928 72.2757 335.113 49.5949 350.089C43.8433 353.887 37.4406 358.336 32.3401 361.809C29.7356 363.545 27.4567 365.173 25.9374 366.258L24.2011 367.56L23.767 367.886H23.6585L3.36511 382.211L0.326538 375.048V141.404C21.8136 128.381 47.2074 113.839 75.5313 99.4061C164.844 53.6104 290.402 4.125 420.518 4.125C606.414 4.125 765.831 100.708 904.412 184.486L906.473 185.788H906.582L912.008 189.153C1058.73 277.922 1183.85 351.608 1324.49 351.608C1420.43 351.608 1520.81 314.168 1600.79 273.148C1640.07 253.071 1672.74 232.886 1695.42 217.911C1698.13 216.066 1704.64 211.508 1710.5 207.493C1716.36 203.477 1721.46 199.896 1721.46 199.896L1736.44 189.37V189.587Z" fill="#75BEC9"/>
<path d="M1324.49 559.749C1139.9 559.749 982.22 464.251 842.988 379.931L835.5 375.373C696.811 291.486 565.935 212.266 420.517 212.266C317.64 212.266 212.266 255.132 141.945 291.269C101.25 312.105 67.8254 332.833 46.7724 346.723C41.1293 350.413 34.6181 354.971 29.5176 358.444L4.99195 375.59L0 364.087V385.899L1.19373 388.612L34.8351 364.846C39.9356 361.265 46.4468 356.816 52.0899 353.235C72.8173 339.561 105.916 318.833 146.286 298.215C215.63 262.728 319.485 220.297 420.409 220.297C563.005 220.297 692.904 298.866 830.4 382.101L837.996 386.659C978.205 471.522 1137.08 567.78 1324.39 567.78C1430.84 567.78 1547.72 535.441 1671.76 471.848C1693.68 460.561 1715.17 448.733 1736.33 436.144V426.486C1713.76 440.051 1690.75 452.965 1667.42 464.794C1544.68 527.627 1429.22 559.641 1324.28 559.641L1324.49 559.749ZM1718.75 196.856C1718.75 196.856 1698.46 210.856 1692.81 214.545C1672.09 228.219 1638.99 248.946 1598.62 269.565C1529.27 305.051 1425.31 347.483 1324.49 347.483C1181.79 347.483 1051.89 268.914 914.395 185.679L906.907 181.121C766.698 96.2578 607.715 0 420.517 0C314.059 0 197.182 32.3391 73.0344 95.9322C48.2917 108.521 23.8745 122.303 0.108521 136.736V146.394C25.2853 130.984 51.2217 116.443 77.3752 102.986C200.112 40.0441 315.578 8.13904 420.517 8.13904C605.111 8.13904 762.791 103.637 901.915 187.849L909.511 192.516C1048.09 276.402 1179.08 355.622 1324.49 355.622C1427.37 355.622 1532.74 312.756 1602.85 276.728C1643.65 255.783 1677.08 235.056 1698.02 221.165C1703.01 217.801 1719.94 206.298 1724.18 203.259L1736.44 194.577V184.268L1718.75 196.748V196.856Z" fill="#75BEC9"/>
</svg>
