<svg width="160" height="160" viewBox="0 0 160 160" fill="none" xmlns="http://www.w3.org/2000/svg">
<g clip-path="url(#clip0_274_2261)">
<path d="M160.001 125.15V147.44C159.87 147.52 159.73 147.61 159.581 147.69C157.87 148.7 155.941 149.77 153.851 150.85C145.601 155.08 134.031 159.64 122.041 159.64C104.911 159.64 90.2005 150.74 77.4405 143.01L77.2505 142.9L76.7505 142.59C63.2205 134.4 51.7005 127.62 38.7405 127.62C29.9005 127.62 20.6505 131.07 13.2805 134.85C9.66051 136.7 6.65051 138.55 4.56051 139.94C4.03051 140.28 3.44051 140.7 2.97051 141.02C2.73051 141.18 2.52051 141.32 2.38051 141.42L2.22051 141.54L2.18051 141.57H2.17051V141.59L0.300508 142.9L0.0205078 142.24V120.72C2.00051 119.52 4.34051 118.18 6.95051 116.85C15.2005 112.62 26.7705 108.07 38.7605 108.07C55.8905 108.07 70.5805 116.97 83.3505 124.69L83.5405 124.81H83.5505L84.0505 125.11C97.5705 133.3 109.101 140.09 122.061 140.09C130.901 140.09 140.151 136.64 147.521 132.86C151.141 131.01 154.151 129.15 156.241 127.76C156.491 127.59 157.091 127.18 157.631 126.81C158.171 126.44 158.641 126.11 158.641 126.11L160.021 125.14L160.001 125.15Z" fill="#75BEC9"/>
<path d="M122.04 159.25C105.03 159.25 90.5002 150.45 77.6702 142.69L76.9802 142.27C64.2002 134.54 52.1402 127.23 38.7402 127.23C29.2602 127.23 19.5502 131.19 13.0702 134.51C9.32023 136.43 6.24023 138.35 4.30023 139.63C3.78023 139.97 3.18023 140.39 2.71023 140.71L0.450234 142.29L-0.00976562 141.23V143.23L0.100234 143.48L3.20023 141.29C3.67023 140.97 4.27023 140.56 4.79023 140.22C6.70023 138.96 9.75023 137.05 13.4702 135.15C19.8602 131.88 29.4302 127.96 38.7302 127.96C51.8702 127.96 63.8402 135.21 76.5102 142.87L77.2102 143.3C90.1302 151.12 104.77 159.98 122.03 159.98C131.84 159.98 142.61 157.01 154.04 151.15C156.06 150.11 158.04 149.02 159.99 147.86V146.97C157.91 148.22 155.79 149.41 153.64 150.5C142.33 156.29 131.69 159.23 122.02 159.23L122.04 159.25ZM158.37 125.82C158.37 125.82 156.5 127.12 155.98 127.46C154.07 128.72 151.02 130.63 147.3 132.53C140.9 135.8 131.33 139.71 122.04 139.71C108.89 139.71 96.9202 132.47 84.2502 124.8L83.5602 124.38C70.6402 116.56 55.9902 107.69 38.7402 107.69C28.9302 107.69 18.1602 110.67 6.72023 116.53C4.19023 117.83 1.91023 119.13 0.000234375 120.27V121.18C1.97023 119.98 4.39023 118.57 7.12023 117.18C18.4302 111.39 29.0702 108.44 38.7402 108.44C55.7502 108.44 70.2802 117.24 83.1002 125L83.8002 125.43C96.5702 133.15 108.64 140.46 122.04 140.46C131.52 140.46 141.22 136.51 147.69 133.18C151.45 131.26 154.53 129.34 156.46 128.07C156.61 127.97 158.84 126.45 158.87 126.42L160 125.62V124.66L158.37 125.81V125.82Z" fill="#75BEC9"/>
<path d="M160.001 71.31V93.61C159.87 93.69 159.73 93.78 159.581 93.86C157.87 94.87 155.941 95.94 153.851 97.02C145.601 101.25 134.031 105.81 122.041 105.81C104.911 105.81 90.2005 96.9 77.4405 89.18L77.2505 89.06L76.7505 88.76C63.2205 80.57 51.7005 73.79 38.7405 73.79C29.9005 73.79 20.6505 77.23 13.2805 81.02C9.66051 82.87 6.65051 84.72 4.56051 86.11C4.03051 86.45 3.44051 86.86 2.97051 87.18C2.73051 87.35 2.52051 87.49 2.38051 87.59L2.22051 87.71L2.18051 87.74H2.17051L0.300508 89.07L0.0205078 88.41V66.89C2.00051 65.69 4.34051 64.35 6.95051 63.02C15.2005 58.79 26.7705 54.23 38.7605 54.23C55.8905 54.23 70.5805 63.13 83.3505 70.86L83.5405 70.97H83.5505L84.0505 71.28C97.5705 79.47 109.101 86.25 122.061 86.25C130.901 86.25 140.151 82.81 147.521 79.02C151.141 77.17 154.151 75.32 156.241 73.93C156.491 73.76 157.091 73.35 157.631 72.98C158.171 72.61 158.641 72.28 158.641 72.28L160.021 71.3L160.001 71.31Z" fill="#75BEC9"/>
<path d="M122.04 105.42C105.03 105.42 90.5002 96.6201 77.6702 88.8601L76.9802 88.4401C64.2002 80.7101 52.1402 73.4001 38.7402 73.4001C29.2602 73.4001 19.5502 77.3501 13.0702 80.6801C9.32023 82.6001 6.24023 84.5201 4.30023 85.7901C3.78023 86.1401 3.18023 86.5501 2.71023 86.8701L0.460234 88.4501L-0.00976562 87.3801V89.4101L0.100234 89.6601L3.20023 87.4701C3.67023 87.1401 4.27023 86.7301 4.79023 86.4001C6.70023 85.1501 9.75023 83.2301 13.4702 81.3301C19.8602 78.0601 29.4302 74.1501 38.7302 74.1501C51.8702 74.1501 63.8402 81.4001 76.5102 89.0601L77.2102 89.4801C90.1302 97.3001 104.77 106.17 122.03 106.17C131.84 106.17 142.61 103.19 154.04 97.3401C156.06 96.3001 158.04 95.2101 159.99 94.0501V93.1401C157.91 94.4001 155.78 95.5901 153.64 96.6801C142.32 102.48 131.69 105.42 122.02 105.42H122.04ZM158.37 71.9801C158.37 71.9801 156.5 73.2801 155.98 73.6201C154.07 74.8701 151.02 76.7801 147.3 78.6901C140.9 81.9601 131.33 85.8701 122.04 85.8701C108.89 85.8701 96.9202 78.6201 84.2502 70.9601L83.5602 70.5301C70.6402 62.7201 55.9902 53.8501 38.7402 53.8501C28.9302 53.8501 18.1602 56.8201 6.72023 62.6801C4.44023 63.8401 2.19023 65.1101 0.000234375 66.4401V67.3401C2.32023 65.9201 4.75023 64.5501 7.12023 63.3301C18.4302 57.5401 29.0702 54.6001 38.7402 54.6001C55.7502 54.6001 70.2802 63.4001 83.1002 71.1601L83.8002 71.5801C96.5802 79.3101 108.64 86.6201 122.04 86.6201C131.52 86.6201 141.22 82.6601 147.69 79.3401C151.45 77.4101 154.54 75.5001 156.46 74.2201C156.7 74.0601 158.85 72.6001 158.87 72.5701L160 71.7701V70.8201L158.37 71.9701V71.9801Z" fill="#75BEC9"/>
<path d="M160.001 17.4699V39.7699C159.87 39.8499 159.73 39.9299 159.581 40.0199C157.87 41.0299 155.941 42.0999 153.851 43.1799C145.601 47.4099 134.031 51.9599 122.041 51.9599C104.911 51.9599 90.2005 43.0599 77.4405 35.3399L77.2505 35.2199L76.7505 34.9099C63.2205 26.7299 51.7005 19.9399 38.7405 19.9399C29.9005 19.9399 20.6505 23.3899 13.2805 27.1699C9.66051 29.0199 6.65051 30.8799 4.56051 32.2599C4.03051 32.6099 3.44051 33.0199 2.97051 33.3399C2.73051 33.4999 2.52051 33.6499 2.38051 33.7499L2.22051 33.8699L2.18051 33.8999H2.17051L0.300508 35.2199L0.0205078 34.5599V13.0299C2.00051 11.8299 4.34051 10.4899 6.95051 9.15988C15.1805 4.93988 26.7505 0.379883 38.7405 0.379883C55.8705 0.379883 70.5605 9.27988 83.3305 16.9999L83.5205 17.1199H83.5305L84.0305 17.4299C97.5505 25.6099 109.081 32.3999 122.041 32.3999C130.881 32.3999 140.131 28.9499 147.501 25.1699C151.12 23.3199 154.131 21.4599 156.221 20.0799C156.471 19.9099 157.071 19.4899 157.611 19.1199C158.15 18.7499 158.62 18.4199 158.62 18.4199L160.001 17.4499V17.4699Z" fill="#75BEC9"/>
<path d="M122.04 51.58C105.03 51.58 90.5002 42.78 77.6702 35.01L76.9802 34.59C64.2002 26.86 52.1402 19.56 38.7402 19.56C29.2602 19.56 19.5502 23.51 13.0702 26.84C9.32023 28.76 6.24023 30.67 4.30023 31.95C3.78023 32.29 3.18023 32.71 2.71023 33.03L0.450234 34.61L-0.00976562 33.55V35.56L0.100234 35.81L3.20023 33.62C3.67023 33.29 4.27023 32.88 4.79023 32.55C6.70023 31.29 9.75023 29.38 13.4702 27.48C19.8602 24.21 29.4302 20.3 38.7302 20.3C51.8702 20.3 63.8402 27.54 76.5102 35.21L77.2102 35.63C90.1302 43.45 104.77 52.32 122.03 52.32C131.84 52.32 142.61 49.34 154.04 43.48C156.06 42.44 158.04 41.35 159.99 40.19V39.3C157.91 40.55 155.79 41.74 153.64 42.83C142.33 48.62 131.69 51.57 122.02 51.57L122.04 51.58ZM158.37 18.14C158.37 18.14 156.5 19.43 155.98 19.77C154.07 21.03 151.02 22.94 147.3 24.84C140.91 28.11 131.33 32.02 122.04 32.02C108.89 32.02 96.9202 24.78 84.2502 17.11L83.5602 16.69C70.6402 8.87 55.9902 0 38.7402 0C28.9302 0 18.1602 2.98 6.72023 8.84C4.44023 10 2.19023 11.27 0.000234375 12.6V13.49C2.32023 12.07 4.71023 10.73 7.12023 9.49C18.4302 3.69 29.0702 0.75 38.7402 0.75C55.7502 0.75 70.2802 9.55 83.1002 17.31L83.8002 17.74C96.5702 25.47 108.64 32.77 122.04 32.77C131.52 32.77 141.23 28.82 147.69 25.5C151.45 23.57 154.53 21.66 156.46 20.38C156.92 20.07 158.48 19.01 158.87 18.73L160 17.93V16.98L158.37 18.13V18.14Z" fill="#75BEC9"/>
</g>
<defs>
<clipPath id="clip0_274_2261">
<rect width="160" height="160" fill="white"/>
</clipPath>
</defs>
</svg>
