<svg width="160" height="160" viewBox="0 0 160 160" fill="none" xmlns="http://www.w3.org/2000/svg">
<g clip-path="url(#clip0_274_2273)">
<path d="M79.9999 59.16C96.3586 59.16 109.62 45.9166 109.62 29.58C109.62 13.2434 96.3586 0 79.9999 0C63.6412 0 50.3799 13.2434 50.3799 29.58C50.3799 45.9166 63.6412 59.16 79.9999 59.16Z" fill="#A295C3"/>
<path d="M160 78.13C160 123.35 124.18 160 80 160C35.82 160 0 123.34 0 78.13L36 77.96C36 77.96 38 125.89 80 125.89C122 125.89 124 77.96 124 77.96L160 78.13Z" fill="#A295C3"/>
</g>
<defs>
<clipPath id="clip0_274_2273">
<rect width="160" height="160" fill="white"/>
</clipPath>
</defs>
</svg>
