<svg width="3940" height="1629" viewBox="0 0 3940 1629" fill="none" xmlns="http://www.w3.org/2000/svg">
<g clip-path="url(#clip0_114_559)">
<path d="M1277.72 1118.71C1352.28 1118.71 1412.72 1058.35 1412.72 983.89C1412.72 909.432 1352.28 849.071 1277.72 849.071C1203.17 849.071 1142.73 909.432 1142.73 983.89C1142.73 1058.35 1203.17 1118.71 1277.72 1118.71Z" fill="#A295C3"/>
<path d="M1642.33 1205.17C1642.33 1411.27 1479.08 1578.32 1277.72 1578.32C1076.37 1578.32 913.115 1411.23 913.115 1205.17L1077.19 1204.4C1077.19 1204.4 1086.3 1422.85 1277.72 1422.85C1469.14 1422.85 1478.26 1204.4 1478.26 1204.4L1642.33 1205.17Z" fill="#A295C3"/>
<path d="M0 849.071C0 1343.45 729.216 1343.45 729.216 849.071C540.714 868.396 414.559 974.137 371.627 1195.14C331.201 974.775 203.679 864.02 0 849.071Z" fill="#BCD176"/>
<path d="M0 1578.32C0 1083.93 729.216 1083.93 729.216 1578.32C540.714 1558.99 414.559 1453.25 371.627 1232.24C331.155 1452.66 203.634 1563.41 0 1578.32Z" fill="#BCD176"/>
<path d="M243.057 0H0V243.067H243.057V0Z" fill="#DA655C"/>
<path d="M486.114 243.067H243.057V486.134H486.114V243.067Z" fill="#DA655C"/>
<path d="M729.216 0H486.159V243.067H729.216V0Z" fill="#DA655C"/>
<path d="M729.216 486.18H486.159V729.247H729.216V486.18Z" fill="#DA655C"/>
<path d="M243.057 486.18H0V729.247H243.057V486.18Z" fill="#DA655C"/>
<path d="M1642.33 570.408V672.001C1641.74 672.365 1641.1 672.776 1640.42 673.14C1632.62 677.744 1623.83 682.62 1614.3 687.543C1576.7 706.822 1523.97 727.606 1469.32 727.606C1391.25 727.606 1324.21 687.041 1266.06 651.81L1265.19 651.308L1262.91 649.895C1201.25 612.567 1148.74 581.665 1089.68 581.665C1049.39 581.665 1007.23 597.39 973.64 614.618C957.142 623.05 943.423 631.482 933.898 637.817C931.482 639.367 928.793 641.281 926.651 642.74C925.557 643.469 924.6 644.107 923.962 644.563L923.233 645.11L923.051 645.247H923.005V645.338L914.482 651.308L913.206 648.3V550.217C922.23 544.747 932.895 538.64 944.791 532.578C982.391 513.298 1035.12 492.561 1089.77 492.561C1167.84 492.561 1234.79 533.125 1292.99 568.311L1293.86 568.858H1293.9L1296.18 570.225C1357.8 607.554 1410.35 638.501 1469.42 638.501C1509.71 638.501 1551.86 622.777 1585.45 605.548C1601.95 597.116 1615.67 588.639 1625.19 582.303C1626.33 581.529 1629.07 579.66 1631.53 577.974C1633.99 576.287 1636.13 574.783 1636.13 574.783L1642.42 570.362L1642.33 570.408Z" fill="#75BEC9"/>
<path d="M1469.32 725.828C1391.8 725.828 1325.58 685.72 1267.1 650.351L1263.96 648.437C1205.71 613.205 1150.75 579.888 1089.68 579.888C1046.47 579.888 1002.22 597.937 972.683 613.069C955.592 621.819 941.555 630.57 932.713 636.404C930.343 637.954 927.608 639.868 925.466 641.327L915.166 648.528L913.07 643.697V652.812L913.571 653.952L927.7 643.97C929.842 642.512 932.576 640.643 934.946 639.094C943.651 633.351 957.552 624.645 974.506 615.986C1003.63 601.082 1047.25 583.215 1089.63 583.215C1149.52 583.215 1204.07 616.259 1261.82 651.172L1265.01 653.132C1323.89 688.773 1390.61 729.155 1469.28 729.155C1513.99 729.155 1563.07 715.619 1615.17 688.91C1624.37 684.17 1633.4 679.202 1642.29 673.915V669.859C1632.81 675.556 1623.14 680.98 1613.34 685.948C1561.8 712.337 1513.31 725.737 1469.23 725.737L1469.32 725.828ZM1634.86 573.461C1634.86 573.461 1626.33 579.386 1623.96 580.936C1615.26 586.679 1601.36 595.384 1584.4 604.044C1555.24 618.948 1511.62 636.769 1469.28 636.769C1409.35 636.769 1354.79 603.771 1297.05 568.812L1293.9 566.898C1235.02 531.256 1168.25 490.829 1089.63 490.829C1044.92 490.829 995.836 504.411 943.697 531.119C932.166 537.045 921.775 542.97 913.07 548.166V552.313C922.048 546.844 933.077 540.417 945.52 534.082C997.066 507.692 1045.56 494.247 1089.63 494.247C1167.16 494.247 1233.38 534.356 1291.81 569.724L1295 571.684C1353.2 606.87 1408.21 640.187 1469.28 640.187C1512.49 640.187 1556.69 622.184 1586.18 607.007C1603.32 598.256 1617.36 589.505 1626.15 583.716C1626.84 583.261 1637 576.333 1637.14 576.196L1642.29 572.55V568.174L1634.86 573.416V573.461Z" fill="#75BEC9"/>
<path d="M1642.33 325.016V426.655C1641.74 427.019 1641.1 427.43 1640.42 427.794C1632.62 432.398 1623.83 437.274 1614.3 442.197C1576.7 461.476 1523.97 482.26 1469.32 482.26C1391.25 482.26 1324.21 441.65 1266.06 406.464L1265.19 405.917L1262.91 404.549C1201.25 367.221 1148.74 336.319 1089.68 336.319C1049.39 336.319 1007.23 351.998 973.64 369.272C957.142 377.704 943.423 386.136 933.898 392.471C931.482 394.021 928.793 395.89 926.651 397.348C925.557 398.123 924.6 398.761 923.962 399.217L923.233 399.764L923.051 399.901H923.005L914.482 405.962L913.206 402.954V304.871C922.23 299.401 932.895 293.294 944.791 287.232C982.391 267.952 1035.12 247.169 1089.77 247.169C1167.84 247.169 1234.79 287.733 1292.99 322.965L1293.86 323.466H1293.9L1296.18 324.879C1357.8 362.208 1410.35 393.109 1469.42 393.109C1509.71 393.109 1551.86 377.431 1585.45 360.157C1601.95 351.725 1615.67 343.293 1625.19 336.957C1626.33 336.183 1629.07 334.314 1631.53 332.628C1633.99 330.941 1636.13 329.437 1636.13 329.437L1642.42 324.97L1642.33 325.016Z" fill="#75BEC9"/>
<path d="M1469.32 480.482C1391.8 480.482 1325.58 440.374 1267.1 405.005L1263.96 403.091C1205.71 367.859 1150.75 334.542 1089.68 334.542C1046.47 334.542 1002.22 352.545 972.683 367.723C955.592 376.474 941.555 385.224 932.713 391.013C930.343 392.608 927.608 394.477 925.466 395.935L915.212 403.137L913.07 398.26V407.512L913.571 408.652L927.7 398.67C929.842 397.166 932.576 395.297 934.946 393.793C943.651 388.096 957.552 379.345 974.506 370.685C1003.63 355.781 1047.25 337.96 1089.63 337.96C1149.52 337.96 1204.07 371.004 1261.82 405.917L1265.01 407.831C1323.89 443.473 1390.61 483.901 1469.28 483.901C1513.99 483.901 1563.07 470.318 1615.17 443.655C1624.37 438.915 1633.4 433.947 1642.29 428.66V424.513C1632.81 430.255 1623.1 435.679 1613.34 440.647C1561.75 467.082 1513.31 480.482 1469.23 480.482H1469.32ZM1634.86 328.07C1634.86 328.07 1626.33 333.995 1623.96 335.545C1615.26 341.242 1601.36 349.947 1584.4 358.653C1555.24 373.557 1511.62 391.377 1469.28 391.377C1409.35 391.377 1354.79 358.333 1297.05 323.421L1293.9 321.461C1235.02 285.865 1168.25 245.437 1089.63 245.437C1044.92 245.437 995.836 258.974 943.697 285.682C933.305 290.969 923.051 296.758 913.07 302.82V306.922C923.643 300.45 934.718 294.205 945.52 288.645C997.066 262.255 1045.56 248.855 1089.63 248.855C1167.16 248.855 1233.38 288.964 1291.81 324.332L1295 326.247C1353.24 361.478 1408.21 394.796 1469.28 394.796C1512.49 394.796 1556.69 376.747 1586.18 361.615C1603.32 352.819 1617.4 344.113 1626.15 338.279C1627.25 337.55 1637.04 330.896 1637.14 330.759L1642.29 327.113V322.783L1634.86 328.024V328.07Z" fill="#75BEC9"/>
<path d="M1642.33 79.6246V181.263C1641.74 181.628 1641.1 181.993 1640.42 182.403C1632.62 187.006 1623.83 191.883 1614.3 196.805C1576.7 216.085 1523.97 236.823 1469.32 236.823C1391.25 236.823 1324.21 196.258 1266.06 161.072L1265.19 160.525L1262.91 159.112C1201.25 121.83 1148.74 90.8823 1089.68 90.8823C1049.39 90.8823 1007.23 106.607 973.64 123.835C957.142 132.267 943.423 140.745 933.898 147.034C931.482 148.63 928.793 150.498 926.651 151.957C925.557 152.686 924.6 153.37 923.962 153.825L923.233 154.372L923.051 154.509H923.005L914.482 160.525L913.206 157.517V59.388C922.23 53.9186 932.895 47.8112 944.791 41.7493C982.391 22.5155 1035.12 1.73193 1089.77 1.73193C1167.84 1.73193 1234.79 42.2963 1292.99 77.4824L1293.86 78.0294H1293.9L1296.18 79.4423C1357.8 116.725 1410.35 147.672 1469.42 147.672C1509.71 147.672 1551.86 131.948 1585.45 114.72C1601.95 106.288 1615.67 97.8102 1625.19 91.5204C1626.33 90.7456 1629.07 88.8313 1631.53 87.1449C1633.99 85.4586 1636.13 83.9545 1636.13 83.9545L1642.42 79.5334L1642.33 79.6246Z" fill="#75BEC9"/>
<path d="M1469.32 235.091C1391.8 235.091 1325.58 194.982 1267.1 159.568L1263.96 157.654C1205.71 122.422 1150.75 89.1504 1089.68 89.1504C1046.47 89.1504 1002.22 107.154 972.683 122.331C955.592 131.082 941.555 139.787 932.713 145.621C930.343 147.171 927.608 149.085 925.466 150.544L915.166 157.745L913.07 152.914V162.075L913.571 163.214L927.7 153.233C929.842 151.729 932.576 149.86 934.946 148.356C943.651 142.613 957.552 133.908 974.506 125.248C1003.63 110.344 1047.25 92.5231 1089.63 92.5231C1149.52 92.5231 1204.07 125.522 1261.82 160.48L1265.01 162.394C1323.89 198.036 1390.61 238.464 1469.28 238.464C1513.99 238.464 1563.07 224.881 1615.17 198.173C1624.37 193.433 1633.4 188.465 1642.29 183.178V179.121C1632.81 184.818 1623.14 190.242 1613.34 195.21C1561.8 221.6 1513.31 235.045 1469.23 235.045L1469.32 235.091ZM1634.86 82.6783C1634.86 82.6783 1626.33 88.5579 1623.96 90.1075C1615.26 95.8503 1601.36 104.556 1584.4 113.216C1555.28 128.119 1511.62 145.94 1469.28 145.94C1409.35 145.94 1354.79 112.942 1297.05 77.9838L1293.9 76.0695C1235.02 40.4276 1168.25 0 1089.63 0C1044.92 0 995.836 13.5822 943.697 40.2909C933.305 45.5779 923.051 51.3663 913.07 57.4282V61.4846C923.643 55.0125 934.536 48.9051 945.52 43.2534C997.066 16.8638 1045.56 3.41834 1089.63 3.41834C1167.16 3.41834 1233.38 43.5269 1291.81 78.8954L1295 80.8552C1353.2 116.087 1408.21 149.359 1469.28 149.359C1512.49 149.359 1556.74 131.356 1586.18 116.224C1603.32 107.427 1617.36 98.7217 1626.15 92.8878C1628.25 91.4749 1635.36 86.6436 1637.14 85.3674L1642.29 81.7212V77.3913L1634.86 82.6327V82.6783Z" fill="#75BEC9"/>
<path d="M2081.5 414.987C2055.84 414.987 2032.28 410.566 2010.81 401.769C1989.35 392.927 1970.66 380.439 1954.85 364.304C1939.03 348.17 1926.77 328.982 1918.11 306.831C1909.45 284.68 1905.12 260.432 1905.12 234.134C1905.12 207.835 1909.63 184.773 1918.61 162.941C1927.59 141.109 1940.26 122.149 1956.58 105.969C1972.89 89.8342 1992.04 77.2547 2014.05 68.2303C2036.02 59.2515 2059.85 54.7393 2085.51 54.7393C2102.15 54.7393 2118.56 56.9726 2134.73 61.4848C2150.87 65.997 2165.73 72.5602 2179.22 81.22C2192.71 89.8798 2204.28 100.226 2213.95 112.213L2167 164.172C2159.35 156.196 2151.19 149.268 2142.53 143.434C2133.87 137.6 2124.8 133.133 2115.32 129.943C2105.84 126.798 2095.77 125.203 2085.1 125.203C2070.79 125.203 2057.39 127.892 2044.9 133.179C2032.42 138.511 2021.48 145.941 2012.18 155.421C2002.84 164.901 1995.45 176.387 1989.94 189.878C1984.42 203.369 1981.69 218.273 1981.69 234.59C1981.69 250.907 1984.33 266.312 1989.67 279.803C1995 293.294 2002.47 304.78 2012.14 314.26C2021.8 323.74 2033.37 331.078 2046.86 336.228C2060.35 341.379 2075.26 343.977 2091.57 343.977C2102.24 343.977 2112.54 342.473 2122.57 339.464C2132.59 336.456 2141.8 332.309 2150.28 326.976C2158.75 321.643 2166.32 315.49 2173.02 308.471L2209.98 366.948C2201.64 375.927 2190.75 384.085 2177.26 391.423C2163.77 398.761 2148.68 404.504 2132.05 408.652C2115.36 412.799 2098.59 414.896 2081.59 414.896L2081.5 414.987Z" fill="white"/>
<path d="M2385.27 414.987C2358.28 414.987 2334.22 409.062 2313.07 397.257C2291.93 385.453 2275.25 369.181 2263.12 348.535C2250.95 327.888 2244.89 304.233 2244.89 277.57C2244.89 250.907 2250.95 227.297 2263.12 206.605C2275.29 185.958 2291.93 169.732 2313.07 157.882C2334.22 146.077 2358.28 140.152 2385.27 140.152C2412.25 140.152 2435.81 146.077 2456.96 157.882C2478.1 169.687 2494.69 185.958 2506.68 206.605C2518.67 227.252 2524.68 250.907 2524.68 277.57C2524.68 304.233 2518.67 327.888 2506.68 348.535C2494.69 369.181 2478.1 385.407 2456.96 397.257C2435.81 409.108 2411.93 414.987 2385.27 414.987ZM2385.27 353.047C2398.26 353.047 2409.92 349.811 2420.22 343.293C2430.52 336.775 2438.64 327.797 2444.47 316.311C2450.3 304.825 2453.04 291.927 2452.72 277.57C2453.04 262.939 2450.3 249.858 2444.47 238.327C2438.64 226.842 2430.57 217.863 2420.22 211.345C2409.88 204.873 2398.26 201.591 2385.27 201.591C2372.28 201.591 2360.11 204.919 2349.81 211.573C2339.46 218.227 2331.3 227.252 2325.33 238.555C2319.32 249.904 2316.49 262.894 2316.86 277.524C2316.54 291.836 2319.36 304.734 2325.33 316.265C2331.35 327.751 2339.51 336.73 2349.81 343.247C2360.11 349.72 2371.96 353.001 2385.27 353.001V353.047Z" fill="white"/>
<path d="M2579.1 410.019V40.291H2650.06V410.019H2579.1Z" fill="white"/>
<path d="M2722.48 410.019V40.291H2793.44V410.019H2722.48Z" fill="white"/>
<path d="M2985.78 414.987C2957.11 414.987 2932.09 409.153 2910.58 397.485C2889.11 385.817 2872.43 369.865 2860.62 349.537C2848.82 329.209 2842.89 305.919 2842.89 279.575C2842.89 258.928 2846.22 240.105 2852.88 223.104C2859.53 206.103 2868.87 191.382 2880.86 178.893C2892.85 166.405 2907.07 156.743 2923.56 149.906C2940.06 143.069 2957.93 139.651 2977.25 139.651C2995.26 139.651 3011.89 142.978 3027.2 149.632C3042.52 156.287 3055.78 165.539 3066.9 177.344C3078.07 189.194 3086.64 203.141 3092.65 219.321C3098.67 235.501 3101.31 252.866 3100.63 271.553L3100.13 293.522H2887.79L2876.3 250.041H3041.65L3033.68 259.019V248.035C3032.99 239.056 3030.08 230.989 3024.93 223.788C3019.78 216.632 3013.17 210.98 3005.19 206.787C2997.22 202.64 2988.19 200.543 2978.21 200.543C2963.53 200.543 2951.14 203.369 2940.97 209.02C2930.81 214.672 2923.06 223.013 2917.73 233.997C2912.4 244.981 2909.75 258.336 2909.75 273.969C2909.75 289.602 2913.17 303.777 2920.01 315.445C2926.85 327.113 2936.51 336.183 2949 342.655C2961.48 349.173 2976.2 352.409 2993.2 352.409C3004.87 352.409 3015.49 350.585 3025.2 346.894C3034.86 343.247 3045.16 336.912 3056.19 327.888L3090.14 375.334C3080.48 383.994 3069.82 391.241 3058.15 397.075C3046.48 402.909 3034.5 407.33 3022.19 410.338C3009.89 413.346 2997.72 414.85 2985.73 414.85L2985.78 414.987Z" fill="white"/>
<path d="M3268.03 414.987C3242.73 414.987 3220.08 408.971 3200.07 396.984C3180.07 384.997 3164.34 368.68 3152.86 348.033C3141.37 327.386 3135.63 303.914 3135.63 277.57C3135.63 251.226 3141.37 227.799 3152.86 207.106C3164.34 186.459 3180.07 170.143 3200.07 158.156C3220.08 146.169 3242.69 140.152 3268.03 140.152C3291.68 140.152 3313.33 144.482 3332.97 153.142C3352.62 161.802 3367.93 173.789 3378.91 189.103L3339.95 236.048C3335.3 229.713 3329.46 223.97 3322.45 218.82C3315.43 213.67 3307.86 209.567 3299.7 206.559C3291.54 203.551 3283.11 202.047 3274.45 202.047C3260.78 202.047 3248.7 205.283 3238.22 211.801C3227.74 218.273 3219.49 227.206 3213.47 238.509C3207.46 249.858 3204.49 262.848 3204.49 277.479C3204.49 292.109 3207.55 304.142 3213.75 315.445C3219.9 326.794 3228.33 335.773 3239 342.427C3249.66 349.081 3261.65 352.409 3274.96 352.409C3283.61 352.409 3291.77 351.269 3299.43 348.899C3307.09 346.575 3314.33 342.883 3321.17 337.915C3328.01 332.901 3334.25 326.931 3339.9 319.912L3378.37 366.857C3367.38 381.168 3351.8 392.745 3331.65 401.587C3311.51 410.429 3290.27 414.805 3267.94 414.805L3268.03 414.987Z" fill="white"/>
<path d="M3399.92 209.157V145.713H3574.8V209.157H3399.92ZM3449.37 410.019V78.7588H3520.34V410.019H3449.37Z" fill="white"/>
<path d="M3661.71 91.7484C3648.04 91.7484 3637.42 88.33 3629.72 81.4934C3622.06 74.6567 3618.23 65.0853 3618.23 52.7793C3618.23 41.476 3622.15 32.2236 3629.99 25.0679C3637.83 17.9122 3648.4 14.3115 3661.71 14.3115C3675.02 14.3115 3686 17.7299 3693.71 24.5666C3701.36 31.4032 3705.19 40.7923 3705.19 52.7793C3705.19 64.1282 3701.27 73.4261 3693.43 80.7641C3685.59 88.1021 3675.02 91.7484 3661.71 91.7484ZM3626.76 410.019V145.713H3697.72V410.019H3626.76Z" fill="white"/>
<path d="M3754.64 212.165V152.23H3922.5V212.165H3754.64ZM3794.11 410.019V127.208C3794.11 110.891 3797.76 96.0784 3805.1 82.7241C3812.43 69.4154 3822.51 58.9324 3835.31 51.2298C3848.12 43.5727 3863.2 39.7441 3880.52 39.7441C3892.19 39.7441 3903.17 41.6584 3913.47 45.487C3923.78 49.3155 3932.62 54.4202 3939.95 60.71L3918.99 113.17C3914.66 110.527 3910.24 108.248 3905.73 106.425C3901.21 104.602 3897.16 103.69 3893.47 103.69C3887.13 103.69 3881.89 104.784 3877.74 106.926C3873.6 109.114 3870.5 112.259 3868.49 116.406C3866.49 120.554 3865.48 125.841 3865.48 132.131V409.928H3794.02L3794.11 410.019Z" fill="white"/>
<path d="M1962.5 1214.61V600.216H2094.17V1214.61H1962.5ZM2015.19 967.984L2016.05 848.615H2417.17V967.984H2015.19ZM2349.58 1214.61V600.216H2481.25V1214.61H2349.58Z" fill="white"/>
<path d="M2797.18 1223.4C2758.58 1223.4 2723.76 1212.87 2692.72 1191.82C2661.68 1170.76 2637.12 1142.09 2618.98 1105.81C2600.84 1069.53 2591.77 1028.01 2591.77 981.156C2591.77 934.302 2600.98 892.826 2619.44 856.5C2637.85 820.22 2662.87 791.871 2694.45 771.361C2726.04 750.896 2762.04 740.641 2802.42 740.641C2825.26 740.641 2846.18 744.014 2865.18 750.714C2884.19 757.459 2900.87 766.666 2915.22 778.38C2929.53 790.093 2941.7 803.539 2951.64 818.762C2961.57 833.985 2968.59 850.347 2972.7 867.895L2946.35 863.519V750.304H3070.09V1214.61H2944.57V1103.12L2972.65 1100.48C2967.96 1116.89 2960.34 1132.38 2949.82 1147.01C2939.29 1161.64 2926.25 1174.68 2910.76 1186.07C2895.26 1197.47 2877.85 1206.58 2858.53 1213.28C2839.2 1219.98 2818.74 1223.36 2797.09 1223.36L2797.18 1223.4ZM2831.41 1115.43C2854.79 1115.43 2875.3 1109.87 2892.85 1098.75C2910.39 1087.63 2924.02 1071.99 2933.68 1051.8C2943.34 1031.61 2948.18 1008.05 2948.18 981.156C2948.18 954.265 2943.34 931.704 2933.68 911.832C2924.02 891.96 2910.44 876.281 2892.85 864.886C2875.25 853.492 2854.79 847.795 2831.41 847.795C2808.03 847.795 2788.52 853.492 2771.29 864.886C2754.02 876.281 2740.44 891.96 2730.46 911.832C2720.48 931.749 2715.56 954.857 2715.56 981.156C2715.56 1007.45 2720.52 1031.61 2730.46 1051.8C2740.39 1071.99 2754.02 1087.67 2771.29 1098.75C2788.57 1109.87 2808.58 1115.43 2831.41 1115.43Z" fill="white"/>
<path d="M3151.76 657.279C3129.52 657.279 3112.11 651.309 3099.53 639.276C3086.95 627.289 3080.66 610.152 3080.66 587.91C3080.66 567.445 3087.09 550.9 3099.99 538.321C3112.89 525.741 3130.11 519.452 3151.76 519.452C3174.6 519.452 3192.14 525.286 3204.4 536.999C3216.71 548.713 3222.82 565.668 3222.82 587.91C3222.82 608.42 3216.53 625.056 3203.95 637.954C3191.37 650.853 3173.96 657.279 3151.72 657.279H3151.76ZM3190.37 1214.61V750.304H3315.02V1214.61H3190.37ZM3351.89 657.279C3329.05 657.279 3311.51 651.309 3299.25 639.276C3286.94 627.289 3280.83 610.152 3280.83 587.91C3280.83 567.445 3287.26 550.9 3300.16 538.321C3313.01 525.741 3330.28 519.452 3351.93 519.452C3374.77 519.452 3392.31 525.286 3404.57 536.999C3416.88 548.713 3422.99 565.668 3422.99 587.91C3422.99 608.42 3416.51 625.056 3403.66 637.954C3390.81 650.853 3373.54 657.279 3351.89 657.279Z" fill="white"/>
<path d="M3393.13 861.787V750.304H3700.32V861.787H3393.13ZM3480 1214.61V632.667H3604.65V1214.61H3480Z" fill="white"/>
<path d="M3853 655.502C3828.98 655.502 3810.29 649.531 3796.85 637.498C3783.36 625.511 3776.66 608.693 3776.66 587.044C3776.66 567.172 3783.54 550.9 3797.3 538.321C3811.07 525.741 3829.61 519.452 3853.04 519.452C3876.47 519.452 3895.75 525.468 3909.24 537.455C3922.68 549.442 3929.43 565.987 3929.43 587.044C3929.43 606.961 3922.54 623.324 3908.78 636.177C3895.02 649.075 3876.47 655.502 3853.04 655.502H3853ZM3791.56 1214.61V750.304H3916.21V1214.61H3791.56Z" fill="white"/>
<path d="M2007.08 1629C1986.57 1629 1968.25 1623.94 1952.11 1613.82C1936.02 1603.7 1923.26 1589.89 1913.83 1572.35C1904.39 1554.8 1899.7 1534.79 1899.7 1512.27C1899.7 1489.76 1904.35 1469.75 1913.6 1452.2C1922.85 1434.66 1935.48 1420.85 1951.43 1410.73C1967.38 1400.61 1985.47 1395.55 2005.75 1395.55C2016.88 1395.55 2027.63 1397.33 2038.02 1400.88C2048.41 1404.44 2057.76 1409.31 2066.05 1415.42C2074.3 1421.57 2080.82 1428.23 2085.51 1435.52C2090.21 1442.77 2092.58 1450.15 2092.58 1457.54L2079.77 1458.4V1308.31H2123.8V1624.76H2079.77V1571.3H2088.34C2088.34 1578.13 2086.06 1584.93 2081.5 1591.63C2076.94 1598.33 2070.88 1604.52 2063.32 1610.22C2055.75 1615.92 2047.05 1620.48 2037.25 1623.89C2027.4 1627.31 2017.38 1629.05 2007.12 1629.05L2007.08 1629ZM2013.05 1590.94C2026.45 1590.94 2038.3 1587.52 2048.55 1580.69C2058.81 1573.85 2066.87 1564.51 2072.71 1552.66C2078.54 1540.85 2081.46 1527.36 2081.46 1512.23C2081.46 1497.1 2078.54 1483.65 2072.71 1471.8C2066.87 1460 2058.81 1450.65 2048.55 1443.77C2038.3 1436.89 2026.45 1433.52 2013.05 1433.52C1999.65 1433.52 1987.8 1436.93 1977.54 1443.77C1967.29 1450.61 1959.22 1459.95 1953.39 1471.8C1947.55 1483.65 1944.64 1497.1 1944.64 1512.23C1944.64 1527.36 1947.55 1540.81 1953.39 1552.66C1959.22 1564.51 1967.29 1573.8 1977.54 1580.69C1987.8 1587.52 1999.65 1590.94 2013.05 1590.94Z" fill="white"/>
<path d="M2289.28 1629C2266.18 1629 2245.71 1624.08 2227.94 1614.23C2210.12 1604.39 2196.13 1590.94 2186.05 1573.8C2175.94 1556.71 2170.88 1537.02 2170.88 1514.78C2170.88 1497.1 2173.7 1481.01 2179.44 1466.47C2185.14 1451.93 2193.07 1439.3 2203.19 1428.64C2213.31 1417.93 2225.43 1409.68 2239.51 1403.84C2253.64 1398.01 2268.96 1395.09 2285.5 1395.09C2300.04 1395.09 2313.57 1397.87 2326.11 1403.43C2338.64 1409 2349.53 1416.61 2358.83 1426.31C2368.08 1436.02 2375.24 1447.46 2380.21 1460.73C2385.17 1473.99 2387.54 1488.44 2387.27 1504.12L2386.86 1522.94H2203.42L2193.57 1487.89H2348.81L2342.38 1495.18V1484.93C2341.51 1475.54 2338.37 1467.11 2332.99 1459.68C2327.57 1452.25 2320.73 1446.41 2312.48 1442.13C2304.23 1437.85 2295.21 1435.7 2285.55 1435.7C2270.14 1435.7 2257.2 1438.62 2246.62 1444.45C2236.1 1450.29 2228.07 1458.86 2222.7 1470.11C2217.27 1481.37 2214.58 1495.27 2214.58 1511.82C2214.58 1528.36 2217.87 1541.13 2224.43 1552.66C2230.99 1564.19 2240.24 1573.12 2252.23 1579.37C2264.22 1585.65 2278.03 1588.75 2293.7 1588.75C2304.82 1588.75 2315.17 1586.89 2324.7 1583.19C2334.22 1579.5 2344.57 1572.8 2355.69 1563.09L2377.93 1594.31C2371.09 1601.15 2362.75 1607.12 2352.91 1612.27C2343.06 1617.42 2332.67 1621.48 2321.69 1624.44C2310.7 1627.45 2299.95 1628.95 2289.42 1628.95L2289.28 1629Z" fill="white"/>
<path d="M2565.93 1624.72V1325.41H2612.1V1624.72H2565.93ZM2586.44 1369.84V1325.36H2760.04V1369.84H2586.44ZM2586.44 1497.28V1452.8H2740.8V1497.28H2586.44Z" fill="white"/>
<path d="M2808.35 1624.72V1400.24H2852.83V1470.8L2848.55 1453.71C2851.69 1442.86 2857.02 1433.06 2864.59 1424.22C2872.15 1415.38 2880.86 1408.4 2890.66 1403.25C2900.5 1398.1 2910.67 1395.55 2921.24 1395.55C2926.07 1395.55 2930.72 1395.96 2935.14 1396.83C2939.56 1397.69 2943.07 1398.69 2945.62 1399.83L2934.09 1447.74C2930.67 1446.32 2926.89 1445.09 2922.74 1444.09C2918.6 1443.09 2914.54 1442.59 2910.58 1442.59C2902.87 1442.59 2895.53 1444.09 2888.56 1447.1C2881.59 1450.11 2875.44 1454.21 2870.19 1459.5C2864.95 1464.78 2860.71 1470.89 2857.57 1477.86C2854.43 1484.84 2852.88 1492.49 2852.88 1500.74V1624.76H2808.39L2808.35 1624.72Z" fill="white"/>
<path d="M3057.65 1629C3039.1 1629 3022.24 1623.85 3006.97 1613.59C2991.7 1603.34 2979.53 1589.35 2970.42 1571.71C2961.3 1554.02 2956.74 1534.06 2956.74 1511.86C2956.74 1489.67 2961.39 1469.34 2970.64 1451.79C2979.9 1434.25 2992.47 1420.53 3008.29 1410.55C3024.1 1400.56 3041.88 1395.6 3061.52 1395.6C3073.19 1395.6 3083.9 1397.33 3093.61 1400.75C3103.32 1404.16 3111.79 1408.95 3119.04 1415.06C3126.29 1421.21 3132.3 1428.23 3137 1436.21C3141.69 1444.18 3144.61 1452.75 3145.75 1461.87L3135.9 1458.45V1400.29H3180.38V1624.76H3135.9V1571.3L3146.16 1568.29C3144.43 1575.99 3140.96 1583.47 3135.67 1590.71C3130.39 1598.01 3123.69 1604.48 3115.58 1610.18C3107.46 1615.87 3098.48 1620.43 3088.64 1623.85C3078.8 1627.27 3068.45 1629 3057.65 1629ZM3069.18 1588.39C3082.58 1588.39 3094.43 1585.11 3104.68 1578.55C3114.94 1571.98 3123 1562.96 3128.84 1551.38C3134.67 1539.85 3137.59 1526.63 3137.59 1511.82C3137.59 1497.01 3134.67 1484.29 3128.84 1472.9C3123 1461.5 3114.94 1452.52 3104.68 1445.96C3094.43 1439.4 3082.58 1436.11 3069.18 1436.11C3055.78 1436.11 3044.43 1439.4 3034.31 1445.96C3024.2 1452.52 3016.22 1461.5 3010.39 1472.9C3004.55 1484.29 3001.64 1497.28 3001.64 1511.82C3001.64 1526.36 3004.55 1539.85 3010.39 1551.38C3016.22 1562.91 3024.2 1571.98 3034.31 1578.55C3044.43 1585.11 3056.05 1588.39 3069.18 1588.39Z" fill="white"/>
<path d="M3241.96 1624.72V1400.24H3285.98V1446.41L3278.28 1451.57C3281.11 1441.58 3286.67 1432.38 3294.96 1423.99C3303.21 1415.6 3313.06 1408.72 3324.45 1403.48C3335.84 1398.19 3347.56 1395.55 3359.5 1395.55C3376.59 1395.55 3390.85 1398.92 3402.25 1405.62C3413.64 1412.32 3422.21 1422.53 3427.91 1436.21C3433.61 1449.88 3436.48 1467.15 3436.48 1487.94V1624.76H3392.45V1490.9C3392.45 1478.09 3390.72 1467.47 3387.3 1459.04C3383.88 1450.65 3378.6 1444.5 3371.49 1440.67C3364.38 1436.84 3355.53 1435.2 3344.96 1435.75C3336.39 1435.75 3328.55 1437.12 3321.44 1439.81C3314.33 1442.54 3308.13 1446.28 3302.85 1451.15C3297.56 1455.99 3293.46 1461.64 3290.45 1468.06C3287.44 1474.49 3285.94 1481.37 3285.94 1488.8V1624.76H3241.91L3241.96 1624.72Z" fill="white"/>
<path d="M3591.71 1629C3570.88 1629 3552.28 1623.85 3535.92 1613.59C3519.52 1603.34 3506.57 1589.35 3497 1571.71C3487.43 1554.02 3482.69 1534.24 3482.69 1512.27C3482.69 1490.31 3487.48 1470.53 3497 1452.84C3506.53 1435.16 3519.52 1421.21 3535.92 1410.96C3552.33 1400.7 3570.93 1395.55 3591.71 1395.55C3612.49 1395.55 3629.81 1399.61 3646.22 1407.72C3662.62 1415.83 3675.07 1426.91 3683.63 1440.85L3659.25 1470.8C3654.69 1464.24 3648.86 1458.27 3641.7 1452.84C3634.6 1447.42 3627.03 1443.13 3619.05 1439.99C3611.08 1436.84 3603.38 1435.29 3595.95 1435.29C3582.27 1435.29 3570.06 1438.67 3559.39 1445.32C3548.68 1452.02 3540.21 1461.23 3533.96 1472.9C3527.67 1484.61 3524.57 1497.69 3524.57 1512.23C3524.57 1526.77 3527.86 1539.8 3534.42 1551.34C3540.98 1562.87 3549.69 1572.07 3560.49 1578.91C3571.34 1585.75 3583.28 1589.16 3596.4 1589.16C3604.1 1589.16 3611.58 1587.89 3618.83 1585.34C3626.12 1582.78 3633.14 1578.91 3639.97 1573.8C3646.81 1568.65 3653.24 1562.41 3659.21 1554.98L3683.59 1584.93C3674.47 1597.78 3661.44 1608.31 3644.49 1616.56C3627.53 1624.81 3609.94 1628.95 3591.66 1628.95L3591.71 1629Z" fill="white"/>
<path d="M3829.89 1629C3806.78 1629 3786.36 1624.08 3768.54 1614.23C3750.72 1604.39 3736.78 1590.94 3726.66 1573.8C3716.54 1556.71 3711.48 1537.02 3711.48 1514.78C3711.48 1497.1 3714.31 1481.01 3720.05 1466.47C3725.75 1451.93 3733.68 1439.3 3743.8 1428.64C3753.91 1417.93 3766.04 1409.68 3780.12 1403.84C3794.25 1398.01 3809.56 1395.09 3826.11 1395.09C3840.64 1395.09 3854.18 1397.87 3866.71 1403.43C3879.25 1409 3890.14 1416.61 3899.44 1426.31C3908.69 1436.02 3915.84 1447.46 3920.81 1460.73C3925.78 1473.99 3928.15 1488.44 3927.88 1504.12L3927.47 1522.94H3744.02L3734.18 1487.89H3889.41L3882.98 1495.18V1484.93C3882.12 1475.54 3878.97 1467.11 3873.6 1459.68C3868.17 1452.25 3861.34 1446.41 3853.09 1442.13C3844.84 1437.85 3835.81 1435.7 3826.15 1435.7C3810.75 1435.7 3797.8 1438.62 3787.23 1444.45C3776.7 1450.29 3768.68 1458.86 3763.3 1470.11C3757.88 1481.37 3755.19 1495.27 3755.19 1511.82C3755.19 1528.36 3758.47 1541.13 3765.03 1552.66C3771.6 1564.19 3780.85 1573.12 3792.84 1579.37C3804.82 1585.65 3818.63 1588.75 3834.31 1588.75C3845.43 1588.75 3855.78 1586.89 3865.3 1583.19C3874.83 1579.5 3885.17 1572.8 3896.29 1563.09L3918.53 1594.31C3911.7 1601.15 3903.36 1607.12 3893.51 1612.27C3883.67 1617.42 3873.28 1621.48 3862.29 1624.44C3851.31 1627.45 3840.55 1628.95 3830.03 1628.95L3829.89 1629Z" fill="white"/>
</g>
<defs>
<clipPath id="clip0_114_559">
<rect width="3940" height="1629" fill="white"/>
</clipPath>
</defs>
</svg>
