<svg width="361" height="172" viewBox="0 0 361 172" fill="none" xmlns="http://www.w3.org/2000/svg">
<rect width="361" height="172" rx="14" fill="#7EDAD4"/>
<rect x="16" y="16" width="78" height="26" rx="8" fill="#45C8BF"/>
<g clip-path="url(#clip0_45_1756)">
<path d="M34.8848 23C35.4339 23 35.8457 23.4407 35.8457 23.9492V24.8301H38.3174C39.2439 24.8302 40.0331 25.5762 39.999 26.4912V33.3389C39.999 34.254 39.244 34.9999 38.3174 35H26.6816C25.755 34.9999 25 34.2541 25 33.3389V26.4912C25.0002 25.5762 25.7551 24.8302 26.6816 24.8301H29.1875V23.9492C29.1875 23.4068 29.6336 23 30.1484 23H34.8848ZM28.499 27.5C28.223 27.5001 27.999 27.7239 27.999 28V32.5C27.9991 32.776 28.2231 32.9999 28.499 33C28.7751 33 28.9989 32.7761 28.999 32.5V28C28.999 27.7239 28.7752 27.5 28.499 27.5ZM36.5 27.5C36.2239 27.5 36 27.7239 36 28V32.5C36.0001 32.776 36.2239 33 36.5 33C36.7761 33 36.9999 32.7761 37 32.5V28C37 27.7239 36.7761 27.5 36.5 27.5ZM30.1152 23.7793C30.0125 23.7794 29.9445 23.8468 29.9443 23.9482V24.8301H35.0234V23.9482C35.0233 23.8467 34.9544 23.7793 34.8516 23.7793H30.1152Z" fill="#0C131F"/>
</g>
<path d="M51.107 24.966H48.143V23.796H55.319V24.966H52.355V33H51.107V24.966ZM55.1555 26.838H56.3255V27.787H56.3515C56.4295 27.6223 56.5335 27.475 56.6635 27.345C56.7935 27.2063 56.9365 27.0893 57.0925 26.994C57.2572 26.8987 57.4348 26.825 57.6255 26.773C57.8162 26.7123 58.0068 26.682 58.1975 26.682C58.3882 26.682 58.5615 26.708 58.7175 26.76L58.6655 28.021C58.5702 27.995 58.4748 27.9733 58.3795 27.956C58.2842 27.9387 58.1888 27.93 58.0935 27.93C57.5215 27.93 57.0838 28.0903 56.7805 28.411C56.4772 28.7317 56.3255 29.23 56.3255 29.906V33H55.1555V26.838ZM59.993 27.592C60.3223 27.2887 60.7037 27.0633 61.137 26.916C61.5703 26.76 62.0037 26.682 62.437 26.682C62.8877 26.682 63.2733 26.7383 63.594 26.851C63.9233 26.9637 64.192 27.1153 64.4 27.306C64.608 27.4967 64.7597 27.7177 64.855 27.969C64.959 28.2117 65.011 28.4673 65.011 28.736V31.882C65.011 32.0987 65.0153 32.298 65.024 32.48C65.0327 32.662 65.0457 32.8353 65.063 33H64.023C63.997 32.688 63.984 32.376 63.984 32.064H63.958C63.698 32.4627 63.3903 32.7443 63.035 32.909C62.6797 33.0737 62.268 33.156 61.8 33.156C61.514 33.156 61.241 33.117 60.981 33.039C60.721 32.961 60.4913 32.844 60.292 32.688C60.1013 32.532 59.9497 32.3413 59.837 32.116C59.7243 31.882 59.668 31.6133 59.668 31.31C59.668 30.9113 59.7547 30.5777 59.928 30.309C60.11 30.0403 60.3527 29.8237 60.656 29.659C60.968 29.4857 61.3277 29.3643 61.735 29.295C62.151 29.217 62.593 29.178 63.061 29.178H63.919V28.918C63.919 28.762 63.8887 28.606 63.828 28.45C63.7673 28.294 63.6763 28.1553 63.555 28.034C63.4337 27.904 63.282 27.8043 63.1 27.735C62.918 27.657 62.7013 27.618 62.45 27.618C62.2247 27.618 62.0253 27.6397 61.852 27.683C61.6873 27.7263 61.5357 27.7827 61.397 27.852C61.2583 27.9127 61.1327 27.9863 61.02 28.073C60.9073 28.1597 60.799 28.242 60.695 28.32L59.993 27.592ZM63.295 30.036C63.0177 30.036 62.7317 30.0533 62.437 30.088C62.151 30.114 61.8867 30.1703 61.644 30.257C61.41 30.3437 61.215 30.465 61.059 30.621C60.9117 30.777 60.838 30.9763 60.838 31.219C60.838 31.5743 60.955 31.83 61.189 31.986C61.4317 32.142 61.7567 32.22 62.164 32.22C62.4847 32.22 62.7577 32.168 62.983 32.064C63.2083 31.9513 63.3903 31.8083 63.529 31.635C63.6677 31.4617 63.7673 31.271 63.828 31.063C63.8887 30.8463 63.919 30.634 63.919 30.426V30.036H63.295ZM65.9672 26.838H67.3192L69.1652 31.557L70.9332 26.838H72.1812L69.7632 33H68.4762L65.9672 26.838ZM73.2342 27.592C73.5636 27.2887 73.9449 27.0633 74.3782 26.916C74.8116 26.76 75.2449 26.682 75.6782 26.682C76.1289 26.682 76.5146 26.7383 76.8352 26.851C77.1646 26.9637 77.4332 27.1153 77.6412 27.306C77.8492 27.4967 78.0009 27.7177 78.0962 27.969C78.2002 28.2117 78.2522 28.4673 78.2522 28.736V31.882C78.2522 32.0987 78.2566 32.298 78.2652 32.48C78.2739 32.662 78.2869 32.8353 78.3042 33H77.2642C77.2382 32.688 77.2252 32.376 77.2252 32.064H77.1992C76.9392 32.4627 76.6316 32.7443 76.2762 32.909C75.9209 33.0737 75.5092 33.156 75.0412 33.156C74.7552 33.156 74.4822 33.117 74.2222 33.039C73.9622 32.961 73.7326 32.844 73.5332 32.688C73.3426 32.532 73.1909 32.3413 73.0782 32.116C72.9656 31.882 72.9092 31.6133 72.9092 31.31C72.9092 30.9113 72.9959 30.5777 73.1692 30.309C73.3512 30.0403 73.5939 29.8237 73.8972 29.659C74.2092 29.4857 74.5689 29.3643 74.9762 29.295C75.3922 29.217 75.8342 29.178 76.3022 29.178H77.1602V28.918C77.1602 28.762 77.1299 28.606 77.0692 28.45C77.0086 28.294 76.9176 28.1553 76.7962 28.034C76.6749 27.904 76.5232 27.8043 76.3412 27.735C76.1592 27.657 75.9426 27.618 75.6912 27.618C75.4659 27.618 75.2666 27.6397 75.0932 27.683C74.9286 27.7263 74.7769 27.7827 74.6382 27.852C74.4996 27.9127 74.3739 27.9863 74.2612 28.073C74.1486 28.1597 74.0402 28.242 73.9362 28.32L73.2342 27.592ZM76.5362 30.036C76.2589 30.036 75.9729 30.0533 75.6782 30.088C75.3922 30.114 75.1279 30.1703 74.8852 30.257C74.6512 30.3437 74.4562 30.465 74.3002 30.621C74.1529 30.777 74.0792 30.9763 74.0792 31.219C74.0792 31.5743 74.1962 31.83 74.4302 31.986C74.6729 32.142 74.9979 32.22 75.4052 32.22C75.7259 32.22 75.9989 32.168 76.2242 32.064C76.4496 31.9513 76.6316 31.8083 76.7702 31.635C76.9089 31.4617 77.0086 31.271 77.0692 31.063C77.1299 30.8463 77.1602 30.634 77.1602 30.426V30.036H76.5362ZM80.0404 26.838H81.2104V33H80.0404V26.838ZM79.7674 24.628C79.7674 24.394 79.8498 24.1947 80.0144 24.03C80.1878 23.8567 80.3914 23.77 80.6254 23.77C80.8594 23.77 81.0588 23.8567 81.2234 24.03C81.3968 24.1947 81.4834 24.394 81.4834 24.628C81.4834 24.862 81.3968 25.0657 81.2234 25.239C81.0588 25.4037 80.8594 25.486 80.6254 25.486C80.3914 25.486 80.1878 25.4037 80.0144 25.239C79.8498 25.0657 79.7674 24.862 79.7674 24.628ZM83.1635 23.172H84.3335V33H83.1635V23.172Z" fill="#0C131F"/>
<path d="M4.40234 102C4.40234 94.268 10.6704 88 18.4023 88H310.402C318.134 88 324.402 94.268 324.402 102V154C324.402 161.732 318.134 168 310.402 168H18.4023C10.6704 168 4.40234 161.732 4.40234 154V102Z" fill="#242B35"/>
<circle cx="36.4023" cy="128" r="16" fill="white"/>
<path d="M28.0688 122.707V121.329C28.0693 120.991 28.2037 120.667 28.4426 120.428C28.6815 120.189 29.0054 120.055 29.3433 120.054H30.4476C30.5581 120.054 30.6641 120.098 30.7422 120.176C30.8204 120.255 30.8643 120.361 30.8643 120.471C30.8643 120.582 30.8204 120.688 30.7422 120.766C30.6641 120.844 30.5581 120.888 30.4476 120.888H29.3433C29.2263 120.888 29.1142 120.934 29.0315 121.017C28.9488 121.1 28.9023 121.212 28.9022 121.329V122.707C28.9022 122.818 28.8583 122.924 28.7801 123.002C28.702 123.08 28.596 123.124 28.4855 123.124C28.375 123.124 28.269 123.08 28.1909 123.002C28.1127 122.924 28.0688 122.818 28.0688 122.707ZM43.4611 120.054H42.3568C42.2463 120.054 42.1403 120.098 42.0621 120.176C41.984 120.255 41.9401 120.361 41.9401 120.471C41.9401 120.582 41.984 120.688 42.0621 120.766C42.1403 120.844 42.2463 120.888 42.3568 120.888H43.4611C43.5781 120.888 43.6902 120.934 43.7729 121.017C43.8556 121.1 43.9021 121.212 43.9022 121.329V122.707C43.9022 122.818 43.9461 122.924 44.0242 123.002C44.1024 123.08 44.2083 123.124 44.3188 123.124C44.4294 123.124 44.5353 123.08 44.6135 123.002C44.6916 122.924 44.7355 122.818 44.7355 122.707V121.329C44.7351 120.991 44.6006 120.667 44.3617 120.428C44.1228 120.189 43.799 120.055 43.4611 120.054ZM30.4476 135.112H29.3433C29.2263 135.112 29.1142 135.066 29.0315 134.983C28.9488 134.9 28.9023 134.788 28.9022 134.671V133.293C28.9022 133.183 28.8583 133.077 28.7801 132.999C28.702 132.921 28.596 132.877 28.4855 132.877C28.375 132.877 28.269 132.921 28.1909 132.999C28.1127 133.077 28.0688 133.183 28.0688 133.293V134.671C28.0693 135.009 28.2037 135.333 28.4426 135.572C28.6815 135.811 29.0054 135.945 29.3433 135.946H30.4476C30.5581 135.946 30.6641 135.902 30.7422 135.823C30.8204 135.745 30.8643 135.639 30.8643 135.529C30.8643 135.418 30.8204 135.312 30.7422 135.234C30.6641 135.156 30.5581 135.112 30.4476 135.112V135.112ZM44.3188 132.877C44.2641 132.877 44.2099 132.887 44.1594 132.908C44.1088 132.929 44.0628 132.96 44.0241 132.999C43.9855 133.037 43.9548 133.083 43.9338 133.134C43.9129 133.184 43.9021 133.239 43.9022 133.293V134.671C43.9021 134.788 43.8556 134.9 43.7729 134.983C43.6902 135.066 43.5781 135.112 43.4611 135.112H42.3568C42.2463 135.112 42.1403 135.156 42.0621 135.234C41.984 135.312 41.9401 135.418 41.9401 135.529C41.9401 135.639 41.984 135.745 42.0621 135.823C42.1403 135.902 42.2463 135.946 42.3568 135.946H43.4611C43.7989 135.945 44.1228 135.811 44.3617 135.572C44.6006 135.333 44.7351 135.009 44.7355 134.671V133.293C44.7355 133.239 44.7248 133.184 44.7039 133.134C44.6829 133.083 44.6522 133.037 44.6135 132.999C44.5748 132.96 44.5289 132.929 44.4783 132.908C44.4278 132.887 44.3736 132.877 44.3188 132.877ZM42.1175 127.39H36.995V122.268H42.1175V127.39ZM41.2842 123.101H37.8283V126.557H41.2842V123.101ZM40.3605 124.024H38.7516V125.633H40.3605V124.024ZM30.6523 128.61H35.7748V133.733H30.6523V128.61ZM31.4856 132.899H34.9414V129.443H31.4856V132.899ZM32.4093 131.976H34.0181V130.367H32.4093V131.976ZM37.1696 130.272H38.8184V128.623H37.1696V130.272ZM38.8241 131.926H40.4728V130.277H38.8241V131.926ZM42.1517 128.599H40.5029V130.247H42.1517V128.599ZM37.0976 133.653H38.7463V132.004H37.0976V133.653ZM30.7451 127.334H32.3938V125.685H30.745L30.7451 127.334ZM35.7133 122.366H34.0645V124.014H35.7133L35.7133 122.366ZM34.0487 124.031H32.3999V125.679H34.0487V124.031ZM30.721 124.001H32.3698V122.352H30.721V124.001ZM34.1263 127.406H35.7751V125.757H34.1263V127.406Z" fill="#242B35"/>
<rect x="70.4023" y="88" width="80" height="2" transform="rotate(90 70.4023 88)" fill="#0C131F"/>
<path d="M87.433 114.336C87.433 113.44 87.5023 112.677 87.641 112.048C87.7903 111.408 87.9823 110.875 88.217 110.448C88.4516 110.011 88.713 109.664 89.001 109.408C89.2996 109.141 89.5983 108.944 89.897 108.816C90.2063 108.677 90.4996 108.587 90.777 108.544C91.065 108.501 91.3156 108.48 91.529 108.48C91.7423 108.48 91.9876 108.501 92.265 108.544C92.553 108.587 92.8463 108.677 93.145 108.816C93.4543 108.944 93.753 109.141 94.041 109.408C94.3396 109.664 94.6063 110.011 94.841 110.448C95.0756 110.875 95.2623 111.408 95.401 112.048C95.5503 112.677 95.625 113.44 95.625 114.336C95.625 115.232 95.5503 116 95.401 116.64C95.2623 117.269 95.0756 117.803 94.841 118.24C94.6063 118.667 94.3396 119.013 94.041 119.28C93.753 119.536 93.4543 119.733 93.145 119.872C92.8463 120 92.553 120.085 92.265 120.128C91.9876 120.171 91.7423 120.192 91.529 120.192C91.3156 120.192 91.065 120.171 90.777 120.128C90.4996 120.085 90.2063 120 89.897 119.872C89.5983 119.733 89.2996 119.536 89.001 119.28C88.713 119.013 88.4516 118.667 88.217 118.24C87.9823 117.803 87.7903 117.269 87.641 116.64C87.5023 116 87.433 115.232 87.433 114.336ZM89.353 114.336C89.353 114.688 89.3743 115.099 89.417 115.568C89.4703 116.027 89.5716 116.464 89.721 116.88C89.8703 117.296 90.089 117.648 90.377 117.936C90.665 118.224 91.049 118.368 91.529 118.368C92.009 118.368 92.393 118.224 92.681 117.936C92.969 117.648 93.1876 117.296 93.337 116.88C93.4863 116.464 93.5823 116.027 93.625 115.568C93.6783 115.099 93.705 114.688 93.705 114.336C93.705 113.984 93.6783 113.579 93.625 113.12C93.5823 112.651 93.4863 112.208 93.337 111.792C93.1876 111.376 92.969 111.024 92.681 110.736C92.393 110.448 92.009 110.304 91.529 110.304C91.049 110.304 90.665 110.448 90.377 110.736C90.089 111.024 89.8703 111.376 89.721 111.792C89.5716 112.208 89.4703 112.651 89.417 113.12C89.3743 113.579 89.353 113.984 89.353 114.336ZM100.998 108.48C101.478 108.48 101.926 108.549 102.342 108.688C102.768 108.816 103.136 109.008 103.446 109.264C103.766 109.509 104.016 109.819 104.198 110.192C104.379 110.555 104.47 110.976 104.47 111.456C104.47 112.064 104.326 112.597 104.038 113.056C103.76 113.515 103.334 113.829 102.758 114V114.032C103.024 114.085 103.28 114.197 103.526 114.368C103.782 114.528 104.006 114.731 104.198 114.976C104.39 115.211 104.539 115.483 104.646 115.792C104.763 116.101 104.822 116.432 104.822 116.784C104.822 117.349 104.72 117.845 104.518 118.272C104.315 118.688 104.043 119.04 103.702 119.328C103.36 119.616 102.955 119.835 102.486 119.984C102.016 120.123 101.52 120.192 100.998 120.192C100.464 120.192 99.9631 120.123 99.4937 119.984C99.0351 119.835 98.6351 119.616 98.2937 119.328C97.9524 119.04 97.6804 118.688 97.4777 118.272C97.2751 117.845 97.1737 117.349 97.1737 116.784C97.1737 116.432 97.2271 116.101 97.3337 115.792C97.4511 115.483 97.6057 115.211 97.7977 114.976C97.9897 114.731 98.2084 114.528 98.4537 114.368C98.7097 114.197 98.9711 114.085 99.2377 114.032V114C98.6617 113.829 98.2297 113.515 97.9417 113.056C97.6644 112.597 97.5257 112.064 97.5257 111.456C97.5257 110.976 97.6164 110.555 97.7977 110.192C97.9791 109.819 98.2244 109.509 98.5337 109.264C98.8537 109.008 99.2217 108.816 99.6377 108.688C100.064 108.549 100.518 108.48 100.998 108.48ZM100.998 110.112C100.507 110.112 100.123 110.261 99.8457 110.56C99.5791 110.859 99.4457 111.221 99.4457 111.648C99.4457 112.096 99.5844 112.475 99.8617 112.784C100.139 113.083 100.518 113.232 100.998 113.232C101.211 113.232 101.408 113.195 101.59 113.12C101.782 113.035 101.947 112.923 102.086 112.784C102.235 112.635 102.347 112.464 102.422 112.272C102.507 112.08 102.55 111.872 102.55 111.648C102.55 111.221 102.4 110.859 102.102 110.56C101.814 110.261 101.446 110.112 100.998 110.112ZM100.998 114.768C100.742 114.768 100.496 114.811 100.262 114.896C100.027 114.981 99.8244 115.104 99.6537 115.264C99.4831 115.424 99.3444 115.616 99.2377 115.84C99.1417 116.053 99.0937 116.288 99.0937 116.544C99.0937 117.088 99.2697 117.531 99.6217 117.872C99.9844 118.203 100.443 118.368 100.998 118.368C101.552 118.368 102.006 118.203 102.358 117.872C102.72 117.531 102.902 117.088 102.902 116.544C102.902 116.288 102.848 116.053 102.742 115.84C102.646 115.616 102.512 115.424 102.342 115.264C102.171 115.104 101.968 114.981 101.734 114.896C101.499 114.811 101.254 114.768 100.998 114.768ZM106.818 118.88C106.818 118.539 106.941 118.245 107.186 118C107.442 117.755 107.746 117.632 108.098 117.632C108.44 117.632 108.738 117.749 108.994 117.984C109.25 118.219 109.378 118.507 109.378 118.848C109.378 119.189 109.25 119.483 108.994 119.728C108.749 119.973 108.45 120.096 108.098 120.096C107.928 120.096 107.762 120.064 107.602 120C107.453 119.936 107.32 119.851 107.202 119.744C107.085 119.637 106.989 119.509 106.914 119.36C106.85 119.211 106.818 119.051 106.818 118.88ZM106.818 113.456C106.818 113.115 106.941 112.821 107.186 112.576C107.442 112.331 107.746 112.208 108.098 112.208C108.44 112.208 108.738 112.325 108.994 112.56C109.25 112.795 109.378 113.083 109.378 113.424C109.378 113.765 109.25 114.059 108.994 114.304C108.749 114.549 108.45 114.672 108.098 114.672C107.928 114.672 107.762 114.64 107.602 114.576C107.453 114.512 107.32 114.427 107.202 114.32C107.085 114.213 106.989 114.085 106.914 113.936C106.85 113.787 106.818 113.627 106.818 113.456ZM111.105 114.336C111.105 113.44 111.174 112.677 111.313 112.048C111.462 111.408 111.654 110.875 111.889 110.448C112.124 110.011 112.385 109.664 112.673 109.408C112.972 109.141 113.27 108.944 113.569 108.816C113.878 108.677 114.172 108.587 114.449 108.544C114.737 108.501 114.988 108.48 115.201 108.48C115.414 108.48 115.66 108.501 115.937 108.544C116.225 108.587 116.518 108.677 116.817 108.816C117.126 108.944 117.425 109.141 117.713 109.408C118.012 109.664 118.278 110.011 118.513 110.448C118.748 110.875 118.934 111.408 119.073 112.048C119.222 112.677 119.297 113.44 119.297 114.336C119.297 115.232 119.222 116 119.073 116.64C118.934 117.269 118.748 117.803 118.513 118.24C118.278 118.667 118.012 119.013 117.713 119.28C117.425 119.536 117.126 119.733 116.817 119.872C116.518 120 116.225 120.085 115.937 120.128C115.66 120.171 115.414 120.192 115.201 120.192C114.988 120.192 114.737 120.171 114.449 120.128C114.172 120.085 113.878 120 113.569 119.872C113.27 119.733 112.972 119.536 112.673 119.28C112.385 119.013 112.124 118.667 111.889 118.24C111.654 117.803 111.462 117.269 111.313 116.64C111.174 116 111.105 115.232 111.105 114.336ZM113.025 114.336C113.025 114.688 113.046 115.099 113.089 115.568C113.142 116.027 113.244 116.464 113.393 116.88C113.542 117.296 113.761 117.648 114.049 117.936C114.337 118.224 114.721 118.368 115.201 118.368C115.681 118.368 116.065 118.224 116.353 117.936C116.641 117.648 116.86 117.296 117.009 116.88C117.158 116.464 117.254 116.027 117.297 115.568C117.35 115.099 117.377 114.688 117.377 114.336C117.377 113.984 117.35 113.579 117.297 113.12C117.254 112.651 117.158 112.208 117.009 111.792C116.86 111.376 116.641 111.024 116.353 110.736C116.065 110.448 115.681 110.304 115.201 110.304C114.721 110.304 114.337 110.448 114.049 110.736C113.761 111.024 113.542 111.376 113.393 111.792C113.244 112.208 113.142 112.651 113.089 113.12C113.046 113.579 113.025 113.984 113.025 114.336ZM124.222 110.88L122.094 112.848L120.974 111.52L124.398 108.672H126.142V120H124.222V110.88Z" fill="#F3F3F4"/>
<path d="M141.722 110.432L139.642 112.352L138.746 111.28L141.898 108.672H143.258V120H141.722V110.432ZM153.829 110.112H149.237L149.189 112.944C149.264 112.912 149.37 112.88 149.509 112.848C149.648 112.816 149.786 112.789 149.925 112.768C150.074 112.747 150.218 112.731 150.357 112.72C150.496 112.709 150.613 112.704 150.709 112.704C151.242 112.704 151.722 112.795 152.149 112.976C152.586 113.157 152.96 113.413 153.269 113.744C153.578 114.075 153.813 114.469 153.973 114.928C154.144 115.387 154.229 115.893 154.229 116.448C154.229 117.013 154.122 117.525 153.909 117.984C153.706 118.443 153.424 118.837 153.061 119.168C152.698 119.499 152.277 119.755 151.797 119.936C151.317 120.107 150.8 120.192 150.245 120.192C149.477 120.192 148.784 119.995 148.165 119.6C147.546 119.205 147.104 118.64 146.837 117.904L148.389 117.376C148.592 117.899 148.864 118.277 149.205 118.512C149.546 118.736 149.973 118.848 150.485 118.848C150.784 118.848 151.066 118.795 151.333 118.688C151.61 118.581 151.845 118.432 152.037 118.24C152.24 118.037 152.4 117.792 152.517 117.504C152.634 117.216 152.693 116.891 152.693 116.528C152.693 115.696 152.437 115.077 151.925 114.672C151.424 114.256 150.768 114.048 149.957 114.048C149.669 114.048 149.301 114.101 148.853 114.208C148.416 114.304 148.005 114.448 147.621 114.64L147.749 108.672H153.829V110.112ZM160.725 112.416H162.165V113.584H162.197C162.293 113.381 162.421 113.2 162.581 113.04C162.741 112.869 162.917 112.725 163.109 112.608C163.311 112.491 163.53 112.4 163.765 112.336C163.999 112.261 164.234 112.224 164.469 112.224C164.703 112.224 164.917 112.256 165.109 112.32L165.045 113.872C164.927 113.84 164.81 113.813 164.693 113.792C164.575 113.771 164.458 113.76 164.341 113.76C163.637 113.76 163.098 113.957 162.725 114.352C162.351 114.747 162.165 115.36 162.165 116.192V120H160.725V112.416ZM173.367 120H171.927V118.832H171.895C171.713 119.237 171.399 119.568 170.951 119.824C170.503 120.069 169.985 120.192 169.399 120.192C169.025 120.192 168.673 120.133 168.343 120.016C168.012 119.909 167.719 119.739 167.463 119.504C167.217 119.269 167.02 118.971 166.871 118.608C166.721 118.235 166.647 117.797 166.647 117.296V112.416H168.087V116.896C168.087 117.248 168.135 117.552 168.231 117.808C168.327 118.053 168.455 118.256 168.615 118.416C168.775 118.565 168.956 118.677 169.159 118.752C169.372 118.816 169.591 118.848 169.815 118.848C170.113 118.848 170.391 118.8 170.647 118.704C170.903 118.608 171.127 118.459 171.319 118.256C171.511 118.043 171.66 117.776 171.767 117.456C171.873 117.136 171.927 116.757 171.927 116.32V112.416H173.367V120ZM176.625 116.736C176.625 117.067 176.695 117.371 176.833 117.648C176.983 117.915 177.175 118.144 177.409 118.336C177.644 118.528 177.916 118.677 178.225 118.784C178.535 118.891 178.855 118.944 179.185 118.944C179.633 118.944 180.023 118.843 180.353 118.64C180.684 118.427 180.988 118.149 181.265 117.808L182.353 118.64C181.553 119.675 180.433 120.192 178.993 120.192C178.396 120.192 177.852 120.091 177.361 119.888C176.881 119.685 176.471 119.408 176.129 119.056C175.799 118.693 175.543 118.272 175.361 117.792C175.18 117.301 175.089 116.773 175.089 116.208C175.089 115.643 175.185 115.12 175.377 114.64C175.58 114.149 175.852 113.728 176.193 113.376C176.545 113.013 176.961 112.731 177.441 112.528C177.921 112.325 178.444 112.224 179.009 112.224C179.681 112.224 180.247 112.341 180.705 112.576C181.175 112.811 181.559 113.12 181.857 113.504C182.156 113.877 182.369 114.304 182.497 114.784C182.636 115.253 182.705 115.733 182.705 116.224V116.736H176.625ZM181.169 115.584C181.159 115.264 181.105 114.971 181.009 114.704C180.924 114.437 180.791 114.208 180.609 114.016C180.428 113.813 180.199 113.659 179.921 113.552C179.655 113.435 179.34 113.376 178.977 113.376C178.625 113.376 178.3 113.445 178.001 113.584C177.713 113.712 177.468 113.883 177.265 114.096C177.063 114.309 176.903 114.549 176.785 114.816C176.679 115.072 176.625 115.328 176.625 115.584H181.169ZM192.785 108.672H194.321V116.768C194.321 117.483 194.209 118.069 193.985 118.528C193.761 118.976 193.478 119.333 193.137 119.6C192.806 119.856 192.449 120.032 192.065 120.128C191.681 120.235 191.329 120.288 191.009 120.288C190.209 120.288 189.532 120.085 188.977 119.68C188.433 119.264 188.086 118.64 187.937 117.808L189.441 117.472C189.526 117.899 189.702 118.235 189.969 118.48C190.236 118.725 190.582 118.848 191.009 118.848C191.393 118.848 191.697 118.773 191.921 118.624C192.156 118.475 192.337 118.283 192.465 118.048C192.593 117.803 192.678 117.525 192.721 117.216C192.764 116.907 192.785 116.592 192.785 116.272V108.672ZM197.688 116.736C197.688 117.067 197.757 117.371 197.896 117.648C198.045 117.915 198.237 118.144 198.472 118.336C198.706 118.528 198.978 118.677 199.288 118.784C199.597 118.891 199.917 118.944 200.248 118.944C200.696 118.944 201.085 118.843 201.416 118.64C201.746 118.427 202.05 118.149 202.328 117.808L203.416 118.64C202.616 119.675 201.496 120.192 200.056 120.192C199.458 120.192 198.914 120.091 198.424 119.888C197.944 119.685 197.533 119.408 197.192 119.056C196.861 118.693 196.605 118.272 196.424 117.792C196.242 117.301 196.152 116.773 196.152 116.208C196.152 115.643 196.248 115.12 196.44 114.64C196.642 114.149 196.914 113.728 197.256 113.376C197.608 113.013 198.024 112.731 198.504 112.528C198.984 112.325 199.506 112.224 200.072 112.224C200.744 112.224 201.309 112.341 201.768 112.576C202.237 112.811 202.621 113.12 202.92 113.504C203.218 113.877 203.432 114.304 203.56 114.784C203.698 115.253 203.768 115.733 203.768 116.224V116.736H197.688ZM202.232 115.584C202.221 115.264 202.168 114.971 202.072 114.704C201.986 114.437 201.853 114.208 201.672 114.016C201.49 113.813 201.261 113.659 200.984 113.552C200.717 113.435 200.402 113.376 200.04 113.376C199.688 113.376 199.362 113.445 199.064 113.584C198.776 113.712 198.53 113.883 198.328 114.096C198.125 114.309 197.965 114.549 197.848 114.816C197.741 115.072 197.688 115.328 197.688 115.584H202.232ZM205.522 113.344C205.928 112.971 206.397 112.693 206.93 112.512C207.464 112.32 207.997 112.224 208.53 112.224C209.085 112.224 209.56 112.293 209.954 112.432C210.36 112.571 210.69 112.757 210.946 112.992C211.202 113.227 211.389 113.499 211.506 113.808C211.634 114.107 211.698 114.421 211.698 114.752V118.624C211.698 118.891 211.704 119.136 211.714 119.36C211.725 119.584 211.741 119.797 211.762 120H210.482C210.45 119.616 210.434 119.232 210.434 118.848H210.402C210.082 119.339 209.704 119.685 209.266 119.888C208.829 120.091 208.322 120.192 207.746 120.192C207.394 120.192 207.058 120.144 206.738 120.048C206.418 119.952 206.136 119.808 205.89 119.616C205.656 119.424 205.469 119.189 205.33 118.912C205.192 118.624 205.122 118.293 205.122 117.92C205.122 117.429 205.229 117.019 205.442 116.688C205.666 116.357 205.965 116.091 206.338 115.888C206.722 115.675 207.165 115.525 207.666 115.44C208.178 115.344 208.722 115.296 209.298 115.296H210.354V114.976C210.354 114.784 210.317 114.592 210.242 114.4C210.168 114.208 210.056 114.037 209.906 113.888C209.757 113.728 209.57 113.605 209.346 113.52C209.122 113.424 208.856 113.376 208.546 113.376C208.269 113.376 208.024 113.403 207.81 113.456C207.608 113.509 207.421 113.579 207.25 113.664C207.08 113.739 206.925 113.829 206.786 113.936C206.648 114.043 206.514 114.144 206.386 114.24L205.522 113.344ZM209.586 116.352C209.245 116.352 208.893 116.373 208.53 116.416C208.178 116.448 207.853 116.517 207.554 116.624C207.266 116.731 207.026 116.88 206.834 117.072C206.653 117.264 206.562 117.509 206.562 117.808C206.562 118.245 206.706 118.56 206.994 118.752C207.293 118.944 207.693 119.04 208.194 119.04C208.589 119.04 208.925 118.976 209.202 118.848C209.48 118.709 209.704 118.533 209.874 118.32C210.045 118.107 210.168 117.872 210.242 117.616C210.317 117.349 210.354 117.088 210.354 116.832V116.352H209.586ZM213.787 112.416H215.227V113.584H215.259C215.441 113.179 215.755 112.853 216.203 112.608C216.651 112.352 217.169 112.224 217.755 112.224C218.118 112.224 218.465 112.283 218.795 112.4C219.137 112.507 219.43 112.677 219.675 112.912C219.931 113.147 220.134 113.451 220.283 113.824C220.433 114.187 220.507 114.619 220.507 115.12V120H219.067V115.52C219.067 115.168 219.019 114.869 218.923 114.624C218.827 114.368 218.699 114.165 218.539 114.016C218.379 113.856 218.193 113.744 217.979 113.68C217.777 113.605 217.563 113.568 217.339 113.568C217.041 113.568 216.763 113.616 216.507 113.712C216.251 113.808 216.027 113.963 215.835 114.176C215.643 114.379 215.494 114.64 215.387 114.96C215.281 115.28 215.227 115.659 215.227 116.096V120H213.787V112.416ZM231.035 108.672H232.571V116.768C232.571 117.483 232.459 118.069 232.235 118.528C232.011 118.976 231.728 119.333 231.387 119.6C231.056 119.856 230.699 120.032 230.315 120.128C229.931 120.235 229.579 120.288 229.259 120.288C228.459 120.288 227.782 120.085 227.227 119.68C226.683 119.264 226.336 118.64 226.187 117.808L227.691 117.472C227.776 117.899 227.952 118.235 228.219 118.48C228.486 118.725 228.832 118.848 229.259 118.848C229.643 118.848 229.947 118.773 230.171 118.624C230.406 118.475 230.587 118.283 230.715 118.048C230.843 117.803 230.928 117.525 230.971 117.216C231.014 116.907 231.035 116.592 231.035 116.272V108.672ZM234.882 113.344C235.287 112.971 235.756 112.693 236.29 112.512C236.823 112.32 237.356 112.224 237.89 112.224C238.444 112.224 238.919 112.293 239.314 112.432C239.719 112.571 240.05 112.757 240.306 112.992C240.562 113.227 240.748 113.499 240.866 113.808C240.994 114.107 241.058 114.421 241.058 114.752V118.624C241.058 118.891 241.063 119.136 241.074 119.36C241.084 119.584 241.1 119.797 241.122 120H239.842C239.81 119.616 239.794 119.232 239.794 118.848H239.762C239.442 119.339 239.063 119.685 238.626 119.888C238.188 120.091 237.682 120.192 237.106 120.192C236.754 120.192 236.418 120.144 236.098 120.048C235.778 119.952 235.495 119.808 235.25 119.616C235.015 119.424 234.828 119.189 234.69 118.912C234.551 118.624 234.482 118.293 234.482 117.92C234.482 117.429 234.588 117.019 234.802 116.688C235.026 116.357 235.324 116.091 235.698 115.888C236.082 115.675 236.524 115.525 237.026 115.44C237.538 115.344 238.082 115.296 238.658 115.296H239.714V114.976C239.714 114.784 239.676 114.592 239.602 114.4C239.527 114.208 239.415 114.037 239.266 113.888C239.116 113.728 238.93 113.605 238.706 113.52C238.482 113.424 238.215 113.376 237.906 113.376C237.628 113.376 237.383 113.403 237.17 113.456C236.967 113.509 236.78 113.579 236.61 113.664C236.439 113.739 236.284 113.829 236.146 113.936C236.007 114.043 235.874 114.144 235.746 114.24L234.882 113.344ZM238.946 116.352C238.604 116.352 238.252 116.373 237.89 116.416C237.538 116.448 237.212 116.517 236.914 116.624C236.626 116.731 236.386 116.88 236.194 117.072C236.012 117.264 235.922 117.509 235.922 117.808C235.922 118.245 236.066 118.56 236.354 118.752C236.652 118.944 237.052 119.04 237.554 119.04C237.948 119.04 238.284 118.976 238.562 118.848C238.839 118.709 239.063 118.533 239.234 118.32C239.404 118.107 239.527 117.872 239.602 117.616C239.676 117.349 239.714 117.088 239.714 116.832V116.352H238.946ZM249.867 120H248.427V118.832H248.395C248.213 119.237 247.899 119.568 247.451 119.824C247.003 120.069 246.485 120.192 245.899 120.192C245.525 120.192 245.173 120.133 244.843 120.016C244.512 119.909 244.219 119.739 243.963 119.504C243.717 119.269 243.52 118.971 243.371 118.608C243.221 118.235 243.147 117.797 243.147 117.296V112.416H244.587V116.896C244.587 117.248 244.635 117.552 244.731 117.808C244.827 118.053 244.955 118.256 245.115 118.416C245.275 118.565 245.456 118.677 245.659 118.752C245.872 118.816 246.091 118.848 246.315 118.848C246.613 118.848 246.891 118.8 247.147 118.704C247.403 118.608 247.627 118.459 247.819 118.256C248.011 118.043 248.16 117.776 248.267 117.456C248.373 117.136 248.427 116.757 248.427 116.32V112.416H249.867V120ZM252.037 112.416H253.477V113.584H253.509C253.605 113.381 253.733 113.2 253.893 113.04C254.053 112.869 254.229 112.725 254.421 112.608C254.624 112.491 254.843 112.4 255.077 112.336C255.312 112.261 255.547 112.224 255.781 112.224C256.016 112.224 256.229 112.256 256.421 112.32L256.357 113.872C256.24 113.84 256.123 113.813 256.005 113.792C255.888 113.771 255.771 113.76 255.653 113.76C254.949 113.76 254.411 113.957 254.037 114.352C253.664 114.747 253.477 115.36 253.477 116.192V120H252.037V112.416ZM258.766 116.736C258.766 117.067 258.835 117.371 258.974 117.648C259.123 117.915 259.315 118.144 259.55 118.336C259.785 118.528 260.057 118.677 260.366 118.784C260.675 118.891 260.995 118.944 261.326 118.944C261.774 118.944 262.163 118.843 262.494 118.64C262.825 118.427 263.129 118.149 263.406 117.808L264.494 118.64C263.694 119.675 262.574 120.192 261.134 120.192C260.537 120.192 259.993 120.091 259.502 119.888C259.022 119.685 258.611 119.408 258.27 119.056C257.939 118.693 257.683 118.272 257.502 117.792C257.321 117.301 257.23 116.773 257.23 116.208C257.23 115.643 257.326 115.12 257.518 114.64C257.721 114.149 257.993 113.728 258.334 113.376C258.686 113.013 259.102 112.731 259.582 112.528C260.062 112.325 260.585 112.224 261.15 112.224C261.822 112.224 262.387 112.341 262.846 112.576C263.315 112.811 263.699 113.12 263.998 113.504C264.297 113.877 264.51 114.304 264.638 114.784C264.777 115.253 264.846 115.733 264.846 116.224V116.736H258.766ZM263.31 115.584C263.299 115.264 263.246 114.971 263.15 114.704C263.065 114.437 262.931 114.208 262.75 114.016C262.569 113.813 262.339 113.659 262.062 113.552C261.795 113.435 261.481 113.376 261.118 113.376C260.766 113.376 260.441 113.445 260.142 113.584C259.854 113.712 259.609 113.883 259.406 114.096C259.203 114.309 259.043 114.549 258.926 114.816C258.819 115.072 258.766 115.328 258.766 115.584H263.31ZM262.094 110.976H260.766L258.382 108.672H260.43L262.094 110.976ZM270.6 114.32C270.43 114.107 270.216 113.931 269.96 113.792C269.715 113.643 269.411 113.568 269.048 113.568C268.707 113.568 268.408 113.643 268.152 113.792C267.907 113.931 267.784 114.139 267.784 114.416C267.784 114.64 267.854 114.821 267.992 114.96C268.142 115.099 268.312 115.211 268.504 115.296C268.707 115.381 268.92 115.445 269.144 115.488C269.368 115.531 269.56 115.568 269.72 115.6C270.03 115.675 270.318 115.765 270.584 115.872C270.862 115.979 271.096 116.117 271.288 116.288C271.491 116.459 271.646 116.667 271.752 116.912C271.87 117.157 271.928 117.456 271.928 117.808C271.928 118.235 271.838 118.603 271.656 118.912C271.475 119.211 271.24 119.456 270.952 119.648C270.664 119.84 270.334 119.979 269.96 120.064C269.598 120.149 269.23 120.192 268.856 120.192C268.227 120.192 267.672 120.096 267.192 119.904C266.723 119.712 266.302 119.36 265.928 118.848L267.016 117.952C267.251 118.187 267.512 118.395 267.8 118.576C268.088 118.757 268.44 118.848 268.856 118.848C269.038 118.848 269.219 118.832 269.4 118.8C269.592 118.757 269.758 118.699 269.896 118.624C270.046 118.539 270.163 118.437 270.248 118.32C270.344 118.192 270.392 118.048 270.392 117.888C270.392 117.675 270.323 117.499 270.184 117.36C270.056 117.221 269.896 117.115 269.704 117.04C269.523 116.955 269.326 116.891 269.112 116.848C268.91 116.795 268.728 116.752 268.568 116.72C268.259 116.645 267.966 116.56 267.688 116.464C267.411 116.368 267.166 116.24 266.952 116.08C266.739 115.92 266.568 115.717 266.44 115.472C266.312 115.227 266.248 114.923 266.248 114.56C266.248 114.165 266.328 113.824 266.488 113.536C266.659 113.237 266.878 112.992 267.144 112.8C267.422 112.608 267.731 112.464 268.072 112.368C268.424 112.272 268.776 112.224 269.128 112.224C269.64 112.224 270.131 112.32 270.6 112.512C271.07 112.704 271.443 113.024 271.72 113.472L270.6 114.32Z" fill="#F3F3F4"/>
<path d="M87.433 140.336C87.433 139.44 87.5023 138.677 87.641 138.048C87.7903 137.408 87.9823 136.875 88.217 136.448C88.4516 136.011 88.713 135.664 89.001 135.408C89.2996 135.141 89.5983 134.944 89.897 134.816C90.2063 134.677 90.4996 134.587 90.777 134.544C91.065 134.501 91.3156 134.48 91.529 134.48C91.7423 134.48 91.9876 134.501 92.265 134.544C92.553 134.587 92.8463 134.677 93.145 134.816C93.4543 134.944 93.753 135.141 94.041 135.408C94.3396 135.664 94.6063 136.011 94.841 136.448C95.0756 136.875 95.2623 137.408 95.401 138.048C95.5503 138.677 95.625 139.44 95.625 140.336C95.625 141.232 95.5503 142 95.401 142.64C95.2623 143.269 95.0756 143.803 94.841 144.24C94.6063 144.667 94.3396 145.013 94.041 145.28C93.753 145.536 93.4543 145.733 93.145 145.872C92.8463 146 92.553 146.085 92.265 146.128C91.9876 146.171 91.7423 146.192 91.529 146.192C91.3156 146.192 91.065 146.171 90.777 146.128C90.4996 146.085 90.2063 146 89.897 145.872C89.5983 145.733 89.2996 145.536 89.001 145.28C88.713 145.013 88.4516 144.667 88.217 144.24C87.9823 143.803 87.7903 143.269 87.641 142.64C87.5023 142 87.433 141.232 87.433 140.336ZM89.353 140.336C89.353 140.688 89.3743 141.099 89.417 141.568C89.4703 142.027 89.5716 142.464 89.721 142.88C89.8703 143.296 90.089 143.648 90.377 143.936C90.665 144.224 91.049 144.368 91.529 144.368C92.009 144.368 92.393 144.224 92.681 143.936C92.969 143.648 93.1876 143.296 93.337 142.88C93.4863 142.464 93.5823 142.027 93.625 141.568C93.6783 141.099 93.705 140.688 93.705 140.336C93.705 139.984 93.6783 139.579 93.625 139.12C93.5823 138.651 93.4863 138.208 93.337 137.792C93.1876 137.376 92.969 137.024 92.681 136.736C92.393 136.448 92.009 136.304 91.529 136.304C91.049 136.304 90.665 136.448 90.377 136.736C90.089 137.024 89.8703 137.376 89.721 137.792C89.5716 138.208 89.4703 138.651 89.417 139.12C89.3743 139.579 89.353 139.984 89.353 140.336ZM100.998 134.48C101.478 134.48 101.926 134.549 102.342 134.688C102.768 134.816 103.136 135.008 103.446 135.264C103.766 135.509 104.016 135.819 104.198 136.192C104.379 136.555 104.47 136.976 104.47 137.456C104.47 138.064 104.326 138.597 104.038 139.056C103.76 139.515 103.334 139.829 102.758 140V140.032C103.024 140.085 103.28 140.197 103.526 140.368C103.782 140.528 104.006 140.731 104.198 140.976C104.39 141.211 104.539 141.483 104.646 141.792C104.763 142.101 104.822 142.432 104.822 142.784C104.822 143.349 104.72 143.845 104.518 144.272C104.315 144.688 104.043 145.04 103.702 145.328C103.36 145.616 102.955 145.835 102.486 145.984C102.016 146.123 101.52 146.192 100.998 146.192C100.464 146.192 99.9631 146.123 99.4937 145.984C99.0351 145.835 98.6351 145.616 98.2937 145.328C97.9524 145.04 97.6804 144.688 97.4777 144.272C97.2751 143.845 97.1737 143.349 97.1737 142.784C97.1737 142.432 97.2271 142.101 97.3337 141.792C97.4511 141.483 97.6057 141.211 97.7977 140.976C97.9897 140.731 98.2084 140.528 98.4537 140.368C98.7097 140.197 98.9711 140.085 99.2377 140.032V140C98.6617 139.829 98.2297 139.515 97.9417 139.056C97.6644 138.597 97.5257 138.064 97.5257 137.456C97.5257 136.976 97.6164 136.555 97.7977 136.192C97.9791 135.819 98.2244 135.509 98.5337 135.264C98.8537 135.008 99.2217 134.816 99.6377 134.688C100.064 134.549 100.518 134.48 100.998 134.48ZM100.998 136.112C100.507 136.112 100.123 136.261 99.8457 136.56C99.5791 136.859 99.4457 137.221 99.4457 137.648C99.4457 138.096 99.5844 138.475 99.8617 138.784C100.139 139.083 100.518 139.232 100.998 139.232C101.211 139.232 101.408 139.195 101.59 139.12C101.782 139.035 101.947 138.923 102.086 138.784C102.235 138.635 102.347 138.464 102.422 138.272C102.507 138.08 102.55 137.872 102.55 137.648C102.55 137.221 102.4 136.859 102.102 136.56C101.814 136.261 101.446 136.112 100.998 136.112ZM100.998 140.768C100.742 140.768 100.496 140.811 100.262 140.896C100.027 140.981 99.8244 141.104 99.6537 141.264C99.4831 141.424 99.3444 141.616 99.2377 141.84C99.1417 142.053 99.0937 142.288 99.0937 142.544C99.0937 143.088 99.2697 143.531 99.6217 143.872C99.9844 144.203 100.443 144.368 100.998 144.368C101.552 144.368 102.006 144.203 102.358 143.872C102.72 143.531 102.902 143.088 102.902 142.544C102.902 142.288 102.848 142.053 102.742 141.84C102.646 141.616 102.512 141.424 102.342 141.264C102.171 141.104 101.968 140.981 101.734 140.896C101.499 140.811 101.254 140.768 100.998 140.768ZM106.818 144.88C106.818 144.539 106.941 144.245 107.186 144C107.442 143.755 107.746 143.632 108.098 143.632C108.44 143.632 108.738 143.749 108.994 143.984C109.25 144.219 109.378 144.507 109.378 144.848C109.378 145.189 109.25 145.483 108.994 145.728C108.749 145.973 108.45 146.096 108.098 146.096C107.928 146.096 107.762 146.064 107.602 146C107.453 145.936 107.32 145.851 107.202 145.744C107.085 145.637 106.989 145.509 106.914 145.36C106.85 145.211 106.818 145.051 106.818 144.88ZM106.818 139.456C106.818 139.115 106.941 138.821 107.186 138.576C107.442 138.331 107.746 138.208 108.098 138.208C108.44 138.208 108.738 138.325 108.994 138.56C109.25 138.795 109.378 139.083 109.378 139.424C109.378 139.765 109.25 140.059 108.994 140.304C108.749 140.549 108.45 140.672 108.098 140.672C107.928 140.672 107.762 140.64 107.602 140.576C107.453 140.512 107.32 140.427 107.202 140.32C107.085 140.213 106.989 140.085 106.914 139.936C106.85 139.787 106.818 139.627 106.818 139.456ZM114.753 136.88L112.625 138.848L111.505 137.52L114.929 134.672H116.673V146H114.753V136.88ZM120.606 134.672H128.302V136.432L123.774 146H121.518L126.142 136.496H120.606V134.672Z" fill="#F3F3F4"/>
<path d="M141.85 146.192C141.338 146.192 140.853 146.117 140.394 145.968C139.946 145.808 139.557 145.579 139.226 145.28C138.896 144.981 138.634 144.619 138.442 144.192C138.25 143.765 138.154 143.285 138.154 142.752C138.154 142.4 138.208 142.075 138.314 141.776C138.432 141.477 138.586 141.211 138.778 140.976C138.97 140.731 139.194 140.528 139.45 140.368C139.717 140.197 140.005 140.069 140.314 139.984V139.936C140.101 139.883 139.888 139.787 139.674 139.648C139.461 139.509 139.269 139.333 139.098 139.12C138.938 138.907 138.805 138.651 138.698 138.352C138.592 138.043 138.538 137.691 138.538 137.296C138.538 136.869 138.624 136.485 138.794 136.144C138.976 135.792 139.216 135.493 139.514 135.248C139.824 135.003 140.176 134.816 140.57 134.688C140.976 134.549 141.402 134.48 141.85 134.48C142.298 134.48 142.72 134.549 143.114 134.688C143.52 134.816 143.872 135.003 144.17 135.248C144.48 135.493 144.72 135.792 144.89 136.144C145.072 136.485 145.162 136.869 145.162 137.296C145.162 137.691 145.109 138.043 145.002 138.352C144.896 138.651 144.757 138.907 144.586 139.12C144.426 139.333 144.24 139.509 144.026 139.648C143.813 139.787 143.6 139.883 143.386 139.936V139.984C143.696 140.069 143.978 140.197 144.234 140.368C144.501 140.528 144.73 140.731 144.922 140.976C145.114 141.211 145.264 141.477 145.37 141.776C145.488 142.075 145.546 142.4 145.546 142.752C145.546 143.285 145.45 143.765 145.258 144.192C145.066 144.619 144.805 144.981 144.474 145.28C144.144 145.579 143.749 145.808 143.29 145.968C142.842 146.117 142.362 146.192 141.85 146.192ZM140.074 137.52C140.074 137.744 140.112 137.963 140.186 138.176C140.272 138.389 140.389 138.581 140.538 138.752C140.688 138.912 140.869 139.045 141.082 139.152C141.306 139.259 141.562 139.312 141.85 139.312C142.149 139.312 142.405 139.264 142.618 139.168C142.842 139.061 143.029 138.928 143.178 138.768C143.328 138.597 143.44 138.405 143.514 138.192C143.589 137.979 143.626 137.755 143.626 137.52C143.626 136.997 143.461 136.571 143.13 136.24C142.81 135.899 142.384 135.728 141.85 135.728C141.36 135.728 140.938 135.893 140.586 136.224C140.245 136.555 140.074 136.987 140.074 137.52ZM141.85 144.848C142.49 144.848 143.008 144.656 143.402 144.272C143.808 143.877 144.01 143.371 144.01 142.752C144.01 142.411 143.952 142.112 143.834 141.856C143.728 141.589 143.573 141.371 143.37 141.2C143.178 141.019 142.949 140.885 142.682 140.8C142.426 140.704 142.149 140.656 141.85 140.656C141.221 140.667 140.704 140.869 140.298 141.264C139.893 141.648 139.69 142.144 139.69 142.752C139.69 143.083 139.749 143.381 139.866 143.648C139.984 143.904 140.138 144.123 140.33 144.304C140.533 144.475 140.762 144.608 141.018 144.704C141.285 144.8 141.562 144.848 141.85 144.848ZM147.381 133.904H148.821V139.504H148.853C149.109 139.109 149.477 138.8 149.957 138.576C150.437 138.341 150.949 138.224 151.493 138.224C152.08 138.224 152.608 138.325 153.077 138.528C153.557 138.731 153.962 139.013 154.293 139.376C154.634 139.728 154.896 140.149 155.077 140.64C155.258 141.12 155.349 141.643 155.349 142.208C155.349 142.773 155.258 143.296 155.077 143.776C154.896 144.256 154.634 144.677 154.293 145.04C153.962 145.403 153.557 145.685 153.077 145.888C152.608 146.091 152.08 146.192 151.493 146.192C150.981 146.192 150.48 146.08 149.989 145.856C149.509 145.632 149.13 145.317 148.853 144.912H148.821V146H147.381V133.904ZM151.317 144.848C151.701 144.848 152.048 144.784 152.357 144.656C152.666 144.517 152.928 144.336 153.141 144.112C153.354 143.877 153.52 143.6 153.637 143.28C153.754 142.949 153.813 142.592 153.813 142.208C153.813 141.824 153.754 141.472 153.637 141.152C153.52 140.821 153.354 140.544 153.141 140.32C152.928 140.085 152.666 139.904 152.357 139.776C152.048 139.637 151.701 139.568 151.317 139.568C150.933 139.568 150.586 139.637 150.277 139.776C149.968 139.904 149.706 140.085 149.493 140.32C149.28 140.544 149.114 140.821 148.997 141.152C148.88 141.472 148.821 141.824 148.821 142.208C148.821 142.592 148.88 142.949 148.997 143.28C149.114 143.6 149.28 143.877 149.493 144.112C149.706 144.336 149.968 144.517 150.277 144.656C150.586 144.784 150.933 144.848 151.317 144.848ZM157.274 138.416H158.714V146H157.274V138.416ZM156.938 135.696C156.938 135.408 157.04 135.163 157.242 134.96C157.456 134.747 157.706 134.64 157.994 134.64C158.282 134.64 158.528 134.747 158.73 134.96C158.944 135.163 159.05 135.408 159.05 135.696C159.05 135.984 158.944 136.235 158.73 136.448C158.528 136.651 158.282 136.752 157.994 136.752C157.706 136.752 157.456 136.651 157.242 136.448C157.04 136.235 156.938 135.984 156.938 135.696ZM165.038 140.32C164.867 140.107 164.654 139.931 164.398 139.792C164.153 139.643 163.849 139.568 163.486 139.568C163.145 139.568 162.846 139.643 162.59 139.792C162.345 139.931 162.222 140.139 162.222 140.416C162.222 140.64 162.291 140.821 162.43 140.96C162.579 141.099 162.75 141.211 162.942 141.296C163.145 141.381 163.358 141.445 163.582 141.488C163.806 141.531 163.998 141.568 164.158 141.6C164.467 141.675 164.755 141.765 165.022 141.872C165.299 141.979 165.534 142.117 165.726 142.288C165.929 142.459 166.083 142.667 166.19 142.912C166.307 143.157 166.366 143.456 166.366 143.808C166.366 144.235 166.275 144.603 166.094 144.912C165.913 145.211 165.678 145.456 165.39 145.648C165.102 145.84 164.771 145.979 164.398 146.064C164.035 146.149 163.667 146.192 163.294 146.192C162.665 146.192 162.11 146.096 161.63 145.904C161.161 145.712 160.739 145.36 160.366 144.848L161.454 143.952C161.689 144.187 161.95 144.395 162.238 144.576C162.526 144.757 162.878 144.848 163.294 144.848C163.475 144.848 163.657 144.832 163.838 144.8C164.03 144.757 164.195 144.699 164.334 144.624C164.483 144.539 164.601 144.437 164.686 144.32C164.782 144.192 164.83 144.048 164.83 143.888C164.83 143.675 164.761 143.499 164.622 143.36C164.494 143.221 164.334 143.115 164.142 143.04C163.961 142.955 163.763 142.891 163.55 142.848C163.347 142.795 163.166 142.752 163.006 142.72C162.697 142.645 162.403 142.56 162.126 142.464C161.849 142.368 161.603 142.24 161.39 142.08C161.177 141.92 161.006 141.717 160.878 141.472C160.75 141.227 160.686 140.923 160.686 140.56C160.686 140.165 160.766 139.824 160.926 139.536C161.097 139.237 161.315 138.992 161.582 138.8C161.859 138.608 162.169 138.464 162.51 138.368C162.862 138.272 163.214 138.224 163.566 138.224C164.078 138.224 164.569 138.32 165.038 138.512C165.507 138.704 165.881 139.024 166.158 139.472L165.038 140.32ZM172.568 138.416H174.008V139.584H174.04C174.136 139.381 174.264 139.2 174.424 139.04C174.584 138.869 174.76 138.725 174.952 138.608C175.155 138.491 175.374 138.4 175.608 138.336C175.843 138.261 176.078 138.224 176.312 138.224C176.547 138.224 176.76 138.256 176.952 138.32L176.888 139.872C176.771 139.84 176.654 139.813 176.536 139.792C176.419 139.771 176.302 139.76 176.184 139.76C175.48 139.76 174.942 139.957 174.568 140.352C174.195 140.747 174.008 141.36 174.008 142.192V146H172.568V138.416ZM185.21 146H183.77V144.832H183.738C183.557 145.237 183.242 145.568 182.794 145.824C182.346 146.069 181.829 146.192 181.242 146.192C180.869 146.192 180.517 146.133 180.186 146.016C179.856 145.909 179.562 145.739 179.306 145.504C179.061 145.269 178.864 144.971 178.714 144.608C178.565 144.235 178.49 143.797 178.49 143.296V138.416H179.93V142.896C179.93 143.248 179.978 143.552 180.074 143.808C180.17 144.053 180.298 144.256 180.458 144.416C180.618 144.565 180.8 144.677 181.002 144.752C181.216 144.816 181.434 144.848 181.658 144.848C181.957 144.848 182.234 144.8 182.49 144.704C182.746 144.608 182.97 144.459 183.162 144.256C183.354 144.043 183.504 143.776 183.61 143.456C183.717 143.136 183.77 142.757 183.77 142.32V138.416H185.21V146ZM188.469 142.736C188.469 143.067 188.538 143.371 188.677 143.648C188.826 143.915 189.018 144.144 189.253 144.336C189.488 144.528 189.76 144.677 190.069 144.784C190.378 144.891 190.698 144.944 191.029 144.944C191.477 144.944 191.866 144.843 192.197 144.64C192.528 144.427 192.832 144.149 193.109 143.808L194.197 144.64C193.397 145.675 192.277 146.192 190.837 146.192C190.24 146.192 189.696 146.091 189.205 145.888C188.725 145.685 188.314 145.408 187.973 145.056C187.642 144.693 187.386 144.272 187.205 143.792C187.024 143.301 186.933 142.773 186.933 142.208C186.933 141.643 187.029 141.12 187.221 140.64C187.424 140.149 187.696 139.728 188.037 139.376C188.389 139.013 188.805 138.731 189.285 138.528C189.765 138.325 190.288 138.224 190.853 138.224C191.525 138.224 192.09 138.341 192.549 138.576C193.018 138.811 193.402 139.12 193.701 139.504C194 139.877 194.213 140.304 194.341 140.784C194.48 141.253 194.549 141.733 194.549 142.224V142.736H188.469ZM193.013 141.584C193.002 141.264 192.949 140.971 192.853 140.704C192.768 140.437 192.634 140.208 192.453 140.016C192.272 139.813 192.042 139.659 191.765 139.552C191.498 139.435 191.184 139.376 190.821 139.376C190.469 139.376 190.144 139.445 189.845 139.584C189.557 139.712 189.312 139.883 189.109 140.096C188.906 140.309 188.746 140.549 188.629 140.816C188.522 141.072 188.469 141.328 188.469 141.584H193.013ZM208.325 146H206.885V144.912H206.853C206.575 145.317 206.191 145.632 205.701 145.856C205.221 146.08 204.725 146.192 204.213 146.192C203.626 146.192 203.093 146.091 202.613 145.888C202.143 145.685 201.738 145.403 201.397 145.04C201.066 144.677 200.81 144.256 200.629 143.776C200.447 143.296 200.357 142.773 200.357 142.208C200.357 141.643 200.447 141.12 200.629 140.64C200.81 140.149 201.066 139.728 201.397 139.376C201.738 139.013 202.143 138.731 202.613 138.528C203.093 138.325 203.626 138.224 204.213 138.224C204.757 138.224 205.269 138.341 205.749 138.576C206.229 138.8 206.597 139.109 206.853 139.504H206.885V133.904H208.325V146ZM204.389 144.848C204.773 144.848 205.119 144.784 205.429 144.656C205.738 144.517 205.999 144.336 206.213 144.112C206.426 143.877 206.591 143.6 206.709 143.28C206.826 142.949 206.885 142.592 206.885 142.208C206.885 141.824 206.826 141.472 206.709 141.152C206.591 140.821 206.426 140.544 206.213 140.32C205.999 140.085 205.738 139.904 205.429 139.776C205.119 139.637 204.773 139.568 204.389 139.568C204.005 139.568 203.658 139.637 203.349 139.776C203.039 139.904 202.778 140.085 202.565 140.32C202.351 140.544 202.186 140.821 202.069 141.152C201.951 141.472 201.893 141.824 201.893 142.208C201.893 142.592 201.951 142.949 202.069 143.28C202.186 143.6 202.351 143.877 202.565 144.112C202.778 144.336 203.039 144.517 203.349 144.656C203.658 144.784 204.005 144.848 204.389 144.848ZM211.594 142.736C211.594 143.067 211.663 143.371 211.802 143.648C211.951 143.915 212.143 144.144 212.378 144.336C212.613 144.528 212.885 144.677 213.194 144.784C213.503 144.891 213.823 144.944 214.154 144.944C214.602 144.944 214.991 144.843 215.322 144.64C215.653 144.427 215.957 144.149 216.234 143.808L217.322 144.64C216.522 145.675 215.402 146.192 213.962 146.192C213.365 146.192 212.821 146.091 212.33 145.888C211.85 145.685 211.439 145.408 211.098 145.056C210.767 144.693 210.511 144.272 210.33 143.792C210.149 143.301 210.058 142.773 210.058 142.208C210.058 141.643 210.154 141.12 210.346 140.64C210.549 140.149 210.821 139.728 211.162 139.376C211.514 139.013 211.93 138.731 212.41 138.528C212.89 138.325 213.413 138.224 213.978 138.224C214.65 138.224 215.215 138.341 215.674 138.576C216.143 138.811 216.527 139.12 216.826 139.504C217.125 139.877 217.338 140.304 217.466 140.784C217.605 141.253 217.674 141.733 217.674 142.224V142.736H211.594ZM216.138 141.584C216.127 141.264 216.074 140.971 215.978 140.704C215.893 140.437 215.759 140.208 215.578 140.016C215.397 139.813 215.167 139.659 214.89 139.552C214.623 139.435 214.309 139.376 213.946 139.376C213.594 139.376 213.269 139.445 212.97 139.584C212.682 139.712 212.437 139.883 212.234 140.096C212.031 140.309 211.871 140.549 211.754 140.816C211.647 141.072 211.594 141.328 211.594 141.584H216.138ZM223.962 133.904H225.402V146H223.962V133.904ZM227.725 139.344C228.131 138.971 228.6 138.693 229.133 138.512C229.667 138.32 230.2 138.224 230.733 138.224C231.288 138.224 231.763 138.293 232.157 138.432C232.563 138.571 232.893 138.757 233.149 138.992C233.405 139.227 233.592 139.499 233.709 139.808C233.837 140.107 233.901 140.421 233.901 140.752V144.624C233.901 144.891 233.907 145.136 233.917 145.36C233.928 145.584 233.944 145.797 233.965 146H232.685C232.653 145.616 232.637 145.232 232.637 144.848H232.605C232.285 145.339 231.907 145.685 231.469 145.888C231.032 146.091 230.525 146.192 229.949 146.192C229.597 146.192 229.261 146.144 228.941 146.048C228.621 145.952 228.339 145.808 228.093 145.616C227.859 145.424 227.672 145.189 227.533 144.912C227.395 144.624 227.325 144.293 227.325 143.92C227.325 143.429 227.432 143.019 227.645 142.688C227.869 142.357 228.168 142.091 228.541 141.888C228.925 141.675 229.368 141.525 229.869 141.44C230.381 141.344 230.925 141.296 231.501 141.296H232.557V140.976C232.557 140.784 232.52 140.592 232.445 140.4C232.371 140.208 232.259 140.037 232.109 139.888C231.96 139.728 231.773 139.605 231.549 139.52C231.325 139.424 231.059 139.376 230.749 139.376C230.472 139.376 230.227 139.403 230.013 139.456C229.811 139.509 229.624 139.579 229.453 139.664C229.283 139.739 229.128 139.829 228.989 139.936C228.851 140.043 228.717 140.144 228.589 140.24L227.725 139.344ZM231.789 142.352C231.448 142.352 231.096 142.373 230.733 142.416C230.381 142.448 230.056 142.517 229.757 142.624C229.469 142.731 229.229 142.88 229.037 143.072C228.856 143.264 228.765 143.509 228.765 143.808C228.765 144.245 228.909 144.56 229.197 144.752C229.496 144.944 229.896 145.04 230.397 145.04C230.792 145.04 231.128 144.976 231.405 144.848C231.683 144.709 231.907 144.533 232.077 144.32C232.248 144.107 232.371 143.872 232.445 143.616C232.52 143.349 232.557 143.088 232.557 142.832V142.352H231.789ZM240.811 134.672H247.931V136.112H242.347V139.664H247.547V141.104H242.347V146H240.811V134.672ZM250.799 142.208C250.799 142.592 250.858 142.949 250.975 143.28C251.092 143.6 251.258 143.877 251.471 144.112C251.684 144.336 251.946 144.517 252.255 144.656C252.564 144.784 252.911 144.848 253.295 144.848C253.679 144.848 254.026 144.784 254.335 144.656C254.644 144.517 254.906 144.336 255.119 144.112C255.332 143.877 255.498 143.6 255.615 143.28C255.732 142.949 255.791 142.592 255.791 142.208C255.791 141.824 255.732 141.472 255.615 141.152C255.498 140.821 255.332 140.544 255.119 140.32C254.906 140.085 254.644 139.904 254.335 139.776C254.026 139.637 253.679 139.568 253.295 139.568C252.911 139.568 252.564 139.637 252.255 139.776C251.946 139.904 251.684 140.085 251.471 140.32C251.258 140.544 251.092 140.821 250.975 141.152C250.858 141.472 250.799 141.824 250.799 142.208ZM249.263 142.208C249.263 141.653 249.364 141.136 249.567 140.656C249.78 140.176 250.068 139.755 250.431 139.392C250.794 139.029 251.22 138.747 251.711 138.544C252.202 138.331 252.73 138.224 253.295 138.224C253.86 138.224 254.388 138.331 254.879 138.544C255.37 138.747 255.796 139.029 256.159 139.392C256.522 139.755 256.804 140.176 257.007 140.656C257.22 141.136 257.327 141.653 257.327 142.208C257.327 142.763 257.22 143.285 257.007 143.776C256.804 144.256 256.522 144.677 256.159 145.04C255.796 145.392 255.37 145.675 254.879 145.888C254.388 146.091 253.86 146.192 253.295 146.192C252.73 146.192 252.202 146.091 251.711 145.888C251.22 145.675 250.794 145.392 250.431 145.04C250.068 144.677 249.78 144.256 249.567 143.776C249.364 143.285 249.263 142.763 249.263 142.208ZM259.131 138.416H260.571V139.584H260.603C260.784 139.179 261.099 138.853 261.547 138.608C261.995 138.352 262.512 138.224 263.099 138.224C263.462 138.224 263.808 138.283 264.139 138.4C264.48 138.507 264.774 138.677 265.019 138.912C265.275 139.147 265.478 139.451 265.627 139.824C265.776 140.187 265.851 140.619 265.851 141.12V146H264.411V141.52C264.411 141.168 264.363 140.869 264.267 140.624C264.171 140.368 264.043 140.165 263.883 140.016C263.723 139.856 263.536 139.744 263.323 139.68C263.12 139.605 262.907 139.568 262.683 139.568C262.384 139.568 262.107 139.616 261.851 139.712C261.595 139.808 261.371 139.963 261.179 140.176C260.987 140.379 260.838 140.64 260.731 140.96C260.624 141.28 260.571 141.659 260.571 142.096V146H259.131V138.416ZM269.158 146.096C268.87 146.096 268.619 145.995 268.406 145.792C268.203 145.579 268.102 145.328 268.102 145.04C268.102 144.752 268.203 144.507 268.406 144.304C268.619 144.091 268.87 143.984 269.158 143.984C269.446 143.984 269.691 144.091 269.894 144.304C270.107 144.507 270.214 144.752 270.214 145.04C270.214 145.328 270.107 145.579 269.894 145.792C269.691 145.995 269.446 146.096 269.158 146.096ZM273.611 146.096C273.323 146.096 273.072 145.995 272.859 145.792C272.656 145.579 272.555 145.328 272.555 145.04C272.555 144.752 272.656 144.507 272.859 144.304C273.072 144.091 273.323 143.984 273.611 143.984C273.899 143.984 274.144 144.091 274.347 144.304C274.56 144.507 274.667 144.752 274.667 145.04C274.667 145.328 274.56 145.579 274.347 145.792C274.144 145.995 273.899 146.096 273.611 146.096ZM278.064 146.096C277.776 146.096 277.525 145.995 277.312 145.792C277.109 145.579 277.008 145.328 277.008 145.04C277.008 144.752 277.109 144.507 277.312 144.304C277.525 144.091 277.776 143.984 278.064 143.984C278.352 143.984 278.597 144.091 278.8 144.304C279.013 144.507 279.12 144.752 279.12 145.04C279.12 145.328 279.013 145.579 278.8 145.792C278.597 145.995 278.352 146.096 278.064 146.096Z" fill="#F3F3F4"/>
<path d="M293.82 122.675C293.412 123.068 293.407 123.726 293.814 124.12L297.835 128L293.814 131.88C293.407 132.274 293.412 132.932 293.82 133.325C294.207 133.699 294.826 133.704 295.214 133.33L299.99 128.72C300.397 128.326 300.397 127.674 299.99 127.28L295.214 122.67C294.826 122.296 294.207 122.301 293.82 122.675Z" fill="#8DE8FE"/>
<circle cx="28" cy="63" r="12" fill="#0C131F"/>
<path d="M25.8124 57.796H27.0604V65.83H31.2854V67H25.8124V57.796Z" fill="#8DE8FE"/>
<circle cx="63" cy="63" r="12" fill="white"/>
<path d="M58.2014 57.796H60.0604L62.9854 64.764H63.0374L65.9364 57.796H67.7954V67H66.5474V59.434H66.5214L63.4144 67H62.5824L59.4754 59.434H59.4494V67H58.2014V57.796Z" fill="#0C131F"/>
<circle cx="98" cy="63" r="12" fill="white"/>
<path d="M93.2014 57.796H95.0604L97.9854 64.764H98.0374L100.936 57.796H102.795V67H101.547V59.434H101.521L98.4144 67H97.5824L94.4754 59.434H94.4494V67H93.2014V57.796Z" fill="#0C131F"/>
<circle cx="133" cy="63" r="12" fill="white"/>
<path d="M133.92 57.796H135.168V64.374C135.168 64.9547 135.077 65.4313 134.895 65.804C134.713 66.168 134.484 66.4583 134.206 66.675C133.938 66.883 133.647 67.026 133.335 67.104C133.023 67.1907 132.737 67.234 132.477 67.234C131.827 67.234 131.277 67.0693 130.826 66.74C130.384 66.402 130.103 65.895 129.981 65.219L131.203 64.946C131.273 65.2927 131.416 65.5657 131.632 65.765C131.849 65.9643 132.131 66.064 132.477 66.064C132.789 66.064 133.036 66.0033 133.218 65.882C133.409 65.7607 133.556 65.6047 133.66 65.414C133.764 65.2147 133.834 64.9893 133.868 64.738C133.903 64.4867 133.92 64.231 133.92 63.971V57.796Z" fill="#0C131F"/>
<circle cx="168" cy="63" r="12" fill="white"/>
<path d="M163.828 57.796H165.271L167.975 65.284H168.001L170.809 57.796H172.174L168.547 67H167.377L163.828 57.796Z" fill="#0C131F"/>
<circle cx="203" cy="63" r="12" fill="#0C131F"/>
<path d="M200.844 65.076C201.07 65.414 201.356 65.6653 201.702 65.83C202.058 65.986 202.422 66.064 202.794 66.064C203.002 66.064 203.215 66.0337 203.431 65.973C203.648 65.9037 203.843 65.804 204.016 65.674C204.198 65.544 204.346 65.3837 204.458 65.193C204.571 65.0023 204.627 64.7813 204.627 64.53C204.627 64.1747 204.515 63.906 204.289 63.724C204.064 63.5333 203.782 63.3773 203.444 63.256C203.115 63.126 202.751 63.0047 202.352 62.892C201.962 62.7707 201.598 62.606 201.26 62.398C200.931 62.19 200.654 61.9127 200.428 61.566C200.203 61.2107 200.09 60.734 200.09 60.136C200.09 59.8673 200.147 59.5813 200.259 59.278C200.381 58.9747 200.567 58.6973 200.818 58.446C201.07 58.1947 201.39 57.9867 201.78 57.822C202.179 57.6487 202.656 57.562 203.21 57.562C203.713 57.562 204.194 57.6313 204.653 57.77C205.113 57.9087 205.516 58.1903 205.862 58.615L204.848 59.538C204.692 59.2953 204.471 59.1003 204.185 58.953C203.899 58.8057 203.574 58.732 203.21 58.732C202.864 58.732 202.573 58.7797 202.339 58.875C202.114 58.9617 201.932 59.0787 201.793 59.226C201.655 59.3647 201.555 59.5163 201.494 59.681C201.442 59.8457 201.416 59.9973 201.416 60.136C201.416 60.526 201.529 60.825 201.754 61.033C201.98 61.241 202.257 61.41 202.586 61.54C202.924 61.67 203.288 61.787 203.678 61.891C204.077 61.995 204.441 62.1423 204.77 62.333C205.108 62.515 205.39 62.7663 205.615 63.087C205.841 63.399 205.953 63.8323 205.953 64.387C205.953 64.829 205.867 65.2277 205.693 65.583C205.529 65.9383 205.303 66.2373 205.017 66.48C204.731 66.7227 204.393 66.909 204.003 67.039C203.613 67.169 203.197 67.234 202.755 67.234C202.166 67.234 201.607 67.13 201.078 66.922C200.55 66.714 200.129 66.3933 199.817 65.96L200.844 65.076Z" fill="#8DE8FE"/>
<circle cx="238" cy="63" r="12" fill="#0C131F"/>
<path d="M234.157 57.796H237.368C238.018 57.796 238.586 57.8697 239.071 58.017C239.565 58.1643 239.99 58.3637 240.345 58.615C240.709 58.8577 241.008 59.1393 241.242 59.46C241.485 59.7807 241.675 60.11 241.814 60.448C241.953 60.786 242.052 61.124 242.113 61.462C242.174 61.8 242.204 62.112 242.204 62.398C242.204 62.9873 242.096 63.5593 241.879 64.114C241.662 64.66 241.342 65.1497 240.917 65.583C240.492 66.0077 239.964 66.35 239.331 66.61C238.707 66.87 237.983 67 237.16 67H234.157V57.796ZM235.405 65.83H236.978C237.507 65.83 238.005 65.7607 238.473 65.622C238.95 65.4747 239.366 65.258 239.721 64.972C240.076 64.686 240.358 64.3307 240.566 63.906C240.774 63.4727 240.878 62.97 240.878 62.398C240.878 62.1033 240.83 61.761 240.735 61.371C240.64 60.9723 240.458 60.5953 240.189 60.24C239.929 59.8847 239.565 59.5857 239.097 59.343C238.629 59.0917 238.022 58.966 237.277 58.966H235.405V65.83Z" fill="#8DE8FE"/>
<defs>
<clipPath id="clip0_45_1756">
<rect width="16" height="16" fill="white" transform="translate(24 21)"/>
</clipPath>
</defs>
</svg>
