<svg width="361" height="172" viewBox="0 0 361 172" fill="none" xmlns="http://www.w3.org/2000/svg">
<rect width="361" height="172" rx="14" fill="#7EDAD4"/>
<rect x="16" y="16" width="107" height="26" rx="8" fill="#45C8BF"/>
<g clip-path="url(#clip0_45_1755)">
<path d="M34.8848 23C35.4339 23 35.8457 23.4407 35.8457 23.9492V24.8301H38.3174C39.2439 24.8302 40.0331 25.5762 39.999 26.4912V33.3389C39.999 34.254 39.244 34.9999 38.3174 35H26.6816C25.755 34.9999 25 34.2541 25 33.3389V26.4912C25.0002 25.5762 25.7551 24.8302 26.6816 24.8301H29.1875V23.9492C29.1875 23.4068 29.6336 23 30.1484 23H34.8848ZM28.499 27.5C28.223 27.5001 27.999 27.7239 27.999 28V32.5C27.9991 32.776 28.2231 32.9999 28.499 33C28.7751 33 28.9989 32.7761 28.999 32.5V28C28.999 27.7239 28.7752 27.5 28.499 27.5ZM36.5 27.5C36.2239 27.5 36 27.7239 36 28V32.5C36.0001 32.776 36.2239 33 36.5 33C36.7761 33 36.9999 32.7761 37 32.5V28C37 27.7239 36.7761 27.5 36.5 27.5ZM30.1152 23.7793C30.0125 23.7794 29.9445 23.8468 29.9443 23.9482V24.8301H35.0234V23.9482C35.0233 23.8467 34.9544 23.7793 34.8516 23.7793H30.1152Z" fill="#0C131F"/>
</g>
<path d="M48.013 23.796H49.313L51.341 31.154H51.367L53.538 23.796H54.968L57.139 31.154H57.165L59.193 23.796H60.493L57.815 33H56.502L54.266 25.486H54.24L52.017 33H50.704L48.013 23.796ZM61.6635 30.348C61.6635 30.6167 61.7198 30.8637 61.8325 31.089C61.9538 31.3057 62.1098 31.492 62.3005 31.648C62.4912 31.804 62.7122 31.9253 62.9635 32.012C63.2148 32.0987 63.4748 32.142 63.7435 32.142C64.1075 32.142 64.4238 32.0597 64.6925 31.895C64.9612 31.7217 65.2082 31.4963 65.4335 31.219L66.3175 31.895C65.6675 32.7357 64.7575 33.156 63.5875 33.156C63.1022 33.156 62.6602 33.0737 62.2615 32.909C61.8715 32.7443 61.5378 32.519 61.2605 32.233C60.9918 31.9383 60.7838 31.596 60.6365 31.206C60.4892 30.8073 60.4155 30.3783 60.4155 29.919C60.4155 29.4597 60.4935 29.035 60.6495 28.645C60.8142 28.2463 61.0352 27.904 61.3125 27.618C61.5985 27.3233 61.9365 27.0937 62.3265 26.929C62.7165 26.7643 63.1412 26.682 63.6005 26.682C64.1465 26.682 64.6058 26.7773 64.9785 26.968C65.3598 27.1587 65.6718 27.41 65.9145 27.722C66.1572 28.0253 66.3305 28.372 66.4345 28.762C66.5472 29.1433 66.6035 29.5333 66.6035 29.932V30.348H61.6635ZM65.3555 29.412C65.3468 29.152 65.3035 28.9137 65.2255 28.697C65.1562 28.4803 65.0478 28.294 64.9005 28.138C64.7532 27.9733 64.5668 27.8477 64.3415 27.761C64.1248 27.6657 63.8692 27.618 63.5745 27.618C63.2885 27.618 63.0242 27.6743 62.7815 27.787C62.5475 27.891 62.3482 28.0297 62.1835 28.203C62.0188 28.3763 61.8888 28.5713 61.7935 28.788C61.7068 28.996 61.6635 29.204 61.6635 29.412H65.3555ZM68.8871 30.348C68.8871 30.6167 68.9435 30.8637 69.0561 31.089C69.1775 31.3057 69.3335 31.492 69.5241 31.648C69.7148 31.804 69.9358 31.9253 70.1871 32.012C70.4385 32.0987 70.6985 32.142 70.9671 32.142C71.3311 32.142 71.6475 32.0597 71.9161 31.895C72.1848 31.7217 72.4318 31.4963 72.6571 31.219L73.5411 31.895C72.8911 32.7357 71.9811 33.156 70.8111 33.156C70.3258 33.156 69.8838 33.0737 69.4851 32.909C69.0951 32.7443 68.7615 32.519 68.4841 32.233C68.2155 31.9383 68.0075 31.596 67.8601 31.206C67.7128 30.8073 67.6391 30.3783 67.6391 29.919C67.6391 29.4597 67.7171 29.035 67.8731 28.645C68.0378 28.2463 68.2588 27.904 68.5361 27.618C68.8221 27.3233 69.1601 27.0937 69.5501 26.929C69.9401 26.7643 70.3648 26.682 70.8241 26.682C71.3701 26.682 71.8295 26.7773 72.2021 26.968C72.5835 27.1587 72.8955 27.41 73.1381 27.722C73.3808 28.0253 73.5541 28.372 73.6581 28.762C73.7708 29.1433 73.8271 29.5333 73.8271 29.932V30.348H68.8871ZM72.5791 29.412C72.5705 29.152 72.5271 28.9137 72.4491 28.697C72.3798 28.4803 72.2715 28.294 72.1241 28.138C71.9768 27.9733 71.7905 27.8477 71.5651 27.761C71.3485 27.6657 71.0928 27.618 70.7981 27.618C70.5121 27.618 70.2478 27.6743 70.0051 27.787C69.7711 27.891 69.5718 28.0297 69.4071 28.203C69.2425 28.3763 69.1125 28.5713 69.0171 28.788C68.9305 28.996 68.8871 29.204 68.8871 29.412H72.5791ZM75.2268 23.172H76.3968V29.516L79.0488 26.851H80.6738L77.8008 29.646L80.9208 33H79.2568L76.3968 29.802V33H75.2268V23.172ZM84.737 30.4H81.539V29.308H84.737V30.4ZM86.9653 30.348C86.9653 30.6167 87.0216 30.8637 87.1343 31.089C87.2556 31.3057 87.4116 31.492 87.6023 31.648C87.7929 31.804 88.0139 31.9253 88.2653 32.012C88.5166 32.0987 88.7766 32.142 89.0453 32.142C89.4093 32.142 89.7256 32.0597 89.9943 31.895C90.2629 31.7217 90.5099 31.4963 90.7353 31.219L91.6193 31.895C90.9693 32.7357 90.0593 33.156 88.8893 33.156C88.4039 33.156 87.9619 33.0737 87.5633 32.909C87.1733 32.7443 86.8396 32.519 86.5623 32.233C86.2936 31.9383 86.0856 31.596 85.9383 31.206C85.7909 30.8073 85.7173 30.3783 85.7173 29.919C85.7173 29.4597 85.7953 29.035 85.9513 28.645C86.1159 28.2463 86.3369 27.904 86.6143 27.618C86.9003 27.3233 87.2383 27.0937 87.6283 26.929C88.0183 26.7643 88.4429 26.682 88.9023 26.682C89.4483 26.682 89.9076 26.7773 90.2803 26.968C90.6616 27.1587 90.9736 27.41 91.2163 27.722C91.4589 28.0253 91.6323 28.372 91.7363 28.762C91.8489 29.1433 91.9053 29.5333 91.9053 29.932V30.348H86.9653ZM90.6573 29.412C90.6486 29.152 90.6053 28.9137 90.5273 28.697C90.4579 28.4803 90.3496 28.294 90.2023 28.138C90.0549 27.9733 89.8686 27.8477 89.6433 27.761C89.4266 27.6657 89.1709 27.618 88.8763 27.618C88.5903 27.618 88.3259 27.6743 88.0833 27.787C87.8493 27.891 87.6499 28.0297 87.4853 28.203C87.3206 28.3763 87.1906 28.5713 87.0953 28.788C87.0086 28.996 86.9653 29.204 86.9653 29.412H90.6573ZM93.3049 26.838H94.4749V27.787H94.5009C94.6482 27.4577 94.9039 27.1933 95.2679 26.994C95.6319 26.786 96.0522 26.682 96.5289 26.682C96.8236 26.682 97.1052 26.7297 97.3739 26.825C97.6512 26.9117 97.8896 27.0503 98.0889 27.241C98.2969 27.4317 98.4616 27.6787 98.5829 27.982C98.7042 28.2767 98.7649 28.6277 98.7649 29.035V33H97.5949V29.36C97.5949 29.074 97.5559 28.8313 97.4779 28.632C97.3999 28.424 97.2959 28.2593 97.1659 28.138C97.0359 28.008 96.8842 27.917 96.7109 27.865C96.5462 27.8043 96.3729 27.774 96.1909 27.774C95.9482 27.774 95.7229 27.813 95.5149 27.891C95.3069 27.969 95.1249 28.0947 94.9689 28.268C94.8129 28.4327 94.6916 28.645 94.6049 28.905C94.5182 29.165 94.4749 29.4727 94.4749 29.828V33H93.3049V26.838ZM106.704 33H105.534V32.116H105.508C105.282 32.4453 104.97 32.701 104.572 32.883C104.182 33.065 103.779 33.156 103.363 33.156C102.886 33.156 102.453 33.0737 102.063 32.909C101.681 32.7443 101.352 32.5147 101.075 32.22C100.806 31.9253 100.598 31.583 100.451 31.193C100.303 30.803 100.23 30.3783 100.23 29.919C100.23 29.4597 100.303 29.035 100.451 28.645C100.598 28.2463 100.806 27.904 101.075 27.618C101.352 27.3233 101.681 27.0937 102.063 26.929C102.453 26.7643 102.886 26.682 103.363 26.682C103.805 26.682 104.221 26.7773 104.611 26.968C105.001 27.15 105.3 27.4013 105.508 27.722H105.534V23.172H106.704V33ZM103.506 32.064C103.818 32.064 104.099 32.012 104.351 31.908C104.602 31.7953 104.814 31.648 104.988 31.466C105.161 31.2753 105.295 31.05 105.391 30.79C105.486 30.5213 105.534 30.231 105.534 29.919C105.534 29.607 105.486 29.321 105.391 29.061C105.295 28.7923 105.161 28.567 104.988 28.385C104.814 28.1943 104.602 28.047 104.351 27.943C104.099 27.8303 103.818 27.774 103.506 27.774C103.194 27.774 102.912 27.8303 102.661 27.943C102.409 28.047 102.197 28.1943 102.024 28.385C101.85 28.567 101.716 28.7923 101.621 29.061C101.525 29.321 101.478 29.607 101.478 29.919C101.478 30.231 101.525 30.5213 101.621 30.79C101.716 31.05 101.85 31.2753 102.024 31.466C102.197 31.648 102.409 31.7953 102.661 31.908C102.912 32.012 103.194 32.064 103.506 32.064ZM113.615 30.348H112.367V23.796H113.615V30.348ZM112.159 32.22C112.159 31.986 112.241 31.7867 112.406 31.622C112.579 31.4487 112.783 31.362 113.017 31.362C113.251 31.362 113.45 31.4487 113.615 31.622C113.788 31.7867 113.875 31.986 113.875 32.22C113.875 32.454 113.788 32.6577 113.615 32.831C113.45 32.9957 113.251 33.078 113.017 33.078C112.783 33.078 112.579 32.9957 112.406 32.831C112.241 32.6577 112.159 32.454 112.159 32.22Z" fill="#0C131F"/>
<path d="M4.40234 102C4.40234 94.268 10.6704 88 18.4023 88H310.402C318.134 88 324.402 94.268 324.402 102V154C324.402 161.732 318.134 168 310.402 168H18.4023C10.6704 168 4.40234 161.732 4.40234 154V102Z" fill="#242B35"/>
<circle cx="36.4023" cy="128" r="16" fill="white"/>
<path d="M28.0688 122.707V121.329C28.0693 120.991 28.2037 120.667 28.4426 120.428C28.6815 120.189 29.0054 120.055 29.3433 120.054H30.4476C30.5581 120.054 30.6641 120.098 30.7422 120.176C30.8204 120.255 30.8643 120.361 30.8643 120.471C30.8643 120.582 30.8204 120.688 30.7422 120.766C30.6641 120.844 30.5581 120.888 30.4476 120.888H29.3433C29.2263 120.888 29.1142 120.934 29.0315 121.017C28.9488 121.1 28.9023 121.212 28.9022 121.329V122.707C28.9022 122.818 28.8583 122.924 28.7801 123.002C28.702 123.08 28.596 123.124 28.4855 123.124C28.375 123.124 28.269 123.08 28.1909 123.002C28.1127 122.924 28.0688 122.818 28.0688 122.707ZM43.4611 120.054H42.3568C42.2463 120.054 42.1403 120.098 42.0621 120.176C41.984 120.255 41.9401 120.361 41.9401 120.471C41.9401 120.582 41.984 120.688 42.0621 120.766C42.1403 120.844 42.2463 120.888 42.3568 120.888H43.4611C43.5781 120.888 43.6902 120.934 43.7729 121.017C43.8556 121.1 43.9021 121.212 43.9022 121.329V122.707C43.9022 122.818 43.9461 122.924 44.0242 123.002C44.1024 123.08 44.2083 123.124 44.3188 123.124C44.4294 123.124 44.5353 123.08 44.6135 123.002C44.6916 122.924 44.7355 122.818 44.7355 122.707V121.329C44.7351 120.991 44.6006 120.667 44.3617 120.428C44.1228 120.189 43.799 120.055 43.4611 120.054ZM30.4476 135.112H29.3433C29.2263 135.112 29.1142 135.066 29.0315 134.983C28.9488 134.9 28.9023 134.788 28.9022 134.671V133.293C28.9022 133.183 28.8583 133.077 28.7801 132.999C28.702 132.921 28.596 132.877 28.4855 132.877C28.375 132.877 28.269 132.921 28.1909 132.999C28.1127 133.077 28.0688 133.183 28.0688 133.293V134.671C28.0693 135.009 28.2037 135.333 28.4426 135.572C28.6815 135.811 29.0054 135.945 29.3433 135.946H30.4476C30.5581 135.946 30.6641 135.902 30.7422 135.823C30.8204 135.745 30.8643 135.639 30.8643 135.529C30.8643 135.418 30.8204 135.312 30.7422 135.234C30.6641 135.156 30.5581 135.112 30.4476 135.112V135.112ZM44.3188 132.877C44.2641 132.877 44.2099 132.887 44.1594 132.908C44.1088 132.929 44.0628 132.96 44.0241 132.999C43.9855 133.037 43.9548 133.083 43.9338 133.134C43.9129 133.184 43.9021 133.239 43.9022 133.293V134.671C43.9021 134.788 43.8556 134.9 43.7729 134.983C43.6902 135.066 43.5781 135.112 43.4611 135.112H42.3568C42.2463 135.112 42.1403 135.156 42.0621 135.234C41.984 135.312 41.9401 135.418 41.9401 135.529C41.9401 135.639 41.984 135.745 42.0621 135.823C42.1403 135.902 42.2463 135.946 42.3568 135.946H43.4611C43.7989 135.945 44.1228 135.811 44.3617 135.572C44.6006 135.333 44.7351 135.009 44.7355 134.671V133.293C44.7355 133.239 44.7248 133.184 44.7039 133.134C44.6829 133.083 44.6522 133.037 44.6135 132.999C44.5748 132.96 44.5289 132.929 44.4783 132.908C44.4278 132.887 44.3736 132.877 44.3188 132.877ZM42.1175 127.39H36.995V122.268H42.1175V127.39ZM41.2842 123.101H37.8283V126.557H41.2842V123.101ZM40.3605 124.024H38.7516V125.633H40.3605V124.024ZM30.6523 128.61H35.7748V133.733H30.6523V128.61ZM31.4856 132.899H34.9414V129.443H31.4856V132.899ZM32.4093 131.976H34.0181V130.367H32.4093V131.976ZM37.1696 130.272H38.8184V128.623H37.1696V130.272ZM38.8241 131.926H40.4728V130.277H38.8241V131.926ZM42.1517 128.599H40.5029V130.247H42.1517V128.599ZM37.0976 133.653H38.7463V132.004H37.0976V133.653ZM30.7451 127.334H32.3938V125.685H30.745L30.7451 127.334ZM35.7133 122.366H34.0645V124.014H35.7133L35.7133 122.366ZM34.0487 124.031H32.3999V125.679H34.0487V124.031ZM30.721 124.001H32.3698V122.352H30.721V124.001ZM34.1263 127.406H35.7751V125.757H34.1263V127.406Z" fill="#242B35"/>
<rect x="70.4023" y="88" width="80" height="2" transform="rotate(90 70.4023 88)" fill="#0C131F"/>
<path d="M91.081 110.88L88.953 112.848L87.833 111.52L91.257 108.672H93.001V120H91.081V110.88ZM100.55 110.88L98.4217 112.848L97.3017 111.52L100.726 108.672H102.47V120H100.55V110.88ZM106.818 118.88C106.818 118.539 106.941 118.245 107.186 118C107.442 117.755 107.746 117.632 108.098 117.632C108.44 117.632 108.738 117.749 108.994 117.984C109.25 118.219 109.378 118.507 109.378 118.848C109.378 119.189 109.25 119.483 108.994 119.728C108.749 119.973 108.45 120.096 108.098 120.096C107.928 120.096 107.762 120.064 107.602 120C107.453 119.936 107.32 119.851 107.202 119.744C107.085 119.637 106.989 119.509 106.914 119.36C106.85 119.211 106.818 119.051 106.818 118.88ZM106.818 113.456C106.818 113.115 106.941 112.821 107.186 112.576C107.442 112.331 107.746 112.208 108.098 112.208C108.44 112.208 108.738 112.325 108.994 112.56C109.25 112.795 109.378 113.083 109.378 113.424C109.378 113.765 109.25 114.059 108.994 114.304C108.749 114.549 108.45 114.672 108.098 114.672C107.928 114.672 107.762 114.64 107.602 114.576C107.453 114.512 107.32 114.427 107.202 114.32C107.085 114.213 106.989 114.085 106.914 113.936C106.85 113.787 106.818 113.627 106.818 113.456ZM118.545 110.4H113.985L113.937 112.656C114.086 112.603 114.273 112.565 114.497 112.544C114.732 112.523 114.95 112.512 115.153 112.512C115.708 112.512 116.214 112.603 116.673 112.784C117.142 112.955 117.542 113.205 117.873 113.536C118.204 113.867 118.46 114.261 118.641 114.72C118.833 115.179 118.929 115.696 118.929 116.272C118.929 116.88 118.822 117.429 118.609 117.92C118.406 118.4 118.118 118.811 117.745 119.152C117.382 119.483 116.95 119.739 116.449 119.92C115.948 120.101 115.409 120.192 114.833 120.192C113.926 120.192 113.153 119.979 112.513 119.552C111.884 119.125 111.436 118.475 111.169 117.6L113.185 117.056C113.313 117.461 113.532 117.781 113.841 118.016C114.15 118.251 114.55 118.368 115.041 118.368C115.329 118.368 115.59 118.32 115.825 118.224C116.07 118.128 116.278 117.995 116.449 117.824C116.63 117.643 116.769 117.435 116.865 117.2C116.961 116.965 117.009 116.709 117.009 116.432C117.009 116.037 116.934 115.701 116.785 115.424C116.646 115.147 116.454 114.923 116.209 114.752C115.964 114.571 115.681 114.443 115.361 114.368C115.041 114.283 114.705 114.24 114.353 114.24C113.937 114.24 113.521 114.288 113.105 114.384C112.7 114.48 112.326 114.613 111.985 114.784L112.097 108.672H118.545V110.4ZM120.574 114.336C120.574 113.44 120.643 112.677 120.782 112.048C120.931 111.408 121.123 110.875 121.358 110.448C121.592 110.011 121.854 109.664 122.142 109.408C122.44 109.141 122.739 108.944 123.038 108.816C123.347 108.677 123.64 108.587 123.918 108.544C124.206 108.501 124.456 108.48 124.67 108.48C124.883 108.48 125.128 108.501 125.406 108.544C125.694 108.587 125.987 108.677 126.286 108.816C126.595 108.944 126.894 109.141 127.182 109.408C127.48 109.664 127.747 110.011 127.982 110.448C128.216 110.875 128.403 111.408 128.542 112.048C128.691 112.677 128.766 113.44 128.766 114.336C128.766 115.232 128.691 116 128.542 116.64C128.403 117.269 128.216 117.803 127.982 118.24C127.747 118.667 127.48 119.013 127.182 119.28C126.894 119.536 126.595 119.733 126.286 119.872C125.987 120 125.694 120.085 125.406 120.128C125.128 120.171 124.883 120.192 124.67 120.192C124.456 120.192 124.206 120.171 123.918 120.128C123.64 120.085 123.347 120 123.038 119.872C122.739 119.733 122.44 119.536 122.142 119.28C121.854 119.013 121.592 118.667 121.358 118.24C121.123 117.803 120.931 117.269 120.782 116.64C120.643 116 120.574 115.232 120.574 114.336ZM122.494 114.336C122.494 114.688 122.515 115.099 122.558 115.568C122.611 116.027 122.712 116.464 122.862 116.88C123.011 117.296 123.23 117.648 123.518 117.936C123.806 118.224 124.19 118.368 124.67 118.368C125.15 118.368 125.534 118.224 125.822 117.936C126.11 117.648 126.328 117.296 126.478 116.88C126.627 116.464 126.723 116.027 126.766 115.568C126.819 115.099 126.846 114.688 126.846 114.336C126.846 113.984 126.819 113.579 126.766 113.12C126.723 112.651 126.627 112.208 126.478 111.792C126.328 111.376 126.11 111.024 125.822 110.736C125.534 110.448 125.15 110.304 124.67 110.304C124.19 110.304 123.806 110.448 123.518 110.736C123.23 111.024 123.011 111.376 122.862 111.792C122.712 112.208 122.611 112.651 122.558 113.12C122.515 113.579 122.494 113.984 122.494 114.336Z" fill="#F3F3F4"/>
<path d="M148.506 113.664V119.248C148.229 119.419 147.914 119.568 147.562 119.696C147.21 119.824 146.842 119.931 146.458 120.016C146.085 120.112 145.701 120.181 145.306 120.224C144.922 120.267 144.56 120.288 144.218 120.288C143.258 120.288 142.4 120.128 141.642 119.808C140.896 119.488 140.261 119.056 139.738 118.512C139.226 117.968 138.832 117.339 138.554 116.624C138.288 115.899 138.154 115.136 138.154 114.336C138.154 113.493 138.298 112.709 138.586 111.984C138.885 111.259 139.29 110.629 139.802 110.096C140.325 109.563 140.949 109.147 141.674 108.848C142.4 108.539 143.194 108.384 144.058 108.384C145.104 108.384 145.957 108.517 146.618 108.784C147.28 109.04 147.834 109.397 148.282 109.856L147.194 111.024C146.725 110.576 146.229 110.267 145.706 110.096C145.184 109.915 144.634 109.824 144.058 109.824C143.408 109.824 142.821 109.947 142.298 110.192C141.776 110.427 141.328 110.747 140.954 111.152C140.581 111.557 140.293 112.037 140.09 112.592C139.888 113.136 139.786 113.717 139.786 114.336C139.786 114.976 139.898 115.573 140.122 116.128C140.346 116.672 140.656 117.147 141.05 117.552C141.445 117.957 141.909 118.277 142.442 118.512C142.976 118.736 143.557 118.848 144.186 118.848C144.73 118.848 145.242 118.8 145.722 118.704C146.213 118.597 146.629 118.448 146.97 118.256V115.104H144.458V113.664H148.506ZM150.975 113.344C151.381 112.971 151.85 112.693 152.383 112.512C152.917 112.32 153.45 112.224 153.983 112.224C154.538 112.224 155.013 112.293 155.407 112.432C155.813 112.571 156.143 112.757 156.399 112.992C156.655 113.227 156.842 113.499 156.959 113.808C157.087 114.107 157.151 114.421 157.151 114.752V118.624C157.151 118.891 157.157 119.136 157.167 119.36C157.178 119.584 157.194 119.797 157.215 120H155.935C155.903 119.616 155.887 119.232 155.887 118.848H155.855C155.535 119.339 155.157 119.685 154.719 119.888C154.282 120.091 153.775 120.192 153.199 120.192C152.847 120.192 152.511 120.144 152.191 120.048C151.871 119.952 151.589 119.808 151.343 119.616C151.109 119.424 150.922 119.189 150.783 118.912C150.645 118.624 150.575 118.293 150.575 117.92C150.575 117.429 150.682 117.019 150.895 116.688C151.119 116.357 151.418 116.091 151.791 115.888C152.175 115.675 152.618 115.525 153.119 115.44C153.631 115.344 154.175 115.296 154.751 115.296H155.807V114.976C155.807 114.784 155.77 114.592 155.695 114.4C155.621 114.208 155.509 114.037 155.359 113.888C155.21 113.728 155.023 113.605 154.799 113.52C154.575 113.424 154.309 113.376 153.999 113.376C153.722 113.376 153.477 113.403 153.263 113.456C153.061 113.509 152.874 113.579 152.703 113.664C152.533 113.739 152.378 113.829 152.239 113.936C152.101 114.043 151.967 114.144 151.839 114.24L150.975 113.344ZM155.039 116.352C154.698 116.352 154.346 116.373 153.983 116.416C153.631 116.448 153.306 116.517 153.007 116.624C152.719 116.731 152.479 116.88 152.287 117.072C152.106 117.264 152.015 117.509 152.015 117.808C152.015 118.245 152.159 118.56 152.447 118.752C152.746 118.944 153.146 119.04 153.647 119.04C154.042 119.04 154.378 118.976 154.655 118.848C154.933 118.709 155.157 118.533 155.327 118.32C155.498 118.107 155.621 117.872 155.695 117.616C155.77 117.349 155.807 117.088 155.807 116.832V116.352H155.039ZM159.24 112.416H160.68V113.584H160.712C160.808 113.381 160.936 113.2 161.096 113.04C161.256 112.869 161.432 112.725 161.624 112.608C161.827 112.491 162.046 112.4 162.28 112.336C162.515 112.261 162.75 112.224 162.984 112.224C163.219 112.224 163.432 112.256 163.624 112.32L163.56 113.872C163.443 113.84 163.326 113.813 163.208 113.792C163.091 113.771 162.974 113.76 162.856 113.76C162.152 113.76 161.614 113.957 161.24 114.352C160.867 114.747 160.68 115.36 160.68 116.192V120H159.24V112.416ZM165.969 116.736C165.969 117.067 166.038 117.371 166.177 117.648C166.326 117.915 166.518 118.144 166.753 118.336C166.988 118.528 167.26 118.677 167.569 118.784C167.878 118.891 168.198 118.944 168.529 118.944C168.977 118.944 169.366 118.843 169.697 118.64C170.028 118.427 170.332 118.149 170.609 117.808L171.697 118.64C170.897 119.675 169.777 120.192 168.337 120.192C167.74 120.192 167.196 120.091 166.705 119.888C166.225 119.685 165.814 119.408 165.473 119.056C165.142 118.693 164.886 118.272 164.705 117.792C164.524 117.301 164.433 116.773 164.433 116.208C164.433 115.643 164.529 115.12 164.721 114.64C164.924 114.149 165.196 113.728 165.537 113.376C165.889 113.013 166.305 112.731 166.785 112.528C167.265 112.325 167.788 112.224 168.353 112.224C169.025 112.224 169.59 112.341 170.049 112.576C170.518 112.811 170.902 113.12 171.201 113.504C171.5 113.877 171.713 114.304 171.841 114.784C171.98 115.253 172.049 115.733 172.049 116.224V116.736H165.969ZM170.513 115.584C170.502 115.264 170.449 114.971 170.353 114.704C170.268 114.437 170.134 114.208 169.953 114.016C169.772 113.813 169.542 113.659 169.265 113.552C168.998 113.435 168.684 113.376 168.321 113.376C167.969 113.376 167.644 113.445 167.345 113.584C167.057 113.712 166.812 113.883 166.609 114.096C166.406 114.309 166.246 114.549 166.129 114.816C166.022 115.072 165.969 115.328 165.969 115.584H170.513ZM185.825 120H184.385V118.912H184.353C184.075 119.317 183.691 119.632 183.201 119.856C182.721 120.08 182.225 120.192 181.713 120.192C181.126 120.192 180.593 120.091 180.113 119.888C179.643 119.685 179.238 119.403 178.897 119.04C178.566 118.677 178.31 118.256 178.129 117.776C177.947 117.296 177.857 116.773 177.857 116.208C177.857 115.643 177.947 115.12 178.129 114.64C178.31 114.149 178.566 113.728 178.897 113.376C179.238 113.013 179.643 112.731 180.113 112.528C180.593 112.325 181.126 112.224 181.713 112.224C182.257 112.224 182.769 112.341 183.249 112.576C183.729 112.8 184.097 113.109 184.353 113.504H184.385V107.904H185.825V120ZM181.889 118.848C182.273 118.848 182.619 118.784 182.929 118.656C183.238 118.517 183.499 118.336 183.713 118.112C183.926 117.877 184.091 117.6 184.209 117.28C184.326 116.949 184.385 116.592 184.385 116.208C184.385 115.824 184.326 115.472 184.209 115.152C184.091 114.821 183.926 114.544 183.713 114.32C183.499 114.085 183.238 113.904 182.929 113.776C182.619 113.637 182.273 113.568 181.889 113.568C181.505 113.568 181.158 113.637 180.849 113.776C180.539 113.904 180.278 114.085 180.065 114.32C179.851 114.544 179.686 114.821 179.569 115.152C179.451 115.472 179.393 115.824 179.393 116.208C179.393 116.592 179.451 116.949 179.569 117.28C179.686 117.6 179.851 117.877 180.065 118.112C180.278 118.336 180.539 118.517 180.849 118.656C181.158 118.784 181.505 118.848 181.889 118.848ZM189.094 116.736C189.094 117.067 189.163 117.371 189.302 117.648C189.451 117.915 189.643 118.144 189.878 118.336C190.113 118.528 190.385 118.677 190.694 118.784C191.003 118.891 191.323 118.944 191.654 118.944C192.102 118.944 192.491 118.843 192.822 118.64C193.153 118.427 193.457 118.149 193.734 117.808L194.822 118.64C194.022 119.675 192.902 120.192 191.462 120.192C190.865 120.192 190.321 120.091 189.83 119.888C189.35 119.685 188.939 119.408 188.598 119.056C188.267 118.693 188.011 118.272 187.83 117.792C187.649 117.301 187.558 116.773 187.558 116.208C187.558 115.643 187.654 115.12 187.846 114.64C188.049 114.149 188.321 113.728 188.662 113.376C189.014 113.013 189.43 112.731 189.91 112.528C190.39 112.325 190.913 112.224 191.478 112.224C192.15 112.224 192.715 112.341 193.174 112.576C193.643 112.811 194.027 113.12 194.326 113.504C194.625 113.877 194.838 114.304 194.966 114.784C195.105 115.253 195.174 115.733 195.174 116.224V116.736H189.094ZM193.638 115.584C193.627 115.264 193.574 114.971 193.478 114.704C193.393 114.437 193.259 114.208 193.078 114.016C192.897 113.813 192.667 113.659 192.39 113.552C192.123 113.435 191.809 113.376 191.446 113.376C191.094 113.376 190.769 113.445 190.47 113.584C190.182 113.712 189.937 113.883 189.734 114.096C189.531 114.309 189.371 114.549 189.254 114.816C189.147 115.072 189.094 115.328 189.094 115.584H193.638ZM201.718 108.672H203.254V118.56H208.454V120H201.718V108.672ZM208.141 112.416H209.805L212.061 118.336H212.093L214.237 112.416H215.789L212.189 121.632C212.061 121.963 211.928 122.261 211.789 122.528C211.65 122.805 211.485 123.04 211.293 123.232C211.101 123.424 210.866 123.573 210.589 123.68C210.322 123.787 209.992 123.84 209.597 123.84C209.384 123.84 209.165 123.824 208.941 123.792C208.728 123.771 208.52 123.717 208.317 123.632L208.493 122.32C208.781 122.437 209.069 122.496 209.357 122.496C209.581 122.496 209.768 122.464 209.917 122.4C210.077 122.347 210.21 122.261 210.317 122.144C210.434 122.037 210.53 121.909 210.605 121.76C210.68 121.611 210.754 121.44 210.829 121.248L211.293 120.048L208.141 112.416ZM218.221 116.208C218.221 116.592 218.28 116.949 218.397 117.28C218.514 117.6 218.68 117.877 218.893 118.112C219.106 118.336 219.368 118.517 219.677 118.656C219.986 118.784 220.333 118.848 220.717 118.848C221.101 118.848 221.448 118.784 221.757 118.656C222.066 118.517 222.328 118.336 222.541 118.112C222.754 117.877 222.92 117.6 223.037 117.28C223.154 116.949 223.213 116.592 223.213 116.208C223.213 115.824 223.154 115.472 223.037 115.152C222.92 114.821 222.754 114.544 222.541 114.32C222.328 114.085 222.066 113.904 221.757 113.776C221.448 113.637 221.101 113.568 220.717 113.568C220.333 113.568 219.986 113.637 219.677 113.776C219.368 113.904 219.106 114.085 218.893 114.32C218.68 114.544 218.514 114.821 218.397 115.152C218.28 115.472 218.221 115.824 218.221 116.208ZM216.685 116.208C216.685 115.653 216.786 115.136 216.989 114.656C217.202 114.176 217.49 113.755 217.853 113.392C218.216 113.029 218.642 112.747 219.133 112.544C219.624 112.331 220.152 112.224 220.717 112.224C221.282 112.224 221.81 112.331 222.301 112.544C222.792 112.747 223.218 113.029 223.581 113.392C223.944 113.755 224.226 114.176 224.429 114.656C224.642 115.136 224.749 115.653 224.749 116.208C224.749 116.763 224.642 117.285 224.429 117.776C224.226 118.256 223.944 118.677 223.581 119.04C223.218 119.392 222.792 119.675 222.301 119.888C221.81 120.091 221.282 120.192 220.717 120.192C220.152 120.192 219.624 120.091 219.133 119.888C218.642 119.675 218.216 119.392 217.853 119.04C217.49 118.677 217.202 118.256 216.989 117.776C216.786 117.285 216.685 116.763 216.685 116.208ZM226.553 112.416H227.993V113.584H228.025C228.206 113.179 228.521 112.853 228.969 112.608C229.417 112.352 229.934 112.224 230.521 112.224C230.884 112.224 231.23 112.283 231.561 112.4C231.902 112.507 232.196 112.677 232.441 112.912C232.697 113.147 232.9 113.451 233.049 113.824C233.198 114.187 233.273 114.619 233.273 115.12V120H231.833V115.52C231.833 115.168 231.785 114.869 231.689 114.624C231.593 114.368 231.465 114.165 231.305 114.016C231.145 113.856 230.958 113.744 230.745 113.68C230.542 113.605 230.329 113.568 230.105 113.568C229.806 113.568 229.529 113.616 229.273 113.712C229.017 113.808 228.793 113.963 228.601 114.176C228.409 114.379 228.26 114.64 228.153 114.96C228.046 115.28 227.993 115.659 227.993 116.096V120H226.553V112.416ZM240.265 108.672H244.249C244.974 108.672 245.571 108.773 246.041 108.976C246.51 109.168 246.878 109.419 247.145 109.728C247.422 110.027 247.614 110.368 247.721 110.752C247.827 111.125 247.881 111.488 247.881 111.84C247.881 112.192 247.827 112.56 247.721 112.944C247.614 113.317 247.422 113.659 247.145 113.968C246.878 114.267 246.51 114.517 246.041 114.72C245.571 114.912 244.974 115.008 244.249 115.008H241.801V120H240.265V108.672ZM241.801 113.664H243.817C244.115 113.664 244.409 113.643 244.697 113.6C244.995 113.547 245.257 113.456 245.481 113.328C245.715 113.2 245.902 113.019 246.041 112.784C246.179 112.539 246.249 112.224 246.249 111.84C246.249 111.456 246.179 111.147 246.041 110.912C245.902 110.667 245.715 110.48 245.481 110.352C245.257 110.224 244.995 110.139 244.697 110.096C244.409 110.043 244.115 110.016 243.817 110.016H241.801V113.664ZM249.413 113.344C249.818 112.971 250.288 112.693 250.821 112.512C251.354 112.32 251.888 112.224 252.421 112.224C252.976 112.224 253.45 112.293 253.845 112.432C254.25 112.571 254.581 112.757 254.837 112.992C255.093 113.227 255.28 113.499 255.397 113.808C255.525 114.107 255.589 114.421 255.589 114.752V118.624C255.589 118.891 255.594 119.136 255.605 119.36C255.616 119.584 255.632 119.797 255.653 120H254.373C254.341 119.616 254.325 119.232 254.325 118.848H254.293C253.973 119.339 253.594 119.685 253.157 119.888C252.72 120.091 252.213 120.192 251.637 120.192C251.285 120.192 250.949 120.144 250.629 120.048C250.309 119.952 250.026 119.808 249.781 119.616C249.546 119.424 249.36 119.189 249.221 118.912C249.082 118.624 249.013 118.293 249.013 117.92C249.013 117.429 249.12 117.019 249.333 116.688C249.557 116.357 249.856 116.091 250.229 115.888C250.613 115.675 251.056 115.525 251.557 115.44C252.069 115.344 252.613 115.296 253.189 115.296H254.245V114.976C254.245 114.784 254.208 114.592 254.133 114.4C254.058 114.208 253.946 114.037 253.797 113.888C253.648 113.728 253.461 113.605 253.237 113.52C253.013 113.424 252.746 113.376 252.437 113.376C252.16 113.376 251.914 113.403 251.701 113.456C251.498 113.509 251.312 113.579 251.141 113.664C250.97 113.739 250.816 113.829 250.677 113.936C250.538 114.043 250.405 114.144 250.277 114.24L249.413 113.344ZM253.477 116.352C253.136 116.352 252.784 116.373 252.421 116.416C252.069 116.448 251.744 116.517 251.445 116.624C251.157 116.731 250.917 116.88 250.725 117.072C250.544 117.264 250.453 117.509 250.453 117.808C250.453 118.245 250.597 118.56 250.885 118.752C251.184 118.944 251.584 119.04 252.085 119.04C252.48 119.04 252.816 118.976 253.093 118.848C253.37 118.709 253.594 118.533 253.765 118.32C253.936 118.107 254.058 117.872 254.133 117.616C254.208 117.349 254.245 117.088 254.245 116.832V116.352H253.477ZM257.678 112.416H259.118V113.584H259.15C259.246 113.381 259.374 113.2 259.534 113.04C259.694 112.869 259.87 112.725 260.062 112.608C260.265 112.491 260.483 112.4 260.718 112.336C260.953 112.261 261.187 112.224 261.422 112.224C261.657 112.224 261.87 112.256 262.062 112.32L261.998 113.872C261.881 113.84 261.763 113.813 261.646 113.792C261.529 113.771 261.411 113.76 261.294 113.76C260.59 113.76 260.051 113.957 259.678 114.352C259.305 114.747 259.118 115.36 259.118 116.192V120H257.678V112.416ZM267.664 113.664H265.6V117.104C265.6 117.317 265.605 117.531 265.616 117.744C265.626 117.947 265.664 118.133 265.728 118.304C265.802 118.464 265.909 118.597 266.048 118.704C266.197 118.8 266.41 118.848 266.688 118.848C266.858 118.848 267.034 118.832 267.216 118.8C267.397 118.768 267.562 118.709 267.712 118.624V119.936C267.541 120.032 267.317 120.096 267.04 120.128C266.773 120.171 266.565 120.192 266.416 120.192C265.861 120.192 265.429 120.117 265.12 119.968C264.821 119.808 264.597 119.605 264.448 119.36C264.309 119.115 264.224 118.843 264.192 118.544C264.17 118.235 264.16 117.925 264.16 117.616V113.664H262.496V112.416H264.16V110.288H265.6V112.416H267.664V113.664ZM270.658 120.096C270.37 120.096 270.119 119.995 269.906 119.792C269.703 119.579 269.602 119.328 269.602 119.04C269.602 118.752 269.703 118.507 269.906 118.304C270.119 118.091 270.37 117.984 270.658 117.984C270.946 117.984 271.191 118.091 271.394 118.304C271.607 118.507 271.714 118.752 271.714 119.04C271.714 119.328 271.607 119.579 271.394 119.792C271.191 119.995 270.946 120.096 270.658 120.096ZM275.111 120.096C274.823 120.096 274.572 119.995 274.359 119.792C274.156 119.579 274.055 119.328 274.055 119.04C274.055 118.752 274.156 118.507 274.359 118.304C274.572 118.091 274.823 117.984 275.111 117.984C275.399 117.984 275.644 118.091 275.847 118.304C276.06 118.507 276.167 118.752 276.167 119.04C276.167 119.328 276.06 119.579 275.847 119.792C275.644 119.995 275.399 120.096 275.111 120.096Z" fill="#F3F3F4"/>
<path d="M91.081 136.88L88.953 138.848L87.833 137.52L91.257 134.672H93.001V146H91.081V136.88ZM101.622 143.696H96.8057V141.792L101.366 134.672H103.542V141.968H105.19V143.696H103.542V146H101.622V143.696ZM101.622 137.392H101.59L98.7577 141.968H101.622V137.392ZM106.818 144.88C106.818 144.539 106.941 144.245 107.186 144C107.442 143.755 107.746 143.632 108.098 143.632C108.44 143.632 108.738 143.749 108.994 143.984C109.25 144.219 109.378 144.507 109.378 144.848C109.378 145.189 109.25 145.483 108.994 145.728C108.749 145.973 108.45 146.096 108.098 146.096C107.928 146.096 107.762 146.064 107.602 146C107.453 145.936 107.32 145.851 107.202 145.744C107.085 145.637 106.989 145.509 106.914 145.36C106.85 145.211 106.818 145.051 106.818 144.88ZM106.818 139.456C106.818 139.115 106.941 138.821 107.186 138.576C107.442 138.331 107.746 138.208 108.098 138.208C108.44 138.208 108.738 138.325 108.994 138.56C109.25 138.795 109.378 139.083 109.378 139.424C109.378 139.765 109.25 140.059 108.994 140.304C108.749 140.549 108.45 140.672 108.098 140.672C107.928 140.672 107.762 140.64 107.602 140.576C107.453 140.512 107.32 140.427 107.202 140.32C107.085 140.213 106.989 140.085 106.914 139.936C106.85 139.787 106.818 139.627 106.818 139.456ZM114.017 139.232H114.513C114.79 139.232 115.057 139.216 115.313 139.184C115.58 139.152 115.814 139.083 116.017 138.976C116.23 138.869 116.401 138.715 116.529 138.512C116.657 138.309 116.721 138.037 116.721 137.696C116.721 137.259 116.572 136.901 116.273 136.624C115.974 136.347 115.585 136.208 115.105 136.208C114.721 136.208 114.374 136.32 114.065 136.544C113.766 136.757 113.548 137.061 113.409 137.456L111.377 136.912C111.505 136.496 111.686 136.133 111.921 135.824C112.156 135.515 112.433 135.264 112.753 135.072C113.073 134.869 113.425 134.72 113.809 134.624C114.193 134.528 114.593 134.48 115.009 134.48C115.5 134.48 115.964 134.544 116.401 134.672C116.838 134.8 117.222 134.992 117.553 135.248C117.884 135.493 118.145 135.808 118.337 136.192C118.54 136.565 118.641 137.003 118.641 137.504C118.641 138.112 118.47 138.656 118.129 139.136C117.788 139.605 117.313 139.915 116.705 140.064V140.096C117.43 140.203 117.98 140.512 118.353 141.024C118.726 141.536 118.913 142.144 118.913 142.848C118.913 143.392 118.806 143.872 118.593 144.288C118.39 144.704 118.113 145.056 117.761 145.344C117.409 145.621 116.998 145.835 116.529 145.984C116.07 146.123 115.59 146.192 115.089 146.192C114.62 146.192 114.177 146.139 113.761 146.032C113.345 145.936 112.966 145.781 112.625 145.568C112.294 145.355 112.006 145.083 111.761 144.752C111.516 144.411 111.329 144.005 111.201 143.536L113.249 142.992C113.366 143.461 113.574 143.824 113.873 144.08C114.172 144.336 114.577 144.464 115.089 144.464C115.345 144.464 115.585 144.421 115.809 144.336C116.044 144.251 116.246 144.133 116.417 143.984C116.598 143.824 116.737 143.637 116.833 143.424C116.94 143.2 116.993 142.955 116.993 142.688C116.993 142.325 116.913 142.032 116.753 141.808C116.604 141.573 116.406 141.397 116.161 141.28C115.926 141.152 115.66 141.067 115.361 141.024C115.062 140.981 114.769 140.96 114.481 140.96H114.017V139.232ZM124.67 134.48C125.15 134.48 125.598 134.549 126.014 134.688C126.44 134.816 126.808 135.008 127.118 135.264C127.438 135.509 127.688 135.819 127.87 136.192C128.051 136.555 128.142 136.976 128.142 137.456C128.142 138.064 127.998 138.597 127.71 139.056C127.432 139.515 127.006 139.829 126.43 140V140.032C126.696 140.085 126.952 140.197 127.198 140.368C127.454 140.528 127.678 140.731 127.87 140.976C128.062 141.211 128.211 141.483 128.318 141.792C128.435 142.101 128.494 142.432 128.494 142.784C128.494 143.349 128.392 143.845 128.19 144.272C127.987 144.688 127.715 145.04 127.374 145.328C127.032 145.616 126.627 145.835 126.158 145.984C125.688 146.123 125.192 146.192 124.67 146.192C124.136 146.192 123.635 146.123 123.166 145.984C122.707 145.835 122.307 145.616 121.966 145.328C121.624 145.04 121.352 144.688 121.15 144.272C120.947 143.845 120.846 143.349 120.846 142.784C120.846 142.432 120.899 142.101 121.006 141.792C121.123 141.483 121.278 141.211 121.47 140.976C121.662 140.731 121.88 140.528 122.126 140.368C122.382 140.197 122.643 140.085 122.91 140.032V140C122.334 139.829 121.902 139.515 121.614 139.056C121.336 138.597 121.198 138.064 121.198 137.456C121.198 136.976 121.288 136.555 121.47 136.192C121.651 135.819 121.896 135.509 122.206 135.264C122.526 135.008 122.894 134.816 123.31 134.688C123.736 134.549 124.19 134.48 124.67 134.48ZM124.67 136.112C124.179 136.112 123.795 136.261 123.518 136.56C123.251 136.859 123.118 137.221 123.118 137.648C123.118 138.096 123.256 138.475 123.534 138.784C123.811 139.083 124.19 139.232 124.67 139.232C124.883 139.232 125.08 139.195 125.262 139.12C125.454 139.035 125.619 138.923 125.758 138.784C125.907 138.635 126.019 138.464 126.094 138.272C126.179 138.08 126.222 137.872 126.222 137.648C126.222 137.221 126.072 136.859 125.774 136.56C125.486 136.261 125.118 136.112 124.67 136.112ZM124.67 140.768C124.414 140.768 124.168 140.811 123.934 140.896C123.699 140.981 123.496 141.104 123.326 141.264C123.155 141.424 123.016 141.616 122.91 141.84C122.814 142.053 122.766 142.288 122.766 142.544C122.766 143.088 122.942 143.531 123.294 143.872C123.656 144.203 124.115 144.368 124.67 144.368C125.224 144.368 125.678 144.203 126.03 143.872C126.392 143.531 126.574 143.088 126.574 142.544C126.574 142.288 126.52 142.053 126.414 141.84C126.318 141.616 126.184 141.424 126.014 141.264C125.843 141.104 125.64 140.981 125.406 140.896C125.171 140.811 124.926 140.768 124.67 140.768Z" fill="#F3F3F4"/>
<path d="M138.746 134.672H141.034L144.634 143.248H144.698L148.266 134.672H150.554V146H149.018V136.688H148.986L145.162 146H144.138L140.314 136.688H140.282V146H138.746V134.672ZM153.022 139.344C153.428 138.971 153.897 138.693 154.43 138.512C154.964 138.32 155.497 138.224 156.03 138.224C156.585 138.224 157.06 138.293 157.454 138.432C157.86 138.571 158.19 138.757 158.446 138.992C158.702 139.227 158.889 139.499 159.006 139.808C159.134 140.107 159.198 140.421 159.198 140.752V144.624C159.198 144.891 159.204 145.136 159.214 145.36C159.225 145.584 159.241 145.797 159.262 146H157.982C157.95 145.616 157.934 145.232 157.934 144.848H157.902C157.582 145.339 157.204 145.685 156.766 145.888C156.329 146.091 155.822 146.192 155.246 146.192C154.894 146.192 154.558 146.144 154.238 146.048C153.918 145.952 153.636 145.808 153.39 145.616C153.156 145.424 152.969 145.189 152.83 144.912C152.692 144.624 152.622 144.293 152.622 143.92C152.622 143.429 152.729 143.019 152.942 142.688C153.166 142.357 153.465 142.091 153.838 141.888C154.222 141.675 154.665 141.525 155.166 141.44C155.678 141.344 156.222 141.296 156.798 141.296H157.854V140.976C157.854 140.784 157.817 140.592 157.742 140.4C157.668 140.208 157.556 140.037 157.406 139.888C157.257 139.728 157.07 139.605 156.846 139.52C156.622 139.424 156.356 139.376 156.046 139.376C155.769 139.376 155.524 139.403 155.31 139.456C155.108 139.509 154.921 139.579 154.75 139.664C154.58 139.739 154.425 139.829 154.286 139.936C154.148 140.043 154.014 140.144 153.886 140.24L153.022 139.344ZM157.086 142.352C156.745 142.352 156.393 142.373 156.03 142.416C155.678 142.448 155.353 142.517 155.054 142.624C154.766 142.731 154.526 142.88 154.334 143.072C154.153 143.264 154.062 143.509 154.062 143.808C154.062 144.245 154.206 144.56 154.494 144.752C154.793 144.944 155.193 145.04 155.694 145.04C156.089 145.04 156.425 144.976 156.702 144.848C156.98 144.709 157.204 144.533 157.374 144.32C157.545 144.107 157.668 143.872 157.742 143.616C157.817 143.349 157.854 143.088 157.854 142.832V142.352H157.086ZM161.287 138.416H162.727V139.584H162.759C162.855 139.381 162.983 139.2 163.143 139.04C163.303 138.869 163.479 138.725 163.671 138.608C163.874 138.491 164.093 138.4 164.327 138.336C164.562 138.261 164.797 138.224 165.031 138.224C165.266 138.224 165.479 138.256 165.671 138.32L165.607 139.872C165.49 139.84 165.373 139.813 165.255 139.792C165.138 139.771 165.021 139.76 164.903 139.76C164.199 139.76 163.661 139.957 163.287 140.352C162.914 140.747 162.727 141.36 162.727 142.192V146H161.287V138.416ZM171.241 140.32C171.07 140.107 170.857 139.931 170.601 139.792C170.356 139.643 170.052 139.568 169.689 139.568C169.348 139.568 169.049 139.643 168.793 139.792C168.548 139.931 168.425 140.139 168.425 140.416C168.425 140.64 168.494 140.821 168.633 140.96C168.782 141.099 168.953 141.211 169.145 141.296C169.348 141.381 169.561 141.445 169.785 141.488C170.009 141.531 170.201 141.568 170.361 141.6C170.67 141.675 170.958 141.765 171.225 141.872C171.502 141.979 171.737 142.117 171.929 142.288C172.132 142.459 172.286 142.667 172.393 142.912C172.51 143.157 172.569 143.456 172.569 143.808C172.569 144.235 172.478 144.603 172.297 144.912C172.116 145.211 171.881 145.456 171.593 145.648C171.305 145.84 170.974 145.979 170.601 146.064C170.238 146.149 169.87 146.192 169.497 146.192C168.868 146.192 168.313 146.096 167.833 145.904C167.364 145.712 166.942 145.36 166.569 144.848L167.657 143.952C167.892 144.187 168.153 144.395 168.441 144.576C168.729 144.757 169.081 144.848 169.497 144.848C169.678 144.848 169.86 144.832 170.041 144.8C170.233 144.757 170.398 144.699 170.537 144.624C170.686 144.539 170.804 144.437 170.889 144.32C170.985 144.192 171.033 144.048 171.033 143.888C171.033 143.675 170.964 143.499 170.825 143.36C170.697 143.221 170.537 143.115 170.345 143.04C170.164 142.955 169.966 142.891 169.753 142.848C169.55 142.795 169.369 142.752 169.209 142.72C168.9 142.645 168.606 142.56 168.329 142.464C168.052 142.368 167.806 142.24 167.593 142.08C167.38 141.92 167.209 141.717 167.081 141.472C166.953 141.227 166.889 140.923 166.889 140.56C166.889 140.165 166.969 139.824 167.129 139.536C167.3 139.237 167.518 138.992 167.785 138.8C168.062 138.608 168.372 138.464 168.713 138.368C169.065 138.272 169.417 138.224 169.769 138.224C170.281 138.224 170.772 138.32 171.241 138.512C171.71 138.704 172.084 139.024 172.361 139.472L171.241 140.32ZM175.406 142.736C175.406 143.067 175.476 143.371 175.614 143.648C175.764 143.915 175.956 144.144 176.19 144.336C176.425 144.528 176.697 144.677 177.006 144.784C177.316 144.891 177.636 144.944 177.966 144.944C178.414 144.944 178.804 144.843 179.134 144.64C179.465 144.427 179.769 144.149 180.046 143.808L181.134 144.64C180.334 145.675 179.214 146.192 177.774 146.192C177.177 146.192 176.633 146.091 176.142 145.888C175.662 145.685 175.252 145.408 174.91 145.056C174.58 144.693 174.324 144.272 174.142 143.792C173.961 143.301 173.87 142.773 173.87 142.208C173.87 141.643 173.966 141.12 174.158 140.64C174.361 140.149 174.633 139.728 174.974 139.376C175.326 139.013 175.742 138.731 176.222 138.528C176.702 138.325 177.225 138.224 177.79 138.224C178.462 138.224 179.028 138.341 179.486 138.576C179.956 138.811 180.34 139.12 180.638 139.504C180.937 139.877 181.15 140.304 181.278 140.784C181.417 141.253 181.486 141.733 181.486 142.224V142.736H175.406ZM179.95 141.584C179.94 141.264 179.886 140.971 179.79 140.704C179.705 140.437 179.572 140.208 179.39 140.016C179.209 139.813 178.98 139.659 178.702 139.552C178.436 139.435 178.121 139.376 177.758 139.376C177.406 139.376 177.081 139.445 176.782 139.584C176.494 139.712 176.249 139.883 176.046 140.096C175.844 140.309 175.684 140.549 175.566 140.816C175.46 141.072 175.406 141.328 175.406 141.584H179.95ZM183.321 138.416H184.761V146H183.321V138.416ZM182.985 135.696C182.985 135.408 183.086 135.163 183.289 134.96C183.502 134.747 183.753 134.64 184.041 134.64C184.329 134.64 184.574 134.747 184.777 134.96C184.99 135.163 185.097 135.408 185.097 135.696C185.097 135.984 184.99 136.235 184.777 136.448C184.574 136.651 184.329 136.752 184.041 136.752C183.753 136.752 183.502 136.651 183.289 136.448C183.086 136.235 182.985 135.984 182.985 135.696ZM187.165 133.904H188.605V146H187.165V133.904ZM191.009 133.904H192.449V146H191.009V133.904ZM195.828 142.736C195.828 143.067 195.898 143.371 196.036 143.648C196.186 143.915 196.378 144.144 196.612 144.336C196.847 144.528 197.119 144.677 197.428 144.784C197.738 144.891 198.058 144.944 198.388 144.944C198.836 144.944 199.226 144.843 199.556 144.64C199.887 144.427 200.191 144.149 200.468 143.808L201.556 144.64C200.756 145.675 199.636 146.192 198.196 146.192C197.599 146.192 197.055 146.091 196.564 145.888C196.084 145.685 195.674 145.408 195.332 145.056C195.002 144.693 194.746 144.272 194.564 143.792C194.383 143.301 194.292 142.773 194.292 142.208C194.292 141.643 194.388 141.12 194.58 140.64C194.783 140.149 195.055 139.728 195.396 139.376C195.748 139.013 196.164 138.731 196.644 138.528C197.124 138.325 197.647 138.224 198.212 138.224C198.884 138.224 199.45 138.341 199.908 138.576C200.378 138.811 200.762 139.12 201.06 139.504C201.359 139.877 201.572 140.304 201.7 140.784C201.839 141.253 201.908 141.733 201.908 142.224V142.736H195.828ZM200.372 141.584C200.362 141.264 200.308 140.971 200.212 140.704C200.127 140.437 199.994 140.208 199.812 140.016C199.631 139.813 199.402 139.659 199.124 139.552C198.858 139.435 198.543 139.376 198.18 139.376C197.828 139.376 197.503 139.445 197.204 139.584C196.916 139.712 196.671 139.883 196.468 140.096C196.266 140.309 196.106 140.549 195.988 140.816C195.882 141.072 195.828 141.328 195.828 141.584H200.372ZM208.788 143.632C209.065 144.048 209.417 144.357 209.844 144.56C210.281 144.752 210.729 144.848 211.188 144.848C211.444 144.848 211.705 144.811 211.972 144.736C212.239 144.651 212.479 144.528 212.692 144.368C212.916 144.208 213.097 144.011 213.236 143.776C213.375 143.541 213.444 143.269 213.444 142.96C213.444 142.523 213.305 142.192 213.028 141.968C212.751 141.733 212.404 141.541 211.988 141.392C211.583 141.232 211.135 141.083 210.644 140.944C210.164 140.795 209.716 140.592 209.3 140.336C208.895 140.08 208.553 139.739 208.276 139.312C207.999 138.875 207.86 138.288 207.86 137.552C207.86 137.221 207.929 136.869 208.068 136.496C208.217 136.123 208.447 135.781 208.756 135.472C209.065 135.163 209.46 134.907 209.94 134.704C210.431 134.491 211.017 134.384 211.7 134.384C212.319 134.384 212.911 134.469 213.476 134.64C214.041 134.811 214.537 135.157 214.964 135.68L213.716 136.816C213.524 136.517 213.252 136.277 212.9 136.096C212.548 135.915 212.148 135.824 211.7 135.824C211.273 135.824 210.916 135.883 210.628 136C210.351 136.107 210.127 136.251 209.956 136.432C209.785 136.603 209.663 136.789 209.588 136.992C209.524 137.195 209.492 137.381 209.492 137.552C209.492 138.032 209.631 138.4 209.908 138.656C210.185 138.912 210.527 139.12 210.932 139.28C211.348 139.44 211.796 139.584 212.276 139.712C212.767 139.84 213.215 140.021 213.62 140.256C214.036 140.48 214.383 140.789 214.66 141.184C214.937 141.568 215.076 142.101 215.076 142.784C215.076 143.328 214.969 143.819 214.756 144.256C214.553 144.693 214.276 145.061 213.924 145.36C213.572 145.659 213.156 145.888 212.676 146.048C212.196 146.208 211.684 146.288 211.14 146.288C210.415 146.288 209.727 146.16 209.076 145.904C208.425 145.648 207.908 145.253 207.524 144.72L208.788 143.632ZM217.007 139.344C217.412 138.971 217.881 138.693 218.415 138.512C218.948 138.32 219.481 138.224 220.015 138.224C220.569 138.224 221.044 138.293 221.439 138.432C221.844 138.571 222.175 138.757 222.431 138.992C222.687 139.227 222.873 139.499 222.991 139.808C223.119 140.107 223.183 140.421 223.183 140.752V144.624C223.183 144.891 223.188 145.136 223.199 145.36C223.209 145.584 223.225 145.797 223.247 146H221.967C221.935 145.616 221.919 145.232 221.919 144.848H221.887C221.567 145.339 221.188 145.685 220.751 145.888C220.313 146.091 219.807 146.192 219.231 146.192C218.879 146.192 218.543 146.144 218.223 146.048C217.903 145.952 217.62 145.808 217.375 145.616C217.14 145.424 216.953 145.189 216.815 144.912C216.676 144.624 216.607 144.293 216.607 143.92C216.607 143.429 216.713 143.019 216.927 142.688C217.151 142.357 217.449 142.091 217.823 141.888C218.207 141.675 218.649 141.525 219.151 141.44C219.663 141.344 220.207 141.296 220.783 141.296H221.839V140.976C221.839 140.784 221.801 140.592 221.727 140.4C221.652 140.208 221.54 140.037 221.391 139.888C221.241 139.728 221.055 139.605 220.831 139.52C220.607 139.424 220.34 139.376 220.031 139.376C219.753 139.376 219.508 139.403 219.295 139.456C219.092 139.509 218.905 139.579 218.735 139.664C218.564 139.739 218.409 139.829 218.271 139.936C218.132 140.043 217.999 140.144 217.871 140.24L217.007 139.344ZM221.071 142.352C220.729 142.352 220.377 142.373 220.015 142.416C219.663 142.448 219.337 142.517 219.039 142.624C218.751 142.731 218.511 142.88 218.319 143.072C218.137 143.264 218.047 143.509 218.047 143.808C218.047 144.245 218.191 144.56 218.479 144.752C218.777 144.944 219.177 145.04 219.679 145.04C220.073 145.04 220.409 144.976 220.687 144.848C220.964 144.709 221.188 144.533 221.359 144.32C221.529 144.107 221.652 143.872 221.727 143.616C221.801 143.349 221.839 143.088 221.839 142.832V142.352H221.071ZM225.384 138.416H226.824V146H225.384V138.416ZM225.048 135.696C225.048 135.408 225.149 135.163 225.352 134.96C225.565 134.747 225.816 134.64 226.104 134.64C226.392 134.64 226.637 134.747 226.84 134.96C227.053 135.163 227.16 135.408 227.16 135.696C227.16 135.984 227.053 136.235 226.84 136.448C226.637 136.651 226.392 136.752 226.104 136.752C225.816 136.752 225.565 136.651 225.352 136.448C225.149 136.235 225.048 135.984 225.048 135.696ZM229.115 138.416H230.555V139.584H230.587C230.769 139.179 231.083 138.853 231.531 138.608C231.979 138.352 232.497 138.224 233.083 138.224C233.446 138.224 233.793 138.283 234.123 138.4C234.465 138.507 234.758 138.677 235.003 138.912C235.259 139.147 235.462 139.451 235.611 139.824C235.761 140.187 235.835 140.619 235.835 141.12V146H234.395V141.52C234.395 141.168 234.347 140.869 234.251 140.624C234.155 140.368 234.027 140.165 233.867 140.016C233.707 139.856 233.521 139.744 233.307 139.68C233.105 139.605 232.891 139.568 232.667 139.568C232.369 139.568 232.091 139.616 231.835 139.712C231.579 139.808 231.355 139.963 231.163 140.176C230.971 140.379 230.822 140.64 230.715 140.96C230.609 141.28 230.555 141.659 230.555 142.096V146H229.115V138.416ZM242.07 139.664H240.006V143.104C240.006 143.317 240.011 143.531 240.022 143.744C240.033 143.947 240.07 144.133 240.134 144.304C240.209 144.464 240.315 144.597 240.454 144.704C240.603 144.8 240.817 144.848 241.094 144.848C241.265 144.848 241.441 144.832 241.622 144.8C241.803 144.768 241.969 144.709 242.118 144.624V145.936C241.947 146.032 241.723 146.096 241.446 146.128C241.179 146.171 240.971 146.192 240.822 146.192C240.267 146.192 239.835 146.117 239.526 145.968C239.227 145.808 239.003 145.605 238.854 145.36C238.715 145.115 238.63 144.843 238.598 144.544C238.577 144.235 238.566 143.925 238.566 143.616V139.664H236.902V138.416H238.566V136.288H240.006V138.416H242.07V139.664ZM247.336 142.8H243.4V141.456H247.336V142.8ZM257.246 137.12C256.926 136.704 256.521 136.384 256.03 136.16C255.54 135.936 255.033 135.824 254.51 135.824C253.87 135.824 253.289 135.947 252.766 136.192C252.254 136.427 251.812 136.752 251.438 137.168C251.076 137.584 250.793 138.075 250.59 138.64C250.388 139.195 250.286 139.792 250.286 140.432C250.286 141.029 250.382 141.595 250.574 142.128C250.766 142.661 251.044 143.131 251.406 143.536C251.769 143.941 252.212 144.261 252.734 144.496C253.257 144.731 253.849 144.848 254.51 144.848C255.161 144.848 255.732 144.715 256.222 144.448C256.713 144.181 257.129 143.808 257.47 143.328L258.766 144.304C258.681 144.421 258.532 144.592 258.318 144.816C258.105 145.029 257.822 145.248 257.47 145.472C257.118 145.685 256.692 145.872 256.19 146.032C255.7 146.203 255.129 146.288 254.478 146.288C253.582 146.288 252.772 146.117 252.046 145.776C251.332 145.435 250.718 144.987 250.206 144.432C249.705 143.877 249.321 143.253 249.054 142.56C248.788 141.856 248.654 141.147 248.654 140.432C248.654 139.557 248.798 138.752 249.086 138.016C249.374 137.269 249.774 136.629 250.286 136.096C250.809 135.552 251.433 135.131 252.158 134.832C252.884 134.533 253.684 134.384 254.558 134.384C255.305 134.384 256.036 134.528 256.75 134.816C257.476 135.104 258.068 135.547 258.526 136.144L257.246 137.12ZM261.392 146.096C261.104 146.096 260.853 145.995 260.64 145.792C260.437 145.579 260.336 145.328 260.336 145.04C260.336 144.752 260.437 144.507 260.64 144.304C260.853 144.091 261.104 143.984 261.392 143.984C261.68 143.984 261.925 144.091 262.128 144.304C262.341 144.507 262.448 144.752 262.448 145.04C262.448 145.328 262.341 145.579 262.128 145.792C261.925 145.995 261.68 146.096 261.392 146.096ZM265.845 146.096C265.557 146.096 265.306 145.995 265.093 145.792C264.89 145.579 264.789 145.328 264.789 145.04C264.789 144.752 264.89 144.507 265.093 144.304C265.306 144.091 265.557 143.984 265.845 143.984C266.133 143.984 266.378 144.091 266.581 144.304C266.794 144.507 266.901 144.752 266.901 145.04C266.901 145.328 266.794 145.579 266.581 145.792C266.378 145.995 266.133 146.096 265.845 146.096ZM270.298 146.096C270.01 146.096 269.76 145.995 269.546 145.792C269.344 145.579 269.242 145.328 269.242 145.04C269.242 144.752 269.344 144.507 269.546 144.304C269.76 144.091 270.01 143.984 270.298 143.984C270.586 143.984 270.832 144.091 271.034 144.304C271.248 144.507 271.354 144.752 271.354 145.04C271.354 145.328 271.248 145.579 271.034 145.792C270.832 145.995 270.586 146.096 270.298 146.096Z" fill="#F3F3F4"/>
<path d="M293.82 122.675C293.412 123.068 293.407 123.726 293.814 124.12L297.835 128L293.814 131.88C293.407 132.274 293.412 132.932 293.82 133.325C294.207 133.699 294.826 133.704 295.214 133.33L299.99 128.72C300.397 128.326 300.397 127.674 299.99 127.28L295.214 122.67C294.826 122.296 294.207 122.301 293.82 122.675Z" fill="#8DE8FE"/>
<circle cx="28" cy="63" r="12" fill="#0C131F"/>
<path d="M25.8124 57.796H27.0604V65.83H31.2854V67H25.8124V57.796Z" fill="#8DE8FE"/>
<circle cx="63" cy="63" r="12" fill="#0C131F"/>
<path d="M58.2014 57.796H60.0604L62.9854 64.764H63.0374L65.9364 57.796H67.7954V67H66.5474V59.434H66.5214L63.4144 67H62.5824L59.4754 59.434H59.4494V67H58.2014V57.796Z" fill="#8DE8FE"/>
<circle cx="98" cy="63" r="12" fill="#0C131F"/>
<path d="M93.2014 57.796H95.0604L97.9854 64.764H98.0374L100.936 57.796H102.795V67H101.547V59.434H101.521L98.4144 67H97.5824L94.4754 59.434H94.4494V67H93.2014V57.796Z" fill="#8DE8FE"/>
<circle cx="133" cy="63" r="12" fill="#0C131F"/>
<path d="M133.92 57.796H135.168V64.374C135.168 64.9547 135.077 65.4313 134.895 65.804C134.713 66.168 134.484 66.4583 134.206 66.675C133.938 66.883 133.647 67.026 133.335 67.104C133.023 67.1907 132.737 67.234 132.477 67.234C131.827 67.234 131.277 67.0693 130.826 66.74C130.384 66.402 130.103 65.895 129.981 65.219L131.203 64.946C131.273 65.2927 131.416 65.5657 131.632 65.765C131.849 65.9643 132.131 66.064 132.477 66.064C132.789 66.064 133.036 66.0033 133.218 65.882C133.409 65.7607 133.556 65.6047 133.66 65.414C133.764 65.2147 133.834 64.9893 133.868 64.738C133.903 64.4867 133.92 64.231 133.92 63.971V57.796Z" fill="#8DE8FE"/>
<circle cx="168" cy="63" r="12" fill="#F3F3F4"/>
<path d="M163.828 57.796H165.271L167.975 65.284H168.001L170.809 57.796H172.174L168.547 67H167.377L163.828 57.796Z" fill="#0C131F"/>
<circle cx="203" cy="63" r="12" fill="#F3F3F4"/>
<path d="M200.844 65.076C201.07 65.414 201.356 65.6653 201.702 65.83C202.058 65.986 202.422 66.064 202.794 66.064C203.002 66.064 203.215 66.0337 203.431 65.973C203.648 65.9037 203.843 65.804 204.016 65.674C204.198 65.544 204.346 65.3837 204.458 65.193C204.571 65.0023 204.627 64.7813 204.627 64.53C204.627 64.1747 204.515 63.906 204.289 63.724C204.064 63.5333 203.782 63.3773 203.444 63.256C203.115 63.126 202.751 63.0047 202.352 62.892C201.962 62.7707 201.598 62.606 201.26 62.398C200.931 62.19 200.654 61.9127 200.428 61.566C200.203 61.2107 200.09 60.734 200.09 60.136C200.09 59.8673 200.147 59.5813 200.259 59.278C200.381 58.9747 200.567 58.6973 200.818 58.446C201.07 58.1947 201.39 57.9867 201.78 57.822C202.179 57.6487 202.656 57.562 203.21 57.562C203.713 57.562 204.194 57.6313 204.653 57.77C205.113 57.9087 205.516 58.1903 205.862 58.615L204.848 59.538C204.692 59.2953 204.471 59.1003 204.185 58.953C203.899 58.8057 203.574 58.732 203.21 58.732C202.864 58.732 202.573 58.7797 202.339 58.875C202.114 58.9617 201.932 59.0787 201.793 59.226C201.655 59.3647 201.555 59.5163 201.494 59.681C201.442 59.8457 201.416 59.9973 201.416 60.136C201.416 60.526 201.529 60.825 201.754 61.033C201.98 61.241 202.257 61.41 202.586 61.54C202.924 61.67 203.288 61.787 203.678 61.891C204.077 61.995 204.441 62.1423 204.77 62.333C205.108 62.515 205.39 62.7663 205.615 63.087C205.841 63.399 205.953 63.8323 205.953 64.387C205.953 64.829 205.867 65.2277 205.693 65.583C205.529 65.9383 205.303 66.2373 205.017 66.48C204.731 66.7227 204.393 66.909 204.003 67.039C203.613 67.169 203.197 67.234 202.755 67.234C202.166 67.234 201.607 67.13 201.078 66.922C200.55 66.714 200.129 66.3933 199.817 65.96L200.844 65.076Z" fill="#0C131F"/>
<circle cx="238" cy="63" r="12" fill="#0C131F"/>
<path d="M234.157 57.796H237.368C238.018 57.796 238.586 57.8697 239.071 58.017C239.565 58.1643 239.99 58.3637 240.345 58.615C240.709 58.8577 241.008 59.1393 241.242 59.46C241.485 59.7807 241.675 60.11 241.814 60.448C241.953 60.786 242.052 61.124 242.113 61.462C242.174 61.8 242.204 62.112 242.204 62.398C242.204 62.9873 242.096 63.5593 241.879 64.114C241.662 64.66 241.342 65.1497 240.917 65.583C240.492 66.0077 239.964 66.35 239.331 66.61C238.707 66.87 237.983 67 237.16 67H234.157V57.796ZM235.405 65.83H236.978C237.507 65.83 238.005 65.7607 238.473 65.622C238.95 65.4747 239.366 65.258 239.721 64.972C240.076 64.686 240.358 64.3307 240.566 63.906C240.774 63.4727 240.878 62.97 240.878 62.398C240.878 62.1033 240.83 61.761 240.735 61.371C240.64 60.9723 240.458 60.5953 240.189 60.24C239.929 59.8847 239.565 59.5857 239.097 59.343C238.629 59.0917 238.022 58.966 237.277 58.966H235.405V65.83Z" fill="#8DE8FE"/>
<defs>
<clipPath id="clip0_45_1755">
<rect width="16" height="16" fill="white" transform="translate(24 21)"/>
</clipPath>
</defs>
</svg>
