<svg width="397" height="48" viewBox="0 0 397 48" fill="none" xmlns="http://www.w3.org/2000/svg">
<rect x="0.5" y="0.5" width="396" height="47" rx="13.5" stroke="#8DE8FE"/>
<path d="M20.069 18.796H21.2L25.139 28H23.683L22.76 25.725H18.379L17.469 28H16.013L20.069 18.796ZM22.305 24.633L20.589 20.408H20.563L18.821 24.633H22.305ZM27.2983 21.838V28.884C27.2983 29.04 27.2853 29.2437 27.2593 29.495C27.242 29.755 27.1727 30.002 27.0513 30.236C26.9387 30.4787 26.7523 30.6867 26.4923 30.86C26.241 31.0333 25.8813 31.12 25.4133 31.12C25.2833 31.12 25.1577 31.1113 25.0363 31.094C24.9063 31.0767 24.7807 31.0463 24.6593 31.003L24.7893 29.924C24.8587 29.95 24.9367 29.9717 25.0233 29.989C25.11 30.015 25.1923 30.028 25.2703 30.028C25.591 30.028 25.812 29.924 25.9333 29.716C26.0633 29.5167 26.1283 29.222 26.1283 28.832V21.838H27.2983ZM25.8553 19.628C25.8553 19.394 25.9377 19.1947 26.1023 19.03C26.2757 18.8567 26.4793 18.77 26.7133 18.77C26.9473 18.77 27.1467 18.8567 27.3113 19.03C27.4847 19.1947 27.5713 19.394 27.5713 19.628C27.5713 19.862 27.4847 20.0657 27.3113 20.239C27.1467 20.4037 26.9473 20.486 26.7133 20.486C26.4793 20.486 26.2757 20.4037 26.1023 20.239C25.9377 20.0657 25.8553 19.862 25.8553 19.628ZM30.1094 24.919C30.1094 25.231 30.157 25.5213 30.2524 25.79C30.3477 26.05 30.482 26.2753 30.6554 26.466C30.8287 26.648 31.041 26.7953 31.2924 26.908C31.5437 27.012 31.8254 27.064 32.1374 27.064C32.4494 27.064 32.731 27.012 32.9824 26.908C33.2337 26.7953 33.446 26.648 33.6194 26.466C33.7927 26.2753 33.927 26.05 34.0224 25.79C34.1177 25.5213 34.1654 25.231 34.1654 24.919C34.1654 24.607 34.1177 24.321 34.0224 24.061C33.927 23.7923 33.7927 23.567 33.6194 23.385C33.446 23.1943 33.2337 23.047 32.9824 22.943C32.731 22.8303 32.4494 22.774 32.1374 22.774C31.8254 22.774 31.5437 22.8303 31.2924 22.943C31.041 23.047 30.8287 23.1943 30.6554 23.385C30.482 23.567 30.3477 23.7923 30.2524 24.061C30.157 24.321 30.1094 24.607 30.1094 24.919ZM28.8614 24.919C28.8614 24.4683 28.9437 24.048 29.1084 23.658C29.2817 23.268 29.5157 22.9257 29.8104 22.631C30.105 22.3363 30.4517 22.1067 30.8504 21.942C31.249 21.7687 31.678 21.682 32.1374 21.682C32.5967 21.682 33.0257 21.7687 33.4244 21.942C33.823 22.1067 34.1697 22.3363 34.4644 22.631C34.759 22.9257 34.9887 23.268 35.1534 23.658C35.3267 24.048 35.4134 24.4683 35.4134 24.919C35.4134 25.3697 35.3267 25.7943 35.1534 26.193C34.9887 26.583 34.759 26.9253 34.4644 27.22C34.1697 27.506 33.823 27.7357 33.4244 27.909C33.0257 28.0737 32.5967 28.156 32.1374 28.156C31.678 28.156 31.249 28.0737 30.8504 27.909C30.4517 27.7357 30.105 27.506 29.8104 27.22C29.5157 26.9253 29.2817 26.583 29.1084 26.193C28.9437 25.7943 28.8614 25.3697 28.8614 24.919ZM42.3391 28H41.1691V27.051H41.1431C40.9958 27.3803 40.7401 27.649 40.3761 27.857C40.0121 28.0563 39.5918 28.156 39.1151 28.156C38.8118 28.156 38.5258 28.1083 38.2571 28.013C37.9885 27.9263 37.7501 27.7877 37.5421 27.597C37.3428 27.4063 37.1825 27.1637 37.0611 26.869C36.9398 26.5657 36.8791 26.2103 36.8791 25.803V21.838H38.0491V25.478C38.0491 25.764 38.0881 26.011 38.1661 26.219C38.2441 26.4183 38.3481 26.583 38.4781 26.713C38.6081 26.8343 38.7555 26.9253 38.9201 26.986C39.0935 27.038 39.2711 27.064 39.4531 27.064C39.6958 27.064 39.9211 27.025 40.1291 26.947C40.3371 26.869 40.5191 26.7477 40.6751 26.583C40.8311 26.4097 40.9525 26.193 41.0391 25.933C41.1258 25.673 41.1691 25.3653 41.1691 25.01V21.838H42.3391V28ZM47.4048 22.852H45.7278V25.647C45.7278 25.8203 45.7321 25.9937 45.7408 26.167C45.7494 26.3317 45.7798 26.4833 45.8318 26.622C45.8924 26.752 45.9791 26.8603 46.0918 26.947C46.2131 27.025 46.3864 27.064 46.6118 27.064C46.7504 27.064 46.8934 27.051 47.0407 27.025C47.1881 26.999 47.3224 26.9513 47.4438 26.882V27.948C47.3051 28.026 47.1231 28.078 46.8978 28.104C46.6811 28.1387 46.5121 28.156 46.3908 28.156C45.9401 28.156 45.5891 28.0953 45.3378 27.974C45.0951 27.844 44.9131 27.6793 44.7918 27.48C44.6791 27.2807 44.6098 27.0597 44.5838 26.817C44.5664 26.5657 44.5578 26.3143 44.5578 26.063V22.852H43.2057V21.838H44.5578V20.109H45.7278V21.838H47.4048V22.852ZM49.7983 25.348C49.7983 25.6167 49.8546 25.8637 49.9673 26.089C50.0886 26.3057 50.2446 26.492 50.4353 26.648C50.6259 26.804 50.8469 26.9253 51.0983 27.012C51.3496 27.0987 51.6096 27.142 51.8783 27.142C52.2423 27.142 52.5586 27.0597 52.8273 26.895C53.0959 26.7217 53.3429 26.4963 53.5683 26.219L54.4523 26.895C53.8023 27.7357 52.8923 28.156 51.7223 28.156C51.2369 28.156 50.7949 28.0737 50.3963 27.909C50.0063 27.7443 49.6726 27.519 49.3953 27.233C49.1266 26.9383 48.9186 26.596 48.7713 26.206C48.6239 25.8073 48.5503 25.3783 48.5503 24.919C48.5503 24.4597 48.6283 24.035 48.7843 23.645C48.9489 23.2463 49.1699 22.904 49.4473 22.618C49.7333 22.3233 50.0713 22.0937 50.4613 21.929C50.8513 21.7643 51.2759 21.682 51.7353 21.682C52.2813 21.682 52.7406 21.7773 53.1133 21.968C53.4946 22.1587 53.8066 22.41 54.0493 22.722C54.2919 23.0253 54.4653 23.372 54.5693 23.762C54.6819 24.1433 54.7383 24.5333 54.7383 24.932V25.348H49.7983ZM53.4903 24.412C53.4816 24.152 53.4383 23.9137 53.3603 23.697C53.2909 23.4803 53.1826 23.294 53.0353 23.138C52.8879 22.9733 52.7016 22.8477 52.4763 22.761C52.2596 22.6657 52.0039 22.618 51.7093 22.618C51.4233 22.618 51.1589 22.6743 50.9163 22.787C50.6823 22.891 50.4829 23.0297 50.3183 23.203C50.1536 23.3763 50.0236 23.5713 49.9283 23.788C49.8416 23.996 49.7983 24.204 49.7983 24.412H53.4903ZM55.7089 26.947L59.2059 22.852H55.8259V21.838H60.6359V22.878L57.1129 26.986H60.8179V28H55.7089V26.947ZM71.2336 28H70.0636V27.051H70.0376C69.8903 27.3803 69.6346 27.649 69.2706 27.857C68.9066 28.0563 68.4863 28.156 68.0096 28.156C67.7063 28.156 67.4203 28.1083 67.1516 28.013C66.883 27.9263 66.6446 27.7877 66.4366 27.597C66.2373 27.4063 66.077 27.1637 65.9556 26.869C65.8343 26.5657 65.7736 26.2103 65.7736 25.803V21.838H66.9436V25.478C66.9436 25.764 66.9826 26.011 67.0606 26.219C67.1386 26.4183 67.2426 26.583 67.3726 26.713C67.5026 26.8343 67.65 26.9253 67.8146 26.986C67.988 27.038 68.1656 27.064 68.3476 27.064C68.5903 27.064 68.8156 27.025 69.0236 26.947C69.2316 26.869 69.4136 26.7477 69.5696 26.583C69.7256 26.4097 69.847 26.193 69.9336 25.933C70.0203 25.673 70.0636 25.3653 70.0636 25.01V21.838H71.2336V28ZM72.9973 21.838H74.1673V22.787H74.1933C74.3406 22.4577 74.5963 22.1933 74.9603 21.994C75.3243 21.786 75.7446 21.682 76.2213 21.682C76.5159 21.682 76.7976 21.7297 77.0663 21.825C77.3436 21.9117 77.5819 22.0503 77.7813 22.241C77.9893 22.4317 78.1539 22.6787 78.2753 22.982C78.3966 23.2767 78.4573 23.6277 78.4573 24.035V28H77.2873V24.36C77.2873 24.074 77.2483 23.8313 77.1703 23.632C77.0923 23.424 76.9883 23.2593 76.8583 23.138C76.7283 23.008 76.5766 22.917 76.4033 22.865C76.2386 22.8043 76.0653 22.774 75.8833 22.774C75.6406 22.774 75.4153 22.813 75.2073 22.891C74.9993 22.969 74.8173 23.0947 74.6613 23.268C74.5053 23.4327 74.3839 23.645 74.2973 23.905C74.2106 24.165 74.1673 24.4727 74.1673 24.828V28H72.9973V21.838ZM81.1049 25.348C81.1049 25.6167 81.1612 25.8637 81.2739 26.089C81.3952 26.3057 81.5512 26.492 81.7419 26.648C81.9326 26.804 82.1536 26.9253 82.4049 27.012C82.6562 27.0987 82.9162 27.142 83.1849 27.142C83.5489 27.142 83.8652 27.0597 84.1339 26.895C84.4026 26.7217 84.6496 26.4963 84.8749 26.219L85.7589 26.895C85.1089 27.7357 84.1989 28.156 83.0289 28.156C82.5436 28.156 82.1016 28.0737 81.7029 27.909C81.3129 27.7443 80.9792 27.519 80.7019 27.233C80.4332 26.9383 80.2252 26.596 80.0779 26.206C79.9306 25.8073 79.8569 25.3783 79.8569 24.919C79.8569 24.4597 79.9349 24.035 80.0909 23.645C80.2556 23.2463 80.4766 22.904 80.7539 22.618C81.0399 22.3233 81.3779 22.0937 81.7679 21.929C82.1579 21.7643 82.5826 21.682 83.0419 21.682C83.5879 21.682 84.0472 21.7773 84.4199 21.968C84.8012 22.1587 85.1132 22.41 85.3559 22.722C85.5986 23.0253 85.7719 23.372 85.8759 23.762C85.9886 24.1433 86.0449 24.5333 86.0449 24.932V25.348H81.1049ZM84.7969 24.412C84.7882 24.152 84.7449 23.9137 84.6669 23.697C84.5976 23.4803 84.4892 23.294 84.3419 23.138C84.1946 22.9733 84.0082 22.8477 83.7829 22.761C83.5662 22.6657 83.3106 22.618 83.0159 22.618C82.7299 22.618 82.4656 22.6743 82.2229 22.787C81.9889 22.891 81.7896 23.0297 81.6249 23.203C81.4602 23.3763 81.3302 23.5713 81.2349 23.788C81.1482 23.996 81.1049 24.204 81.1049 24.412H84.7969ZM91.0627 21.838H92.2327V22.787H92.2587C92.3367 22.6223 92.4407 22.475 92.5707 22.345C92.7007 22.2063 92.8437 22.0893 92.9997 21.994C93.1644 21.8987 93.342 21.825 93.5327 21.773C93.7234 21.7123 93.914 21.682 94.1047 21.682C94.2954 21.682 94.4687 21.708 94.6247 21.76L94.5727 23.021C94.4774 22.995 94.382 22.9733 94.2867 22.956C94.1914 22.9387 94.096 22.93 94.0007 22.93C93.4287 22.93 92.991 23.0903 92.6877 23.411C92.3844 23.7317 92.2327 24.23 92.2327 24.906V28H91.0627V21.838ZM96.5947 24.919C96.5947 25.231 96.6424 25.5213 96.7377 25.79C96.8331 26.05 96.9674 26.2753 97.1407 26.466C97.3141 26.648 97.5264 26.7953 97.7777 26.908C98.0291 27.012 98.3107 27.064 98.6227 27.064C98.9347 27.064 99.2164 27.012 99.4677 26.908C99.7191 26.7953 99.9314 26.648 100.105 26.466C100.278 26.2753 100.412 26.05 100.508 25.79C100.603 25.5213 100.651 25.231 100.651 24.919C100.651 24.607 100.603 24.321 100.508 24.061C100.412 23.7923 100.278 23.567 100.105 23.385C99.9314 23.1943 99.7191 23.047 99.4677 22.943C99.2164 22.8303 98.9347 22.774 98.6227 22.774C98.3107 22.774 98.0291 22.8303 97.7777 22.943C97.5264 23.047 97.3141 23.1943 97.1407 23.385C96.9674 23.567 96.8331 23.7923 96.7377 24.061C96.6424 24.321 96.5947 24.607 96.5947 24.919ZM95.3467 24.919C95.3467 24.4683 95.4291 24.048 95.5937 23.658C95.7671 23.268 96.0011 22.9257 96.2957 22.631C96.5904 22.3363 96.9371 22.1067 97.3357 21.942C97.7344 21.7687 98.1634 21.682 98.6227 21.682C99.0821 21.682 99.5111 21.7687 99.9097 21.942C100.308 22.1067 100.655 22.3363 100.95 22.631C101.244 22.9257 101.474 23.268 101.639 23.658C101.812 24.048 101.899 24.4683 101.899 24.919C101.899 25.3697 101.812 25.7943 101.639 26.193C101.474 26.583 101.244 26.9253 100.95 27.22C100.655 27.506 100.308 27.7357 99.9097 27.909C99.5111 28.0737 99.0821 28.156 98.6227 28.156C98.1634 28.156 97.7344 28.0737 97.3357 27.909C96.9371 27.7357 96.5904 27.506 96.2957 27.22C96.0011 26.9253 95.7671 26.583 95.5937 26.193C95.4291 25.7943 95.3467 25.3697 95.3467 24.919ZM108.824 28H107.654V27.051H107.628C107.481 27.3803 107.225 27.649 106.861 27.857C106.497 28.0563 106.077 28.156 105.6 28.156C105.297 28.156 105.011 28.1083 104.742 28.013C104.474 27.9263 104.235 27.7877 104.027 27.597C103.828 27.4063 103.668 27.1637 103.546 26.869C103.425 26.5657 103.364 26.2103 103.364 25.803V21.838H104.534V25.478C104.534 25.764 104.573 26.011 104.651 26.219C104.729 26.4183 104.833 26.583 104.963 26.713C105.093 26.8343 105.241 26.9253 105.405 26.986C105.579 27.038 105.756 27.064 105.938 27.064C106.181 27.064 106.406 27.025 106.614 26.947C106.822 26.869 107.004 26.7477 107.16 26.583C107.316 26.4097 107.438 26.193 107.524 25.933C107.611 25.673 107.654 25.3653 107.654 25.01V21.838H108.824V28ZM113.89 22.852H112.213V25.647C112.213 25.8203 112.217 25.9937 112.226 26.167C112.235 26.3317 112.265 26.4833 112.317 26.622C112.378 26.752 112.464 26.8603 112.577 26.947C112.698 27.025 112.872 27.064 113.097 27.064C113.236 27.064 113.379 27.051 113.526 27.025C113.673 26.999 113.808 26.9513 113.929 26.882V27.948C113.79 28.026 113.608 28.078 113.383 28.104C113.166 28.1387 112.997 28.156 112.876 28.156C112.425 28.156 112.074 28.0953 111.823 27.974C111.58 27.844 111.398 27.6793 111.277 27.48C111.164 27.2807 111.095 27.0597 111.069 26.817C111.052 26.5657 111.043 26.3143 111.043 26.063V22.852H109.691V21.838H111.043V20.109H112.213V21.838H113.89V22.852ZM115.491 21.838H116.661V28H115.491V21.838ZM115.218 19.628C115.218 19.394 115.3 19.1947 115.465 19.03C115.638 18.8567 115.842 18.77 116.076 18.77C116.31 18.77 116.509 18.8567 116.674 19.03C116.847 19.1947 116.934 19.394 116.934 19.628C116.934 19.862 116.847 20.0657 116.674 20.239C116.509 20.4037 116.31 20.486 116.076 20.486C115.842 20.486 115.638 20.4037 115.465 20.239C115.3 20.0657 115.218 19.862 115.218 19.628ZM118.523 21.838H119.693V22.787H119.719C119.866 22.4577 120.122 22.1933 120.486 21.994C120.85 21.786 121.27 21.682 121.747 21.682C122.041 21.682 122.323 21.7297 122.592 21.825C122.869 21.9117 123.107 22.0503 123.307 22.241C123.515 22.4317 123.679 22.6787 123.801 22.982C123.922 23.2767 123.983 23.6277 123.983 24.035V28H122.813V24.36C122.813 24.074 122.774 23.8313 122.696 23.632C122.618 23.424 122.514 23.2593 122.384 23.138C122.254 23.008 122.102 22.917 121.929 22.865C121.764 22.8043 121.591 22.774 121.409 22.774C121.166 22.774 120.941 22.813 120.733 22.891C120.525 22.969 120.343 23.0947 120.187 23.268C120.031 23.4327 119.909 23.645 119.823 23.905C119.736 24.165 119.693 24.4727 119.693 24.828V28H118.523V21.838ZM126.63 25.348C126.63 25.6167 126.687 25.8637 126.799 26.089C126.921 26.3057 127.077 26.492 127.267 26.648C127.458 26.804 127.679 26.9253 127.93 27.012C128.182 27.0987 128.442 27.142 128.71 27.142C129.074 27.142 129.391 27.0597 129.659 26.895C129.928 26.7217 130.175 26.4963 130.4 26.219L131.284 26.895C130.634 27.7357 129.724 28.156 128.554 28.156C128.069 28.156 127.627 28.0737 127.228 27.909C126.838 27.7443 126.505 27.519 126.227 27.233C125.959 26.9383 125.751 26.596 125.603 26.206C125.456 25.8073 125.382 25.3783 125.382 24.919C125.382 24.4597 125.46 24.035 125.616 23.645C125.781 23.2463 126.002 22.904 126.279 22.618C126.565 22.3233 126.903 22.0937 127.293 21.929C127.683 21.7643 128.108 21.682 128.567 21.682C129.113 21.682 129.573 21.7773 129.945 21.968C130.327 22.1587 130.639 22.41 130.881 22.722C131.124 23.0253 131.297 23.372 131.401 23.762C131.514 24.1433 131.57 24.5333 131.57 24.932V25.348H126.63ZM130.322 24.412C130.314 24.152 130.27 23.9137 130.192 23.697C130.123 23.4803 130.015 23.294 129.867 23.138C129.72 22.9733 129.534 22.8477 129.308 22.761C129.092 22.6657 128.836 22.618 128.541 22.618C128.255 22.618 127.991 22.6743 127.748 22.787C127.514 22.891 127.315 23.0297 127.15 23.203C126.986 23.3763 126.856 23.5713 126.76 23.788C126.674 23.996 126.63 24.204 126.63 24.412H130.322Z" fill="#F3F3F4"/>
<path d="M365 10.6666C362.363 10.6666 359.785 11.4486 357.592 12.9137C355.4 14.3788 353.691 16.4612 352.681 18.8975C351.672 21.3339 351.408 24.0147 351.923 26.6012C352.437 29.1876 353.707 31.5633 355.572 33.428C357.436 35.2927 359.812 36.5626 362.399 37.0771C364.985 37.5916 367.666 37.3275 370.102 36.3184C372.539 35.3092 374.621 33.6002 376.086 31.4076C377.551 29.2149 378.333 26.637 378.333 24C378.333 22.249 377.988 20.5152 377.318 18.8975C376.648 17.2798 375.666 15.81 374.428 14.5718C373.19 13.3337 371.72 12.3516 370.102 11.6815C368.485 11.0115 366.751 10.6666 365 10.6666V10.6666ZM371.1 25.0551H365.866V30.2894C365.866 30.5192 365.775 30.7397 365.613 30.9022C365.45 31.0647 365.23 31.156 365 31.156C364.77 31.156 364.55 31.0647 364.387 30.9022C364.225 30.7397 364.133 30.5192 364.133 30.2894V25.0551H358.899C358.669 25.0551 358.449 24.9638 358.286 24.8012C358.124 24.6387 358.032 24.4183 358.032 24.1885C358.032 23.9587 358.124 23.7383 358.286 23.5758C358.449 23.4133 358.669 23.322 358.899 23.322H364.133V18.0883C364.133 17.8584 364.225 17.638 364.387 17.4755C364.55 17.313 364.77 17.2217 365 17.2217C365.23 17.2217 365.45 17.313 365.613 17.4755C365.775 17.638 365.866 17.8584 365.866 18.0883V23.322H371.1C371.33 23.322 371.55 23.4133 371.713 23.5758C371.875 23.7383 371.967 23.9587 371.967 24.1885C371.967 24.4183 371.875 24.6387 371.713 24.8012C371.55 24.9638 371.33 25.0551 371.1 25.0551Z" fill="#8DE8FE"/>
</svg>
