<?xml version="1.0" encoding="UTF-8"?><svg id="Calque_2" xmlns="http://www.w3.org/2000/svg" viewBox="0 0 179.12 212.87"><g id="Calque_1-2"><path d="M178.65,131.3l-.26-15.3c-.39-9.72-.33-19.46-.54-29.19-.24-10.98-.63-21.95-.85-32.93-.04-1.83-.71-2.86-2.28-3.71-21.81-11.91-43.6-23.88-65.4-35.82-.69-.38-1.44-.65-2.49-1.11,1.08,49.67,2.16,98.92,3.24,148.62,1.23-.7,2.15-1.2,3.04-1.73,3.92-2.35,7.81-4.76,11.77-7.04,1.57-.9,2.1-2.03,2.05-3.83-.32-10.82-.56-21.64-.75-32.46-.12-6.88-.03-13.76-.19-20.64-.38-15.96-.86-31.91-1.3-47.86-.03-.98-.04-1.97-.08-3.79,3.21,1.85,5.94,3.29,8.49,4.99,.5,.33,.39,1.69,.41,2.58,.38,16.64,.75,33.29,1.11,49.93,.3,13.73,.59,27.46,.89,41.19,.02,.88,.13,1.75,.22,2.9,.84-.36,1.38-.53,1.84-.81,4.42-2.65,8.8-5.37,13.25-7.97,1.39-.82,1.9-1.81,1.85-3.43-.37-14.39-.67-28.77-.98-43.16-.21-9.72-.42-19.44-.62-29.17-.01-.57,.04-1.15,.1-2.51,3.01,1.74,5.68,3.23,8.27,4.85,.35,.22,.4,1.06,.42,1.62,.27,9.82,.53,19.64,.75,29.46l1.08,35.66,.24,10.79c-26.81,16.21-61.05,36.85-61.05,36.85V0S29,37.88,2.95,53.58C.83,54.86-.11,56.23,0,58.56l.56,18.68,.33,12.72c.44,21.8,.98,43.59,1.65,65.39,.03,1.06,1.26,2.47,2.31,3.05,17.88,9.91,35.82,19.72,53.75,29.55,3.94,2.16,7.87,4.32,11.82,6.46,.56,.3,1.16,.52,2.32,1.02-1.08-49.74-2.16-98.94-3.24-148.45-.8,.26-1.35,.33-1.8,.59-4.49,2.69-8.94,5.45-13.47,8.09-1.43,.83-1.81,1.89-1.76,3.47,.23,7.24,.38,14.48,.5,21.72,.17,10.72,.2,21.43,.44,32.15,.36,15.8,.86,31.6,1.3,47.41,.03,.97,.04,1.94,.08,3.71-3.18-1.82-5.83-3.25-8.35-4.86-.44-.28-.54-1.33-.56-2.03-.34-13.56-.67-27.13-.96-40.69-.38-17.3-.72-34.6-1.1-51.9-.01-.62-.19-1.24-.36-2.24-1.83,1.06-3.4,1.93-4.93,2.85-3.13,1.89-6.19,3.91-9.4,5.67-1.85,1.01-2.52,2.25-2.44,4.37,.36,9.81,.6,19.63,.81,29.45,.3,13.88,.53,27.77,.79,41.65,.02,.82,.04,1.63,.07,3.25-3.08-1.75-5.72-3.06-8.11-4.73-.64-.44-.71-1.95-.73-2.98-.3-17.13-.5-34.27-.82-51.4-.08-4.04-.51-8.07-.8-12.39l-.24-11.12c20.72-12.29,41.83-24.47,62.05-36.73,.13,1.47,0,182.6,0,182.6,0,0,71.22-42.44,97.32-58.22,1.54-.93,2.14-2,2.07-3.81-.24-6.22-.31-12.44-.46-19.54Z"/></g></svg>