<svg xmlns="http://www.w3.org/2000/svg" viewBox="0 0 1500 605.27"><g id="Calque_2" data-name="Calque 2"><g id="LOGO_COMPLET" data-name="LOGO COMPLET"><path id="noir" d="M802.4,272.42c0-51.87-34.27-82.2-81-82.2H662.53V354.4h58.59C767.89,354.4,802.4,324.3,802.4,272.42ZM694.49,324.76V219.86h25.7c26.86,0,49.1,16.9,49.1,52.56S746.82,324.76,720,324.76ZM852.38,354.4h-30.8V240.47h30.8Zm73.88,20.38c-14.59,0-24.54-9-26.63-21.53l-27.79,7.4c3.24,21.77,24.09,41.22,55.35,41.22,42.84,0,59.75-28.48,59.75-59.74V240.47H957.29v13.42c-3.93-7.63-14.35-15.51-32.42-15.51-31.26,0-53,25.47-53,55.58,0,32,22.7,55.35,53,55.35,16.45,0,27.1-7.18,31.73-14.59v8.33C956.6,365.06,945.72,374.78,926.26,374.78Zm3.94-51.88c-16,0-27.33-11.11-27.33-28.94,0-17.6,12-28.71,27.33-28.71,14.82,0,26.86,11.11,26.86,28.71S946,322.9,930.2,322.9Zm76.45-114.36a18.11,18.11,0,1,1,36.21,0,18.11,18.11,0,0,1-36.21,0Zm2.82,31.93h30.8V354.4h-30.8Zm99.74,0h22.93v27.32h-22.93V315.5c0,10,4.63,13.2,13.43,13.2a45,45,0,0,0,9.5-.93v25.48c-2.78,1.15-8.34,2.77-17.37,2.77-22.23,0-36.13-13.2-36.13-35.2v-53H1058V240.47h5.79c12,0,17.6-7.88,17.6-18.07v-16h27.79ZM1212,284.7l-28,4.16c-19,2.78-34,14.13-34,34.51,0,17.83,14.83,34.27,39.14,34.27,16.9,0,27.79-7.87,33.58-16.9a76.61,76.61,0,0,0,1.16,13.66H1252a126.68,126.68,0,0,1-1.39-18.06v-56c0-22.93-13.43-43.31-49.56-43.31-30.57,0-47,19.69-48.86,37.52l27.33,5.79c.92-10,8.33-18.53,21.76-18.53,13,0,19.22,6.71,19.22,14.82C1220.52,280.53,1218.44,283.77,1212,284.7Zm8.56,23.62c0,20.14-12,26.4-25,26.4-10,0-14.82-6.49-14.82-13.2,0-8.8,6.26-13.2,14.13-14.36l25.7-3.94ZM1304,354.4h-30.8V190.22H1304ZM783,499.9l29.87,9c-6.25,25.24-29.87,55.81-76,55.81-45.85,0-84.06-33.12-84.06-85.45s39.6-85.69,83.6-85.69c45.39,0,68.78,27.8,75.26,54.42l-30.1,9.5c-3.94-15.75-16.67-33.11-45.16-33.11-24.55,0-50.48,17.59-50.48,54.88,0,35,24.54,54.19,50.94,54.19C764.89,533.48,778.55,515.18,783,499.9Zm146-12.74c0-22.92-13.43-43.31-49.55-43.31-30.57,0-47,19.69-48.87,37.52l27.33,5.79c.93-10,8.34-18.53,21.77-18.53,13,0,19.22,6.72,19.22,14.82,0,3.94-2.09,7.19-8.57,8.11l-28,4.17c-19,2.78-34,14.13-34,34.51,0,17.83,14.82,34.27,39.13,34.27,16.91,0,27.79-7.88,33.58-16.91a77.67,77.67,0,0,0,1.16,13.67h28.25a128.29,128.29,0,0,1-1.39-18.06Zm-30.1,28c0,20.15-12,26.4-25,26.4-10,0-14.82-6.48-14.82-13.19,0-8.8,6.25-13.21,14.12-14.36l25.71-3.94Zm226.59-27.79v73.88h-29.87V493.65c0-12.28-6-21.54-20.15-21.54-13.2,0-21.07,10.19-21.07,22.47v66.69h-30.57V493.65c0-12.28-6.25-21.54-20.15-21.54-13.43,0-21.3,10-21.3,22.47v66.69h-30.8V447.33h29.41v13.9c6.25-11.12,20.84-17.14,33.35-17.14,15.51,0,28,6.72,33.81,19,9-13.89,21.07-19,36.12-19C1105.29,444.09,1125.43,456.83,1125.43,487.39Zm87.39-42.6c-17.13,0-29.87,7.63-35,16.44v-13.9H1148V605.27h30.8V550.15c5.56,7.65,17.14,13.9,32.89,13.9,32.19,0,53.72-25.47,53.72-60C1265.39,470.26,1246.17,444.79,1212.82,444.79Zm-6,91.7c-15.74,0-28.48-12-28.48-32.19s12.74-32,28.48-32,28.26,11.82,28.26,32C1235.06,524.68,1222.55,536.49,1206.8,536.49Zm182,4.17a188.71,188.71,0,0,0,1.15,20.61h-29.41a78.52,78.52,0,0,1-.92-12.27c-6.26,10.65-19.46,15.28-31.5,15.28-27.56,0-43.3-20.15-43.3-44.93v-72h30.8V513.1c0,12.74,6.48,22.92,20.84,22.92,13.66,0,21.54-9.26,21.54-22.45V447.33h30.8ZM1500,527.22c0,18.53-14.36,37.52-44.23,37.52-34.28,0-46.08-22.23-47.48-35.2l26.41-5.79c.69,9,7.41,17.37,20.84,17.37,10.19,0,15-5.33,15-11.35,0-5.09-3.47-9.26-12.27-11.11l-15.06-3.48c-22-4.86-32-18.06-32-34,0-20.38,18.06-37.29,42.6-37.29,32.43,0,43.31,20.62,44.7,32.89l-25.7,5.79c-.93-6.71-5.79-15.28-18.76-15.28-8.11,0-14.59,4.86-14.59,11.35,0,5.56,4.17,9,10.42,10.19l16.21,3.47C1488.65,496.89,1500,510.55,1500,527.22ZM818.87,208.54a18.11,18.11,0,1,1,36.21,0,18.11,18.11,0,0,1-36.21,0ZM274.34,91.46V469.84H182.87l0-378.38Zm-182.87,0h91.42V0H0L0,561.27H182.87V469.84H91.45ZM365.78,561.27,365.8,0H561.27V91.46h-104l0,378.38h104v91.43Z"/></g></g></svg>