<?xml version="1.0" encoding="UTF-8"?>
<svg id="Calque_2" data-name="Calque 2" xmlns="http://www.w3.org/2000/svg" viewBox="0 0 408.21 408.53">
  <defs>
    <style>
      .cls-1 {
        fill: #211430;
      }
    </style>
  </defs>
  <g id="logo1">
    <path class="cls-1" d="M408.19,186.33s.02-13.32.02-13.32l-13.09-.64c-39.06-1.66-99.81,24.28-118.34,90.81-6.97-23.89-11.48-85.35,38.64-127.64v56.39l13.62-10.23-.03-69.95c-4.71,2.45-9.4,4.93-13.75,7.92-34.26,23.46-56.59,59.7-56.59,104.35,0,20.02,4.5,38.97,12.59,55.91,3.65,7.67,8.03,14.94,13.04,21.71.27-6.01.97-11.89,2.11-17.63,10.2-52.08,55.37-92.48,108.71-97.11,3.25,69.34-54.72,117.47-110.8,117.47-.97,0-9.99-.21-11.44-.32-20.26-1.61-42.92-11-57.58-22.32,16.91-16.18,28.55-35.74,34.59-59.11v-.03c2.63-10.2,4.02-20.89,4.02-31.91,0-6.67-.51-13.22-1.51-19.62-1.88-10.82-4.5-21-8.48-29.98,0-.03-.03-.06-.03-.09l-14.61-51.68-3.8-13.49-13.55-47.94-6.97-24.66-.78-3.18-.78,3.18-6.97,24.66-13.55,47.94-3.8,13.49-14.61,51.68s-.03.06-.03.09c-4,9.96-7.19,19.95-8.48,29.98-1,6.4-1.51,12.95-1.51,19.62,0,11.02,1.39,21.71,4.01,31.91v.03c6.04,23.37,17.62,43,34.52,59.19-14.9,11.18-34.98,20.06-56.69,22.06-1.45.13-3.29.46-4.77.51-64.37,2.59-121.27-48.61-118.3-117.45,54.19,3.38,98.51,45.03,108.71,97.1,1.15,5.74,1.84,11.62,2.11,17.63,5.01-6.76,9.39-14.04,13.04-21.71,8.09-16.94,12.59-35.89,12.59-55.91,0-44.65-22.33-80.5-56.59-103.96-4.35-2.99-8.91-5.71-13.61-8.15l-.16,69.79,13.61,10.23v-56.39c34.1,24.53,52.3,86.98,38.6,129.18C110.54,197.22,53.82,167.4.05,173.06v13.27c-2.23,85,71.21,131.23,123.92,131.15,1.15,0,6.32,0,7.5,0,40.01.08,56.4,19.38,66.12,57.73.21.84.36,1.69.48,2.54l3.71,19.44v.06l2.35,11.29,2.35-11.29v-.06l3.71-19.44c.12-.85.3-1.69.48-2.54,6.16-28.62,26.11-57.65,66.09-57.65,1.18,0,7.13-.01,7.54,0,46.75,1.29,125.46-40.19,123.86-131.23ZM170.7,190.63c0-7.37,1.48-14.53,2.84-21.5,1.21-6.49,19.89-70.4,19.89-70.4l10.72-37.89,10.72,37.89s18.69,63.91,19.89,70.4c1.36,6.97,2.88,14.13,2.88,21.5,0,31.06-9.8,59.13-33.49,80.69-22.93-19.68-33.45-49.63-33.45-80.69ZM204.15,358.31c-7.76-33.97-32.66-43.12-42.1-45.74,12.44-2.72,35.42-15.02,42.1-21.24,5.62,6.09,31.84,19.08,41.89,21.28-11.54,3.95-33.83,11.91-41.89,45.7Z"/>
  </g>
</svg>