<?xml version="1.0" encoding="UTF-8"?>
<svg id="Calque_2" data-name="Calque 2" xmlns="http://www.w3.org/2000/svg" viewBox="0 0 188.93 51.15">
  <defs>
    <style>
      .cls-1 {
        stroke: #000;
        stroke-miterlimit: 10;
        stroke-width: 2px;
      }
    </style>
  </defs>
  <g id="Calque_1-2" data-name="Calque 1">
    <path d="m21.82,20.61h4.74c6.25,0,8.58,3.66,8.58,7.59s-2.42,7.61-8,7.61h-.69v3.75h-4.62v-18.95Zm5.54,10.69c2.14,0,3.24-1.33,3.24-3.1s-1.13-3.08-3.24-3.08h-.92v6.19h.92Z"/>
    <path d="m46.63,37.22h-7.31l-.78,2.35h-4.85l6.9-18.92h4.78l6.78,18.92h-4.74l-.78-2.35Zm-1.2-3.61l-2.46-7.47-2.46,7.47h4.92Z"/>
    <path d="m61.79,39.56l-1.59-3.84c-.44.07-.92.09-1.42.09h-.78v3.77h-4.62v-18.97h4.74c6.25,0,8.58,3.66,8.58,7.59,0,2.23-.76,4.37-2.42,5.79l2.88,5.56h-5.36Zm-2.87-8.26c2.14,0,3.24-1.33,3.24-3.1s-1.13-3.08-3.24-3.08h-.92v6.19h.92Z"/>
    <path d="m67.47,35.17c1.31,0,2-.67,2-2.16v-5.93c0-4.23,2.78-6.65,6.67-6.69v4.65c-1.33,0-2.05.69-2.05,2.12v5.86c0,4.21-2.76,6.81-6.62,6.81v-4.65Z"/>
    <path d="m76.61,30.07c0-5.24,4.14-9.82,9.84-9.82s10.6,5.31,9.7,11.18h-14.99c.34,2.39,2.48,4.25,5.27,4.25,1.91,0,3.56-1.01,4.39-2.51h4.99c-1.2,3.89-4.83,6.74-9.36,6.74-5.7,0-9.84-4.58-9.84-9.84Zm14.74-2.09c-.6-2-2.55-3.43-4.94-3.43s-4.32,1.45-4.97,3.43h9.91Z"/>
    <path d="m98.46,20.64h6.14l4.83,12.85,4.76-12.85h6.09v18.92h-4.62v-11.08l-4.21,11.08h-4.12l-4.25-11.22v11.22h-4.62v-18.92Z"/>
    <path d="m134.42,37.22h-7.31l-.78,2.35h-4.85l6.9-18.92h4.78l6.78,18.92h-4.74l-.78-2.35Zm-1.2-3.61l-2.46-7.47-2.46,7.47h4.92Z"/>
    <path d="m141.17,20.66h4.64v18.9h-4.64v-18.9Z"/>
    <path d="m148.76,20.61h4.67l5.52,10.49v-10.49h4.65v18.95h-4.6l-5.59-10.58v10.58h-4.64v-18.95Z"/>
    <path d="m165.45,35.17c1.31,0,2-.67,2-2.16v-5.93c0-4.23,2.78-6.65,6.67-6.69v4.65c-1.33,0-2.05.69-2.05,2.12v5.86c0,4.21-2.76,6.81-6.62,6.81v-4.65Z"/>
    <line class="cls-1" x1="188.93" y1="20.62" x2="179.59" y2="20.62"/>
    <line class="cls-1" x1="174.16" x2="174.16" y2="16.34"/>
    <line class="cls-1" y1="39.34" x2="16.34" y2="39.34"/>
    <line class="cls-1" x1="21.8" y1="51.15" x2="21.8" y2="42.98"/>
  </g>
</svg>