<svg width="504" height="305" viewBox="0 0 504 305" fill="none" xmlns="http://www.w3.org/2000/svg">
<path d="M60.707 134.931H81.2125V118.302H84.273C109.063 118.302 119.775 101.98 119.775 84.5348C119.775 67.0899 109.471 50.8691 81.7225 50.8691H60.707V134.931ZM81.2125 98.3071V70.8645H85.2931C94.6787 70.8645 99.6776 76.5774 99.6776 84.5348C99.6776 92.3901 94.7807 98.3071 85.2931 98.3071H81.2125Z" fill="#F08100"/>
<path d="M174.231 134.931H195.247L165.152 50.9712H143.932L113.327 134.931H134.853L138.321 124.525H170.763L174.231 134.931ZM143.626 108.509L154.542 75.3532L165.458 108.509H143.626Z" fill="#F08100"/>
<path d="M60.707 238.562H81.2125V221.933H84.273C109.063 221.933 119.775 205.611 119.775 188.166C119.775 170.721 109.471 154.5 81.7226 154.5H60.707V238.562ZM81.2125 201.938V174.495H85.2931C94.6787 174.495 99.6776 180.208 99.6776 188.166C99.6776 196.021 94.7807 201.938 85.2931 201.938H81.2125Z" fill="#F08100"/>
<path d="M127.955 238.562H148.562V154.704H127.955V238.562Z" fill="#F08100"/>
<path d="M161.13 238.562H209.078V219.077H181.636V203.774H206.732V188.472H181.636V173.985H209.078V154.704H161.13V238.562Z" fill="#F08100"/>
<path d="M281.018 238.562L268.266 213.874C275.611 207.549 278.977 198.061 278.977 188.166C278.977 170.721 268.674 154.5 240.925 154.5H219.909V238.664H240.415V221.933H243.883C246.128 221.933 248.27 221.831 250.209 221.525L257.248 238.562H281.018ZM240.415 201.938V174.495H244.496C253.881 174.495 258.88 180.208 258.88 188.166C258.88 196.021 253.983 201.938 244.496 201.938H240.415Z" fill="#F08100"/>
<path d="M253.914 136.733C274.828 136.733 292.477 121.839 296.659 102.864H292.477C288.396 119.493 272.787 132.653 253.914 132.653C231.369 132.653 214.434 114.392 214.332 93.2741H297.476C298.292 69.3001 278.092 49.5088 253.914 49.5088C229.124 49.5088 210.251 69.8102 210.251 93.1721C210.251 116.534 229.124 136.733 253.914 136.733ZM214.536 89.1934C216.474 69.8102 232.797 53.5895 253.914 53.5895C274.828 53.5895 291.865 69.9122 293.293 89.1934H214.536Z" fill="#F08100"/>
<path d="M347.264 135.713V131.633C324.718 131.633 307.681 114.29 307.681 93.1721C307.681 72.0546 324.718 54.6096 347.264 54.6096V50.529C322.474 50.529 303.601 69.8102 303.601 93.1721C303.601 116.534 322.474 135.713 347.264 135.713Z" fill="#F08100"/>
<path d="M433.465 93.0701C433.465 69.8102 415.204 49.5088 389.904 49.5088C364.502 49.5088 346.241 69.8102 346.241 93.0701C346.241 116.432 364.502 136.733 389.904 136.733C415.204 136.733 433.465 116.432 433.465 93.0701ZM429.384 93.0701C429.384 115.106 412.042 132.653 389.904 132.653C367.664 132.653 350.321 115.106 350.321 93.0701C350.321 71.0344 367.664 53.5895 389.904 53.5895C412.042 53.5895 429.384 71.1364 429.384 93.0701Z" fill="#F08100"/>
<path d="M309.392 199.312V197.415C298.907 197.415 290.984 189.349 290.984 179.528C290.984 169.707 298.907 161.594 309.392 161.594V159.696C297.863 159.696 289.086 168.663 289.086 179.528C289.086 190.393 297.863 199.312 309.392 199.312Z" fill="#F08100"/>
<path d="M349.482 179.481C349.482 168.663 340.989 159.222 329.223 159.222C317.409 159.222 308.916 168.663 308.916 179.481C308.916 190.345 317.409 199.787 329.223 199.787C340.989 199.787 349.482 190.345 349.482 179.481ZM347.584 179.481C347.584 189.729 339.518 197.889 329.223 197.889C318.88 197.889 310.814 189.729 310.814 179.481C310.814 169.233 318.88 161.119 329.223 161.119C339.518 161.119 347.584 169.28 347.584 179.481Z" fill="#F08100"/>
<path d="M353.753 199.075H355.651V163.349L379.041 199.075H380.844V159.981H378.947V195.564L355.699 160.028H353.753V199.075Z" fill="#F08100"/>
<path d="M404.871 199.312V197.415C394.385 197.415 386.462 189.349 386.462 179.528C386.462 169.707 394.385 161.594 404.871 161.594V159.696C393.342 159.696 384.564 168.663 384.564 179.528C384.564 190.393 393.342 199.312 404.871 199.312ZM395.477 202.112C397.706 202.207 399.414 203.962 399.414 206.192C399.414 208.422 397.754 210.13 395.477 210.225V212.122C398.94 212.028 401.312 209.276 401.312 206.192C401.312 203.061 398.893 200.309 395.477 200.214V202.112Z" fill="#F08100"/>
<path d="M421.61 199.692C430.53 199.692 434.847 192.907 434.847 184.178V160.028H432.949V184.178C432.949 191.674 429.676 197.794 421.61 197.794C413.592 197.794 410.318 191.674 410.318 184.178V160.028H408.42V184.178C408.42 192.86 412.69 199.692 421.61 199.692Z" fill="#F08100"/>
<path d="M290.226 238.563H299.278V235.933H292.976V231.317H298.757V228.888H292.976V224.653H299.278V222.043H290.226V238.563Z" fill="#F08100"/>
<path d="M303.753 238.563H306.503V224.632H310.116V222.003H300.139V224.632H303.753V238.563Z" fill="#F08100"/>
<path d="M316.963 238.563H326.016V235.933H319.713V231.317H325.494V228.888H319.713V224.653H326.016V222.043H316.963V238.563Z" fill="#F08100"/>
<path d="M327.921 238.563H330.691V226.941L337.415 238.563H340.145V222.023H337.375V233.585L330.711 222.043H327.921V238.563Z" fill="#F08100"/>
<path d="M347.54 238.844C350.792 238.844 353.2 236.877 353.2 233.846C353.2 230.353 350.671 229.51 347.961 228.587C346.436 228.065 345.272 227.623 345.272 226.198C345.272 225.034 346.135 224.191 347.5 224.191C349.085 224.191 349.888 225.255 349.908 226.76L352.558 226.8C352.538 223.729 350.611 221.682 347.5 221.682C344.649 221.682 342.562 223.669 342.562 226.158C342.562 228.808 344.348 230.072 346.978 230.935C348.985 231.598 350.41 232.079 350.41 233.806C350.41 235.271 349.266 236.315 347.54 236.315C345.593 236.315 344.549 234.97 344.509 233.224H341.799C341.819 236.516 344.087 238.844 347.54 238.844Z" fill="#F08100"/>
<path d="M354.854 238.563H363.907V235.933H357.604V231.317H363.385V228.888H357.604V224.653H363.907V222.043H354.854V238.563Z" fill="#F08100"/>
<path d="M365.812 238.563H368.562V226.499L373.881 238.563H376.41L381.67 226.559V238.563H384.419V222.043H380.907L375.166 235.351L369.345 222.043H365.812V238.563Z" fill="#F08100"/>
<path d="M386.904 238.563H395.957V235.933H389.654V231.317H395.435V228.888H389.654V224.653H395.957V222.043H386.904V238.563Z" fill="#F08100"/>
<path d="M397.862 238.563H400.632V226.941L407.356 238.563H410.086V222.023H407.316V233.585L400.652 222.043H397.862V238.563Z" fill="#F08100"/>
<path d="M420.532 238.864C425.008 238.864 428.722 235.391 429.083 231.196H426.293C425.931 233.906 423.563 236.114 420.532 236.114C417.18 236.114 414.691 233.404 414.691 230.293C414.691 227.182 417.18 224.452 420.532 224.452C423.503 224.452 425.891 226.64 426.293 229.309H429.083C428.661 225.154 424.988 221.702 420.532 221.702C415.694 221.702 411.941 225.696 411.941 230.293C411.941 234.89 415.694 238.864 420.532 238.864Z" fill="#F08100"/>
<path d="M436.792 221.019L437.836 217.587H435.548L434.524 220.999H434.986L436.792 221.019ZM430.931 238.563H439.984V235.933H433.681V231.317H439.462V228.888H433.681V224.653H439.984V222.043H430.931V238.563Z" fill="#F08100"/>
<line x1="54.7305" y1="261.425" x2="54.7305" y2="304.136" stroke="#F08100" stroke-width="1.2521"/>
<line x1="503.235" y1="47.6114" x2="460.524" y2="47.6114" stroke="#F08100" stroke-width="1.2521"/>
<line x1="42.7119" y1="253.51" x2="0.000441228" y2="253.51" stroke="#F08100" stroke-width="1.2521"/>
<line x1="448.512" y1="42.7119" x2="448.512" y2="0.000436136" stroke="#F08100" stroke-width="1.2521"/>
</svg>
