<svg width="376" height="382" viewBox="0 0 376 382" fill="none" xmlns="http://www.w3.org/2000/svg">
<path d="M88.323 141.206C110.514 141.206 128.777 123.826 130.25 103.01H110.219C108.648 113.222 99.9094 121.47 88.323 121.47C75.4602 121.47 66.1321 111.062 66.1321 99.279C66.1321 87.4963 75.4602 77.0882 88.323 77.0882C99.8112 77.0882 108.648 85.2379 110.219 95.3515H130.152C128.679 74.6335 110.416 57.2539 88.323 57.2539C64.7575 57.2539 46.2979 76.7936 46.2979 99.279C46.2979 121.764 64.7575 141.206 88.323 141.206Z" fill="#F08100"/>
<path d="M220.097 99.1808C220.097 76.7936 202.521 57.2539 178.17 57.2539C153.721 57.2539 136.145 76.7936 136.145 99.1808C136.145 121.666 153.721 141.206 178.17 141.206C202.521 141.206 220.097 121.666 220.097 99.1808ZM200.263 99.1808C200.263 111.258 190.935 121.372 178.17 121.372C165.307 121.372 155.979 111.258 155.979 99.1808C155.979 87.1035 165.307 77.0882 178.17 77.0882C190.935 77.0882 200.263 87.1035 200.263 99.1808Z" fill="#F08100"/>
<path d="M229.331 139.733H249.067V91.8166L267.232 139.733H284.808L302.777 92.4058V139.733H322.513V58.9231H296.493L276.167 113.811L255.547 58.9231H229.331V139.733Z" fill="#F08100"/>
<path d="M49.3535 218.093H68.2125V172.306L85.5702 218.093H102.365L119.535 172.869V218.093H138.394V140.874H113.53L94.1083 193.323L74.4049 140.874H49.3535V218.093Z" fill="#F08100"/>
<path d="M150.418 218.093H194.516V200.172H169.277V186.098H192.358V172.024H169.277V158.701H194.516V140.968H150.418V218.093Z" fill="#F08100"/>
<path d="M204.477 218.093H223.43V174.933L246.23 218.093H264.995V140.78H246.042V183.565L223.524 140.78H204.477V218.093Z" fill="#F08100"/>
<path d="M287.46 218.093H306.319V158.607H321.894V140.687H271.979V158.607H287.46V218.093Z" fill="#F08100"/>
<path d="M86.4588 254.113C86.4588 243.832 80.574 234.362 64.4077 234.362H54.5996V290.166H57.3053V273.865H64.4077C67.181 273.865 69.6161 273.594 71.7806 273.053L82.468 290.099H85.6471L74.4863 272.241C83.0091 269.062 86.4588 261.824 86.4588 254.113ZM57.3053 271.159V237.068H64.4077C76.7861 237.068 83.7532 243.155 83.7532 254.113C83.7532 264.598 77.0567 271.159 64.4077 271.159H57.3053Z" fill="#F08100"/>
<path d="M109.679 231.047L113.265 219.413H110.424L106.974 230.912H109.679V231.047ZM93.2426 290.099H121.652V287.393H95.9482V262.366H119.623V259.66H95.9482V237.135H121.652V234.43H93.2426V290.099Z" fill="#F08100"/>
<path d="M169.137 290.099H172.113L149.656 234.43H146.409L123.005 290.099H125.981L130.243 279.952H165.078L169.137 290.099ZM131.392 277.247L148.032 237.473L163.996 277.247H131.392Z" fill="#F08100"/>
<path d="M176.143 290.099H200.765V287.393H178.849V234.43H176.143V290.099Z" fill="#F08100"/>
<path d="M205.472 290.099H208.178V234.43H205.472V290.099Z" fill="#F08100"/>
<path d="M231.731 291.046C242.215 291.046 249.588 284.349 249.588 275.285C249.588 263.989 240.186 261.419 232.069 259.322C224.493 257.36 219.623 254.857 219.623 247.011C219.623 240.382 224.223 235.85 231.799 235.85C240.322 235.85 244.583 241.261 244.651 249.717H247.356C247.289 239.773 241.674 233.144 231.799 233.144C222.87 233.144 216.917 239.029 216.917 247.011C216.917 256.819 223.817 259.93 231.393 261.892C239.51 263.989 246.883 266.289 246.883 275.285C246.883 282.793 240.66 288.34 231.731 288.34C221.991 288.34 216.241 281.508 216.173 272.309H213.468C213.535 283.132 220.502 291.046 231.731 291.046Z" fill="#F08100"/>
<path d="M255.015 290.099H283.424V287.393H257.72V262.366H281.395V259.66H257.72V237.135H283.424V234.43H255.015V290.099Z" fill="#F08100"/>
<path d="M320.695 254.113C320.695 243.832 314.81 234.362 298.643 234.362H288.835V290.166H291.541V273.865H298.643C301.417 273.865 303.852 273.594 306.016 273.053L316.704 290.099H319.883L308.722 272.241C317.245 269.062 320.695 261.824 320.695 254.113ZM291.541 271.159V237.068H298.643C311.022 237.068 317.989 243.155 317.989 254.113C317.989 264.598 311.292 271.159 298.643 271.159H291.541Z" fill="#F08100"/>
<path d="M52.1123 326.698H54.7045C62.7691 326.698 66.4611 321.749 66.4611 315.884C66.4611 310.018 62.7691 305.096 54.7045 305.096H52.1123V326.698ZM53.1597 325.65V306.143H54.7045C61.7742 306.143 65.4137 310.202 65.4137 315.884C65.4137 321.566 61.7742 325.65 54.7045 325.65H53.1597Z" fill="#F08100"/>
<path d="M75.9578 327.038C80.8804 327.038 83.2631 323.294 83.2631 318.476V305.148H82.2158V318.476C82.2158 322.613 80.4091 325.991 75.9578 325.991C71.5328 325.991 69.7261 322.613 69.7261 318.476V305.148H68.6787V318.476C68.6787 323.267 71.0353 327.038 75.9578 327.038Z" fill="#F08100"/>
<path d="M93.3315 326.724H94.3788V320.413H97.1281C103.281 320.413 105.664 316.722 105.664 312.768C105.664 308.788 103.386 305.122 97.1281 305.122H93.3315V326.724ZM94.3788 319.366V306.169H97.1281C101.92 306.169 104.617 308.526 104.617 312.768C104.617 316.826 102.025 319.366 97.1281 319.366H94.3788Z" fill="#F08100"/>
<path d="M121.406 326.698H122.558L113.865 305.148H112.608L103.548 326.698H104.7L106.35 322.77H119.835L121.406 326.698ZM106.795 321.723L113.236 306.327L119.416 321.723H106.795Z" fill="#F08100"/>
<path d="M124.118 326.724H125.165V320.413H127.915C134.068 320.413 136.451 316.722 136.451 312.768C136.451 308.788 134.173 305.122 127.915 305.122H124.118V326.724ZM125.165 319.366V306.169H127.915C132.706 306.169 135.403 308.526 135.403 312.768C135.403 316.826 132.811 319.366 127.915 319.366H125.165Z" fill="#F08100"/>
<path d="M138.795 326.698H139.843V305.148H138.795V326.698Z" fill="#F08100"/>
<path d="M142.938 326.698H153.935V325.65H143.985V315.962H153.149V314.915H143.985V306.196H153.935V305.148H142.938V326.698Z" fill="#F08100"/>
<path d="M168.362 312.768C168.362 308.788 166.084 305.122 159.826 305.122H156.03V326.724H157.077V320.413H159.826C160.9 320.413 161.842 320.309 162.68 320.099L166.817 326.698H168.048L163.728 319.785C167.027 318.554 168.362 315.753 168.362 312.768ZM157.077 319.366V306.169H159.826C164.618 306.169 167.315 308.526 167.315 312.768C167.315 316.826 164.723 319.366 159.826 319.366H157.077Z" fill="#F08100"/>
<path d="M188.467 327.09C193.834 327.09 198.364 323.267 199.438 318.397H198.364C197.317 322.665 193.311 326.043 188.467 326.043C182.68 326.043 178.334 321.356 178.307 315.936H199.647C199.857 309.783 194.672 304.703 188.467 304.703C182.104 304.703 177.26 309.914 177.26 315.91C177.26 321.906 182.104 327.09 188.467 327.09ZM178.36 314.889C178.857 309.914 183.047 305.75 188.467 305.75C193.834 305.75 198.207 309.94 198.574 314.889H178.36Z" fill="#F08100"/>
<path d="M212.426 326.829V325.781C206.639 325.781 202.267 321.33 202.267 315.91C202.267 310.49 206.639 306.012 212.426 306.012V304.965C206.063 304.965 201.219 309.914 201.219 315.91C201.219 321.906 206.063 326.829 212.426 326.829Z" fill="#F08100"/>
<path d="M234.551 315.884C234.551 309.914 229.864 304.703 223.37 304.703C216.85 304.703 212.163 309.914 212.163 315.884C212.163 321.88 216.85 327.09 223.37 327.09C229.864 327.09 234.551 321.88 234.551 315.884ZM233.503 315.884C233.503 321.539 229.052 326.043 223.37 326.043C217.662 326.043 213.211 321.539 213.211 315.884C213.211 310.228 217.662 305.75 223.37 305.75C229.052 305.75 233.503 310.254 233.503 315.884Z" fill="#F08100"/>
<path d="M236.123 315.936H243.166V314.889H236.123V315.936Z" fill="#F08100"/>
<path d="M255.946 326.829V325.781C250.16 325.781 245.787 321.33 245.787 315.91C245.787 310.49 250.16 306.012 255.946 306.012V304.965C249.584 304.965 244.74 309.914 244.74 315.91C244.74 321.906 249.584 326.829 255.946 326.829Z" fill="#F08100"/>
<path d="M278.071 315.884C278.071 309.914 273.384 304.703 266.891 304.703C260.371 304.703 255.684 309.914 255.684 315.884C255.684 321.88 260.371 327.09 266.891 327.09C273.384 327.09 278.071 321.88 278.071 315.884ZM277.024 315.884C277.024 321.539 272.572 326.043 266.891 326.043C261.182 326.043 256.731 321.539 256.731 315.884C256.731 310.228 261.182 305.75 266.891 305.75C272.572 305.75 277.024 310.254 277.024 315.884Z" fill="#F08100"/>
<path d="M280.429 326.698H281.476V306.981L294.385 326.698H295.38V305.122H294.332V324.76L281.502 305.148H280.429V326.698Z" fill="#F08100"/>
<path d="M308.639 326.829V325.781C302.853 325.781 298.48 321.33 298.48 315.91C298.48 310.49 302.853 306.012 308.639 306.012V304.965C302.277 304.965 297.433 309.914 297.433 315.91C297.433 321.906 302.277 326.829 308.639 326.829ZM303.455 328.373C304.686 328.426 305.628 329.395 305.628 330.625C305.628 331.856 304.712 332.798 303.455 332.851V333.898C305.366 333.846 306.675 332.327 306.675 330.625C306.675 328.897 305.34 327.378 303.455 327.326V328.373Z" fill="#F08100"/>
<path d="M317.877 327.038C322.8 327.038 325.183 323.294 325.183 318.476V305.148H324.135V318.476C324.135 322.613 322.329 325.991 317.877 325.991C313.452 325.991 311.646 322.613 311.646 318.476V305.148H310.598V318.476C310.598 323.267 312.955 327.038 317.877 327.038Z" fill="#F08100"/>
<line x1="339.674" y1="334.951" x2="375.663" y2="334.912" stroke="#F08100" stroke-width="1.5082"/>
<line x1="333.238" y1="345.122" x2="333.277" y2="381.112" stroke="#F08100" stroke-width="1.5082"/>
<line x1="35.9919" y1="46.3664" x2="0.00262403" y2="46.4932" stroke="#F08100" stroke-width="1.5082"/>
<line x1="42.3992" y1="35.9919" x2="42.2724" y2="0.00261974" stroke="#F08100" stroke-width="1.5082"/>
</svg>
