<svg width="491" height="499" viewBox="0 0 491 499" fill="none" xmlns="http://www.w3.org/2000/svg">
<path d="M325.591 218.425C325.591 218.425 341.285 251.053 398.087 235.93C454.889 220.807 468.714 322.771 468.714 322.771C468.714 322.771 472.828 219.62 415.28 198.529C357.733 177.437 325.599 218.425 325.599 218.425H325.591Z" fill="white" stroke="#FFA943" stroke-miterlimit="10"/>
<path d="M355.287 201.247C331.522 196.841 323.797 184.937 323.797 184.937C323.797 184.937 360.108 150.645 425.177 168.276C490.238 185.94 485.582 272.271 485.582 272.271C485.582 272.271 485.386 271.267 484.993 269.529V269.495C482.025 256.722 467.391 204.064 425.373 198.755" fill="white"/>
<path d="M355.287 201.247C331.522 196.841 323.797 184.937 323.797 184.937C323.797 184.937 360.108 150.645 425.177 168.276C490.238 185.94 485.582 272.271 485.582 272.271C485.582 272.271 485.386 271.267 484.993 269.529V269.495C482.025 256.722 467.391 204.064 425.373 198.755" stroke="#FFA943" stroke-miterlimit="10"/>
<path d="M243.602 136.259C248.968 111.351 244.787 89.0753 234.264 86.5049C223.74 83.9344 210.86 102.042 205.493 126.95C200.127 151.858 204.308 174.134 214.831 176.704C225.355 179.274 238.235 161.166 243.602 136.259Z" fill="white" stroke="#FFA943" stroke-width="0.5" stroke-miterlimit="10"/>
<path d="M217.447 257.633C222.813 232.725 218.633 210.449 208.109 207.879C197.586 205.308 184.705 223.416 179.339 248.324C173.973 273.232 178.154 295.508 188.677 298.078C199.2 300.648 212.081 282.54 217.447 257.633Z" fill="white" stroke="#FFA943" stroke-width="0.5" stroke-miterlimit="10"/>
<path d="M294.309 238.781C298.336 228.114 283.549 211.74 261.281 202.209C239.013 192.677 217.697 193.597 213.67 204.264C209.643 214.93 224.43 231.304 246.698 240.836C268.966 250.367 290.282 249.447 294.309 238.781Z" fill="white" stroke="#FFA943" stroke-width="0.5" stroke-miterlimit="10"/>
<path d="M205.331 180.88C210.729 170.924 198.257 152.495 177.472 139.717C156.688 126.94 135.463 124.653 130.065 134.609C124.666 144.565 137.139 162.994 157.923 175.771C178.708 188.549 199.933 190.836 205.331 180.88Z" fill="white" stroke="#FFA943" stroke-width="0.5" stroke-miterlimit="10"/>
<path d="M267.618 190.512C289.536 180.101 303.739 163.151 299.34 152.652C294.942 142.153 273.609 142.081 251.691 152.491C229.773 162.902 215.57 179.852 219.969 190.351C224.367 200.85 245.7 200.922 267.618 190.512Z" fill="white" stroke="#FFA943" stroke-width="0.5" stroke-miterlimit="10"/>
<path d="M165.884 237.161C187.802 226.751 202.004 209.8 197.606 199.301C193.208 188.802 171.874 188.73 149.956 199.141C128.038 209.551 113.836 226.501 118.234 237C122.632 247.499 143.966 247.571 165.884 237.161Z" fill="white" stroke="#FFA943" stroke-width="0.5" stroke-miterlimit="10"/>
<path d="M180.834 190.68C180.834 185.079 182.506 179.846 185.411 175.398C190.868 167.055 200.65 161.496 211.814 161.496C228.929 161.496 242.794 174.562 242.794 190.68C242.794 206.797 228.921 219.864 211.814 219.864C194.707 219.864 180.834 206.797 180.834 190.68Z" fill="#F08100"/>
<path d="M293.519 356.469L282.033 331.474L300.868 348.118L301.574 323.49L310.925 352.624L322.262 321.058L325.057 347.968L337.021 337.284L317.386 364.737" stroke="white" stroke-miterlimit="10"/>
<path d="M242.849 182.25C242.849 182.25 332.801 125.594 324.594 207.881C316.387 290.169 314.947 353.016 314.947 353.016" stroke="white" stroke-width="2" stroke-miterlimit="10"/>
<path d="M411.386 49.0322H339.416V197.35H411.386V49.0322Z" fill="#F08100" stroke="white" stroke-width="0.5" stroke-miterlimit="10"/>
<path d="M436.722 189.618L411.387 197.35V49.0323L435.811 44.167L436.722 189.618Z" fill="#F08100" stroke="white" stroke-width="0.5" stroke-miterlimit="10"/>
<path d="M435.81 44.167H386.027L339.416 49.0323H411.386L435.81 44.167Z" fill="#F08100" stroke="white" stroke-width="0.5" stroke-miterlimit="10"/>
<path d="M339.416 56.7568H373.199" stroke="white" stroke-width="0.5" stroke-miterlimit="10"/>
<path d="M369.557 61.4053H411.387" stroke="white" stroke-width="0.5" stroke-miterlimit="10"/>
<path d="M384.112 65.7939L411.387 66.0531" stroke="white" stroke-width="0.5" stroke-miterlimit="10"/>
<path d="M351.374 67.5996H375.398" stroke="white" stroke-width="0.5" stroke-miterlimit="10"/>
<path d="M369.557 74.8301H403.017" stroke="white" stroke-width="0.5" stroke-miterlimit="10"/>
<path d="M339.416 81.0244H371.503" stroke="white" stroke-width="0.5" stroke-miterlimit="10"/>
<path d="M343.373 74.8301H351.373" stroke="white" stroke-width="0.5" stroke-miterlimit="10"/>
<path d="M397.961 183.406H405.961" stroke="white" stroke-width="0.5" stroke-miterlimit="10"/>
<path d="M338.679 190.904H346.679" stroke="white" stroke-width="0.5" stroke-miterlimit="10"/>
<path d="M397.749 55.4697H406.173" stroke="white" stroke-width="0.5" stroke-miterlimit="10"/>
<path d="M390.471 84.9033H406.173" stroke="white" stroke-width="0.5" stroke-miterlimit="10"/>
<path d="M339.416 94.1914H373.199" stroke="white" stroke-width="0.5" stroke-miterlimit="10"/>
<path d="M352.669 88.8076H386.452" stroke="white" stroke-width="0.5" stroke-miterlimit="10"/>
<path d="M378.357 98.0205H412.132" stroke="white" stroke-width="0.5" stroke-miterlimit="10"/>
<path d="M393.863 104.156H412.133" stroke="white" stroke-width="0.5" stroke-miterlimit="10"/>
<path d="M356.305 112.809H390.087" stroke="white" stroke-width="0.5" stroke-miterlimit="10"/>
<path d="M378.357 120.759H412.132" stroke="white" stroke-width="0.5" stroke-miterlimit="10"/>
<path d="M339.416 117.833H373.199" stroke="white" stroke-width="0.5" stroke-miterlimit="10"/>
<path d="M339.416 128.433H373.199" stroke="white" stroke-width="0.5" stroke-miterlimit="10"/>
<path d="M378.357 142.109H412.132" stroke="white" stroke-width="0.5" stroke-miterlimit="10"/>
<path d="M339.416 152.149H373.199" stroke="white" stroke-width="0.5" stroke-miterlimit="10"/>
<path d="M376.968 163.034H410.751" stroke="white" stroke-width="0.5" stroke-miterlimit="10"/>
<path d="M392.05 133.732H412.133" stroke="white" stroke-width="0.5" stroke-miterlimit="10"/>
<path d="M385.204 152.149H405.287" stroke="white" stroke-width="0.5" stroke-miterlimit="10"/>
<path d="M347.378 163.034H367.461" stroke="white" stroke-width="0.5" stroke-miterlimit="10"/>
<path d="M339.416 173.082H373.199" stroke="white" stroke-width="0.5" stroke-miterlimit="10"/>
<path d="M369.399 190.904H403.182" stroke="white" stroke-width="0.5" stroke-miterlimit="10"/>
<path d="M352.669 183.406H386.452" stroke="white" stroke-width="0.5" stroke-miterlimit="10"/>
<path d="M376.968 178.106H410.751" stroke="white" stroke-width="0.5" stroke-miterlimit="10"/>
<path d="M347.378 142.109H367.461" stroke="white" stroke-width="0.5" stroke-miterlimit="10"/>
<path d="M342.683 104.156H376.465" stroke="white" stroke-width="0.5" stroke-miterlimit="10"/>
<path d="M411.387 61.4046L423.344 59.0723" stroke="white" stroke-width="0.5" stroke-miterlimit="10"/>
<path d="M411.387 66.0528L430.402 62.3662" stroke="white" stroke-width="0.5" stroke-miterlimit="10"/>
<path d="M411.387 120.759L430.402 117.072" stroke="white" stroke-width="0.5" stroke-miterlimit="10"/>
<path d="M410.751 142.109L429.766 138.423" stroke="white" stroke-width="0.5" stroke-miterlimit="10"/>
<path d="M411.387 97.878L430.402 94.1914" stroke="white" stroke-width="0.5" stroke-miterlimit="10"/>
<path d="M410.751 104.156L420.894 102.191" stroke="white" stroke-width="0.5" stroke-miterlimit="10"/>
<path d="M410.751 163.034L420.894 161.069" stroke="white" stroke-width="0.5" stroke-miterlimit="10"/>
<path d="M410.751 178.106L429.719 174.428" stroke="white" stroke-width="0.5" stroke-miterlimit="10"/>
<path fill-rule="evenodd" clip-rule="evenodd" d="M211.492 173.339C209.205 171.315 209.965 169.677 207.979 166.648C211.231 167.626 212.338 166.261 214.854 167.916C218.7 170.452 214.989 176.439 211.492 173.339Z" fill="white"/>
<path d="M223.371 197.685L228.985 192.644C228.985 192.644 221.385 188.372 214.146 195.11C206.892 201.865 210.684 209.071 210.684 209.071L215.709 204.565" fill="white"/>
<path d="M223.371 197.685L228.985 192.644C228.985 192.644 221.385 188.372 214.146 195.11C206.892 201.865 210.684 209.071 210.684 209.071L215.709 204.565" stroke="white" stroke-width="0.5" stroke-miterlimit="10"/>
<path d="M220.395 195.127C220.395 195.127 232.627 204.038 225.969 209.756C219.311 215.474 213.941 200.753 213.941 200.753L220.395 195.127Z" fill="white" stroke="white" stroke-width="0.5" stroke-miterlimit="10"/>
<path d="M199.472 196.891C199.472 196.891 205.654 193.847 203.111 187.818" stroke="white" stroke-width="2" stroke-miterlimit="10"/>
<path d="M216.485 181.77C216.485 181.77 213.294 186.598 207.979 184.053" stroke="white" stroke-width="2" stroke-miterlimit="10"/>
</svg>
