<svg width="683" height="325" viewBox="0 0 683 325" fill="none" xmlns="http://www.w3.org/2000/svg">
<g clip-path="url(#clip0_408_1230)">
<path d="M553.072 63.1279C549.614 64.0886 546.188 65.0173 542.73 65.978" stroke="white" stroke-width="0.5" stroke-miterlimit="10"/>
<path d="M416.507 82.8223L439.261 324.68C439.261 324.68 459.944 320.539 473.391 311.231C486.839 301.923 530.276 284.331 530.276 284.331C530.276 284.331 586.126 270.284 589.231 264.072" stroke="white" stroke-width="0.5" stroke-miterlimit="10"/>
<path d="M416.507 86.5261L581.985 39.9756L589.221 267.541" stroke="white" stroke-width="2" stroke-miterlimit="10"/>
<path d="M445.365 76.5665L434.981 77.9862L428.705 43.3375L438.983 42.0459L445.365 76.5665Z" stroke="white" stroke-width="0.5" stroke-miterlimit="10"/>
<path d="M547.363 47.6184L536.979 49.038L530.703 14.3893L540.981 13.1084L547.363 47.6184Z" stroke="white" stroke-width="0.5" stroke-miterlimit="10"/>
<path d="M553.66 69.3723L543.275 72.201L537 2.90356L547.278 0.331055L553.66 69.3723Z" fill="white" stroke="white" stroke-width="0.5" stroke-miterlimit="10"/>
<path d="M452.09 93.1223L441.705 95.951L435.43 26.6536L445.707 24.0811L452.09 93.1223Z" fill="white" stroke="white" stroke-width="0.5" stroke-miterlimit="10"/>
<path d="M291.318 124.388L280.934 125.808L274.658 91.1588L284.936 89.8672L291.318 124.388Z" stroke="white" stroke-width="0.5" stroke-miterlimit="10"/>
<path d="M298.042 132.169L287.657 134.998L281.382 65.7004L291.659 63.1279L298.042 132.169Z" fill="white" stroke="white" stroke-width="0.5" stroke-miterlimit="10"/>
<path d="M145.317 144.081L134.933 145.501L128.657 110.852L138.935 109.561L145.317 144.081Z" stroke="white" stroke-width="0.5" stroke-miterlimit="10"/>
<path d="M152.041 151.864L141.656 154.692L135.381 85.3948L145.659 82.8223L152.041 151.864Z" fill="white" stroke="white" stroke-width="0.5" stroke-miterlimit="10"/>
<path d="M552.678 58.8154C549.263 59.9149 545.837 61.0037 542.379 62.1031" stroke="white" stroke-width="0.5" stroke-miterlimit="10"/>
<path d="M682.893 7.75C651.73 22.8755 617.812 36.5492 582.305 48.9527" stroke="white" stroke-width="0.5" stroke-miterlimit="10"/>
<path d="M0.0214844 157.872C0.0214844 157.872 44.1524 155.022 112.435 147.134C114.805 146.867 117.174 146.568 119.618 146.259H119.746C124.613 145.693 129.607 145.117 134.73 144.466C136.662 144.241 138.679 143.985 140.643 143.761C142.137 143.537 143.621 143.366 145.115 143.195C147.132 142.928 149.149 142.672 151.166 142.405C157.516 141.615 164.048 140.74 170.718 139.865C171.028 139.822 171.38 139.78 171.679 139.737C205.116 135.222 241.851 129.746 280.453 123.128C281.456 122.957 282.428 122.775 283.431 122.605C283.516 122.562 283.602 122.519 283.698 122.562C284.573 122.391 285.533 122.252 286.462 122.082C287.86 121.815 289.311 121.558 290.752 121.334C292.812 120.939 294.872 120.587 296.932 120.235C297.593 120.107 298.244 119.968 298.949 119.883C298.991 119.883 299.034 119.84 299.077 119.84C308.276 118.175 317.615 116.467 326.996 114.663C356.751 109.006 387.168 102.697 417.67 95.5986" stroke="white" stroke-width="0.5" stroke-miterlimit="10"/>
<path d="M451.566 87.4756C448.108 88.3082 444.64 89.1835 441.182 90.0161" stroke="white" stroke-width="0.5" stroke-miterlimit="10"/>
<path d="M112.254 146.078L117.451 174.834C117.451 174.834 194.497 158.396 218.061 238.688L262.897 230.586C262.897 230.586 249.108 162.612 330.988 136.738L326.142 109.935C326.142 109.935 235.5 149.974 112.254 146.078V146.078Z" stroke="white" stroke-miterlimit="10"/>
<path d="M218.062 238.688C218.062 238.688 174.934 181.9 117.537 175.314" stroke="white" stroke-miterlimit="10"/>
<path d="M262.896 230.586C262.896 230.586 281.979 162.548 330.987 136.737" stroke="white" stroke-miterlimit="10"/>
<path d="M112.254 146.078C112.254 146.078 284.989 130.387 326.142 109.935" stroke="white" stroke-miterlimit="10"/>
<path d="M241.818 159.26C241.818 159.26 244.476 151.767 250.933 154.275C257.4 156.784 244.134 172.112 244.134 172.112C244.134 172.112 224.454 159.271 232.96 156.464C241.466 153.656 241.818 159.271 241.818 159.271V159.26Z" fill="white" stroke="white" stroke-miterlimit="10"/>
<path d="M210.73 163.38C210.73 163.38 213.387 155.887 219.844 158.396C226.311 160.904 213.045 176.232 213.045 176.232C213.045 176.232 193.365 163.391 201.871 160.584C210.377 157.776 210.73 163.391 210.73 163.391V163.38Z" fill="white" stroke="white" stroke-miterlimit="10"/>
<path d="M231.264 196.193C234.158 196.193 236.504 192.752 236.504 188.508C236.504 184.263 234.158 180.822 231.264 180.822C228.37 180.822 226.023 184.263 226.023 188.508C226.023 192.752 228.37 196.193 231.264 196.193Z" stroke="white" stroke-miterlimit="10"/>
</g>
<defs>
<clipPath id="clip0_408_1230">
<rect width="683" height="325" fill="white"/>
</clipPath>
</defs>
</svg>
