<svg width="370" height="446" viewBox="0 0 370 446" fill="none" xmlns="http://www.w3.org/2000/svg">
<g clip-path="url(#clip0_1221_1050)">
<path d="M176.743 423.821L212.146 288.8C212.146 288.8 221.609 254.261 194.964 196.546C168.328 138.821 167.074 92.645 191.065 52.3216C215.056 11.9884 271.158 -6.76144 306.64 3.94718C342.121 14.6558 376.388 58.692 367.65 121.879C358.912 185.065 334.588 205.857 292.817 234.114C251.057 262.371 246.08 297.418 246.08 297.418L210.187 433.601C210.187 433.601 210.011 443.635 190.565 444.964C171.12 446.293 176.743 423.821 176.743 423.821V423.821Z" stroke="white" stroke-width="2" stroke-miterlimit="10"/>
<path d="M224.705 226.698C224.705 226.698 236.245 254.095 232.532 269.171C228.819 284.247 248.657 241.813 259.961 236.733L224.705 226.698V226.698Z" stroke="white" stroke-width="2" stroke-miterlimit="10"/>
<path d="M349.897 131.394C361.302 77.6467 335.312 26.6373 291.846 17.4619C248.38 8.28643 203.898 44.4195 192.493 98.1673C181.087 151.915 207.078 202.924 250.544 212.1C294.01 221.275 338.492 185.142 349.897 131.394Z" stroke="white" stroke-width="2" stroke-miterlimit="10"/>
<path d="M191.525 143.355L218.857 45.043" stroke="white" stroke-width="0.5" stroke-miterlimit="10"/>
<path d="M242.181 25.9805L206.053 180.601" stroke="white" stroke-width="0.5" stroke-miterlimit="10"/>
<path d="M226.86 201.949L269.62 16.6104" stroke="white" stroke-width="0.5" stroke-miterlimit="10"/>
<path d="M291.847 17.4502L250.537 212.101" stroke="white" stroke-width="0.5" stroke-miterlimit="10"/>
<path d="M273.225 212.882L311.821 25.2568" stroke="white" stroke-width="0.5" stroke-miterlimit="10"/>
<path d="M328.808 39.2197L292.847 207.275" stroke="white" stroke-width="0.5" stroke-miterlimit="10"/>
<path d="M314.986 193.019L346.804 70.4072" stroke="white" stroke-width="0.5" stroke-miterlimit="10"/>
<path d="M223.265 40.3818L344.423 64.1831" stroke="white" stroke-width="0.5" stroke-miterlimit="10"/>
<path d="M242.181 25.9805L333.353 43.6653" stroke="white" stroke-width="0.5" stroke-miterlimit="10"/>
<path d="M209.54 57.1094L350.585 84.8189" stroke="white" stroke-width="0.5" stroke-miterlimit="10"/>
<path d="M199.989 74.6963L352.544 104.663" stroke="white" stroke-width="0.5" stroke-miterlimit="10"/>
<path d="M196.267 93.3584L351.251 123.804" stroke="white" stroke-width="0.5" stroke-miterlimit="10"/>
<path d="M188.155 109.255L347.577 140.57" stroke="white" stroke-width="0.5" stroke-miterlimit="10"/>
<path d="M188.763 131.337L340.514 161.147" stroke="white" stroke-width="0.5" stroke-miterlimit="10"/>
<path d="M194.111 154.464L326.917 180.551" stroke="white" stroke-width="0.5" stroke-miterlimit="10"/>
<path d="M206.053 180.601L308.216 198.412" stroke="white" stroke-width="0.5" stroke-miterlimit="10"/>
<path d="M246.08 297.418L212.146 288.8" stroke="white" stroke-width="0.5" stroke-miterlimit="10"/>
<path d="M239.663 314.106L205.729 305.488" stroke="white" stroke-width="0.5" stroke-miterlimit="10"/>
<path d="M185.746 389.487L224.382 372.926" stroke="white" stroke-width="0.5" stroke-miterlimit="10"/>
<path d="M193.073 361.542L233.835 343.887" stroke="white" stroke-width="0.5" stroke-miterlimit="10"/>
<path d="M199.95 335.328L240.457 318.757" stroke="white" stroke-width="0.5" stroke-miterlimit="10"/>
<path d="M307.969 109.788C312.033 90.6351 309.518 73.8821 302.352 72.3692C295.185 70.8564 286.08 85.1566 282.016 104.31C277.952 123.463 280.467 140.216 287.634 141.729C294.8 143.241 303.905 128.941 307.969 109.788Z" fill="white" stroke="white" stroke-width="0.5" stroke-miterlimit="10"/>
<path d="M263.829 100.688C267.894 81.5345 265.379 64.7815 258.212 63.2686C251.045 61.7558 241.941 76.056 237.876 95.209C233.812 114.362 236.327 131.115 243.494 132.628C250.661 134.141 259.765 119.841 263.829 100.688Z" fill="white" stroke="white" stroke-width="0.5" stroke-miterlimit="10"/>
<path d="M244.963 151.493C244.963 151.493 252.986 170.487 278.064 158.802L244.963 151.493Z" fill="white" stroke="white" stroke-width="0.5" stroke-miterlimit="10"/>
</g>
<g clip-path="url(#clip1_1221_1050)">
<path d="M147.616 322.28L114.712 253.979C114.712 253.979 106.076 236.549 114.564 203.032C123.046 169.51 119.006 144.769 101.936 125.759C84.8656 106.745 52.6653 102.556 34.6057 111.934C16.546 121.312 2.54649 148.328 13.718 181.101C24.8894 213.875 40.1437 222.44 65.5786 233.179C91.0082 243.918 97.2746 262.083 97.2746 262.083L130.561 330.953C130.561 330.953 131.681 336.283 142.314 334.979C152.947 333.675 147.616 322.28 147.616 322.28V322.28Z" stroke="white" stroke-width="2" stroke-miterlimit="10"/>
<path d="M101.589 222.18C101.589 222.18 98.158 237.976 101.702 245.627C105.246 253.278 90.2035 232.714 83.582 231.175L101.589 222.18V222.18Z" stroke="white" stroke-width="2" stroke-miterlimit="10"/>
<path d="M24.2733 184.337C12.6263 156.87 21.4458 126.994 43.9723 117.607C66.4988 108.22 94.2018 122.876 105.849 150.342C117.496 177.809 108.676 207.685 86.1497 217.072C63.6233 226.46 35.9202 211.804 24.2733 184.337Z" stroke="white" stroke-width="2" stroke-miterlimit="10"/>
<path d="M110.987 174.326L86.1905 124.755" stroke="white" stroke-width="0.5" stroke-miterlimit="10"/>
<path d="M71.6527 117.008L106.95 195.68" stroke="white" stroke-width="0.5" stroke-miterlimit="10"/>
<path d="M97.8981 209.212L55.8832 114.854" stroke="white" stroke-width="0.5" stroke-miterlimit="10"/>
<path d="M43.9696 117.601L86.153 217.072" stroke="white" stroke-width="0.5" stroke-miterlimit="10"/>
<path d="M73.9871 219.837L33.9861 123.829" stroke="white" stroke-width="0.5" stroke-miterlimit="10"/>
<path d="M26.2417 133.028L62.821 218.878" stroke="white" stroke-width="0.5" stroke-miterlimit="10"/>
<path d="M49.4144 213.57L19.7139 151.513" stroke="white" stroke-width="0.5" stroke-miterlimit="10"/>
<path d="M83.335 122.728L20.3629 147.948" stroke="white" stroke-width="0.5" stroke-miterlimit="10"/>
<path d="M71.6514 117.009L24.2415 135.867" stroke="white" stroke-width="0.5" stroke-miterlimit="10"/>
<path d="M92.4521 130.224L19.1445 159.585" stroke="white" stroke-width="0.5" stroke-miterlimit="10"/>
<path d="M99.4043 138.608L20.1137 170.363" stroke="white" stroke-width="0.5" stroke-miterlimit="10"/>
<path d="M103.32 148.17L22.7672 180.431" stroke="white" stroke-width="0.5" stroke-miterlimit="10"/>
<path d="M109.322 155.804L26.4624 188.988" stroke="white" stroke-width="0.5" stroke-miterlimit="10"/>
<path d="M111.25 167.636L32.377 199.224" stroke="white" stroke-width="0.5" stroke-miterlimit="10"/>
<path d="M110.725 180.516L41.6986 208.16" stroke="white" stroke-width="0.5" stroke-miterlimit="10"/>
<path d="M106.95 195.681L53.62 215.744" stroke="white" stroke-width="0.5" stroke-miterlimit="10"/>
<path d="M97.2752 262.084L114.713 253.98" stroke="white" stroke-width="0.5" stroke-miterlimit="10"/>
<path d="M102.444 270.315L119.882 262.211" stroke="white" stroke-width="0.5" stroke-miterlimit="10"/>
<path d="M139.249 304.913L116.701 300.083" stroke="white" stroke-width="0.5" stroke-miterlimit="10"/>
<path d="M132.44 290.777L108.633 285.584" stroke="white" stroke-width="0.5" stroke-miterlimit="10"/>
<path d="M126.05 277.517L102.491 272.875" stroke="white" stroke-width="0.5" stroke-miterlimit="10"/>
<path d="M44.7008 168.483C40.5504 158.696 40.1968 149.506 43.911 147.959C47.6251 146.411 54.0006 153.091 58.151 162.878C62.3015 172.666 62.6551 181.855 58.9409 183.403C55.2267 184.951 48.8512 178.271 44.7008 168.483Z" fill="white" stroke="white" stroke-width="0.5" stroke-miterlimit="10"/>
<path d="M67.5983 159.066C63.4479 149.279 63.0943 140.089 66.8084 138.542C70.5226 136.994 76.8981 143.674 81.0485 153.461C85.1989 163.249 85.5525 172.438 81.8384 173.986C78.1242 175.534 71.7487 168.854 67.5983 159.066Z" fill="white" stroke="white" stroke-width="0.5" stroke-miterlimit="10"/>
<path d="M82.9727 184.193C82.9727 184.193 80.5819 195.147 65.8507 191.513L82.9727 184.193Z" fill="white" stroke="white" stroke-width="0.5" stroke-miterlimit="10"/>
</g>
<defs>
<clipPath id="clip0_1221_1050">
<rect width="197" height="446" fill="white" transform="translate(173.001)"/>
</clipPath>
<clipPath id="clip1_1221_1050">
<rect width="108.279" height="242.036" fill="white" transform="matrix(-0.982125 0.188231 0.188231 0.982125 106.344 96.0049)"/>
</clipPath>
</defs>
</svg>
