<svg width="1766" height="905" viewBox="0 0 1766 905" fill="none" xmlns="http://www.w3.org/2000/svg">
<path d="M909.575 109.484C918.656 109.484 927.544 110.311 935.546 111.674C972.058 117.931 1004.6 133.429 1036.05 148.423C1068.1 163.709 1101.26 179.508 1138.45 185.33C1149.19 187.017 1160.35 187.866 1171.11 188.693C1183.87 189.665 1197.04 190.671 1209.72 193.062C1226.99 196.324 1248.89 204.805 1258.51 218.839C1264.39 227.42 1264.86 236.694 1259.87 246.415C1253.44 258.985 1239.91 266.192 1217.34 269.086C1152.88 277.388 1084.06 283.757 1017.58 274.259C944.094 263.779 884.535 234.314 854.195 193.408C836.935 170.178 834.765 146.747 848.348 130.725C861.739 114.959 886.233 109.484 909.59 109.484L909.575 109.484ZM1088.81 277.209C1132.12 277.209 1175.42 272.673 1216.95 267.332C1238.63 264.55 1251.58 257.7 1257.69 245.778C1262.41 236.56 1261.98 227.778 1256.42 219.677C1247.16 206.168 1225.93 197.967 1209.14 194.805C1196.64 192.447 1183.54 191.453 1170.89 190.481C1160.05 189.654 1148.83 188.805 1137.96 187.095C1100.36 181.195 1067.02 165.307 1034.78 149.943C1003.49 135.026 971.143 119.618 935.014 113.428C907.139 108.657 868.25 110.579 850.312 131.697C837.201 147.139 839.416 169.888 856.232 192.536C886.248 232.973 945.216 262.125 1018 272.505C1041.39 275.835 1065.1 277.198 1088.8 277.198L1088.81 277.209Z" fill="#F08100" fill-opacity="0.3"/>
<path d="M888.419 86.1024C919.646 86.1024 950.754 89.321 981.09 95.6905C1011.89 102.161 1039.12 113.73 1065.45 124.916C1100.18 139.67 1132.98 153.613 1173.66 157.169C1183.11 157.99 1193.04 157.878 1203.51 157.709C1223.22 157.473 1243.47 157.18 1260.13 163.696C1303.13 180.52 1338.75 208.215 1373.22 234.999C1387.95 246.444 1403.18 258.283 1418.46 268.793L1419.03 269.187C1443.85 286.248 1463.45 299.73 1477.98 324.319C1486.47 338.689 1511.33 387.294 1475.01 409.801C1440.62 431.104 1394.01 430.102 1361.95 427.503C1357.27 427.12 1352.53 426.681 1347.77 426.242C1324.78 424.116 1300.98 421.921 1278.71 426.006C1271.95 427.255 1265.06 428.617 1258.42 429.945C1239.7 433.681 1220.35 437.541 1200.54 439.173C1164.9 442.076 1131.48 433.422 1099.09 425.05L1094.36 423.823C1056.21 413.987 1018.82 397.636 983.243 375.23C919.794 335.28 872.174 283.22 826.128 232.883C789.823 193.192 745.959 136.609 784.076 103.489C801.152 88.657 839.789 87.4304 865.359 86.6314C867.645 86.5526 869.813 86.4851 871.862 86.4063C877.386 86.2037 882.91 86.1024 888.434 86.1024L888.419 86.1024ZM1192.05 159.611C1185.69 159.611 1179.38 159.476 1173.4 158.947C1132.25 155.357 1097.7 140.682 1064.3 126.48C1038.09 115.351 1011 103.827 980.481 97.4236C944.993 89.9737 908.48 86.8677 871.981 88.2069C869.932 88.2856 867.749 88.3419 865.463 88.4207C840.294 89.2197 802.266 90.4126 785.858 104.671C748.825 136.834 792.213 192.663 828.073 231.848C874.03 282.084 921.561 334.03 984.758 373.834C1020.13 396.105 1057.26 412.344 1095.13 422.112L1099.87 423.339C1132.03 431.667 1165.23 440.264 1200.29 437.384C1219.92 435.763 1239.19 431.926 1257.83 428.201C1264.48 426.873 1271.37 425.5 1278.17 424.251C1300.86 420.087 1324.87 422.304 1348.08 424.453C1352.83 424.892 1357.55 425.331 1362.21 425.714C1393.84 428.279 1439.81 429.292 1473.51 408.406C1508.52 386.72 1484.14 339.128 1475.82 325.061C1461.51 300.81 1442.07 287.441 1417.45 270.526L1416.89 270.144C1401.55 259.599 1386.3 247.738 1371.54 236.27C1337.22 209.599 1301.74 182.017 1259.07 165.317C1242.93 159.003 1222.92 159.262 1203.58 159.532C1199.77 159.588 1195.91 159.633 1192.06 159.633L1192.05 159.611Z" fill="#F08100" fill-opacity="0.3"/>
<path d="M835.663 48.1078C886.409 48.1078 933.99 59.2376 970.7 69.3219C980.462 72.0088 990.268 75.0216 1000.67 78.2257C1033.16 88.2199 1066.75 98.5628 1099.89 98.5628C1100.53 98.5628 1101.17 98.5628 1101.8 98.5516C1112.17 98.4279 1122.7 97.6859 1132.89 96.9776C1145.43 96.1008 1158.38 95.1789 1171.27 95.415C1235.45 96.5167 1284.08 126.533 1315.08 149.018C1333.76 162.576 1352.31 176.887 1370.25 190.715C1399.9 213.593 1430.58 237.258 1462.88 258.303C1474.14 265.779 1487.05 272.851 1500.7 280.327C1524.07 293.131 1548.22 306.375 1564.15 322.069C1607.52 364.8 1634.47 428.791 1634.48 489.049C1634.48 507.093 1632.13 529.881 1613.85 546.114C1589.58 567.643 1545.75 568.981 1513.14 560.74C1488.85 554.625 1466.88 544.001 1445.61 533.725C1436.97 529.555 1428.04 525.238 1419.09 521.28C1385.94 506.665 1348.3 495.064 1304.02 485.811C1278.58 480.494 1252.67 478.167 1227.61 475.918C1198.78 473.332 1168.97 470.646 1139.53 463.417C1061.22 444.193 999.793 422.113 956.945 397.785C942.746 389.724 930.707 379.1 919.066 368.814C909.053 359.977 898.715 350.838 887.03 343.361C859.461 325.711 828.919 311.377 796.246 300.754C790.951 299.033 785.479 297.37 780.169 295.751C759.078 289.331 737.277 282.687 720.356 270.883C693.009 251.794 685.052 223.823 681.191 201.575C680.053 195.032 678.322 188.377 676.503 181.328C671.711 162.879 666.741 143.813 672.79 126.376C688.616 80.7327 741.965 52.3573 819.142 48.535C824.688 48.2539 830.205 48.1303 835.678 48.1303L835.663 48.1078ZM1099.88 100.35C1066.28 100.35 1032.49 89.9512 999.778 79.8895C989.41 76.6967 979.633 73.6838 969.901 71.0194C929.42 59.9009 875.671 47.512 819.29 50.3001C783.29 52.0876 697.135 63.1162 675.053 126.803C669.137 143.846 674.048 162.711 678.78 180.946C680.629 188.017 682.36 194.695 683.513 201.305C687.329 223.25 695.154 250.838 721.924 269.523C738.534 281.102 760.128 287.69 781.012 294.053C786.322 295.672 791.809 297.347 797.134 299.067C830.013 309.759 860.762 324.182 888.509 341.945C900.356 349.522 910.754 358.718 920.826 367.611C932.363 377.819 944.314 388.364 958.306 396.312C1000.95 420.517 1062.15 442.506 1140.2 461.674C1169.42 468.847 1199.12 471.511 1227.83 474.097C1252.99 476.357 1278.99 478.695 1304.59 484.057C1349.08 493.344 1386.92 505.013 1420.23 519.706C1429.23 523.675 1438.18 528.003 1446.83 532.185C1467.97 542.393 1489.83 552.961 1513.84 559.009C1545.75 567.036 1588.45 565.799 1612 544.923C1629.78 529.139 1632.07 506.755 1632.07 489.027C1632.04 429.139 1605.27 365.587 1562.22 323.148C1546.51 307.656 1522.47 294.503 1499.25 281.766C1485.54 274.256 1472.6 267.162 1461.27 259.641C1428.91 238.551 1398.19 214.863 1368.5 191.963C1350.58 178.135 1332.05 163.835 1313.38 150.299C1282.68 128.029 1234.53 98.2818 1171.17 97.2025C1158.45 97.0114 1145.55 97.8883 1133.05 98.7652C1122.83 99.4847 1112.24 100.215 1101.8 100.35C1101.14 100.35 1100.5 100.35 1099.84 100.35L1099.88 100.35Z" fill="#F08100" fill-opacity="0.3"/>
<path d="M428.617 345.987C457.393 383.287 494.43 393.277 556.498 380.507C586.705 374.285 609.538 376.314 638.433 378.881C644.658 379.431 651.133 380.002 658.006 380.529C699.07 383.635 740.635 383.769 781.566 380.933C840.963 376.83 882.838 382.704 930.982 401.898C963.343 414.802 994.288 430.42 1024.24 445.522C1039.05 452.988 1054.36 460.713 1069.67 468.012C1125.16 494.526 1174.22 510.502 1224.05 518.306C1280.6 527.151 1313.15 542.376 1323.58 564.855C1332.83 584.789 1317.78 603.187 1301.87 622.672C1288.77 638.704 1275.21 655.286 1275.38 673.381C1275.61 702.138 1308.33 723.495 1337.19 742.33C1346.01 748.093 1354.35 753.542 1361.44 758.946C1370.82 766.11 1379.3 775.068 1387.49 783.734C1405.01 802.255 1423.14 821.415 1452.49 826.842C1485.52 832.94 1522.52 821.393 1540.37 799.374C1545.99 792.445 1549.74 784.709 1553.35 777.231C1555.71 772.366 1558.15 767.343 1561.07 762.601C1574.37 740.985 1593.68 732.621 1616.05 722.935C1623.3 719.807 1630.77 716.567 1638.49 712.688C1662.71 700.535 1680.29 679.67 1695.82 661.25L1766 578.241L1766 574.923L1693.81 660.297C1678.42 678.56 1660.97 699.257 1637.17 711.197C1629.52 715.031 1622.07 718.26 1614.87 721.377C1592.14 731.209 1572.53 739.707 1558.9 761.838C1555.93 766.648 1553.48 771.715 1551.11 776.615C1547.53 784.014 1543.82 791.66 1538.34 798.432C1524.12 815.978 1497.42 826.673 1470.56 826.673C1464.69 826.673 1458.79 826.158 1453.02 825.093C1424.53 819.823 1406.66 800.943 1389.39 782.691C1381.13 773.969 1372.61 764.944 1363.09 757.69C1355.94 752.219 1347.56 746.759 1338.7 740.974C1310.23 722.386 1277.94 701.308 1277.71 673.37C1277.56 655.79 1290.92 639.433 1303.86 623.614C1320.08 603.758 1335.41 585.002 1325.81 564.25C1315.08 541.132 1281.95 525.514 1224.53 516.534C1174.99 508.787 1126.18 492.878 1070.93 466.487C1055.66 459.199 1040.35 451.475 1025.56 444.019C995.556 428.895 964.552 413.255 932.103 400.306C883.517 380.922 841.303 375.002 781.374 379.139C740.591 381.953 699.173 381.83 658.257 378.736C651.413 378.22 644.953 377.648 638.743 377.099C609.597 374.509 586.588 372.468 555.908 378.769C495.094 391.281 458.795 381.527 430.667 345.068C402.48 308.519 391.609 261.241 400.857 215.353C418.38 128.42 488.25 19.4571 604.907 -28.0116C646.737 -45.0305 689.305 -47.3625 734.366 -49.8178C746.52 -50.4793 759.102 -51.1743 771.742 -52.1609C852.616 -58.5065 924.315 -59.8742 990.955 -56.3203C1132.18 -48.7974 1253.74 -16.1501 1342.44 38.0792C1377.03 59.2238 1407.9 84.3708 1437.76 108.677C1464.72 130.629 1492.61 153.332 1523.2 173.097C1596.51 220.443 1678.83 230.858 1766 237.899L1766 236.094C1679.3 229.087 1597.42 218.671 1524.72 171.73C1494.25 152.042 1466.4 129.373 1439.48 107.455C1409.57 83.0927 1378.64 57.912 1343.92 36.6778C1254.83 -17.7869 1132.83 -50.5688 991.102 -58.114C967.045 -59.3922 942.324 -60.0313 916.748 -60.0313C871.363 -60.0313 823.293 -58.0132 771.462 -53.9434C758.866 -52.9569 746.314 -52.2618 734.175 -51.6004C688.848 -49.1227 646.029 -46.7795 603.771 -29.5813C486.392 18.1902 416.109 127.725 398.512 215.095C389.19 261.386 400.164 309.091 428.617 345.987Z" fill="#F08100" fill-opacity="0.3"/>
<path d="M323.22 251.295C329.738 318.437 367.004 373.834 430.996 411.502C467.257 432.84 495.904 433.625 536.127 427.618C548.957 425.701 561.877 423.157 574.383 420.714C600.178 415.649 626.815 410.415 654.029 410.415C655.33 410.415 656.645 410.426 657.931 410.46C732.788 411.872 807.911 421.992 881.23 440.54C1000.7 470.777 1111.57 519.136 1218.78 565.904C1236.16 573.491 1251.12 580.731 1257.98 592.577C1268.88 611.405 1254.3 629.471 1238.87 648.602C1226.35 664.112 1213.41 680.139 1213.81 697.409C1214.2 714.242 1227.21 728.431 1239.79 742.159C1247.81 750.912 1256.12 759.968 1261.22 769.718C1267.3 781.351 1268.86 794.127 1270.38 806.489C1271.43 815.051 1272.53 823.916 1275.1 832.411C1286.62 870.538 1319.05 895.407 1366.41 902.434C1429.57 911.837 1506.2 887.584 1544.64 846.073C1552.53 837.544 1559.29 828.22 1565.84 819.209C1576.51 804.505 1587.55 789.308 1603.57 777.541C1619.26 766.031 1639.18 758.219 1658.45 750.666C1675.83 743.852 1693.8 736.802 1708.84 727.018C1735.7 709.524 1751.2 685.72 1766 662.521L1766 658.442C1765.63 659.024 1765.23 659.618 1764.86 660.201C1749.87 683.714 1734.38 708.022 1707.29 725.651C1692.46 735.301 1674.62 742.294 1657.35 749.063C1637.94 756.673 1617.87 764.54 1601.93 776.241C1585.64 788.199 1574.51 803.519 1563.77 818.335C1557.25 827.312 1550.51 836.591 1542.69 845.03C1504.77 885.993 1429.2 909.943 1366.85 900.663C1320.47 893.771 1288.68 869.384 1277.39 831.996C1274.86 823.613 1273.77 814.816 1272.72 806.309C1271.18 793.825 1269.59 780.903 1263.39 769.045C1258.19 759.105 1249.81 749.971 1241.71 741.128C1228.76 726.996 1216.53 713.648 1216.15 697.364C1215.76 680.621 1228.52 664.807 1240.86 649.521C1256.62 629.986 1271.51 611.528 1260.13 591.848C1252.97 579.498 1237.69 572.079 1219.93 564.335C1112.61 517.522 1001.65 469.118 881.94 438.825C808.399 420.21 733.039 410.067 657.961 408.644C628.988 408.196 600.917 413.631 573.747 418.966C561.286 421.409 548.396 423.953 535.624 425.847C496.141 431.742 467.966 430.98 432.415 410.067C368.97 372.725 332.015 317.765 325.54 251.149C317.041 163.497 363.264 65.9163 443.28 2.56202C512.608 -52.3197 614.871 -88.7656 739.011 -102.831C753.971 -104.534 769.714 -105.991 785.841 -107.19C913.633 -116.694 1049.08 -122.219 1177.05 -77.4126C1240.95 -55.0318 1309.01 -22.7215 1385.14 21.3901C1413.76 37.9655 1437.69 59.2705 1460.82 79.8582C1483.31 99.8742 1506.57 120.585 1534.39 137.295C1572.86 160.404 1633.51 187.784 1704.94 187.784C1705.66 187.784 1706.38 187.784 1707.12 187.784C1717.83 187.705 1728.68 186.999 1739.16 186.338C1747.97 185.766 1756.97 185.34 1765.99 185.128L1765.99 183.334C1756.89 183.559 1747.83 183.984 1738.96 184.556C1728.51 185.228 1717.72 185.912 1707.11 186.002C1706.38 186.002 1705.66 186.002 1704.95 186.002C1634.19 186.002 1574.04 158.824 1535.89 135.905C1508.24 119.296 1485.07 98.6639 1462.64 78.7038C1439.42 58.0377 1415.41 36.6655 1386.59 19.9668C1310.33 -24.2121 1242.12 -56.6009 1178.07 -79.0377C1097.7 -107.179 1014.51 -115.562 932.11 -115.562C882.738 -115.562 833.632 -112.547 785.634 -108.983C769.477 -107.784 753.675 -106.316 738.686 -104.613C614.014 -90.4803 511.278 -53.8551 441.595 1.318C361.121 65.0198 314.661 163.139 323.205 251.284L323.22 251.295Z" fill="#F08100" fill-opacity="0.3"/>
<path d="M-286.161 -223.776C-248.903 -203.54 -210.406 -182.586 -166.666 -187.968C-138.313 -191.439 -115.409 -205.619 -93.2441 -219.338C-83.3945 -225.428 -73.205 -231.731 -62.6762 -237.012C13.1379 -275.045 123.625 -219.102 176.978 -180.058C251.596 -125.429 281.647 -59.9921 257.37 -5.01539C244.567 23.9729 213.984 45.5681 184.406 66.4554C172.725 74.7137 160.631 83.2529 149.777 92.1404C57.69 167.555 41.2099 276.104 31.3455 390.068C29.5734 410.371 29.1896 429.821 43.4545 444.674C60.2299 462.112 90.6943 466.505 120.465 469.517L296.133 487.258C325.372 490.213 355.866 492.067 378.386 479.629C420.546 456.36 368.979 401.945 341.291 372.72C336.935 368.114 333.169 364.136 330.393 360.968C327.543 357.698 324.663 354.429 321.798 351.159C295.838 321.609 269.006 291.047 254.032 257.07C229.903 202.296 254.402 151.814 286.358 96.219C327.395 24.8493 400.33 -34.0374 471.507 -88.2501C550.835 -148.642 701.474 -166.08 813.88 -170.058C945.322 -174.777 1075.8 -154.53 1190.79 -111.643C1309.18 -67.7784 1412.3 -3.77936 1497.55 53.0625C1508.54 60.3882 1519.46 68.433 1530.02 76.2194C1551.73 92.208 1574.18 108.736 1599.41 120.837C1643.45 141.96 1688.61 149.735 1745.77 146.084C1752.46 145.657 1759.21 145.735 1766 146.162L1766 144.353C1759.16 143.926 1752.34 143.848 1745.56 144.297C1688.95 147.926 1644.25 140.218 1600.68 119.32C1575.64 107.309 1553.3 90.8485 1531.66 74.9273C1521.09 67.1297 1510.13 59.0736 1499.1 51.7142C1413.73 -5.19507 1310.48 -69.3064 1191.83 -113.25C1076.47 -156.271 945.617 -176.53 813.762 -171.844C700.942 -167.844 549.683 -150.305 469.838 -89.5084C398.484 -35.1834 325.387 23.8493 284.172 95.5111C252.024 151.454 227.378 202.274 251.773 257.644C266.835 291.856 293.771 322.508 319.82 352.159C322.699 355.429 325.549 358.698 328.414 361.968C331.205 365.181 334.985 369.17 339.356 373.788C366.572 402.518 417.223 455.978 376.983 478.191C355.157 490.235 325.224 488.393 296.414 485.494L120.76 467.753C91.5063 464.798 61.5735 460.494 45.3593 443.629C31.5521 429.259 31.9509 410.158 33.6787 390.203C43.5136 276.565 59.9344 168.353 151.49 93.3764C162.285 84.5338 174.35 76.0171 186.001 67.7925C215.801 46.7479 246.605 24.9954 259.6 -4.4311C284.172 -60.0819 253.9 -126.216 178.617 -181.339C162.447 -193.17 119.106 -222.529 65.5607 -239.619C13.9352 -256.102 -29.657 -255.731 -63.9609 -238.495C-74.5932 -233.158 -84.8121 -226.832 -94.7208 -220.709C-116.635 -207.147 -139.317 -193.114 -167.02 -189.721C-209.845 -184.507 -247.914 -205.192 -284.772 -225.214C-289.483 -227.776 -294.15 -230.315 -298.772 -232.765C-346.351 -257.967 -399.483 -276.517 -454.859 -288L-464 -288C-405.818 -276.764 -349.925 -257.675 -300.13 -231.293C-295.508 -228.844 -290.842 -226.315 -286.131 -223.754L-286.161 -223.776Z" fill="#F08100" fill-opacity="0.3"/>
<path d="M195.603 -166.075C206.261 -157.274 215.605 -145.436 225.525 -132.904C246.501 -106.379 268.186 -78.9382 306.183 -74.4261C332.222 -71.31 354.232 -84.623 375.533 -97.4779C383.474 -102.269 390.973 -106.793 398.428 -110.277C543.21 -178.182 718.15 -179.22 870.194 -171.313L882.742 -170.665C990.147 -165.137 1101.2 -159.407 1195.92 -112.846C1223.6 -99.2425 1252.15 -85.818 1279.74 -72.8178C1344.19 -42.4841 1410.82 -11.1228 1471.83 24.9068C1482.17 31.0049 1492.59 37.3262 1502.69 43.4466C1544.59 68.855 1587.95 95.1346 1636.79 113.362C1662.08 122.799 1690.01 130.226 1719.24 135.788L1719.24 133.945C1690.39 128.428 1662.82 121.079 1637.83 111.753C1589.2 93.6156 1545.97 67.4031 1504.16 42.0505C1494.06 35.9301 1483.63 29.6088 1473.3 23.4996C1412.21 -12.5859 1345.5 -43.9806 1281 -74.3367C1253.41 -87.3257 1224.87 -100.75 1197.22 -114.342C1101.98 -161.161 990.605 -166.89 882.904 -172.441L870.357 -173.089C717.914 -181.041 542.516 -179.958 397.173 -111.785C389.615 -108.233 382.057 -103.676 374.057 -98.8628C353.154 -86.2535 331.617 -73.2199 306.552 -76.1796C269.648 -80.5577 248.243 -107.63 227.548 -133.809C217.583 -146.418 208.166 -158.335 197.33 -167.27C148.72 -207.399 90.0578 -234.974 34.126 -259.779C27.9999 -262.493 21.5786 -265.095 14.995 -267.541L9.47416 -267.541C17.5783 -264.66 25.461 -261.544 32.9303 -258.238C88.7145 -233.511 147.2 -206.014 195.603 -166.064L195.603 -166.075Z" fill="#F08100" fill-opacity="0.3"/>
</svg>
