<svg width="1920" height="1964" viewBox="0 0 1920 1964" fill="none" xmlns="http://www.w3.org/2000/svg">
<path d="M1062.99 654.445C1075.45 654.445 1087.64 655.806 1098.61 658.051C1148.69 668.353 1193.32 693.869 1236.46 718.558C1280.42 743.725 1325.91 769.738 1376.92 779.323C1391.64 782.101 1406.95 783.499 1421.71 784.86C1439.21 786.461 1457.27 788.116 1474.67 792.053C1498.36 797.425 1528.39 811.388 1541.6 834.495C1549.66 848.623 1550.3 863.893 1543.46 879.898C1534.63 900.594 1516.08 912.46 1485.12 917.225C1396.7 930.894 1302.31 941.38 1211.13 925.743C1110.34 908.487 1028.65 859.974 987.032 792.623C963.358 754.376 960.382 715.798 979.012 689.417C997.38 663.46 1030.98 654.445 1063.01 654.445L1062.99 654.445ZM1308.83 930.6C1368.23 930.6 1427.63 923.13 1484.59 914.337C1514.32 909.756 1532.08 898.479 1540.46 878.849C1546.94 863.672 1546.35 849.212 1538.72 835.874C1526.02 813.633 1496.9 800.129 1473.88 794.923C1456.73 791.041 1438.76 789.404 1421.41 787.804C1406.54 786.442 1391.15 785.044 1376.25 782.229C1324.67 772.516 1278.94 746.355 1234.72 721.06C1191.81 696.5 1147.44 671.131 1097.88 660.939C1059.65 653.084 1006.31 656.248 981.706 691.018C963.723 716.442 966.761 753.898 989.826 791.188C1031 857.767 1111.88 905.764 1211.71 922.854C1243.79 928.337 1276.31 930.581 1308.81 930.581L1308.83 930.6Z" fill="#F08100" fill-opacity="0.09"/>
<path d="M1033.97 615.948C1076.81 615.948 1119.47 621.247 1161.08 631.734C1203.32 642.388 1240.68 661.436 1276.78 679.853C1324.42 704.144 1369.41 727.101 1425.22 732.957C1438.17 734.309 1451.8 734.124 1466.15 733.846C1493.18 733.457 1520.96 732.975 1543.81 743.703C1602.79 771.404 1651.65 817.003 1698.92 861.101C1719.13 879.945 1740.02 899.437 1760.98 916.743L1761.75 917.391C1795.81 945.481 1822.69 967.678 1842.61 1008.16C1854.26 1031.82 1888.35 1111.85 1838.54 1148.91C1791.37 1183.98 1727.44 1182.33 1683.47 1178.05C1677.05 1177.42 1670.55 1176.7 1664.02 1175.98C1632.49 1172.48 1599.84 1168.86 1569.29 1175.59C1560.02 1177.65 1550.57 1179.89 1541.47 1182.07C1515.79 1188.23 1489.25 1194.58 1462.08 1197.27C1413.2 1202.05 1367.36 1187.8 1322.94 1174.01L1316.44 1171.99C1264.12 1155.8 1212.83 1128.88 1164.04 1091.99C1077.01 1026.21 1011.69 940.496 948.537 857.617C898.74 792.267 838.577 699.105 890.858 644.575C914.28 620.154 967.274 618.134 1002.35 616.819C1005.48 616.689 1008.46 616.578 1011.27 616.448C1018.84 616.115 1026.42 615.948 1033.99 615.948L1033.97 615.948ZM1450.43 736.977C1441.71 736.977 1433.06 736.755 1424.85 735.884C1368.41 729.973 1321.02 705.812 1275.22 682.429C1239.27 664.104 1202.1 645.13 1160.25 634.588C1111.57 622.322 1061.49 617.208 1011.43 619.413C1008.62 619.542 1005.62 619.635 1002.49 619.765C967.966 621.08 915.807 623.044 893.302 646.52C842.508 699.475 902.019 791.396 951.205 855.913C1014.24 938.625 1079.43 1024.15 1166.11 1089.69C1214.63 1126.36 1265.56 1153.09 1317.5 1169.18L1323.99 1171.2C1368.11 1184.91 1413.65 1199.06 1461.73 1194.32C1488.66 1191.65 1515.09 1185.33 1540.65 1179.2C1549.78 1177.02 1559.23 1174.75 1568.56 1172.7C1599.68 1165.84 1632.61 1169.49 1664.44 1173.03C1670.96 1173.75 1677.44 1174.48 1683.83 1175.11C1727.21 1179.33 1790.27 1181 1836.48 1146.61C1884.5 1110.9 1851.06 1032.55 1839.66 1009.39C1820.02 969.457 1793.36 947.445 1759.6 919.596L1758.82 918.966C1737.78 901.605 1716.87 882.075 1696.62 863.195C1649.55 819.282 1600.88 773.868 1542.37 746.371C1520.23 735.977 1492.77 736.403 1466.26 736.848C1461.02 736.94 1455.73 737.014 1450.45 737.014L1450.43 736.977Z" fill="#F08100" fill-opacity="0.09"/>
<path d="M111.575 56.5429C207.555 105.554 297.837 128.204 380.662 124.008C397.655 123.127 414.083 121.591 429.985 120.13C454.496 117.863 477.672 115.689 502.849 115.689C503.476 115.689 504.102 115.689 504.728 115.689C533.26 115.821 562.357 114.921 590.464 114.059C616.328 113.273 643.101 112.467 669.409 112.43L787.657 112.28C868.946 112.167 950.277 112.055 1031.57 112.055C1067.7 112.017 1105.56 110.706 1142.18 109.432C1280.43 104.655 1423.28 99.7085 1546.38 156.157C1575.58 169.552 1600.45 189.861 1624.5 209.514C1648.91 229.448 1674.15 250.057 1704.01 263.583C1766.45 291.817 1828.97 296.838 1895.18 302.177C1906.03 303.039 1917.03 303.938 1928.2 304.931C1948.63 306.749 1969.12 307.311 1988.94 307.854C2046.26 309.428 2100.4 310.927 2150.83 340.809C2158.91 345.605 2166.35 350.776 2173.52 356.097L2173.52 352.2C2166.88 347.366 2159.99 342.664 2152.57 338.261C2101.39 307.948 2046.81 306.449 1989.04 304.838C1969.26 304.294 1948.83 303.732 1928.52 301.915C1917.33 300.922 1906.34 300.041 1895.47 299.161C1829.55 293.859 1767.34 288.857 1705.43 260.867C1675.94 247.527 1650.89 227.05 1626.62 207.247C1602.41 187.482 1577.38 167.023 1547.78 153.459C1423.97 96.6548 1280.65 101.638 1142.03 106.434C1105.46 107.708 1067.61 109.02 1031.55 109.038C950.256 109.038 868.926 109.151 787.636 109.263L669.389 109.413C643.02 109.451 616.247 110.256 590.342 111.043C563.973 111.849 536.776 112.673 509.942 112.673C507.537 112.673 505.153 112.673 502.849 112.673C477.511 112.673 454.253 114.828 429.642 117.132C413.78 118.612 397.372 120.129 380.46 121.01C298.463 125.15 208.565 102.65 113.111 53.9202C100.381 47.4191 87.752 40.6183 75.2241 33.6863L68.94 33.6863C83.0237 41.555 97.2288 49.2363 111.555 56.5429L111.575 56.5429Z" fill="#F08100" fill-opacity="0.09"/>
<path d="M961.615 553.389C1031.22 553.389 1096.48 571.714 1146.83 588.318C1160.22 592.741 1173.67 597.702 1187.93 602.977C1232.5 619.433 1278.57 636.462 1324.03 636.462C1324.91 636.462 1325.78 636.462 1326.65 636.443C1340.87 636.24 1355.32 635.018 1369.29 633.852C1386.5 632.408 1404.25 630.89 1421.94 631.279C1509.96 633.093 1576.66 682.514 1619.18 719.534C1644.81 741.857 1670.24 765.42 1694.85 788.188C1735.53 825.855 1777.6 864.819 1821.91 899.469C1837.34 911.778 1855.06 923.421 1873.78 935.73C1905.83 956.813 1938.96 978.618 1960.81 1004.46C2020.29 1074.81 2057.25 1180.17 2057.27 1279.38C2057.27 1309.09 2054.05 1346.61 2028.97 1373.34C1995.68 1408.79 1935.57 1410.99 1890.84 1397.42C1857.53 1387.35 1827.38 1369.86 1798.21 1352.94C1786.36 1346.08 1774.11 1338.97 1761.84 1332.45C1716.38 1308.39 1664.75 1289.29 1604.01 1274.05C1569.12 1265.3 1533.57 1261.47 1499.21 1257.77C1459.67 1253.51 1418.77 1249.08 1378.4 1237.18C1270.98 1205.53 1186.73 1169.18 1127.96 1129.12C1108.49 1115.85 1091.98 1098.36 1076.01 1081.42C1062.28 1066.87 1048.1 1051.82 1032.07 1039.51C994.256 1010.45 952.364 986.854 907.551 969.362C900.288 966.53 892.782 963.791 885.499 961.125C856.571 950.556 826.668 939.617 803.46 920.182C765.951 888.752 755.037 842.699 749.742 806.068C748.18 795.295 745.806 784.337 743.311 772.732C736.738 742.357 729.922 710.964 738.219 682.255C759.926 607.105 833.099 560.386 938.954 554.093C946.562 553.63 954.129 553.426 961.635 553.426L961.615 553.389ZM1324.01 639.405C1277.92 639.405 1231.59 622.283 1186.71 605.717C1172.49 600.46 1159.08 595.499 1145.74 591.113C1090.21 572.806 1016.49 552.408 939.157 556.999C889.78 559.942 771.611 578.1 741.323 682.959C733.208 711.02 739.943 742.079 746.435 772.102C748.971 783.745 751.344 794.74 752.927 805.624C758.161 841.755 768.892 887.178 805.611 917.942C828.393 937.007 858.011 947.854 886.656 958.33C893.938 960.996 901.465 963.754 908.768 966.586C953.865 984.189 996.041 1007.94 1034.1 1037.18C1050.35 1049.66 1064.61 1064.8 1078.42 1079.44C1094.25 1096.25 1110.64 1113.61 1129.83 1126.7C1188.32 1166.55 1272.26 1202.75 1379.31 1234.31C1419.4 1246.12 1460.14 1250.51 1499.51 1254.77C1534.02 1258.49 1569.68 1262.34 1604.8 1271.17C1665.82 1286.46 1717.71 1305.67 1763.4 1329.86C1775.75 1336.4 1788.03 1343.52 1799.9 1350.41C1828.89 1367.21 1858.87 1384.61 1891.79 1394.57C1935.57 1407.79 1994.14 1405.75 2026.44 1371.38C2050.82 1345.39 2053.96 1308.54 2053.96 1279.35C2053.92 1180.75 2017.21 1076.11 1958.15 1006.23C1936.61 980.728 1903.64 959.071 1871.79 938.099C1852.99 925.735 1835.24 914.055 1819.7 901.672C1775.31 866.947 1733.17 827.947 1692.46 790.242C1667.87 767.475 1642.45 743.93 1616.85 721.644C1574.74 684.976 1508.7 635.999 1421.79 634.222C1404.35 633.907 1386.66 635.351 1369.52 636.795C1355.5 637.98 1340.97 639.183 1326.65 639.405C1325.74 639.405 1324.87 639.405 1323.95 639.405L1324.01 639.405Z" fill="#F08100" fill-opacity="0.09"/>
<path d="M403.31 1043.84C442.78 1105.25 493.58 1121.7 578.711 1100.67C620.144 1090.43 651.462 1093.77 691.094 1098C699.631 1098.9 708.513 1099.84 717.94 1100.71C774.263 1105.82 831.273 1106.05 887.414 1101.38C968.884 1094.62 1026.32 1104.29 1092.35 1135.89C1136.74 1157.14 1179.18 1182.85 1220.27 1207.72C1240.58 1220.01 1261.58 1232.73 1282.58 1244.75C1358.69 1288.4 1425.98 1314.71 1494.32 1327.56C1571.88 1342.12 1616.53 1367.19 1630.84 1404.2C1643.52 1437.02 1622.89 1467.31 1601.06 1499.39C1583.09 1525.79 1564.5 1553.09 1564.72 1582.88C1565.05 1630.23 1609.92 1665.39 1649.51 1696.41C1661.61 1705.89 1673.04 1714.86 1682.77 1723.76C1695.64 1735.56 1707.27 1750.31 1718.5 1764.57C1742.53 1795.07 1767.4 1826.62 1807.65 1835.55C1852.95 1845.59 1903.71 1826.58 1928.19 1790.32C1935.9 1778.92 1941.04 1766.18 1945.99 1753.87C1949.23 1745.86 1952.57 1737.59 1956.57 1729.78C1974.82 1694.19 2001.3 1680.42 2031.99 1664.47C2041.93 1659.32 2052.18 1653.99 2062.77 1647.6C2095.98 1627.59 2120.1 1593.24 2141.4 1562.91L2237.66 1426.24L2237.66 1420.77L2138.65 1561.34C2117.53 1591.41 2093.6 1625.49 2060.96 1645.14C2050.47 1651.46 2040.25 1656.77 2030.38 1661.91C1999.2 1678.09 1972.29 1692.09 1953.6 1728.52C1949.53 1736.44 1946.18 1744.79 1942.92 1752.85C1938 1765.04 1932.92 1777.63 1925.4 1788.77C1905.9 1817.66 1869.28 1835.27 1832.44 1835.27C1824.39 1835.27 1816.29 1834.42 1808.38 1832.67C1769.3 1823.99 1744.8 1792.91 1721.11 1762.86C1709.78 1748.5 1698.08 1733.64 1685.04 1721.69C1675.22 1712.69 1663.73 1703.7 1651.57 1694.17C1612.53 1663.57 1568.24 1628.86 1567.92 1582.86C1567.72 1553.92 1586.05 1526.99 1603.79 1500.94C1626.04 1468.25 1647.06 1437.37 1633.89 1403.2C1619.18 1365.14 1573.75 1339.42 1494.99 1324.64C1427.03 1311.88 1360.09 1285.69 1284.3 1242.24C1263.36 1230.24 1242.36 1217.52 1222.07 1205.25C1180.92 1180.34 1138.4 1154.59 1093.89 1133.27C1027.25 1101.36 969.349 1091.61 887.151 1098.42C831.213 1103.06 774.404 1102.85 718.284 1097.76C708.897 1096.91 700.036 1095.97 691.519 1095.06C651.543 1090.8 619.982 1087.44 577.902 1097.81C494.491 1118.41 444.702 1102.35 406.122 1042.32C367.461 982.148 352.551 904.306 365.236 828.753C389.27 685.621 485.103 506.217 645.109 428.061C702.484 400.04 760.87 396.201 822.675 392.158C839.346 391.069 856.602 389.925 873.94 388.3C984.866 377.853 1083.21 375.601 1174.61 381.452C1368.32 393.838 1535.04 447.591 1656.71 536.878C1704.15 571.692 1746.5 613.096 1787.44 653.115C1824.43 689.258 1862.68 726.637 1904.64 759.181C2005.19 837.134 2118.1 854.282 2237.66 865.875L2237.66 862.903C2118.74 851.366 2006.44 834.217 1906.72 756.929C1864.93 724.515 1826.73 687.19 1789.81 651.103C1748.78 610.991 1706.36 569.532 1658.74 534.57C1536.54 444.896 1369.21 390.922 1174.81 378.499C1141.82 376.394 1107.91 375.342 1072.83 375.342C1010.58 375.342 944.647 378.665 873.556 385.365C856.279 386.99 839.062 388.134 822.412 389.223C760.243 393.303 701.513 397.161 643.551 425.477C482.554 504.131 386.154 684.477 362.019 828.328C349.233 904.546 364.285 983.09 403.31 1043.84Z" fill="#F08100" fill-opacity="0.09"/>
<path d="M258.748 887.932C267.689 998.479 318.803 1089.69 406.574 1151.71C456.309 1186.84 495.602 1188.13 550.77 1178.24C568.369 1175.09 586.09 1170.9 603.242 1166.88C638.622 1158.53 675.158 1149.92 712.485 1149.92C714.269 1149.92 716.074 1149.94 717.837 1149.99C820.511 1152.32 923.549 1168.98 1024.11 1199.52C1187.98 1249.3 1340.04 1328.92 1487.1 1405.93C1510.94 1418.42 1531.46 1430.34 1540.87 1449.84C1555.81 1480.84 1535.82 1510.59 1514.65 1542.08C1497.48 1567.62 1479.74 1594.01 1480.28 1622.44C1480.81 1650.16 1498.65 1673.52 1515.91 1696.12C1526.92 1710.54 1538.31 1725.45 1545.31 1741.5C1553.64 1760.65 1555.79 1781.69 1557.88 1802.04C1559.32 1816.14 1560.82 1830.73 1564.34 1844.72C1580.14 1907.5 1624.62 1948.44 1689.58 1960.01C1776.22 1975.49 1881.33 1935.56 1934.04 1867.21C1944.87 1853.17 1954.13 1837.82 1963.12 1822.98C1977.75 1798.77 1992.9 1773.75 2014.88 1754.38C2036.39 1735.43 2063.72 1722.57 2090.14 1710.13C2113.98 1698.91 2138.64 1687.3 2159.26 1671.2C2196.1 1642.39 2217.37 1603.2 2237.66 1565L2237.66 1558.29C2237.15 1559.25 2236.61 1560.22 2236.1 1561.18C2215.54 1599.9 2194.29 1639.92 2157.13 1668.94C2136.79 1684.83 2112.32 1696.35 2088.64 1707.49C2062.02 1720.02 2034.48 1732.97 2012.63 1752.24C1990.28 1771.93 1975.02 1797.15 1960.28 1821.55C1951.34 1836.33 1942.09 1851.6 1931.36 1865.5C1879.36 1932.94 1775.71 1972.37 1690.19 1957.1C1626.57 1945.75 1582.98 1905.6 1567.49 1844.04C1564.02 1830.24 1562.52 1815.75 1561.08 1801.75C1558.97 1781.19 1556.78 1759.91 1548.29 1740.39C1541.15 1724.02 1529.65 1708.99 1518.54 1694.43C1500.78 1671.16 1484.01 1649.18 1483.49 1622.37C1482.96 1594.8 1500.46 1568.77 1517.39 1543.6C1539 1511.44 1559.42 1481.04 1543.81 1448.64C1533.99 1428.31 1513.03 1416.09 1488.68 1403.34C1341.48 1326.27 1189.27 1246.57 1025.09 1196.69C924.218 1166.04 820.855 1149.35 717.878 1147C678.139 1146.26 639.636 1155.21 602.371 1164C585.279 1168.02 567.599 1172.21 550.081 1175.33C495.926 1185.03 457.282 1183.78 408.52 1149.35C321.499 1087.86 270.811 997.372 261.931 887.692C250.273 743.376 313.673 582.712 423.422 478.401C518.513 388.04 658.776 328.033 829.047 304.875C849.565 302.071 871.158 299.672 893.278 297.697C1068.56 282.05 1254.34 272.953 1429.86 346.725C1517.51 383.575 1610.86 436.773 1715.27 509.401C1754.53 536.692 1787.35 571.77 1819.08 605.667C1849.92 638.623 1881.83 672.722 1919.99 700.235C1972.75 738.284 2055.94 783.363 2153.9 783.363C2154.9 783.363 2155.89 783.363 2156.91 783.363C2171.58 783.233 2186.47 782.071 2200.84 780.982C2212.93 780.041 2225.27 779.34 2237.64 778.989L2237.64 776.037C2225.17 776.406 2212.74 777.107 2200.58 778.048C2186.24 779.155 2171.44 780.281 2156.89 780.429C2155.89 780.429 2154.9 780.429 2153.92 780.429C2056.87 780.429 1974.37 735.682 1922.04 697.947C1884.12 670.6 1852.33 636.63 1821.57 603.766C1789.72 569.74 1756.8 534.551 1717.26 507.057C1612.66 434.318 1519.11 380.991 1431.26 344.05C1321.02 297.716 1206.91 283.914 1093.9 283.914C1026.18 283.914 958.828 288.877 892.994 294.745C870.834 296.719 849.16 299.137 828.601 301.941C657.6 325.21 516.688 385.512 421.111 476.353C310.733 581.236 247.008 742.786 258.727 887.913L258.748 887.932Z" fill="#F08100" fill-opacity="0.09"/>
<path d="M-577.076 105.742C-525.974 139.06 -473.171 173.561 -413.177 164.7C-374.289 158.984 -342.874 135.637 -312.472 113.05C-298.963 103.023 -284.987 92.6448 -270.546 83.9501C-166.559 21.3298 -15.0161 113.438 58.1634 177.723C160.509 267.667 201.727 375.408 168.429 465.925C150.868 513.653 108.921 549.209 68.3514 583.599C52.3301 597.196 35.7417 611.256 20.8548 625.889C-105.452 750.056 -128.056 928.779 -141.586 1116.42C-144.016 1149.85 -144.543 1181.87 -124.977 1206.32C-101.968 1235.04 -60.1831 1242.27 -19.3503 1247.23L221.596 1276.44C261.7 1281.3 303.526 1284.35 334.414 1263.88C392.24 1225.56 321.511 1135.97 283.534 1087.85C277.559 1080.27 272.394 1073.72 268.587 1068.5C264.678 1063.12 260.728 1057.74 256.799 1052.35C221.191 1003.7 184.389 953.383 163.851 897.441C130.755 807.257 164.357 724.139 208.188 632.604C264.475 515.096 364.512 418.141 462.138 328.882C570.945 229.448 777.56 200.737 931.737 194.188C1112.02 186.418 1290.99 219.754 1448.71 290.366C1611.09 362.588 1752.53 467.96 1869.46 561.548C1884.53 573.61 1899.51 586.855 1914 599.675C1943.77 626 1974.56 653.213 2009.17 673.137C2069.57 707.915 2131.51 720.717 2209.91 714.705C2219.09 714.002 2228.34 714.131 2237.66 714.834L2237.66 711.856C2228.28 711.153 2218.93 711.023 2209.63 711.763C2131.97 717.738 2070.66 705.048 2010.91 670.639C1976.56 650.863 1945.92 623.762 1916.24 597.548C1901.74 584.71 1886.71 571.445 1871.58 559.328C1754.49 465.629 1612.87 360.072 1450.13 287.721C1291.9 216.887 1112.43 183.532 931.575 191.247C776.831 197.832 569.365 226.71 459.849 326.81C361.98 416.254 261.72 513.45 205.19 631.439C161.096 723.547 127.292 807.22 160.752 898.384C181.411 954.715 218.356 1005.18 254.084 1054C258.034 1059.38 261.943 1064.77 265.872 1070.15C269.701 1075.44 274.886 1082.01 280.881 1089.61C318.21 1136.92 387.683 1224.94 332.489 1261.51C302.553 1281.34 261.498 1278.31 221.981 1273.53L-18.9453 1244.32C-59.0693 1239.46 -100.125 1232.37 -122.364 1204.6C-141.302 1180.94 -140.755 1149.49 -138.385 1116.64C-124.896 929.537 -102.373 751.37 23.2041 627.924C38.01 613.365 54.5581 599.342 70.5389 585.801C111.412 551.151 153.663 515.337 171.487 466.887C205.19 375.26 163.669 266.372 60.4117 175.614C38.2332 156.134 -21.2138 107.796 -94.6562 79.6582C-165.466 52.5196 -225.257 53.1301 -272.308 81.5081C-286.891 90.2952 -300.907 100.711 -314.498 110.793C-344.555 133.121 -375.666 156.227 -413.664 161.814C-472.401 170.397 -524.617 136.34 -575.172 103.374C-581.633 99.1565 -588.034 94.9757 -594.373 90.9429C-659.633 49.4489 -732.509 18.9064 -808.463 -7.90011e-06L-821 -9.43989e-06C-741.198 18.4993 -664.535 49.9297 -596.237 93.3662C-589.897 97.3991 -583.497 101.561 -577.036 105.779L-577.076 105.742Z" fill="#F08100" fill-opacity="0.09"/>
<path d="M456.644 61.8486C650.88 67.5137 848.024 69.8952 1042.52 69.1014C1153.95 68.6143 1266.9 67.0447 1378.27 64.4287C1473.41 62.1736 1574.64 62.4802 1673.74 92.0684C1705.49 101.54 1736.78 114.422 1767.06 126.889C1819.83 148.611 1874.42 171.073 1932.49 175.817L1939.52 176.395C2010.58 182.204 2071.96 187.22 2143.49 201.238C2148.94 202.302 2154.06 203.241 2158.93 204.143C2164.12 205.099 2168.9 206.001 2173.52 206.921L2173.52 203.962C2169.04 203.06 2164.46 202.194 2159.57 201.31C2154.73 200.426 2149.62 199.488 2144.19 198.424C2072.49 184.369 2011 179.354 1939.82 173.544L1932.8 172.967C1875.29 168.258 1820.94 145.904 1768.42 124.273C1738.08 111.788 1706.69 98.852 1674.77 89.3441C1575.17 59.5935 1473.65 59.3228 1378.19 61.5419C1266.84 64.1579 1153.91 65.7277 1042.54 66.2148C848.064 67.0627 650.981 64.609 456.765 58.962C381.226 56.7609 311.158 48.0648 246.238 33.6857L233.298 33.6857C301.792 49.8329 376.139 59.5032 456.664 61.8486L456.644 61.8486Z" fill="#F08100" fill-opacity="0.09"/>
<path d="M83.7102 200.746C98.3286 215.236 111.145 234.728 124.751 255.36C153.522 299.033 183.265 344.214 235.381 351.643C271.096 356.773 301.284 334.854 330.501 313.689C341.394 305.8 351.679 298.352 361.904 292.615C560.486 180.812 800.433 179.102 1008.98 192.121L1026.19 193.188C1173.5 202.29 1325.82 211.724 1455.75 288.386C1493.71 310.783 1532.87 332.886 1570.71 354.291C1659.11 404.234 1750.5 455.869 1834.18 515.191C1848.36 525.231 1862.65 535.639 1876.5 545.716C1933.98 587.55 1993.45 630.819 2060.44 660.829C2095.13 676.368 2133.43 688.596 2173.52 697.754L2173.52 694.719C2133.96 685.635 2096.14 673.536 2061.86 658.181C1995.17 628.318 1935.86 585.16 1878.52 543.418C1864.68 533.341 1850.36 522.933 1836.19 512.874C1752.41 453.461 1660.91 401.77 1572.43 351.79C1534.59 330.404 1495.45 308.301 1457.53 285.922C1326.9 208.837 1174.13 199.403 1026.41 190.264L1009.2 189.198C800.11 176.105 559.535 177.888 360.183 290.133C349.817 295.98 339.45 303.483 328.476 311.408C299.806 332.169 270.266 353.629 235.887 348.756C185.269 341.547 155.911 296.973 127.525 253.87C113.858 233.11 100.941 213.489 86.0794 198.778C19.406 132.708 -61.0556 87.3061 -137.771 46.4649C-146.174 41.9965 -154.981 37.712 -164.011 33.6849L-171.584 33.6849C-160.468 38.4292 -149.656 43.5595 -139.411 49.0025C-62.8979 89.715 17.3206 134.988 83.7102 200.764L83.7102 200.746Z" fill="#F08100" fill-opacity="0.09"/>
</svg>
