<svg width="1920" height="1964" viewBox="0 0 1920 1964" fill="none" xmlns="http://www.w3.org/2000/svg">
<path d="M832.992 654.445C845.446 654.445 857.637 655.806 868.613 658.051C918.693 668.353 963.325 693.87 1006.46 718.558C1050.42 743.725 1095.91 769.738 1146.92 779.323C1161.64 782.101 1176.95 783.499 1191.71 784.86C1209.21 786.461 1227.27 788.116 1244.67 792.053C1268.36 797.425 1298.39 811.388 1311.6 834.495C1319.66 848.624 1320.3 863.893 1313.46 879.898C1304.63 900.595 1286.08 912.46 1255.12 917.225C1166.7 930.894 1072.31 941.38 981.125 925.743C880.338 908.487 798.647 859.974 757.032 792.624C733.358 754.377 730.382 715.799 749.012 689.418C767.38 663.46 800.975 654.445 833.012 654.445L832.992 654.445ZM1078.83 930.6C1138.23 930.6 1197.63 923.131 1254.59 914.337C1284.32 909.756 1302.08 898.479 1310.46 878.849C1316.94 863.672 1316.35 849.212 1308.72 835.875C1296.02 813.633 1266.9 800.13 1243.88 794.923C1226.73 791.042 1208.76 789.404 1191.41 787.804C1176.54 786.442 1161.15 785.044 1146.25 782.229C1094.67 772.516 1048.94 746.356 1004.72 721.06C961.806 696.5 917.437 671.131 867.884 660.939C829.65 653.084 776.31 656.248 751.706 691.018C733.723 716.442 736.761 753.898 759.826 791.189C800.996 857.767 881.877 905.764 981.713 922.855C1013.79 928.337 1046.31 930.581 1078.81 930.581L1078.83 930.6Z" fill="#F08100" fill-opacity="0.1"/>
<path d="M803.974 615.948C846.805 615.948 889.473 621.247 931.082 631.734C973.323 642.388 1010.68 661.436 1046.78 679.853C1094.42 704.144 1139.41 727.101 1195.22 732.956C1208.17 734.309 1221.8 734.124 1236.15 733.846C1263.18 733.457 1290.96 732.975 1313.81 743.703C1372.79 771.403 1421.65 817.003 1468.92 861.101C1489.13 879.945 1510.02 899.437 1530.98 916.743L1531.75 917.391C1565.81 945.48 1592.69 967.678 1612.61 1008.16C1624.26 1031.82 1658.35 1111.85 1608.54 1148.91C1561.37 1183.98 1497.44 1182.33 1453.47 1178.05C1447.05 1177.42 1440.55 1176.7 1434.02 1175.98C1402.49 1172.48 1369.84 1168.86 1339.29 1175.59C1330.02 1177.65 1320.57 1179.89 1311.47 1182.07C1285.79 1188.22 1259.25 1194.58 1232.08 1197.27C1183.2 1202.05 1137.36 1187.8 1092.94 1174.01L1086.44 1171.99C1034.12 1155.8 982.834 1128.88 934.036 1091.99C847.009 1026.21 781.693 940.496 718.537 857.617C668.74 792.267 608.577 699.104 660.858 644.575C684.28 620.154 737.274 618.134 772.345 616.819C775.482 616.689 778.455 616.578 781.266 616.448C788.842 616.114 796.418 615.948 803.995 615.948L803.974 615.948ZM1220.43 736.977C1211.71 736.977 1203.06 736.755 1194.85 735.884C1138.41 729.973 1091.02 705.812 1045.22 682.429C1009.27 664.104 972.101 645.13 930.247 634.588C881.571 622.322 831.49 617.208 781.429 619.412C778.618 619.542 775.624 619.635 772.488 619.765C737.966 621.08 685.807 623.044 663.302 646.52C612.508 699.475 672.019 791.396 721.205 855.913C784.239 938.625 849.433 1024.15 936.113 1089.69C984.626 1126.36 1035.56 1153.09 1087.5 1169.18L1093.99 1171.2C1138.11 1184.91 1183.65 1199.06 1231.73 1194.32C1258.66 1191.65 1285.09 1185.33 1310.65 1179.2C1319.78 1177.01 1329.23 1174.75 1338.56 1172.7C1369.68 1165.84 1402.61 1169.49 1434.44 1173.03C1440.96 1173.75 1447.44 1174.48 1453.83 1175.11C1497.21 1179.33 1560.27 1181 1606.48 1146.61C1654.5 1110.9 1621.06 1032.55 1609.66 1009.39C1590.02 969.457 1563.36 947.445 1529.6 919.596L1528.82 918.966C1507.78 901.605 1486.87 882.075 1466.62 863.195C1419.55 819.282 1370.88 773.868 1312.37 746.371C1290.23 735.977 1262.77 736.403 1236.26 736.847C1231.02 736.94 1225.73 737.014 1220.45 737.014L1220.43 736.977Z" fill="#F08100" fill-opacity="0.1"/>
<path d="M-118.425 56.543C-22.4451 105.554 67.8366 128.204 150.662 124.008C167.655 123.127 184.083 121.591 199.985 120.13C224.496 117.863 247.672 115.689 272.849 115.689C273.476 115.689 274.102 115.689 274.728 115.689C303.26 115.821 332.357 114.921 360.464 114.06C386.328 113.273 413.101 112.467 439.409 112.43L557.657 112.28C638.946 112.167 720.277 112.055 801.566 112.055C837.695 112.017 875.562 110.706 912.175 109.432C1050.43 104.655 1193.28 99.7086 1316.38 156.157C1345.58 169.553 1370.45 189.861 1394.5 209.514C1418.91 229.448 1444.15 250.057 1474.01 263.583C1536.45 291.817 1598.97 296.838 1665.18 302.178C1676.03 303.039 1687.03 303.939 1698.2 304.932C1718.63 306.749 1739.12 307.311 1758.94 307.854C1816.26 309.428 1870.4 310.927 1920.83 340.809C1928.91 345.605 1936.35 350.776 1943.52 356.097L1943.52 352.2C1936.88 347.366 1929.99 342.664 1922.57 338.261C1871.39 307.948 1816.81 306.449 1759.04 304.838C1739.26 304.295 1718.83 303.733 1698.52 301.915C1687.33 300.922 1676.34 300.042 1665.47 299.161C1599.55 293.859 1537.34 288.857 1475.43 260.867C1445.94 247.528 1420.89 227.05 1396.62 207.247C1372.41 187.482 1347.38 167.023 1317.78 153.459C1193.97 96.6549 1050.65 101.638 912.034 106.434C875.461 107.708 837.614 109.02 801.546 109.039C720.256 109.039 638.926 109.151 557.636 109.263L439.389 109.413C413.02 109.451 386.247 110.256 360.342 111.043C333.973 111.849 306.776 112.673 279.942 112.673C277.537 112.673 275.153 112.673 272.849 112.673C247.511 112.673 224.253 114.828 199.642 117.132C183.78 118.612 167.372 120.13 150.46 121.01C68.4628 125.151 -21.4348 102.65 -116.889 53.9203C-129.619 47.4193 -142.248 40.6184 -154.776 33.6864L-161.06 33.6864C-146.976 41.5551 -132.771 49.2364 -118.445 56.543L-118.425 56.543Z" fill="#F08100" fill-opacity="0.1"/>
<path d="M731.615 553.389C801.218 553.389 866.48 571.714 916.831 588.317C930.22 592.741 943.67 597.702 957.931 602.977C1002.5 619.433 1048.57 636.462 1094.03 636.462C1094.91 636.462 1095.78 636.462 1096.65 636.443C1110.87 636.24 1125.32 635.018 1139.29 633.852C1156.5 632.408 1174.25 630.89 1191.94 631.279C1279.96 633.093 1346.66 682.514 1389.18 719.534C1414.81 741.857 1440.24 765.42 1464.85 788.187C1505.53 825.855 1547.6 864.818 1591.91 899.469C1607.34 911.778 1625.06 923.421 1643.78 935.73C1675.83 956.813 1708.96 978.617 1730.81 1004.46C1790.29 1074.81 1827.25 1180.17 1827.27 1279.38C1827.27 1309.09 1824.05 1346.61 1798.97 1373.34C1765.68 1408.79 1705.57 1410.99 1660.84 1397.42C1627.53 1387.35 1597.38 1369.86 1568.21 1352.94C1556.36 1346.08 1544.11 1338.97 1531.84 1332.45C1486.38 1308.39 1434.75 1289.29 1374.01 1274.05C1339.12 1265.3 1303.57 1261.47 1269.21 1257.77C1229.67 1253.51 1188.77 1249.08 1148.4 1237.18C1040.98 1205.53 956.734 1169.18 897.964 1129.12C878.489 1115.85 861.976 1098.36 846.01 1081.42C832.276 1066.87 818.096 1051.82 802.07 1039.51C764.256 1010.45 722.364 986.854 677.551 969.362C670.288 966.53 662.782 963.791 655.499 961.125C626.571 950.556 596.668 939.617 573.46 920.181C535.951 888.752 525.037 842.699 519.742 806.068C518.18 795.295 515.806 784.337 513.311 772.732C506.738 742.357 499.922 710.964 508.219 682.255C529.926 607.105 603.099 560.386 708.954 554.092C716.562 553.63 724.129 553.426 731.635 553.426L731.615 553.389ZM1094.01 639.405C1047.92 639.405 1001.59 622.283 956.714 605.717C942.493 600.46 929.084 595.499 915.735 591.112C860.211 572.806 786.49 552.408 709.157 556.999C659.78 559.942 541.611 578.1 511.323 682.959C503.208 711.02 509.943 742.079 516.435 772.102C518.971 783.745 521.344 794.74 522.927 805.624C528.161 841.755 538.892 887.178 575.611 917.942C598.393 937.007 628.011 947.854 656.656 958.33C663.938 960.996 671.465 963.754 678.768 966.586C723.865 984.189 766.041 1007.94 804.098 1037.18C820.348 1049.66 834.609 1064.8 848.424 1079.44C864.248 1096.25 880.64 1113.61 899.831 1126.7C958.317 1166.55 1042.26 1202.75 1149.31 1234.31C1189.4 1246.12 1230.14 1250.51 1269.51 1254.77C1304.02 1258.49 1339.68 1262.34 1374.8 1271.17C1435.82 1286.46 1487.71 1305.67 1533.4 1329.86C1545.75 1336.4 1558.03 1343.52 1569.9 1350.41C1598.89 1367.21 1628.87 1384.61 1661.79 1394.57C1705.57 1407.79 1764.14 1405.75 1796.44 1371.38C1820.82 1345.39 1823.96 1308.54 1823.96 1279.35C1823.92 1180.75 1787.21 1076.11 1728.15 1006.23C1706.61 980.727 1673.64 959.071 1641.79 938.099C1622.99 925.735 1605.24 914.055 1589.7 901.672C1545.31 866.947 1503.17 827.947 1462.46 790.242C1437.87 767.475 1412.45 743.93 1386.85 721.644C1344.74 684.976 1278.7 635.999 1191.79 634.222C1174.35 633.907 1156.66 635.351 1139.52 636.795C1125.5 637.98 1110.97 639.183 1096.65 639.405C1095.74 639.405 1094.87 639.405 1093.95 639.405L1094.01 639.405Z" fill="#F08100" fill-opacity="0.1"/>
<path d="M173.31 1043.84C212.78 1105.25 263.58 1121.7 348.711 1100.67C390.144 1090.43 421.462 1093.77 461.094 1098C469.631 1098.9 478.513 1099.84 487.94 1100.71C544.263 1105.82 601.273 1106.05 657.414 1101.38C738.884 1094.62 796.319 1104.29 862.352 1135.89C906.739 1157.14 949.183 1182.85 990.272 1207.72C1010.58 1220.01 1031.58 1232.73 1052.58 1244.75C1128.69 1288.4 1195.98 1314.71 1264.32 1327.56C1341.88 1342.12 1386.53 1367.19 1400.84 1404.2C1413.52 1437.02 1392.89 1467.31 1371.06 1499.39C1353.09 1525.79 1334.5 1553.09 1334.72 1582.88C1335.05 1630.23 1379.92 1665.39 1419.51 1696.41C1431.61 1705.89 1443.04 1714.86 1452.77 1723.76C1465.64 1735.56 1477.27 1750.31 1488.5 1764.57C1512.53 1795.07 1537.4 1826.62 1577.65 1835.55C1622.95 1845.59 1673.71 1826.58 1698.19 1790.33C1705.9 1778.92 1711.04 1766.18 1715.99 1753.87C1719.23 1745.86 1722.57 1737.59 1726.57 1729.78C1744.82 1694.19 1771.3 1680.42 1801.99 1664.47C1811.93 1659.32 1822.18 1653.99 1832.77 1647.6C1865.98 1627.59 1890.1 1593.24 1911.4 1562.91L2007.66 1426.24L2007.66 1420.77L1908.65 1561.34C1887.53 1591.41 1863.6 1625.49 1830.96 1645.14C1820.47 1651.46 1810.25 1656.77 1800.38 1661.91C1769.2 1678.09 1742.29 1692.09 1723.6 1728.52C1719.53 1736.44 1716.18 1744.79 1712.92 1752.85C1708 1765.04 1702.92 1777.63 1695.4 1788.77C1675.9 1817.66 1639.28 1835.27 1602.44 1835.27C1594.39 1835.27 1586.29 1834.42 1578.38 1832.67C1539.3 1823.99 1514.8 1792.91 1491.11 1762.86C1479.78 1748.5 1468.08 1733.64 1455.04 1721.69C1445.22 1712.69 1433.73 1703.7 1421.57 1694.17C1382.53 1663.57 1338.24 1628.86 1337.92 1582.86C1337.72 1553.92 1356.05 1526.99 1373.79 1500.94C1396.04 1468.25 1417.06 1437.37 1403.89 1403.2C1389.18 1365.14 1343.75 1339.42 1264.99 1324.64C1197.03 1311.88 1130.09 1285.69 1054.3 1242.24C1033.36 1230.24 1012.36 1217.52 992.073 1205.25C950.923 1180.34 908.398 1154.59 863.89 1133.27C797.25 1101.36 739.349 1091.61 657.151 1098.42C601.213 1103.06 544.404 1102.85 488.284 1097.76C478.897 1096.91 470.036 1095.97 461.519 1095.06C421.543 1090.8 389.982 1087.44 347.902 1097.81C264.491 1118.41 214.702 1102.35 176.122 1042.33C137.461 982.148 122.551 904.306 135.236 828.753C159.27 685.621 255.103 506.217 415.109 428.061C472.484 400.04 530.87 396.201 592.675 392.158C609.346 391.069 626.602 389.925 643.94 388.3C754.866 377.853 853.208 375.601 944.611 381.452C1138.32 393.838 1305.04 447.591 1426.71 536.878C1474.15 571.692 1516.5 613.096 1557.44 653.115C1594.43 689.258 1632.68 726.638 1674.64 759.181C1775.19 837.134 1888.1 854.282 2007.66 865.875L2007.66 862.903C1888.74 851.366 1776.44 834.217 1676.72 756.929C1634.93 724.515 1596.73 687.19 1559.81 651.103C1518.78 610.991 1476.36 569.532 1428.74 534.57C1306.54 444.896 1139.21 390.922 944.814 378.499C911.817 376.395 877.91 375.342 842.83 375.342C780.579 375.342 714.647 378.665 643.556 385.366C626.279 386.99 609.062 388.134 592.412 389.223C530.243 393.303 471.513 397.161 413.551 425.477C252.554 504.131 156.154 684.477 132.019 828.329C119.233 904.546 134.285 983.09 173.31 1043.84Z" fill="#F08100" fill-opacity="0.1"/>
<path d="M28.7477 887.932C37.689 998.479 88.8025 1089.69 176.574 1151.71C226.309 1186.84 265.602 1188.13 320.77 1178.24C338.369 1175.09 356.09 1170.9 373.242 1166.88C408.622 1158.53 445.158 1149.92 482.485 1149.92C484.269 1149.92 486.074 1149.94 487.837 1149.99C590.511 1152.32 693.549 1168.98 794.114 1199.52C957.977 1249.3 1110.04 1328.92 1257.1 1405.93C1280.94 1418.42 1301.46 1430.34 1310.87 1449.84C1325.81 1480.84 1305.82 1510.59 1284.65 1542.08C1267.48 1567.62 1249.74 1594.01 1250.28 1622.44C1250.81 1650.16 1268.65 1673.52 1285.91 1696.12C1296.92 1710.54 1308.31 1725.45 1315.31 1741.5C1323.64 1760.65 1325.79 1781.69 1327.88 1802.04C1329.32 1816.14 1330.82 1830.73 1334.34 1844.72C1350.14 1907.5 1394.62 1948.44 1459.58 1960.01C1546.22 1975.49 1651.33 1935.56 1704.04 1867.21C1714.87 1853.17 1724.13 1837.82 1733.12 1822.98C1747.75 1798.78 1762.9 1773.75 1784.88 1754.38C1806.39 1735.43 1833.72 1722.57 1860.14 1710.13C1883.98 1698.91 1908.64 1687.3 1929.26 1671.2C1966.1 1642.39 1987.37 1603.2 2007.66 1565L2007.66 1558.29C2007.15 1559.25 2006.61 1560.22 2006.1 1561.18C1985.54 1599.9 1964.29 1639.92 1927.13 1668.94C1906.79 1684.83 1882.32 1696.35 1858.64 1707.49C1832.02 1720.02 1804.48 1732.97 1782.63 1752.24C1760.28 1771.93 1745.02 1797.15 1730.28 1821.55C1721.34 1836.33 1712.09 1851.6 1701.36 1865.5C1649.36 1932.94 1545.71 1972.37 1460.19 1957.1C1396.57 1945.75 1352.98 1905.6 1337.49 1844.04C1334.02 1830.24 1332.52 1815.75 1331.08 1801.75C1328.97 1781.19 1326.78 1759.91 1318.29 1740.39C1311.15 1724.02 1299.65 1708.99 1288.54 1694.43C1270.78 1671.16 1254.01 1649.18 1253.49 1622.37C1252.96 1594.8 1270.46 1568.77 1287.39 1543.6C1309 1511.44 1329.42 1481.04 1313.81 1448.64C1303.99 1428.31 1283.03 1416.09 1258.68 1403.34C1111.48 1326.27 959.275 1246.57 795.087 1196.69C694.218 1166.05 590.855 1149.35 487.878 1147C448.139 1146.26 409.636 1155.21 372.371 1164C355.279 1168.02 337.599 1172.21 320.081 1175.33C265.926 1185.03 227.282 1183.78 178.52 1149.35C91.4992 1087.86 40.8114 997.372 31.931 887.692C20.2728 743.376 83.673 582.712 193.422 478.401C288.513 388.04 428.776 328.033 599.047 304.875C619.565 302.071 641.158 299.672 663.278 297.697C838.557 282.05 1024.34 272.953 1199.86 346.725C1287.51 383.575 1380.86 436.773 1485.27 509.401C1524.53 536.692 1557.35 571.77 1589.08 605.667C1619.92 638.623 1651.83 672.722 1689.99 700.235C1742.75 738.284 1825.94 783.363 1923.9 783.363C1924.9 783.363 1925.89 783.363 1926.91 783.363C1941.58 783.234 1956.47 782.071 1970.84 780.982C1982.93 780.041 1995.27 779.34 2007.64 778.989L2007.64 776.037C1995.17 776.406 1982.74 777.107 1970.58 778.048C1956.24 779.156 1941.44 780.281 1926.89 780.429C1925.89 780.429 1924.9 780.429 1923.92 780.429C1826.87 780.429 1744.37 735.682 1692.04 697.947C1654.12 670.601 1622.33 636.63 1591.57 603.766C1559.72 569.74 1526.8 534.551 1487.26 507.058C1382.66 434.318 1289.11 380.991 1201.26 344.05C1091.02 297.716 976.914 283.914 863.901 283.914C796.182 283.914 728.828 288.877 662.994 294.745C640.834 296.72 619.16 299.137 598.601 301.942C427.6 325.21 286.688 385.512 191.111 476.353C80.7331 581.236 17.0084 742.786 28.7275 887.913L28.7477 887.932Z" fill="#F08100" fill-opacity="0.1"/>
<path d="M-807.076 105.742C-755.974 139.06 -703.171 173.561 -643.177 164.7C-604.289 158.984 -572.874 135.637 -542.472 113.05C-528.963 103.023 -514.987 92.645 -500.546 83.9503C-396.559 21.3299 -245.016 113.438 -171.837 177.723C-69.4912 267.667 -28.2732 375.408 -61.5715 465.925C-79.132 513.653 -121.079 549.209 -161.649 583.599C-177.67 597.196 -194.258 611.256 -209.145 625.889C-335.452 750.057 -358.056 928.779 -371.586 1116.42C-374.016 1149.85 -374.543 1181.87 -354.977 1206.32C-331.968 1235.04 -290.183 1242.27 -249.35 1247.23L-8.40369 1276.44C31.7001 1281.3 73.5255 1284.36 104.414 1263.88C162.24 1225.56 91.5114 1135.97 53.5343 1087.85C47.5592 1080.27 42.3944 1073.72 38.5867 1068.5C34.6775 1063.12 30.7279 1057.74 26.7986 1052.35C-8.8087 1003.7 -45.6111 953.383 -66.1489 897.441C-99.2449 807.257 -65.6426 724.139 -21.8121 632.604C34.475 515.096 134.512 418.141 232.138 328.882C340.945 229.448 547.56 200.737 701.737 194.188C882.021 186.418 1060.99 219.754 1218.71 290.366C1381.09 362.588 1522.53 467.96 1639.46 561.548C1654.53 573.61 1669.51 586.856 1684 599.676C1713.77 626 1744.56 653.213 1779.17 673.137C1839.57 707.915 1901.51 720.717 1979.91 714.705C1989.09 714.002 1998.34 714.131 2007.66 714.834L2007.66 711.856C1998.28 711.153 1988.93 711.023 1979.63 711.763C1901.97 717.739 1840.66 705.048 1780.91 670.639C1746.56 650.863 1715.92 623.762 1686.24 597.548C1671.74 584.71 1656.71 571.446 1641.58 559.329C1524.49 465.629 1382.87 360.072 1220.13 287.721C1061.9 216.887 882.426 183.532 701.575 191.247C546.831 197.832 339.365 226.71 229.849 326.81C131.98 416.254 31.7204 513.45 -24.8098 631.439C-68.9038 723.547 -102.708 807.22 -69.248 898.385C-48.5886 954.715 -11.6444 1005.18 24.0844 1054C28.0341 1059.38 31.9431 1064.77 35.8724 1070.15C39.7006 1075.44 44.8856 1082.01 50.881 1089.61C88.2098 1136.92 157.683 1224.94 102.489 1261.51C72.5532 1281.34 31.4976 1278.31 -8.0188 1273.53L-248.945 1244.32C-289.069 1239.46 -330.125 1232.37 -352.364 1204.6C-371.302 1180.94 -370.755 1149.49 -368.385 1116.64C-354.896 929.537 -332.373 751.37 -206.796 627.924C-191.99 613.365 -175.442 599.342 -159.461 585.801C-118.588 551.152 -76.3369 515.337 -58.5131 466.887C-24.8097 375.26 -66.3313 266.372 -169.588 175.614C-191.767 156.135 -251.214 107.796 -324.656 79.6583C-395.466 52.5197 -455.257 53.1302 -502.308 81.5082C-516.891 90.2953 -530.907 100.711 -544.498 110.793C-574.555 133.122 -605.666 156.227 -643.664 161.814C-702.401 170.398 -754.617 136.34 -805.172 103.375C-811.633 99.1566 -818.034 94.9758 -824.373 90.943C-889.633 49.449 -962.509 18.9065 -1038.46 0.00011417L-1051 0.00011263C-971.198 18.4994 -894.535 49.9298 -826.237 93.3664C-819.897 97.3992 -813.497 101.561 -807.036 105.779L-807.076 105.742Z" fill="#F08100" fill-opacity="0.1"/>
<path d="M226.644 61.8488C420.88 67.5139 618.024 69.8955 812.523 69.1017C923.953 68.6145 1036.9 67.045 1148.27 64.429C1243.41 62.1738 1344.64 62.4804 1443.74 92.0686C1475.49 101.54 1506.78 114.422 1537.06 126.889C1589.83 148.611 1644.42 171.073 1702.49 175.818L1709.52 176.395C1780.58 182.204 1841.96 187.22 1913.49 201.238C1918.94 202.303 1924.06 203.241 1928.93 204.143C1934.12 205.099 1938.9 206.001 1943.52 206.921L1943.52 203.963C1939.04 203.06 1934.46 202.195 1929.57 201.31C1924.73 200.426 1919.62 199.488 1914.19 198.424C1842.49 184.369 1781 179.354 1709.82 173.544L1702.8 172.967C1645.29 168.258 1590.94 145.905 1538.42 124.273C1508.08 111.788 1476.69 98.8522 1444.77 89.3443C1345.17 59.5938 1243.65 59.323 1148.19 61.5422C1036.84 64.1582 923.913 65.7279 812.543 66.215C618.064 67.063 420.981 64.6093 226.765 58.9622C151.226 56.7611 81.1583 48.0651 16.2379 33.6859L3.29823 33.6859C71.7916 49.8331 146.139 59.5034 226.664 61.8488L226.644 61.8488Z" fill="#F08100" fill-opacity="0.1"/>
<path d="M-146.29 200.745C-131.671 215.236 -118.855 234.728 -105.249 255.36C-76.478 299.033 -46.7352 344.214 5.38063 351.643C41.0963 356.773 71.2844 334.854 100.501 313.688C111.394 305.8 121.679 298.352 131.904 292.615C330.486 180.812 570.433 179.102 778.978 192.121L796.188 193.188C943.505 202.29 1095.82 211.724 1225.75 288.386C1263.71 310.783 1302.87 332.886 1340.71 354.291C1429.11 404.234 1520.5 455.869 1604.18 515.191C1618.36 525.231 1632.65 535.639 1646.5 545.716C1703.98 587.55 1763.45 630.819 1830.44 660.829C1865.13 676.367 1903.43 688.596 1943.52 697.753L1943.52 694.719C1903.96 685.635 1866.14 673.536 1831.86 658.181C1765.17 628.318 1705.86 585.16 1648.52 543.418C1634.68 533.341 1620.36 522.933 1606.19 512.874C1522.41 453.46 1430.91 401.77 1342.43 351.79C1304.59 330.404 1265.45 308.301 1227.53 285.922C1096.9 208.837 944.132 199.403 796.41 190.264L779.2 189.197C570.11 176.105 329.535 177.888 130.183 290.132C119.817 295.98 109.45 303.483 98.4762 311.408C69.8064 332.169 40.2661 353.628 5.88673 348.755C-44.7307 341.547 -74.0888 296.973 -102.475 253.87C-116.142 233.109 -129.059 213.489 -143.921 198.778C-210.594 132.708 -291.056 87.3059 -367.771 46.4648C-376.174 41.9964 -384.981 37.7119 -394.011 33.6848L-401.584 33.6848C-390.468 38.429 -379.656 43.5594 -369.411 49.0024C-292.898 89.7149 -212.679 134.988 -146.29 200.764L-146.29 200.745Z" fill="#F08100" fill-opacity="0.1"/>
</svg>
