<svg width="3059" height="1964" viewBox="0 0 3059 1964" fill="none" xmlns="http://www.w3.org/2000/svg">
<path d="M1883.99 654.445C1896.45 654.445 1908.64 655.806 1919.61 658.051C1969.69 668.353 2014.33 693.869 2057.46 718.558C2101.42 743.725 2146.91 769.738 2197.92 779.323C2212.64 782.1 2227.95 783.499 2242.71 784.86C2260.21 786.46 2278.27 788.116 2295.67 792.053C2319.36 797.425 2349.39 811.388 2362.6 834.495C2370.66 848.623 2371.3 863.893 2364.46 879.898C2355.63 900.594 2337.08 912.46 2306.12 917.225C2217.7 930.894 2123.31 941.38 2032.13 925.743C1931.34 908.486 1849.65 859.974 1808.03 792.623C1784.36 754.376 1781.38 715.798 1800.01 689.417C1818.38 663.459 1851.98 654.445 1884.01 654.445L1883.99 654.445ZM2129.84 930.599C2189.23 930.599 2248.63 923.13 2305.59 914.337C2335.32 909.756 2353.08 898.479 2361.46 878.849C2367.94 863.672 2367.36 849.212 2359.72 835.874C2347.02 813.633 2317.9 800.129 2294.88 794.923C2277.73 791.041 2259.76 789.404 2242.41 787.803C2227.54 786.442 2212.15 785.044 2197.25 782.229C2145.67 772.516 2099.95 746.355 2055.72 721.06C2012.81 696.5 1968.44 671.131 1918.88 660.939C1880.65 653.084 1827.31 656.248 1802.71 691.018C1784.72 716.442 1787.76 753.898 1810.83 791.188C1852 857.766 1932.88 905.764 2032.71 922.854C2064.79 928.337 2097.31 930.581 2129.82 930.581L2129.84 930.599Z" fill="#F08100"/>
<path d="M1854.97 615.948C1897.81 615.948 1940.47 621.247 1982.08 631.734C2024.32 642.388 2061.68 661.436 2097.79 679.853C2145.42 704.144 2190.41 727.101 2246.22 732.956C2259.17 734.309 2272.8 734.124 2287.15 733.846C2314.18 733.457 2341.96 732.975 2364.81 743.703C2423.79 771.403 2472.65 817.003 2519.92 861.101C2540.13 879.945 2561.02 899.437 2581.98 916.743L2582.75 917.391C2616.81 945.481 2643.69 967.678 2663.61 1008.16C2675.26 1031.82 2709.35 1111.85 2659.54 1148.91C2612.37 1183.98 2548.44 1182.33 2504.47 1178.05C2498.05 1177.42 2491.55 1176.7 2485.02 1175.98C2453.49 1172.48 2420.84 1168.86 2390.29 1175.59C2381.02 1177.65 2371.57 1179.89 2362.47 1182.07C2336.79 1188.22 2310.25 1194.58 2283.08 1197.27C2234.2 1202.05 2188.36 1187.8 2143.94 1174.01L2137.44 1171.99C2085.12 1155.8 2033.83 1128.88 1985.04 1091.99C1898.01 1026.21 1832.69 940.496 1769.54 857.617C1719.74 792.267 1659.58 699.104 1711.86 644.575C1735.28 620.154 1788.27 618.134 1823.35 616.819C1826.48 616.689 1829.46 616.578 1832.27 616.448C1839.84 616.114 1847.42 615.948 1855 615.948L1854.97 615.948ZM2271.43 736.977C2262.71 736.977 2254.06 736.755 2245.85 735.884C2189.41 729.973 2142.02 705.812 2096.22 682.429C2060.27 664.104 2023.1 645.13 1981.25 634.588C1932.57 622.322 1882.49 617.208 1832.43 619.413C1829.62 619.542 1826.62 619.635 1823.49 619.765C1788.97 621.08 1736.81 623.044 1714.3 646.52C1663.51 699.475 1723.02 791.396 1772.21 855.913C1835.24 938.625 1900.43 1024.15 1987.11 1089.69C2035.63 1126.36 2086.56 1153.09 2138.5 1169.18L2145 1171.2C2189.11 1184.91 2234.65 1199.06 2282.73 1194.32C2309.66 1191.65 2336.09 1185.33 2361.66 1179.2C2370.78 1177.01 2380.23 1174.75 2389.56 1172.7C2420.68 1165.84 2453.61 1169.49 2485.44 1173.03C2491.96 1173.75 2498.44 1174.48 2504.83 1175.11C2548.21 1179.33 2611.27 1181 2657.48 1146.61C2705.5 1110.9 2672.06 1032.55 2660.66 1009.39C2641.02 969.457 2614.36 947.445 2580.6 919.596L2579.82 918.966C2558.78 901.605 2537.87 882.075 2517.62 863.195C2470.56 819.282 2421.88 773.868 2363.37 746.371C2341.23 735.977 2313.77 736.403 2287.26 736.847C2282.02 736.94 2276.73 737.014 2271.45 737.014L2271.43 736.977Z" fill="#F08100"/>
<path d="M932.576 56.5428C1028.56 105.553 1118.84 128.204 1201.66 124.007C1218.66 123.127 1235.08 121.591 1250.99 120.129C1275.5 117.863 1298.67 115.689 1323.85 115.689C1324.48 115.689 1325.1 115.689 1325.73 115.689C1354.26 115.82 1383.36 114.921 1411.46 114.059C1437.33 113.272 1464.1 112.467 1490.41 112.429L1608.66 112.279C1689.95 112.167 1771.28 112.055 1852.57 112.055C1888.7 112.017 1926.56 110.706 1963.18 109.432C2101.43 104.655 2244.29 99.7084 2367.38 156.157C2396.58 169.552 2421.45 189.861 2445.5 209.514C2469.91 229.448 2495.15 250.056 2525.01 263.583C2587.45 291.817 2649.97 296.838 2716.18 302.177C2727.03 303.039 2738.03 303.938 2749.2 304.931C2769.63 306.749 2790.12 307.311 2809.94 307.854C2867.26 309.428 2921.4 310.927 2971.83 340.809C2979.91 345.605 2987.35 350.776 2994.52 356.096L2994.52 352.2C2987.88 347.366 2980.99 342.663 2973.57 338.261C2922.39 307.948 2867.81 306.449 2810.04 304.838C2790.26 304.294 2769.83 303.732 2749.52 301.915C2738.33 300.922 2727.34 300.041 2716.47 299.161C2650.55 293.859 2588.34 288.857 2526.43 260.867C2496.94 247.527 2471.89 227.05 2447.62 207.247C2423.41 187.482 2398.38 167.023 2368.78 153.459C2244.97 96.6547 2101.65 101.638 1963.03 106.434C1926.46 107.708 1888.61 109.02 1852.55 109.038C1771.26 109.038 1689.93 109.151 1608.64 109.263L1490.39 109.413C1464.02 109.451 1437.25 110.256 1411.34 111.043C1384.97 111.849 1357.78 112.673 1330.94 112.673C1328.54 112.673 1326.15 112.673 1323.85 112.673C1298.51 112.673 1275.25 114.827 1250.64 117.132C1234.78 118.612 1218.37 120.129 1201.46 121.01C1119.46 125.15 1029.57 102.65 934.111 53.9201C921.381 47.4191 908.753 40.6182 896.225 33.6862L889.941 33.6862C904.024 41.5549 918.229 49.2362 932.555 56.5428L932.576 56.5428Z" fill="#F08100"/>
<path d="M1782.62 553.389C1852.22 553.389 1917.48 571.714 1967.83 588.317C1981.22 592.741 1994.67 597.702 2008.93 602.977C2053.5 619.433 2099.57 636.462 2145.03 636.462C2145.91 636.462 2146.78 636.462 2147.65 636.443C2161.87 636.24 2176.32 635.018 2190.29 633.852C2207.5 632.408 2225.25 630.89 2242.94 631.279C2330.96 633.093 2397.66 682.514 2440.18 719.534C2465.81 741.857 2491.24 765.42 2515.85 788.187C2556.53 825.855 2598.6 864.818 2642.91 899.469C2658.35 911.778 2676.06 923.421 2694.78 935.73C2726.83 956.813 2759.96 978.617 2781.81 1004.46C2841.29 1074.81 2878.25 1180.17 2878.27 1279.38C2878.27 1309.09 2875.05 1346.61 2849.97 1373.34C2816.68 1408.79 2756.57 1410.99 2711.84 1397.42C2678.53 1387.35 2648.38 1369.86 2619.21 1352.94C2607.37 1346.08 2595.11 1338.97 2582.84 1332.45C2537.38 1308.39 2485.75 1289.29 2425.01 1274.05C2390.12 1265.3 2354.57 1261.47 2320.21 1257.77C2280.67 1253.51 2239.77 1249.08 2199.4 1237.18C2091.98 1205.53 2007.73 1169.18 1948.96 1129.12C1929.49 1115.85 1912.98 1098.36 1897.01 1081.42C1883.28 1066.87 1869.1 1051.82 1853.07 1039.51C1815.26 1010.45 1773.36 986.854 1728.55 969.362C1721.29 966.53 1713.78 963.791 1706.5 961.125C1677.57 950.556 1647.67 939.617 1624.46 920.181C1586.95 888.752 1576.04 842.699 1570.74 806.068C1569.18 795.295 1566.81 784.337 1564.31 772.732C1557.74 742.357 1550.92 710.964 1559.22 682.255C1580.93 607.105 1654.1 560.386 1759.95 554.092C1767.56 553.63 1775.13 553.426 1782.64 553.426L1782.62 553.389ZM2145.01 639.405C2098.92 639.405 2052.59 622.283 2007.71 605.717C1993.49 600.46 1980.08 595.499 1966.74 591.112C1911.21 572.806 1837.49 552.408 1760.16 556.999C1710.78 559.942 1592.61 578.1 1562.32 682.959C1554.21 711.02 1560.94 742.079 1567.44 772.102C1569.97 783.745 1572.34 794.74 1573.93 805.624C1579.16 841.755 1589.89 887.178 1626.61 917.942C1649.39 937.007 1679.01 947.854 1707.66 958.33C1714.94 960.996 1722.47 963.754 1729.77 966.586C1774.87 984.189 1817.04 1007.94 1855.1 1037.18C1871.35 1049.66 1885.61 1064.8 1899.42 1079.44C1915.25 1096.25 1931.64 1113.61 1950.83 1126.7C2009.32 1166.55 2093.26 1202.75 2200.32 1234.31C2240.4 1246.12 2281.14 1250.51 2320.51 1254.77C2355.02 1258.49 2390.68 1262.34 2425.8 1271.17C2486.82 1286.46 2538.72 1305.67 2584.4 1329.86C2596.76 1336.4 2609.03 1343.52 2620.9 1350.41C2649.89 1367.21 2679.87 1384.61 2712.79 1394.57C2756.57 1407.79 2815.14 1405.75 2847.44 1371.38C2871.82 1345.39 2874.97 1308.54 2874.97 1279.35C2874.92 1180.75 2838.21 1076.11 2779.15 1006.23C2757.61 980.727 2724.64 959.071 2692.79 938.099C2673.99 925.735 2656.24 914.055 2640.7 901.672C2596.31 866.947 2554.17 827.947 2513.46 790.242C2488.87 767.475 2463.45 743.93 2437.85 721.644C2395.74 684.976 2329.7 635.999 2242.8 634.222C2225.35 633.907 2207.66 635.351 2190.52 636.795C2176.5 637.98 2161.97 639.183 2147.65 639.405C2146.74 639.405 2145.87 639.405 2144.95 639.405L2145.01 639.405Z" fill="#F08100"/>
<path d="M1224.31 1043.84C1263.78 1105.25 1314.58 1121.7 1399.71 1100.67C1441.14 1090.43 1472.46 1093.77 1512.09 1098C1520.63 1098.9 1529.51 1099.84 1538.94 1100.71C1595.26 1105.82 1652.27 1106.05 1708.41 1101.38C1789.88 1094.62 1847.32 1104.29 1913.35 1135.89C1957.74 1157.14 2000.18 1182.85 2041.27 1207.72C2061.58 1220.01 2082.58 1232.73 2103.58 1244.75C2179.69 1288.4 2246.98 1314.71 2315.32 1327.56C2392.88 1342.12 2437.53 1367.19 2451.84 1404.2C2464.52 1437.02 2443.89 1467.31 2422.06 1499.39C2404.09 1525.79 2385.5 1553.09 2385.72 1582.88C2386.05 1630.23 2430.92 1665.39 2470.51 1696.4C2482.61 1705.89 2494.04 1714.86 2503.77 1723.76C2516.64 1735.56 2528.27 1750.31 2539.5 1764.57C2563.53 1795.07 2588.4 1826.62 2628.65 1835.55C2673.95 1845.59 2724.71 1826.58 2749.19 1790.32C2756.9 1778.92 2762.04 1766.18 2766.99 1753.87C2770.23 1745.86 2773.57 1737.59 2777.57 1729.78C2795.82 1694.19 2822.3 1680.42 2852.99 1664.47C2862.93 1659.32 2873.19 1653.99 2883.77 1647.6C2916.99 1627.59 2941.1 1593.24 2962.4 1562.91L3058.66 1426.24L3058.66 1420.77L2959.65 1561.34C2938.53 1591.41 2914.6 1625.49 2881.97 1645.14C2871.47 1651.46 2861.25 1656.77 2851.38 1661.9C2820.2 1678.09 2793.29 1692.09 2774.6 1728.52C2770.53 1736.44 2767.18 1744.79 2763.92 1752.85C2759 1765.04 2753.92 1777.63 2746.4 1788.77C2726.9 1817.66 2690.28 1835.27 2653.44 1835.27C2645.39 1835.27 2637.29 1834.42 2629.38 1832.67C2590.3 1823.99 2565.8 1792.91 2542.11 1762.86C2530.78 1748.5 2519.08 1733.64 2506.04 1721.69C2496.22 1712.69 2484.73 1703.7 2472.57 1694.17C2433.53 1663.57 2389.24 1628.86 2388.92 1582.86C2388.72 1553.92 2407.05 1526.99 2424.79 1500.94C2447.04 1468.25 2468.06 1437.37 2454.89 1403.2C2440.18 1365.14 2394.75 1339.42 2315.99 1324.64C2248.03 1311.88 2181.09 1285.69 2105.3 1242.24C2084.36 1230.24 2063.36 1217.52 2043.07 1205.25C2001.92 1180.34 1959.4 1154.59 1914.89 1133.27C1848.25 1101.36 1790.35 1091.61 1708.15 1098.42C1652.21 1103.06 1595.4 1102.85 1539.28 1097.76C1529.9 1096.91 1521.04 1095.97 1512.52 1095.06C1472.54 1090.8 1440.98 1087.44 1398.9 1097.81C1315.49 1118.41 1265.7 1102.35 1227.12 1042.32C1188.46 982.148 1173.55 904.306 1186.24 828.753C1210.27 685.621 1306.1 506.217 1466.11 428.061C1523.48 400.04 1581.87 396.201 1643.68 392.158C1660.35 391.069 1677.6 389.925 1694.94 388.3C1805.87 377.852 1904.21 375.601 1995.61 381.452C2189.32 393.838 2356.04 447.591 2477.71 536.878C2525.15 571.692 2567.5 613.095 2608.44 653.115C2645.43 689.258 2683.68 726.637 2725.64 759.181C2826.19 837.134 2939.1 854.282 3058.66 865.875L3058.66 862.903C2939.74 851.366 2827.44 834.217 2727.73 756.929C2685.93 724.515 2647.73 687.19 2610.81 651.103C2569.78 610.991 2527.36 569.532 2479.74 534.57C2357.54 444.896 2190.21 390.922 1995.81 378.499C1962.82 376.394 1928.91 375.342 1893.83 375.342C1831.58 375.342 1765.65 378.665 1694.56 385.365C1677.28 386.99 1660.06 388.134 1643.41 389.223C1581.24 393.303 1522.51 397.161 1464.55 425.477C1303.55 504.131 1207.15 684.477 1183.02 828.328C1170.23 904.546 1185.29 983.09 1224.31 1043.84V1043.84Z" fill="#F08100"/>
<path d="M1079.75 887.931C1088.69 998.479 1139.8 1089.69 1227.57 1151.71C1277.31 1186.84 1316.6 1188.13 1371.77 1178.24C1389.37 1175.09 1407.09 1170.9 1424.24 1166.88C1459.62 1158.53 1496.16 1149.92 1533.49 1149.92C1535.27 1149.92 1537.07 1149.94 1538.84 1149.99C1641.51 1152.32 1744.55 1168.98 1845.11 1199.52C2008.98 1249.3 2161.04 1328.92 2308.1 1405.92C2331.94 1418.42 2352.46 1430.34 2361.87 1449.84C2376.81 1480.84 2356.82 1510.59 2335.65 1542.08C2318.48 1567.62 2300.74 1594.01 2301.28 1622.44C2301.81 1650.16 2319.65 1673.52 2336.91 1696.12C2347.92 1710.54 2359.31 1725.45 2366.31 1741.5C2374.64 1760.65 2376.79 1781.69 2378.88 1802.04C2380.32 1816.14 2381.82 1830.73 2385.34 1844.72C2401.14 1907.5 2445.62 1948.44 2510.58 1960.01C2597.22 1975.49 2702.33 1935.56 2755.04 1867.21C2765.87 1853.17 2775.13 1837.82 2784.12 1822.98C2798.75 1798.77 2813.9 1773.75 2835.88 1754.38C2857.39 1735.43 2884.72 1722.57 2911.14 1710.13C2934.98 1698.91 2959.64 1687.3 2980.26 1671.2C3017.1 1642.39 3038.37 1603.2 3058.66 1565L3058.66 1558.29C3058.15 1559.25 3057.61 1560.22 3057.1 1561.18C3036.54 1599.9 3015.29 1639.92 2978.13 1668.94C2957.79 1684.83 2933.32 1696.35 2909.64 1707.49C2883.02 1720.02 2855.48 1732.97 2833.63 1752.24C2811.28 1771.93 2796.02 1797.15 2781.28 1821.54C2772.34 1836.33 2763.09 1851.6 2752.37 1865.5C2700.36 1932.94 2596.71 1972.37 2511.19 1957.1C2447.57 1945.75 2403.98 1905.6 2388.49 1844.04C2385.02 1830.24 2383.52 1815.75 2382.08 1801.75C2379.97 1781.19 2377.78 1759.91 2369.29 1740.39C2362.15 1724.02 2350.65 1708.99 2339.54 1694.43C2321.78 1671.16 2305.01 1649.18 2304.49 1622.37C2303.96 1594.8 2321.46 1568.77 2338.39 1543.6C2360 1511.44 2380.42 1481.04 2364.81 1448.64C2354.99 1428.31 2334.03 1416.09 2309.68 1403.34C2162.48 1326.27 2010.28 1246.57 1846.09 1196.69C1745.22 1166.04 1641.86 1149.35 1538.88 1147C1499.14 1146.26 1460.64 1155.21 1423.37 1164C1406.28 1168.02 1388.6 1172.21 1371.08 1175.33C1316.93 1185.03 1278.28 1183.78 1229.52 1149.35C1142.5 1087.86 1091.81 997.372 1082.93 887.692C1071.27 743.376 1134.67 582.712 1244.42 478.401C1339.51 388.04 1479.78 328.033 1650.05 304.875C1670.57 302.071 1692.16 299.672 1714.28 297.697C1889.56 282.05 2075.34 272.953 2250.86 346.725C2338.51 383.575 2431.86 436.772 2536.27 509.401C2575.53 536.692 2608.35 571.77 2640.08 605.667C2670.92 638.622 2702.83 672.722 2740.99 700.235C2793.75 738.283 2876.94 783.362 2974.91 783.362C2975.9 783.362 2976.89 783.362 2977.91 783.362C2992.59 783.233 3007.47 782.071 3021.84 780.982C3033.93 780.041 3046.27 779.34 3058.64 778.989L3058.64 776.037C3046.17 776.406 3033.74 777.107 3021.58 778.048C3007.24 779.155 2992.44 780.281 2977.89 780.428C2976.89 780.428 2975.9 780.428 2974.93 780.428C2877.87 780.428 2795.37 735.682 2743.04 697.947C2705.12 670.6 2673.33 636.63 2642.58 603.766C2610.72 569.74 2577.8 534.551 2538.26 507.057C2433.66 434.318 2340.11 380.991 2252.26 344.05C2142.02 297.716 2027.91 283.913 1914.9 283.913C1847.18 283.913 1779.83 288.877 1713.99 294.745C1691.83 296.719 1670.16 299.137 1649.6 301.941C1478.6 325.21 1337.69 385.512 1242.11 476.353C1131.73 581.236 1068.01 742.785 1079.73 887.913L1079.75 887.931Z" fill="#F08100"/>
<path d="M243.924 105.742C295.026 139.06 347.83 173.561 407.823 164.7C446.712 158.984 478.126 135.637 508.528 113.05C522.038 103.023 536.013 92.6448 550.455 83.9501C654.441 21.3298 805.985 113.438 879.164 177.723C981.509 267.667 1022.73 375.408 989.429 465.925C971.868 513.653 929.921 549.209 889.352 583.599C873.331 597.196 856.742 611.256 841.855 625.889C715.549 750.057 692.945 928.779 679.415 1116.42C676.984 1149.85 676.458 1181.87 696.023 1206.32C719.032 1235.04 760.817 1242.27 801.65 1247.23L1042.6 1276.44C1082.7 1281.3 1124.53 1284.35 1155.41 1263.88C1213.24 1225.56 1142.51 1135.97 1104.53 1087.85C1098.56 1080.27 1093.39 1073.72 1089.59 1068.5C1085.68 1063.12 1081.73 1057.74 1077.8 1052.35C1042.19 1003.7 1005.39 953.383 984.851 897.441C951.756 807.257 985.358 724.139 1029.19 632.604C1085.48 515.096 1185.51 418.141 1283.14 328.882C1391.95 229.448 1598.56 200.737 1752.74 194.188C1933.02 186.418 2111.99 219.754 2269.71 290.366C2432.09 362.588 2573.53 467.96 2690.46 561.548C2705.53 573.61 2720.51 586.855 2735 599.676C2764.77 626 2795.56 653.213 2830.17 673.137C2890.57 707.915 2952.51 720.717 3030.91 714.705C3040.09 714.002 3049.34 714.131 3058.66 714.834L3058.66 711.856C3049.28 711.153 3039.93 711.023 3030.63 711.763C2952.97 717.738 2891.66 705.048 2831.91 670.639C2797.56 650.863 2766.92 623.762 2737.24 597.548C2722.74 584.71 2707.71 571.445 2692.58 559.328C2575.49 465.629 2433.87 360.072 2271.13 287.721C2112.9 216.887 1933.43 183.532 1752.58 191.247C1597.83 197.832 1390.37 226.71 1280.85 326.81C1182.98 416.254 1082.72 513.45 1026.19 631.439C982.097 723.547 948.292 807.22 981.752 898.384C1002.41 954.715 1039.36 1005.18 1075.08 1054C1079.03 1059.38 1082.94 1064.77 1086.87 1070.15C1090.7 1075.44 1095.89 1082.01 1101.88 1089.61C1139.21 1136.92 1208.68 1224.94 1153.49 1261.51C1123.55 1281.34 1082.5 1278.31 1042.98 1273.53L802.055 1244.32C761.931 1239.46 720.875 1232.37 698.636 1204.6C679.698 1180.94 680.245 1149.49 682.615 1116.64C696.104 929.537 718.627 751.37 844.205 627.924C859.011 613.365 875.559 599.342 891.539 585.801C932.413 551.151 974.664 515.337 992.487 466.887C1026.19 375.26 984.669 266.372 881.412 175.614C859.234 156.135 799.787 107.796 726.344 79.6582C655.535 52.5196 595.744 53.1301 548.693 81.5081C534.11 90.2953 520.093 100.711 506.503 110.793C476.445 133.121 445.334 156.227 407.337 161.814C348.599 170.398 296.383 136.34 245.828 103.374C239.367 99.1566 232.967 94.9758 226.627 90.9429C161.367 49.4488 88.4918 18.9063 12.5377 -1.5632e-05L0.000310624 -1.71717e-05C79.8028 18.4994 156.466 49.9297 224.764 93.3662C231.103 97.3991 237.504 101.561 243.965 105.779L243.924 105.742Z" fill="#F08100"/>
<path d="M1277.64 61.8484C1471.88 67.5134 1669.02 69.895 1863.52 69.1012C1974.95 68.6141 2087.9 67.0445 2199.27 64.4285C2294.41 62.1733 2395.64 62.48 2494.74 92.0681C2526.5 101.54 2557.78 114.422 2588.06 126.888C2640.83 148.611 2695.42 171.072 2753.49 175.817L2760.52 176.394C2831.58 182.204 2892.96 187.219 2964.49 201.238C2969.94 202.302 2975.06 203.24 2979.93 204.142C2985.12 205.099 2989.9 206.001 2994.52 206.921L2994.52 203.962C2990.04 203.06 2985.46 202.194 2980.57 201.31C2975.73 200.426 2970.62 199.488 2965.19 198.423C2893.49 184.369 2832 179.353 2760.82 173.544L2753.8 172.967C2696.29 168.258 2641.94 145.904 2589.42 124.272C2559.08 111.788 2527.69 98.8518 2495.77 89.3439C2396.17 59.5933 2294.65 59.3226 2199.19 61.5417C2087.84 64.1577 1974.91 65.7275 1863.54 66.2146C1669.06 67.0625 1471.98 64.6088 1277.77 58.9618C1202.23 56.7607 1132.16 48.0646 1067.24 33.6855L1054.3 33.6855C1122.79 49.8327 1197.14 59.5029 1277.66 61.8484L1277.64 61.8484Z" fill="#F08100"/>
<path d="M904.711 200.745C919.329 215.236 932.146 234.728 945.752 255.36C974.522 299.033 1004.27 344.214 1056.38 351.643C1092.1 356.773 1122.28 334.854 1151.5 313.688C1162.39 305.8 1172.68 298.352 1182.9 292.615C1381.49 180.812 1621.43 179.102 1829.98 192.121L1847.19 193.188C1994.51 202.29 2146.82 211.724 2276.75 288.386C2314.71 310.783 2353.87 332.886 2391.71 354.291C2480.11 404.234 2571.5 455.869 2655.18 515.191C2669.36 525.231 2683.65 535.639 2697.5 545.716C2754.98 587.55 2814.45 630.819 2881.44 660.829C2916.13 676.367 2954.43 688.596 2994.52 697.753L2994.52 694.719C2954.96 685.635 2917.14 673.536 2882.86 658.181C2816.17 628.318 2756.86 585.16 2699.53 543.418C2685.68 533.341 2671.36 522.933 2657.19 512.874C2573.41 453.46 2481.91 401.77 2393.43 351.79C2355.59 330.404 2316.45 308.301 2278.53 285.922C2147.9 208.837 1995.13 199.403 1847.41 190.264L1830.2 189.197C1621.11 176.105 1380.54 177.888 1181.18 290.133C1170.82 295.98 1160.45 303.483 1149.48 311.408C1120.81 332.169 1091.27 353.628 1056.89 348.755C1006.27 341.547 976.912 296.973 948.525 253.87C934.859 233.109 921.941 213.489 907.08 198.778C840.406 132.708 759.945 87.3059 683.229 46.4648C674.827 41.9964 666.019 37.7119 656.989 33.6848L649.417 33.6848C660.532 38.4291 671.344 43.5594 681.589 49.0024C758.103 89.7149 838.321 134.988 904.711 200.764L904.711 200.745Z" fill="#F08100"/>
</svg>
