<svg width="734" height="628" viewBox="0 0 734 628" fill="none" xmlns="http://www.w3.org/2000/svg">
<path d="M419.874 341.308C419.874 341.308 450.478 404.93 561.241 375.442C672.005 345.954 698.964 544.772 698.964 544.772C698.964 544.772 706.987 343.639 594.769 302.513C482.551 261.387 419.889 341.308 419.889 341.308H419.874Z" stroke="white" stroke-width="4" stroke-miterlimit="10"/>
<path d="M477.782 307.811C431.44 299.221 416.376 276.009 416.376 276.009C416.376 276.009 487.182 209.144 614.066 243.522C740.935 277.965 731.857 446.301 731.857 446.301C731.857 446.301 731.474 444.345 730.709 440.955V440.889C724.922 415.982 696.385 313.305 614.449 302.954" stroke="white" stroke-width="4" stroke-miterlimit="10"/>
<path d="M259.995 181.09C270.459 132.522 262.306 89.087 241.786 84.0749C221.266 79.0628 196.148 114.372 185.684 162.939C175.22 211.507 183.373 254.942 203.893 259.954C224.413 264.966 249.531 229.657 259.995 181.09Z" stroke="white" stroke-width="3.5" stroke-miterlimit="10"/>
<path d="M208.994 417.758C219.457 369.19 211.305 325.755 190.785 320.743C170.264 315.731 145.147 351.04 134.683 399.607C124.219 448.175 132.371 491.61 152.892 496.622C173.412 501.634 198.53 466.325 208.994 417.758Z" stroke="white" stroke-width="3.5" stroke-miterlimit="10"/>
<path d="M358.875 380.997C366.727 360.198 337.893 328.271 294.471 309.685C251.049 291.099 209.482 292.893 201.63 313.692C193.777 334.491 222.612 366.418 266.034 385.004C309.456 403.59 351.022 401.796 358.875 380.997Z" stroke="white" stroke-width="3.5" stroke-miterlimit="10"/>
<path d="M185.367 268.097C195.894 248.683 171.572 212.749 131.042 187.834C90.5131 162.919 49.124 158.46 38.5973 177.873C28.0707 197.286 52.3926 233.221 92.922 258.135C133.451 283.05 174.84 287.51 185.367 268.097Z" stroke="white" stroke-width="3.5" stroke-miterlimit="10"/>
<path d="M306.829 286.877C349.569 266.578 377.264 233.526 368.687 213.054C360.111 192.582 318.51 192.442 275.77 212.741C233.03 233.04 205.336 266.092 213.912 286.564C222.489 307.036 264.089 307.176 306.829 286.877Z" stroke="white" stroke-width="3.5" stroke-miterlimit="10"/>
<path d="M108.446 377.838C151.186 357.539 178.881 324.487 170.304 304.015C161.728 283.543 120.127 283.403 77.3875 303.702C34.6476 324.001 6.95269 357.053 15.5293 377.525C24.1059 397.997 65.7061 398.137 108.446 377.838Z" stroke="white" stroke-width="3.5" stroke-miterlimit="10"/>
<path d="M198.009 231.801C230.641 231.801 256.92 256.69 256.92 287.206C256.92 317.722 230.626 342.611 198.009 342.611C165.393 342.611 139.098 317.722 139.098 287.206C139.098 276.589 142.267 266.668 147.78 258.229L147.779 258.228C158.139 242.389 176.741 231.801 198.009 231.801Z" fill="#060D19" stroke="white" stroke-width="3"/>
<path d="M365.336 610.483L342.938 561.744L379.665 594.199L381.043 546.177L399.277 602.985L421.383 541.434L426.834 593.905L450.165 573.073L411.876 626.604" stroke="white" stroke-width="4" stroke-miterlimit="10"/>
<path d="M258.528 270.77C258.528 270.77 433.935 160.296 417.932 320.748C401.928 481.201 399.12 603.746 399.12 603.746" stroke="white" stroke-width="4" stroke-miterlimit="10"/>
<path d="M587.175 11.0117H446.833V300.217H587.175V11.0117Z" fill="#060D19" stroke="white" stroke-width="2.5" stroke-miterlimit="10"/>
<path d="M636.58 285.137L587.176 300.216V11.0104L634.804 1.52344L636.58 285.137Z" fill="#060D19" stroke="white" stroke-width="2.5" stroke-miterlimit="10"/>
<path d="M634.802 1.52344H537.725L446.833 11.0104H587.175L634.802 1.52344Z" fill="#060D19" stroke="white" stroke-width="2.5" stroke-miterlimit="10"/>
<path d="M446.833 26.0742H512.71" stroke="white" stroke-width="2.5" stroke-miterlimit="10"/>
<path d="M505.607 35.1367H587.175" stroke="white" stroke-width="2.5" stroke-miterlimit="10"/>
<path d="M533.991 43.6914L587.176 44.1967" stroke="white" stroke-width="2.5" stroke-miterlimit="10"/>
<path d="M470.151 47.2148H516.998" stroke="white" stroke-width="2.5" stroke-miterlimit="10"/>
<path d="M505.607 61.3125H570.856" stroke="white" stroke-width="2.5" stroke-miterlimit="10"/>
<path d="M446.833 73.3906H509.403" stroke="white" stroke-width="2.5" stroke-miterlimit="10"/>
<path d="M454.55 61.3125H470.15" stroke="white" stroke-width="2.5" stroke-miterlimit="10"/>
<path d="M560.996 273.027H576.596" stroke="white" stroke-width="2.5" stroke-miterlimit="10"/>
<path d="M445.396 287.648H460.996" stroke="white" stroke-width="2.5" stroke-miterlimit="10"/>
<path d="M560.583 23.5625H577.01" stroke="white" stroke-width="2.5" stroke-miterlimit="10"/>
<path d="M546.391 80.957H577.009" stroke="white" stroke-width="2.5" stroke-miterlimit="10"/>
<path d="M446.833 99.0664H512.71" stroke="white" stroke-width="2.5" stroke-miterlimit="10"/>
<path d="M472.677 88.5703H538.553" stroke="white" stroke-width="2.5" stroke-miterlimit="10"/>
<path d="M522.77 106.531H588.631" stroke="white" stroke-width="2.5" stroke-miterlimit="10"/>
<path d="M553.006 118.496H588.631" stroke="white" stroke-width="2.5" stroke-miterlimit="10"/>
<path d="M479.766 135.367H545.642" stroke="white" stroke-width="2.5" stroke-miterlimit="10"/>
<path d="M522.77 150.871H588.631" stroke="white" stroke-width="2.5" stroke-miterlimit="10"/>
<path d="M446.833 145.164H512.71" stroke="white" stroke-width="2.5" stroke-miterlimit="10"/>
<path d="M446.833 165.832H512.71" stroke="white" stroke-width="2.5" stroke-miterlimit="10"/>
<path d="M522.77 192.5H588.631" stroke="white" stroke-width="2.5" stroke-miterlimit="10"/>
<path d="M446.833 212.078H512.71" stroke="white" stroke-width="2.5" stroke-miterlimit="10"/>
<path d="M520.06 233.301H585.936" stroke="white" stroke-width="2.5" stroke-miterlimit="10"/>
<path d="M549.469 176.168H588.63" stroke="white" stroke-width="2.5" stroke-miterlimit="10"/>
<path d="M536.119 212.078H575.281" stroke="white" stroke-width="2.5" stroke-miterlimit="10"/>
<path d="M462.358 233.301H501.52" stroke="white" stroke-width="2.5" stroke-miterlimit="10"/>
<path d="M446.833 252.895H512.71" stroke="white" stroke-width="2.5" stroke-miterlimit="10"/>
<path d="M505.301 287.648H571.178" stroke="white" stroke-width="2.5" stroke-miterlimit="10"/>
<path d="M472.677 273.027H538.553" stroke="white" stroke-width="2.5" stroke-miterlimit="10"/>
<path d="M520.06 262.691H585.936" stroke="white" stroke-width="2.5" stroke-miterlimit="10"/>
<path d="M462.358 192.5H501.52" stroke="white" stroke-width="2.5" stroke-miterlimit="10"/>
<path d="M453.204 118.496H519.08" stroke="white" stroke-width="2.5" stroke-miterlimit="10"/>
<path d="M587.176 35.1338L610.493 30.5859" stroke="white" stroke-width="2.5" stroke-miterlimit="10"/>
<path d="M587.176 44.1964L624.256 37.0078" stroke="white" stroke-width="2.5" stroke-miterlimit="10"/>
<path d="M587.176 150.868L624.256 143.68" stroke="white" stroke-width="2.5" stroke-miterlimit="10"/>
<path d="M585.936 192.501L623.015 185.312" stroke="white" stroke-width="2.5" stroke-miterlimit="10"/>
<path d="M587.176 106.255L624.256 99.0664" stroke="white" stroke-width="2.5" stroke-miterlimit="10"/>
<path d="M585.936 118.495L605.716 114.664" stroke="white" stroke-width="2.5" stroke-miterlimit="10"/>
<path d="M585.936 233.303L605.716 229.473" stroke="white" stroke-width="2.5" stroke-miterlimit="10"/>
<path d="M585.936 262.692L622.924 255.52" stroke="white" stroke-width="2.5" stroke-miterlimit="10"/>
<path fill-rule="evenodd" clip-rule="evenodd" d="M197.381 253.398C192.922 249.45 194.403 246.257 190.53 240.352C196.872 242.257 199.032 239.596 203.938 242.824C211.437 247.768 204.2 259.441 197.381 253.398Z" fill="white"/>
<path d="M220.546 300.866L231.492 291.037C231.492 291.037 216.673 282.708 202.558 295.846C188.412 309.017 195.806 323.068 195.806 323.068L205.604 314.282" fill="white"/>
<path d="M220.546 300.866L231.492 291.037C231.492 291.037 216.673 282.708 202.558 295.846C188.412 309.017 195.806 323.068 195.806 323.068L205.604 314.282" stroke="white" stroke-width="0.5" stroke-miterlimit="10"/>
<path d="M214.743 295.879C214.743 295.879 238.595 313.255 225.613 324.405C212.63 335.555 202.159 306.849 202.159 306.849L214.743 295.879Z" fill="white" stroke="white" stroke-width="0.5" stroke-miterlimit="10"/>
<path d="M173.943 299.32C173.943 299.32 185.998 293.385 181.04 281.629" stroke="white" stroke-width="4" stroke-miterlimit="10"/>
<path d="M207.118 269.836C207.118 269.836 200.896 279.251 190.53 274.288" stroke="white" stroke-width="4" stroke-miterlimit="10"/>
</svg>
