<svg width="995" height="951" viewBox="0 0 995 951" fill="none" xmlns="http://www.w3.org/2000/svg">
<path d="M672.451 425.906C672.451 425.906 703.055 489.527 813.818 460.04C924.582 430.552 951.542 629.37 951.542 629.37C951.542 629.37 959.564 428.237 847.346 387.111C735.128 345.984 672.466 425.906 672.466 425.906H672.451Z" stroke="white" stroke-width="4" stroke-miterlimit="10"/>
<path d="M730.359 392.409C684.018 383.819 668.953 360.607 668.953 360.607C668.953 360.607 739.759 293.742 866.643 328.12C993.513 362.563 984.434 530.899 984.434 530.899C984.434 530.899 984.051 528.943 983.286 525.552V525.487C977.499 500.58 948.962 397.902 867.026 387.551" stroke="white" stroke-width="4" stroke-miterlimit="10"/>
<path d="M512.572 265.687C523.036 217.12 514.884 173.685 494.363 168.673C473.843 163.66 448.725 198.969 438.261 247.537C427.798 296.105 435.95 339.54 456.47 344.552C476.991 349.564 502.108 314.255 512.572 265.687Z" stroke="white" stroke-width="3.5" stroke-miterlimit="10"/>
<path d="M461.571 502.355C472.035 453.788 463.882 410.353 443.362 405.34C422.842 400.328 397.724 435.637 387.26 484.205C376.796 532.773 384.949 576.208 405.469 581.22C425.989 586.232 451.107 550.923 461.571 502.355Z" stroke="white" stroke-width="3.5" stroke-miterlimit="10"/>
<path d="M611.452 465.594C619.305 444.796 590.47 412.868 547.048 394.283C503.626 375.697 462.059 377.491 454.207 398.29C446.354 419.088 475.189 451.016 518.611 469.602C562.033 488.187 603.599 486.393 611.452 465.594Z" stroke="white" stroke-width="3.5" stroke-miterlimit="10"/>
<path d="M437.944 352.694C448.471 333.281 424.149 297.346 383.62 272.432C343.09 247.517 301.701 243.057 291.174 262.47C280.648 281.884 304.97 317.818 345.499 342.733C386.028 367.648 427.418 372.107 437.944 352.694Z" stroke="white" stroke-width="3.5" stroke-miterlimit="10"/>
<path d="M559.406 371.475C602.146 351.176 629.841 318.124 621.264 297.652C612.688 277.18 571.087 277.04 528.348 297.339C485.608 317.638 457.913 350.69 466.489 371.162C475.066 391.634 516.666 391.774 559.406 371.475Z" stroke="white" stroke-width="3.5" stroke-miterlimit="10"/>
<path d="M361.023 462.436C403.763 442.136 431.458 409.085 422.881 388.613C414.305 368.141 372.705 368.001 329.965 388.3C287.225 408.599 259.53 441.651 268.106 462.123C276.683 482.595 318.283 482.735 361.023 462.436Z" stroke="white" stroke-width="3.5" stroke-miterlimit="10"/>
<path d="M450.586 316.398C483.218 316.399 509.497 341.288 509.498 371.804C509.498 402.319 483.203 427.209 450.586 427.209C417.97 427.209 391.675 402.32 391.675 371.804C391.675 361.187 394.844 351.265 400.357 342.826L400.356 342.825C410.716 326.986 429.318 316.398 450.586 316.398Z" fill="white" stroke="white" stroke-width="3"/>
<path d="M617.913 695.081L595.515 646.342L632.242 678.796L633.62 630.775L651.854 687.582L673.961 626.031L679.411 678.503L702.742 657.671L664.453 711.202" stroke="white" stroke-width="4" stroke-miterlimit="10"/>
<path d="M511.105 355.368C511.105 355.368 686.512 244.893 670.509 405.346C654.505 565.798 651.697 688.344 651.697 688.344" stroke="white" stroke-width="4" stroke-miterlimit="10"/>
<path d="M839.752 95.6094H699.411V384.815H839.752V95.6094Z" stroke="white" stroke-width="2.5" stroke-miterlimit="10"/>
<path d="M889.157 369.735L839.753 384.813V95.608L887.381 86.1211L889.157 369.735Z" stroke="white" stroke-width="2.5" stroke-miterlimit="10"/>
<path d="M887.38 86.1211H790.303L699.411 95.608H839.752L887.38 86.1211Z" stroke="white" stroke-width="2.5" stroke-miterlimit="10"/>
<path d="M699.411 110.672H765.287" stroke="white" stroke-width="2.5" stroke-miterlimit="10"/>
<path d="M758.184 119.734H839.753" stroke="white" stroke-width="2.5" stroke-miterlimit="10"/>
<path d="M786.568 128.289L839.753 128.794" stroke="white" stroke-width="2.5" stroke-miterlimit="10"/>
<path d="M722.728 131.812H769.575" stroke="white" stroke-width="2.5" stroke-miterlimit="10"/>
<path d="M758.184 145.91H823.433" stroke="white" stroke-width="2.5" stroke-miterlimit="10"/>
<path d="M699.411 157.988H761.98" stroke="white" stroke-width="2.5" stroke-miterlimit="10"/>
<path d="M707.127 145.91H722.727" stroke="white" stroke-width="2.5" stroke-miterlimit="10"/>
<path d="M813.573 357.625H829.174" stroke="white" stroke-width="2.5" stroke-miterlimit="10"/>
<path d="M697.973 372.246H713.573" stroke="white" stroke-width="2.5" stroke-miterlimit="10"/>
<path d="M813.16 108.16H829.587" stroke="white" stroke-width="2.5" stroke-miterlimit="10"/>
<path d="M798.968 165.555H829.587" stroke="white" stroke-width="2.5" stroke-miterlimit="10"/>
<path d="M699.411 183.664H765.287" stroke="white" stroke-width="2.5" stroke-miterlimit="10"/>
<path d="M725.254 173.168H791.13" stroke="white" stroke-width="2.5" stroke-miterlimit="10"/>
<path d="M775.347 191.129H841.208" stroke="white" stroke-width="2.5" stroke-miterlimit="10"/>
<path d="M805.583 203.094H841.208" stroke="white" stroke-width="2.5" stroke-miterlimit="10"/>
<path d="M732.343 219.965H798.219" stroke="white" stroke-width="2.5" stroke-miterlimit="10"/>
<path d="M775.347 235.469H841.208" stroke="white" stroke-width="2.5" stroke-miterlimit="10"/>
<path d="M699.411 229.762H765.287" stroke="white" stroke-width="2.5" stroke-miterlimit="10"/>
<path d="M699.411 250.43H765.287" stroke="white" stroke-width="2.5" stroke-miterlimit="10"/>
<path d="M775.347 277.098H841.208" stroke="white" stroke-width="2.5" stroke-miterlimit="10"/>
<path d="M699.411 296.676H765.287" stroke="white" stroke-width="2.5" stroke-miterlimit="10"/>
<path d="M772.637 317.898H838.513" stroke="white" stroke-width="2.5" stroke-miterlimit="10"/>
<path d="M802.046 260.766H841.207" stroke="white" stroke-width="2.5" stroke-miterlimit="10"/>
<path d="M788.696 296.676H827.858" stroke="white" stroke-width="2.5" stroke-miterlimit="10"/>
<path d="M714.936 317.898H754.097" stroke="white" stroke-width="2.5" stroke-miterlimit="10"/>
<path d="M699.411 337.492H765.287" stroke="white" stroke-width="2.5" stroke-miterlimit="10"/>
<path d="M757.878 372.246H823.755" stroke="white" stroke-width="2.5" stroke-miterlimit="10"/>
<path d="M725.254 357.625H791.13" stroke="white" stroke-width="2.5" stroke-miterlimit="10"/>
<path d="M772.637 347.289H838.513" stroke="white" stroke-width="2.5" stroke-miterlimit="10"/>
<path d="M714.936 277.098H754.097" stroke="white" stroke-width="2.5" stroke-miterlimit="10"/>
<path d="M705.781 203.094H771.657" stroke="white" stroke-width="2.5" stroke-miterlimit="10"/>
<path d="M839.753 119.731L863.07 115.184" stroke="white" stroke-width="2.5" stroke-miterlimit="10"/>
<path d="M839.753 128.794L876.833 121.605" stroke="white" stroke-width="2.5" stroke-miterlimit="10"/>
<path d="M839.753 235.466L876.833 228.277" stroke="white" stroke-width="2.5" stroke-miterlimit="10"/>
<path d="M838.513 277.099L875.593 269.91" stroke="white" stroke-width="2.5" stroke-miterlimit="10"/>
<path d="M839.753 190.853L876.833 183.664" stroke="white" stroke-width="2.5" stroke-miterlimit="10"/>
<path d="M838.513 203.092L858.293 199.262" stroke="white" stroke-width="2.5" stroke-miterlimit="10"/>
<path d="M838.513 317.901L858.293 314.07" stroke="white" stroke-width="2.5" stroke-miterlimit="10"/>
<path d="M838.513 347.289L875.501 340.117" stroke="white" stroke-width="2.5" stroke-miterlimit="10"/>
<path fill-rule="evenodd" clip-rule="evenodd" d="M449.958 337.996C445.499 334.048 446.98 330.855 443.107 324.949C449.449 326.855 451.609 324.194 456.515 327.421C464.014 332.365 456.778 344.039 449.958 337.996Z" fill="white"/>
<path d="M473.123 385.464L484.07 375.635C484.07 375.635 469.25 367.305 455.135 380.444C440.989 393.614 448.383 407.666 448.383 407.666L458.181 398.879" fill="#F08100"/>
<path d="M473.123 385.464L484.07 375.635C484.07 375.635 469.25 367.305 455.135 380.444C440.989 393.614 448.383 407.666 448.383 407.666L458.181 398.879" stroke="#F08100" stroke-width="0.5" stroke-miterlimit="10"/>
<path d="M467.32 380.477C467.32 380.477 491.172 397.853 478.19 409.003C465.207 420.152 454.736 391.447 454.736 391.447L467.32 380.477Z" fill="#F08100" stroke="#F08100" stroke-width="0.5" stroke-miterlimit="10"/>
<path d="M426.52 383.917C426.52 383.917 438.575 377.983 433.618 366.227" stroke="#F08100" stroke-width="4" stroke-miterlimit="10"/>
<path d="M459.695 354.434C459.695 354.434 453.473 363.849 443.107 358.886" stroke="#F08100" stroke-width="4" stroke-miterlimit="10"/>
</svg>
