<svg width="683" height="325" viewBox="0 0 683 325" fill="none" xmlns="http://www.w3.org/2000/svg">
<g clip-path="url(#clip0_213_341)">
<path d="M553.073 63.1289C549.615 64.0896 546.189 65.0183 542.731 65.9789" stroke="white" stroke-width="0.5" stroke-miterlimit="10"/>
<path d="M416.507 82.8242L439.261 324.682C439.261 324.682 459.944 320.541 473.391 311.233C486.839 301.925 530.276 284.333 530.276 284.333C530.276 284.333 586.126 270.286 589.231 264.074" stroke="white" stroke-width="1.5" stroke-miterlimit="10"/>
<path d="M416.507 86.5271L581.985 39.9766L589.221 267.542" stroke="white" stroke-width="3" stroke-miterlimit="10"/>
<path d="M445.365 76.5675L434.981 77.9872L428.706 43.3385L438.983 42.0469L445.365 76.5675Z" stroke="white" stroke-width="1.5" stroke-miterlimit="10"/>
<path d="M547.363 47.6193L536.979 49.039L530.703 14.3903L540.981 13.1094L547.363 47.6193Z" stroke="white" stroke-width="1.5" stroke-miterlimit="10"/>
<path d="M553.66 69.3733L543.275 72.202L537 2.90453L547.278 0.332031L553.66 69.3733Z" fill="white" stroke="white" stroke-width="0.5" stroke-miterlimit="10"/>
<path d="M452.089 93.1233L441.705 95.952L435.429 26.6545L445.707 24.082L452.089 93.1233Z" fill="white" stroke="white" stroke-width="0.5" stroke-miterlimit="10"/>
<path d="M291.318 124.388L280.934 125.808L274.658 91.1588L284.936 89.8672L291.318 124.388Z" stroke="white" stroke-width="1.5" stroke-miterlimit="10"/>
<path d="M298.042 132.17L287.657 134.999L281.382 65.7014L291.659 63.1289L298.042 132.17Z" fill="white" stroke="white" stroke-width="0.5" stroke-miterlimit="10"/>
<path d="M145.318 144.083L134.933 145.503L128.658 110.854L138.935 109.562L145.318 144.083Z" stroke="white" stroke-width="1.5" stroke-miterlimit="10"/>
<path d="M152.041 151.866L141.657 154.694L135.381 85.3967L145.659 82.8242L152.041 151.866Z" fill="white" stroke="white" stroke-width="0.5" stroke-miterlimit="10"/>
<path d="M552.678 58.8164C549.263 59.9159 545.837 61.0046 542.379 62.1041" stroke="white" stroke-width="0.5" stroke-miterlimit="10"/>
<path d="M682.893 7.75C651.73 22.8755 617.812 36.5492 582.305 48.9527" stroke="white" stroke-width="2.5" stroke-miterlimit="10"/>
<path d="M0.0214844 157.875C0.0214844 157.875 44.1524 155.025 112.435 147.137C114.805 146.87 117.174 146.571 119.618 146.262H119.746C124.613 145.696 129.607 145.12 134.73 144.468C136.662 144.244 138.679 143.988 140.643 143.764C142.137 143.54 143.621 143.369 145.115 143.198C147.132 142.931 149.149 142.675 151.166 142.408C157.516 141.618 164.048 140.743 170.718 139.868C171.028 139.825 171.38 139.782 171.679 139.74C205.116 135.225 241.851 129.749 280.453 123.131C281.456 122.96 282.428 122.778 283.431 122.608C283.516 122.565 283.602 122.522 283.698 122.565C284.573 122.394 285.533 122.255 286.462 122.084C287.86 121.818 289.311 121.561 290.752 121.337C292.812 120.942 294.872 120.59 296.932 120.238C297.593 120.11 298.244 119.971 298.949 119.886C298.991 119.886 299.034 119.843 299.077 119.843C308.276 118.178 317.615 116.47 326.996 114.666C356.751 109.008 387.168 102.7 417.67 95.6016" stroke="white" stroke-width="2.5" stroke-miterlimit="10"/>
<path d="M451.566 87.4766C448.108 88.3092 444.64 89.1845 441.182 90.017" stroke="white" stroke-width="0.5" stroke-miterlimit="10"/>
<path d="M112.254 146.077L117.451 174.833C117.451 174.833 194.497 158.395 218.061 238.687L262.897 230.585C262.897 230.585 249.108 162.611 330.988 136.737L326.142 109.934C326.142 109.934 235.5 149.973 112.254 146.077V146.077Z" stroke="white" stroke-width="2" stroke-miterlimit="10"/>
<path d="M218.061 238.686C218.061 238.686 174.934 181.899 117.537 175.312" stroke="white" stroke-width="2" stroke-miterlimit="10"/>
<path d="M262.897 230.587C262.897 230.587 281.979 162.549 330.988 136.738" stroke="white" stroke-width="2" stroke-miterlimit="10"/>
<path d="M112.254 146.077C112.254 146.077 284.989 130.386 326.142 109.934" stroke="white" stroke-width="2" stroke-miterlimit="10"/>
<path d="M241.818 159.26C241.818 159.26 244.476 151.767 250.933 154.275C257.4 156.784 244.134 172.112 244.134 172.112C244.134 172.112 224.454 159.271 232.96 156.464C241.466 153.656 241.818 159.271 241.818 159.271V159.26Z" fill="white" stroke="white" stroke-width="2" stroke-miterlimit="10"/>
<path d="M210.73 163.381C210.73 163.381 213.387 155.888 219.844 158.397C226.311 160.905 213.045 176.233 213.045 176.233C213.045 176.233 193.365 163.392 201.871 160.585C210.377 157.777 210.73 163.392 210.73 163.392V163.381Z" fill="white" stroke="white" stroke-width="2" stroke-miterlimit="10"/>
<path d="M231.264 196.191C234.158 196.191 236.504 192.75 236.504 188.506C236.504 184.261 234.158 180.82 231.264 180.82C228.37 180.82 226.023 184.261 226.023 188.506C226.023 192.75 228.37 196.191 231.264 196.191Z" stroke="white" stroke-width="2" stroke-miterlimit="10"/>
</g>
<defs>
<clipPath id="clip0_213_341">
<rect width="683" height="325" fill="white"/>
</clipPath>
</defs>
</svg>
