<svg width="370" height="446" viewBox="0 0 370 446" fill="none" xmlns="http://www.w3.org/2000/svg">
<g clip-path="url(#clip0_213_280)">
<path d="M176.743 423.822L212.146 288.802C212.146 288.802 221.609 254.263 194.964 196.548C168.328 138.823 167.074 92.6469 191.065 52.3235C215.056 11.9904 271.158 -6.75948 306.64 3.94913C342.121 14.6577 376.388 58.694 367.65 121.881C358.912 185.067 334.588 205.859 292.817 234.116C251.057 262.373 246.08 297.42 246.08 297.42L210.187 433.603C210.187 433.603 210.011 443.637 190.565 444.966C171.12 446.295 176.743 423.822 176.743 423.822V423.822Z" stroke="white" stroke-width="3" stroke-miterlimit="10"/>
<path d="M224.705 226.699C224.705 226.699 236.245 254.096 232.532 269.172C228.819 284.248 248.657 241.814 259.961 236.734L224.705 226.699V226.699Z" stroke="white" stroke-width="3" stroke-miterlimit="10"/>
<path d="M349.897 131.393C361.302 77.6447 335.312 26.6353 291.846 17.4599C248.38 8.28448 203.898 44.4175 192.493 98.1653C181.087 151.913 207.078 202.923 250.544 212.098C294.01 221.273 338.492 185.14 349.897 131.393Z" stroke="white" stroke-width="3" stroke-miterlimit="10"/>
<path d="M191.525 143.355L218.857 45.043" stroke="white" stroke-width="0.5" stroke-miterlimit="10"/>
<path d="M242.181 25.9805L206.053 180.601" stroke="white" stroke-width="0.5" stroke-miterlimit="10"/>
<path d="M226.86 201.948L269.62 16.6094" stroke="white" stroke-width="0.5" stroke-miterlimit="10"/>
<path d="M291.847 17.4492L250.537 212.1" stroke="white" stroke-width="0.5" stroke-miterlimit="10"/>
<path d="M273.225 212.883L311.822 25.2578" stroke="white" stroke-width="0.5" stroke-miterlimit="10"/>
<path d="M328.808 39.2188L292.847 207.274" stroke="white" stroke-width="0.5" stroke-miterlimit="10"/>
<path d="M314.986 193.018L346.804 70.4062" stroke="white" stroke-width="0.5" stroke-miterlimit="10"/>
<path d="M223.265 40.3828L344.423 64.1841" stroke="white" stroke-width="0.5" stroke-miterlimit="10"/>
<path d="M242.181 25.9805L333.354 43.6653" stroke="white" stroke-width="0.5" stroke-miterlimit="10"/>
<path d="M209.541 57.1094L350.585 84.8189" stroke="white" stroke-width="0.5" stroke-miterlimit="10"/>
<path d="M199.989 74.6953L352.544 104.662" stroke="white" stroke-width="0.5" stroke-miterlimit="10"/>
<path d="M196.267 93.3594L351.251 123.805" stroke="white" stroke-width="0.5" stroke-miterlimit="10"/>
<path d="M188.155 109.254L347.577 140.569" stroke="white" stroke-width="0.5" stroke-miterlimit="10"/>
<path d="M188.763 131.336L340.514 161.146" stroke="white" stroke-width="0.5" stroke-miterlimit="10"/>
<path d="M194.111 154.465L326.917 180.552" stroke="white" stroke-width="0.5" stroke-miterlimit="10"/>
<path d="M206.053 180.602L308.217 198.413" stroke="white" stroke-width="0.5" stroke-miterlimit="10"/>
<path d="M246.08 297.418L212.146 288.801" stroke="white" stroke-width="1.5" stroke-miterlimit="10"/>
<path d="M239.664 314.106L205.73 305.488" stroke="white" stroke-width="1.5" stroke-miterlimit="10"/>
<path d="M185.746 389.487L224.382 372.926" stroke="white" stroke-width="1.5" stroke-miterlimit="10"/>
<path d="M193.073 361.542L233.835 343.887" stroke="white" stroke-width="1.5" stroke-miterlimit="10"/>
<path d="M199.95 335.329L240.457 318.758" stroke="white" stroke-width="1.5" stroke-miterlimit="10"/>
<path d="M307.97 109.787C312.034 90.6341 309.519 73.8811 302.352 72.3682C295.185 70.8554 286.081 85.1556 282.017 104.309C277.952 123.462 280.467 140.215 287.634 141.728C294.801 143.24 303.905 128.94 307.97 109.787Z" fill="white" stroke="white" stroke-width="0.5" stroke-miterlimit="10"/>
<path d="M263.83 100.689C267.894 81.5365 265.379 64.7834 258.212 63.2706C251.046 61.7577 241.941 76.0579 237.877 95.211C233.813 114.364 236.328 131.117 243.495 132.63C250.661 134.143 259.766 119.843 263.83 100.689Z" fill="white" stroke="white" stroke-width="0.5" stroke-miterlimit="10"/>
<path d="M244.963 151.492C244.963 151.492 252.986 170.486 278.064 158.801L244.963 151.492V151.492Z" fill="white" stroke="white" stroke-width="0.5" stroke-miterlimit="10"/>
</g>
<g clip-path="url(#clip1_213_280)">
<path d="M147.616 322.282L114.712 253.981C114.712 253.981 106.076 236.551 114.564 203.034C123.046 169.512 119.006 144.771 101.936 125.761C84.8656 106.747 52.6653 102.558 34.6057 111.936C16.546 121.314 2.54649 148.33 13.718 181.103C24.8894 213.877 40.1437 222.442 65.5786 233.181C91.0082 243.92 97.2746 262.085 97.2746 262.085L130.561 330.955C130.561 330.955 131.681 336.284 142.314 334.981C152.947 333.677 147.616 322.282 147.616 322.282V322.282Z" stroke="white" stroke-width="3" stroke-miterlimit="10"/>
<path d="M101.589 222.18C101.589 222.18 98.158 237.976 101.702 245.627C105.246 253.278 90.2035 232.714 83.582 231.175L101.589 222.18V222.18Z" stroke="white" stroke-width="3" stroke-miterlimit="10"/>
<path d="M24.2733 184.336C12.6263 156.869 21.4458 126.993 43.9723 117.606C66.4988 108.219 94.2018 122.875 105.849 150.342C117.496 177.808 108.676 207.684 86.1497 217.071C63.6233 226.459 35.9202 211.803 24.2733 184.336Z" stroke="white" stroke-width="3" stroke-miterlimit="10"/>
<path d="M110.987 174.328L86.1905 124.757" stroke="white" stroke-width="0.5" stroke-miterlimit="10"/>
<path d="M71.6527 117.011L106.95 195.683" stroke="white" stroke-width="0.5" stroke-miterlimit="10"/>
<path d="M97.8981 209.212L55.8832 114.854" stroke="white" stroke-width="0.5" stroke-miterlimit="10"/>
<path d="M43.9701 117.602L86.1535 217.073" stroke="white" stroke-width="0.5" stroke-miterlimit="10"/>
<path d="M73.9871 219.837L33.9861 123.829" stroke="white" stroke-width="0.5" stroke-miterlimit="10"/>
<path d="M26.2421 133.029L62.8215 218.879" stroke="white" stroke-width="0.5" stroke-miterlimit="10"/>
<path d="M49.4139 213.572L19.7134 151.515" stroke="white" stroke-width="0.5" stroke-miterlimit="10"/>
<path d="M83.335 122.727L20.3629 147.947" stroke="white" stroke-width="0.5" stroke-miterlimit="10"/>
<path d="M71.6519 117.008L24.2419 135.866" stroke="white" stroke-width="0.5" stroke-miterlimit="10"/>
<path d="M92.4517 130.223L19.144 159.584" stroke="white" stroke-width="0.5" stroke-miterlimit="10"/>
<path d="M99.4038 138.609L20.1132 170.364" stroke="white" stroke-width="0.5" stroke-miterlimit="10"/>
<path d="M103.32 148.172L22.7672 180.433" stroke="white" stroke-width="0.5" stroke-miterlimit="10"/>
<path d="M109.322 155.805L26.4624 188.989" stroke="white" stroke-width="0.5" stroke-miterlimit="10"/>
<path d="M111.25 167.637L32.377 199.225" stroke="white" stroke-width="0.5" stroke-miterlimit="10"/>
<path d="M110.725 180.516L41.6986 208.16" stroke="white" stroke-width="0.5" stroke-miterlimit="10"/>
<path d="M106.95 195.684L53.6195 215.747" stroke="white" stroke-width="0.5" stroke-miterlimit="10"/>
<path d="M97.2757 262.084L114.713 253.98" stroke="white" stroke-width="1.5" stroke-miterlimit="10"/>
<path d="M102.444 270.315L119.882 262.211" stroke="white" stroke-width="1.5" stroke-miterlimit="10"/>
<path d="M139.25 304.913L116.702 300.083" stroke="white" stroke-width="1.5" stroke-miterlimit="10"/>
<path d="M132.44 290.777L108.632 285.584" stroke="white" stroke-width="1.5" stroke-miterlimit="10"/>
<path d="M126.05 277.516L102.491 272.874" stroke="white" stroke-width="1.5" stroke-miterlimit="10"/>
<path d="M44.7003 168.484C40.5499 158.697 40.1963 149.507 43.9105 147.96C47.6247 146.412 54.0002 153.092 58.1506 162.879C62.301 172.667 62.6546 181.856 58.9404 183.404C55.2262 184.952 48.8507 178.272 44.7003 168.484Z" fill="white" stroke="white" stroke-width="0.5" stroke-miterlimit="10"/>
<path d="M67.5983 159.066C63.4479 149.279 63.0943 140.089 66.8084 138.542C70.5226 136.994 76.8981 143.674 81.0485 153.461C85.1989 163.249 85.5525 172.438 81.8384 173.986C78.1242 175.534 71.7487 168.854 67.5983 159.066Z" fill="white" stroke="white" stroke-width="0.5" stroke-miterlimit="10"/>
<path d="M82.9722 184.191C82.9722 184.191 80.5814 195.145 65.8502 191.511L82.9722 184.191V184.191Z" fill="white" stroke="white" stroke-width="0.5" stroke-miterlimit="10"/>
</g>
<defs>
<clipPath id="clip0_213_280">
<rect width="197" height="446" fill="white" transform="translate(173.001)"/>
</clipPath>
<clipPath id="clip1_213_280">
<rect width="108.279" height="242.036" fill="white" transform="matrix(-0.982125 0.188231 0.188231 0.982125 106.344 96.0039)"/>
</clipPath>
</defs>
</svg>
