<?xml version="1.0" encoding="UTF-8"?>
<svg id="Calque_2" data-name="Calque 2" xmlns="http://www.w3.org/2000/svg" viewBox="0 0 834.04 301.31">
  <defs>
    <style>
      .cls-1 {
        fill: #fff;
      }
    </style>
  </defs>
  <g id="Calque_1-2" data-name="Calque 1">
    <g>
      <path d="m772.57,0H61.47C27.52,0,0,27.52,0,61.47v117.5c0,33.95,27.52,61.47,61.47,61.47h294.68l60.87,60.87,60.87-60.87h294.68c33.95,0,61.47-27.52,61.47-61.47V61.47c0-33.95-27.52-61.47-61.47-61.47Z"/>
      <g>
        <path class="cls-1" d="m178.46,61.84v117.99h-5.77l-71.46-98.26v89.33h14.14v6.89h-37.59v-6.89h14.14v-101.98l-5.03-7.07h-12.84v-6.89h26.98l68.11,93.42V61.84h-14.14v-6.89h37.41v6.89h-13.96Z"/>
        <path class="cls-1" d="m263.68,178.15c-2.42.75-5.02,1.3-6.51,1.3-5.77,0-9.12-4.09-9.12-10.98v-1.86c-7.82,9.68-14.89,13.59-24.75,13.59-12.84,0-22.33-8.93-22.33-21.4,0-9.49,6.14-17.3,15.07-19.35l31.82-7.26v-21.03c0-7.44-5.58-12.84-13.03-12.84-3.72,0-6.14.56-11.54,3.16v8.93l-16.56,4.84c-1.3-2.24-1.49-3.16-1.49-5.22,0-10.79,12.47-18.8,29.4-18.8s27.17,8.19,27.17,20.48v57.31h14.33v5.22l-12.47,3.91Zm-15.82-38.53l-31.82,7.44v9.31c0,7.82,5.03,12.84,12.84,12.84,5.96,0,10.79-2.61,18.98-9.86v-19.73Z"/>
        <path class="cls-1" d="m338.97,110.97c-3.72-3.54-6.33-5.22-8.19-5.22-3.35,0-6.7,3.16-16.93,15.63v49.5h17.87v6.89h-45.97v-6.89h14.14v-66.99h-16.19v-5.03l26.8-7.26h3.35v20.84c13.4-17.11,18.24-21.21,24.94-21.21,2.23,0,4.09.56,5.21,1.67l5.77,5.03-10.79,13.03Z"/>
        <path class="cls-1" d="m411.8,110.97c-3.72-3.54-6.33-5.22-8.19-5.22-3.35,0-6.7,3.16-16.93,15.63v49.5h17.87v6.89h-45.97v-6.89h14.14v-66.99h-16.19v-5.03l26.8-7.26h3.35v20.84c13.4-17.11,18.24-21.21,24.94-21.21,2.23,0,4.09.56,5.21,1.67l5.77,5.03-10.79,13.03Z"/>
        <path class="cls-1" d="m489.23,178.15c-2.42.75-5.02,1.3-6.51,1.3-5.77,0-9.12-4.09-9.12-10.98v-1.86c-7.82,9.68-14.89,13.59-24.75,13.59-12.84,0-22.33-8.93-22.33-21.4,0-9.49,6.14-17.3,15.07-19.35l31.82-7.26v-21.03c0-7.44-5.58-12.84-13.03-12.84-3.72,0-6.14.56-11.54,3.16v8.93l-16.56,4.84c-1.3-2.24-1.49-3.16-1.49-5.22,0-10.79,12.47-18.8,29.4-18.8s27.17,8.19,27.17,20.48v57.31h14.33v5.22l-12.47,3.91Zm-15.82-38.53l-31.82,7.44v9.31c0,7.82,5.03,12.84,12.84,12.84,5.96,0,10.79-2.61,18.98-9.86v-19.73Z"/>
        <path class="cls-1" d="m534.45,179.45c-10.79,0-17.31-6.7-17.31-18.05v-57.5h-16.19v-5.03l16.19-4.1v-25.68h13.4v26.25h23.08v8.56h-23.08v55.83c0,7.07,2.42,9.67,8.56,9.67,3.91,0,6.33-.75,12.65-4.46l3.16,5.03c-9.86,7.82-13.59,9.49-20.47,9.49Z"/>
        <path class="cls-1" d="m563.29,177.78v-6.89h14.14v-66.99h-16.19v-5.03l26.8-7.26h3.35v79.28h14.14v6.89h-42.25Zm20.29-108.32c-5.4,0-9.68-4.28-9.68-9.86s4.28-9.68,9.68-9.68,9.86,4.28,9.86,9.68-4.28,9.86-9.86,9.86Z"/>
        <path class="cls-1" d="m615.11,177.78v-6.89h14.14v-66.99h-16.19v-5.03l26.8-7.26h3.35v79.28h14.14v6.89h-42.24Zm20.28-108.32c-5.4,0-9.68-4.28-9.68-9.86s4.28-9.68,9.68-9.68,9.86,4.28,9.86,9.68-4.28,9.86-9.86,9.86Z"/>
        <path class="cls-1" d="m731.01,100.36l-30.33,79.84h-3.72l-32.57-79.84h-7.82v-6.88h36.1v6.88h-13.03l22.15,54.9,20.84-54.9h-12.47v-6.88h28.66v6.88h-7.82Z"/>
        <path class="cls-1" d="m749,179.82c-5.96,0-10.98-4.84-10.98-10.98s5.03-10.8,10.98-10.8,10.98,4.84,10.98,10.8-5.02,10.98-10.98,10.98Z"/>
      </g>
    </g>
  </g>
</svg>