<?xml version="1.0" standalone="no"?>
<!DOCTYPE svg PUBLIC "-//W3C//DTD SVG 20010904//EN"
 "http://www.w3.org/TR/2001/REC-SVG-20010904/DTD/svg10.dtd">
<svg version="1.0" xmlns="http://www.w3.org/2000/svg"
 width="1920.000000pt" height="1080.000000pt" viewBox="0 0 1920.000000 1080.000000"
 preserveAspectRatio="xMidYMid meet">

<g transform="translate(0.000000,1080.000000) scale(0.100000,-0.100000)"
fill="#000000" stroke="none">
<path d="M5949 6899 c-243 -36 -450 -230 -504 -471 -14 -64 -15 -158 -13 -753
3 -672 3 -681 25 -745 64 -187 215 -338 403 -403 l65 -22 1535 -3 1535 -2 303
-303 302 -302 303 302 302 303 1535 2 1535 3 65 22 c188 64 339 215 403 403
22 64 22 72 25 745 2 595 1 689 -13 753 -48 213 -217 392 -435 460 -51 16
-292 17 -3685 18 -1996 1 -3655 -2 -3686 -7z m5390 -524 c39 -39 36 -98 -8
-137 -29 -26 -39 -30 -75 -25 -74 10 -112 95 -70 155 34 49 109 52 153 7z
m519 0 c50 -58 16 -150 -60 -162 -47 -7 -84 15 -104 64 -14 31 -13 38 3 71 10
20 29 43 43 50 36 18 91 8 118 -23z m-5086 -469 c180 -247 332 -454 337 -459
8 -8 11 116 11 416 l0 427 -70 0 -70 0 0 35 0 35 188 -2 187 -3 3 -32 3 -33
-70 0 -71 0 0 -590 0 -590 -34 0 c-33 0 -41 11 -386 485 -194 267 -354 485
-356 485 -2 0 -4 -198 -4 -440 l0 -440 75 0 75 0 0 -35 0 -35 -190 0 -190 0 0
35 0 35 70 0 70 0 0 505 0 505 -26 40 c-26 40 -27 40 -90 40 l-64 0 0 35 0 36
137 -3 137 -3 328 -449z m3968 184 l0 -129 113 -3 112 -3 3 -42 3 -43 -115 0
-116 0 0 -307 c0 -352 -2 -343 82 -343 29 0 65 8 87 20 l39 19 17 -26 c17 -25
16 -26 -11 -49 -16 -13 -53 -36 -82 -50 -45 -23 -61 -26 -114 -21 -73 6 -105
27 -135 87 -22 43 -23 52 -23 357 l0 313 -80 0 c-78 0 -80 1 -80 25 0 20 7 26
38 34 20 5 56 15 80 21 l42 11 0 129 0 130 70 0 70 0 0 -130z m-2895 -101
c102 -19 159 -58 190 -131 12 -31 15 -89 15 -338 l0 -300 70 0 70 0 0 -29 c0
-29 -4 -31 -84 -55 -46 -14 -96 -26 -111 -26 -38 0 -85 50 -85 91 l0 32 -50
-47 c-66 -62 -109 -79 -195 -80 -104 0 -174 42 -210 126 -41 99 6 231 95 268
15 6 101 28 191 48 l164 38 3 105 c2 66 -2 120 -10 144 -24 73 -108 104 -195
73 -31 -11 -33 -15 -33 -58 l0 -46 -86 -26 -85 -26 -11 23 c-39 85 65 190 211
215 67 11 81 11 146 -1z m1008 0 c12 -6 34 -23 49 -36 l27 -25 -51 -64 c-29
-35 -53 -64 -55 -64 -2 0 -21 12 -43 26 -25 17 -46 24 -59 19 -11 -3 -50 -38
-86 -78 l-65 -71 0 -248 0 -248 90 0 90 0 0 -35 0 -35 -235 0 -235 0 0 35 0
35 75 0 75 0 0 335 0 335 -85 0 c-83 0 -85 1 -85 24 0 22 10 26 118 56 64 18
134 35 155 38 l37 5 0 -102 0 -102 49 59 c107 128 177 170 234 141z m732 -5
c17 -8 40 -25 52 -36 l23 -21 -47 -56 c-26 -31 -50 -60 -54 -65 -5 -5 -25 3
-48 18 -26 19 -46 26 -60 21 -11 -3 -50 -38 -86 -77 l-65 -70 0 -249 0 -249
90 0 90 0 0 -35 0 -35 -235 0 -235 0 0 35 0 35 70 0 70 0 0 335 0 335 -80 0
c-78 0 -80 1 -80 25 0 20 7 26 43 35 23 6 83 22 132 36 142 38 135 42 135 -73
l1 -98 25 30 c72 85 149 156 177 164 45 13 48 13 82 -5z m580 -11 c64 -21 119
-77 133 -136 8 -29 12 -148 12 -331 l0 -286 70 0 70 0 0 -28 c0 -28 -4 -30
-90 -57 -131 -40 -174 -27 -194 58 l-7 29 -41 -37 c-111 -101 -260 -110 -355
-22 -74 68 -90 170 -41 259 39 69 76 84 351 144 l87 19 0 125 c-1 82 -5 133
-14 148 -31 57 -117 79 -191 48 -33 -14 -35 -18 -35 -60 l0 -44 -67 -20 c-112
-34 -108 -35 -111 25 -3 48 0 55 34 93 45 50 77 67 158 86 71 16 162 11 231
-13z m1185 -378 l0 -395 70 0 70 0 0 -35 0 -35 -215 0 -215 0 0 35 0 35 70 0
70 0 0 335 0 335 -80 0 c-78 0 -80 1 -80 25 0 20 7 26 43 35 23 7 78 22 122
35 44 13 95 23 113 24 l32 1 0 -395z m510 0 l0 -395 75 0 75 0 0 -35 0 -35
-215 0 -215 0 0 35 0 35 70 0 70 0 0 335 0 335 -80 0 c-78 0 -80 1 -80 25 0
20 7 26 38 35 20 5 75 21 122 34 47 13 97 25 113 25 l27 1 0 -395z m500 340
l0 -34 -64 -3 -64 -3 105 -263 c59 -145 109 -259 114 -255 6 7 199 509 199
519 0 2 -27 4 -60 4 l-60 0 0 35 0 35 145 0 145 0 0 -34 c0 -34 -2 -35 -41
-38 l-41 -3 -150 -398 c-134 -352 -153 -398 -171 -395 -16 2 -50 77 -181 398
l-161 395 -40 5 c-37 5 -40 8 -43 38 l-3 32 185 0 186 0 0 -35z m618 -625 c62
-38 70 -114 18 -166 -28 -28 -42 -34 -76 -34 -80 0 -137 92 -99 161 14 27 68
59 99 59 14 0 40 -9 58 -20z"/>
<path d="M7745 5471 l-150 -36 -3 -50 c-7 -107 37 -165 125 -165 54 0 86 13
145 58 l48 36 0 98 c0 54 -3 98 -7 97 -5 -1 -75 -18 -158 -38z"/>
<path d="M10003 5471 l-153 -35 0 -74 c0 -71 1 -75 34 -108 30 -30 40 -34 88
-34 40 0 65 7 103 29 83 47 86 55 83 163 l-3 94 -152 -35z"/>
</g>
</svg>
