<svg width="280" height="132" viewBox="0 0 280 132" fill="none" xmlns="http://www.w3.org/2000/svg">
<path d="M88.9348 33.4375H50.6779C46.198 33.4375 41.9017 35.1987 38.734 38.3337C35.5662 41.4687 33.7866 45.7207 33.7866 50.1543C33.7866 54.5879 35.5662 58.8398 38.734 61.9748C41.9017 65.1098 46.198 66.8711 50.6779 66.8711H88.9348C93.4146 66.8711 97.7109 65.1098 100.879 61.9748C104.046 58.8398 105.826 54.5879 105.826 50.1543C105.826 45.7207 104.046 41.4687 100.879 38.3337C97.7109 35.1987 93.4146 33.4375 88.9348 33.4375V33.4375Z" fill="#8DE8FE"/>
<path d="M41.2793 82.7194C39.8271 82.7194 38.3343 83.2493 38.3343 84.6866C38.3343 86.1238 39.75 86.4289 42.3097 87.0351C45.0275 87.6774 48.2362 88.8898 48.2362 92.4829C48.2362 96.899 44.5854 98.5369 40.5897 98.5369C38.5615 98.5369 36.2696 97.9709 34.8173 96.8709C34.5119 96.6715 34.2591 96.4028 34.0799 96.0872C33.9006 95.7716 33.8002 95.4181 33.787 95.0563C33.7821 94.8053 33.828 94.5559 33.9219 94.3228C34.0159 94.0896 34.156 93.8774 34.334 93.6986C34.512 93.5198 34.7243 93.378 34.9585 93.2816C35.1927 93.1853 35.444 93.1362 35.6976 93.1373C36.2747 93.1536 36.8282 93.3679 37.2634 93.7435C38.2501 94.5622 39.4928 95.0176 40.7804 95.0322C42.119 95.0322 43.766 94.4982 43.766 92.8723C43.766 91.3588 42.3097 90.9453 39.5188 90.299C36.805 89.6446 34.075 88.5486 34.075 85.1081C34.075 81.0614 37.7258 79.319 41.3767 79.319C43.2143 79.319 45.1614 79.7727 46.4635 80.7201C47.3438 81.3625 47.571 81.9687 47.571 82.4986C47.5801 82.7446 47.5378 82.9898 47.4468 83.2189C47.3559 83.448 47.2181 83.6561 47.0423 83.8301C46.8664 84.0042 46.6562 84.1405 46.4247 84.2305C46.1932 84.3205 45.9454 84.3623 45.6969 84.3533C45.2027 84.3325 44.7305 84.1456 44.3582 83.8234C43.4997 83.1006 42.4065 82.7086 41.2793 82.7194V82.7194ZM52.2319 81.8884C52.2319 79.8449 53.7206 79.5037 54.4102 79.5037C55.0998 79.5037 56.5886 79.8449 56.5886 81.8884V82.7595H56.6656C57.4769 80.9409 59.6472 79.315 62.3447 79.315C67.1233 79.315 69.111 82.9482 69.111 86.6537V95.811C69.111 97.9709 67.5817 98.3482 66.8191 98.3482C66.0564 98.3482 64.5231 97.9709 64.5231 95.811V87.9424C64.5231 85.7866 64.0282 83.1008 61.0832 83.1008C58.1382 83.1008 56.7914 85.5979 56.7914 88.0187V95.811C56.7914 97.9709 55.2621 98.3482 54.4954 98.3482C53.7287 98.3482 52.2035 97.9709 52.2035 95.811L52.2319 81.8884ZM87.4423 93.3902C87.6882 93.3797 87.9336 93.4193 88.1633 93.5065C88.3931 93.5937 88.6023 93.7266 88.778 93.8971C88.9537 94.0676 89.0922 94.272 89.1848 94.4977C89.2774 94.7233 89.3222 94.9654 89.3164 95.2088C89.3164 95.8512 89.1258 96.4935 88.0995 97.2161C86.8014 98.1234 84.7731 98.5409 83.2073 98.5409C77.7392 98.5409 73.419 94.984 73.419 88.93C73.419 83.0285 77.8528 79.319 83.2439 79.319C84.9421 79.2761 86.6163 79.7224 88.063 80.6037C89.1339 81.3223 89.3611 82.0449 89.3611 82.5749C89.3666 82.8347 89.3189 83.093 89.221 83.3341C89.1231 83.5752 88.9769 83.7943 88.7912 83.978C88.6055 84.1618 88.3842 84.3065 88.1405 84.4034C87.8969 84.5004 87.6359 84.5475 87.3734 84.542C86.809 84.5169 86.2699 84.3032 85.8441 83.9358C85.0921 83.3856 84.179 83.0938 83.2439 83.1048C79.881 83.1048 78.1976 86.0917 78.1976 88.93C78.1976 91.7683 79.8202 94.719 83.2439 94.719C84.2056 94.7413 85.1521 94.4785 85.9617 93.9643C86.3841 93.6379 86.8925 93.4387 87.4261 93.3902H87.4423ZM94.1112 83.4782C92.3548 83.4782 92.0465 82.2738 92.0465 81.6595C92.0465 81.0453 92.3548 79.8449 94.1112 79.8449H95.8717V77.1592C95.8717 72.8074 97.5917 68.9453 102.906 68.9453C104.816 68.9453 105.814 69.5917 105.814 70.9526C105.814 71.9723 105.125 72.8074 103.672 72.8074C101.186 72.8074 100.46 74.357 100.46 76.8942V79.8449H102.983C104.743 79.8449 105.048 81.0493 105.048 81.6595C105.048 82.2698 104.743 83.4782 102.983 83.4782H100.46V95.811C100.46 97.9709 98.9303 98.3482 98.1637 98.3482C97.397 98.3482 95.8717 97.9709 95.8717 95.811V83.4782H94.1112Z" fill="#8DE8FE"/>
<path d="M125.955 33.4336C122.613 33.4328 119.346 34.4128 116.567 36.2496C113.788 38.0864 111.622 40.6976 110.342 43.7528C109.063 46.8081 108.728 50.1702 109.379 53.414C110.031 56.6578 111.64 59.6375 114.002 61.9764C116.365 64.3152 119.375 65.9081 122.653 66.5536C125.93 67.1991 129.328 66.8682 132.415 65.6028C135.503 64.3373 138.142 62.1942 139.998 59.4444C141.855 56.6946 142.846 53.4616 142.846 50.1544C142.846 45.7205 141.066 41.4681 137.899 38.3324C134.731 35.1968 130.435 33.4347 125.955 33.4336V33.4336Z" fill="white"/>
<path d="M123.119 93.4086C123.365 93.3981 123.611 93.4377 123.841 93.5249C124.071 93.612 124.28 93.7449 124.456 93.9154C124.632 94.0858 124.771 94.2902 124.864 94.5158C124.957 94.7415 125.002 94.9836 124.997 95.2272C124.997 95.8736 124.807 96.5159 123.78 97.2345C122.478 98.1418 120.446 98.5594 118.876 98.5594C113.4 98.5594 109.067 94.9944 109.067 88.9243C109.067 83.0108 113.53 79.2893 118.913 79.2893C120.614 79.2436 122.292 79.6916 123.74 80.578C124.815 81.2966 125.046 82.0192 125.046 82.5491C125.051 82.8097 125.003 83.0686 124.904 83.3102C124.805 83.5518 124.659 83.7713 124.472 83.9554C124.286 84.1395 124.064 84.2844 123.819 84.3815C123.575 84.4785 123.313 84.5258 123.05 84.5203C122.485 84.4974 121.946 84.2834 121.521 83.9141C120.767 83.3616 119.851 83.0683 118.913 83.0791C115.542 83.0791 113.858 86.074 113.858 88.9163C113.858 91.7586 115.481 94.7174 118.913 94.7174C119.876 94.7428 120.826 94.4782 121.634 93.9586C122.067 93.6395 122.581 93.4488 123.119 93.4086V93.4086ZM137.516 98.5634C131.962 98.5634 127.516 94.5849 127.516 88.8561C127.516 83.1273 131.979 79.3054 137.516 79.3054C143.053 79.3054 147.515 83.1313 147.515 88.8561C147.515 94.5809 143.049 98.5634 137.516 98.5634ZM137.516 83.0189C133.865 83.0189 132.189 86.0137 132.189 88.8561C132.189 91.6984 133.865 94.7736 137.516 94.7736C141.166 94.7736 142.842 91.7024 142.842 88.8561C142.842 86.0097 141.134 83.0189 137.516 83.0189ZM151.417 81.8988C151.417 79.8513 152.91 79.49 153.6 79.49C154.289 79.49 155.786 79.8313 155.786 81.8988V82.77H155.863C156.674 80.9513 158.849 79.3214 161.571 79.3214C166.357 79.3214 168.349 82.9586 168.349 86.6762V95.8495C168.349 98.0094 166.82 98.3908 166.053 98.3908C165.286 98.3908 163.753 98.0094 163.753 95.8495V87.9488C163.753 85.7889 163.254 83.0951 160.305 83.0951C157.356 83.0951 156.013 85.5962 156.013 88.0251V95.8335C156.013 97.9933 154.484 98.3747 153.717 98.3747C152.951 98.3747 151.417 97.9933 151.417 95.8335V81.8988ZM172.917 81.8988C172.917 79.8513 174.41 79.49 175.099 79.49C175.789 79.49 177.286 79.8313 177.286 81.8988V82.77H177.363C178.174 80.9513 180.348 79.3214 183.07 79.3214C187.857 79.3214 189.849 82.9586 189.849 86.6762V95.8495C189.849 98.0094 188.319 98.3908 187.553 98.3908C186.786 98.3908 185.253 98.0094 185.253 95.8495V87.9488C185.253 85.7889 184.754 83.0951 181.805 83.0951C178.855 83.0951 177.513 85.5962 177.513 88.0251V95.8335C177.513 97.9933 175.983 98.3747 175.217 98.3747C174.45 98.3747 172.917 97.9933 172.917 95.8335V81.8988ZM198.217 90.3897C198.408 92.967 200.785 94.8659 203.466 94.8659C205.029 94.9088 206.546 94.3438 207.693 93.2922C208.111 92.882 208.675 92.6512 209.263 92.6499C209.507 92.6403 209.75 92.6807 209.978 92.7687C210.205 92.8567 210.411 92.9903 210.584 93.1612C210.757 93.332 210.892 93.5363 210.98 93.7613C211.069 93.9863 211.11 94.2271 211.101 94.4685C211.09 94.7773 211.017 95.0808 210.885 95.3609C210.754 95.641 210.566 95.8919 210.334 96.0984C208.537 97.8046 206.468 98.5634 203.515 98.5634C197.836 98.5634 193.633 94.9502 193.633 89.0488C193.633 83.1473 197.807 79.3054 203.369 79.3054C207.811 79.3054 211.413 81.8064 212.139 87.1499C212.182 87.4654 212.208 87.783 212.216 88.1013C212.216 89.7072 211.336 90.3736 209.802 90.3736L198.217 90.3897ZM207.657 87.1178C207.657 84.7692 206.318 82.7017 203.328 82.7017C200.61 82.7017 198.424 84.5564 198.233 87.1178H207.657ZM229.156 93.4126C229.402 93.4022 229.648 93.4417 229.878 93.5289C230.108 93.616 230.317 93.7489 230.493 93.9194C230.669 94.0898 230.808 94.2942 230.901 94.5198C230.994 94.7455 231.039 94.9876 231.034 95.2313C231.034 95.8776 230.844 96.52 229.817 97.2386C228.515 98.1459 226.483 98.5634 224.913 98.5634C219.437 98.5634 215.108 94.9984 215.108 88.9283C215.108 83.0148 219.571 79.2933 224.954 79.2933C226.655 79.2488 228.333 79.6967 229.781 80.582C230.852 81.3006 231.083 82.0232 231.083 82.5532C231.088 82.8134 231.04 83.0719 230.941 83.3133C230.843 83.5546 230.696 83.7739 230.511 83.9579C230.325 84.1419 230.103 84.287 229.859 84.3843C229.615 84.4816 229.354 84.5292 229.091 84.5243C228.525 84.502 227.984 84.288 227.558 83.9181C226.805 83.3662 225.89 83.0729 224.954 83.0831C221.583 83.0831 219.895 86.078 219.895 88.9203C219.895 91.7627 221.518 94.7214 224.954 94.7214C225.916 94.7462 226.864 94.4817 227.671 93.9627C228.105 93.6407 228.623 93.4484 229.164 93.4086L229.156 93.4126ZM242.68 98.4148C237.813 98.4148 236.742 95.4601 236.742 91.9915V83.4725H235.277C233.517 83.4725 233.208 82.2681 233.208 81.6539C233.208 81.0397 233.517 79.8353 235.277 79.8353H236.77V76.6798C236.77 74.5962 238.267 74.2148 239.034 74.2148C239.8 74.2148 241.293 74.6163 241.293 76.6798V79.8272H244.165C245.926 79.8272 246.234 81.0316 246.234 81.6459C246.234 82.2601 245.926 83.4645 244.165 83.4645H241.293V91.9353C241.293 93.7178 241.906 94.6652 243.054 94.6652C243.298 94.6552 243.542 94.631 243.784 94.5929C243.961 94.5645 244.14 94.5511 244.319 94.5528C244.55 94.5416 244.781 94.5779 244.998 94.6592C245.214 94.7405 245.411 94.8652 245.576 95.0254C245.741 95.1856 245.871 95.3778 245.958 95.5901C246.045 95.8024 246.086 96.0301 246.08 96.259C246.075 96.6134 245.968 96.959 245.771 97.255C245.574 97.551 245.295 97.7849 244.968 97.9291C244.255 98.2584 243.476 98.4232 242.689 98.4108L242.68 98.4148Z" fill="white"/>
<path d="M99.2481 55.6C102.284 49.5914 99.8241 42.2845 93.7527 39.2795C87.6814 36.2746 80.2982 38.7095 77.2619 44.7181C74.2256 50.7267 76.6859 58.0337 82.7573 61.0386C88.8286 64.0436 96.2118 61.6086 99.2481 55.6Z" fill="#0C131F"/>
</svg>
