<svg width="210" height="86" viewBox="0 0 210 86" fill="none" xmlns="http://www.w3.org/2000/svg">
<g clip-path="url(#clip0_1_44718)">
<path d="M55.9076 0.183594H18.3299C9.16653 0.183594 1.74023 7.61011 1.74023 16.7737C1.74023 25.9374 9.16653 33.3639 18.3299 33.3639H55.9076C65.0709 33.3639 72.4972 25.9374 72.4972 16.7737C72.5012 7.61011 65.0709 0.183594 55.9076 0.183594ZM55.2343 28.8418C48.5689 28.8418 43.1625 23.4393 43.1625 16.7698C43.1625 10.1042 48.5649 4.69768 55.2343 4.69768C61.8996 4.69768 67.306 10.1002 67.306 16.7698C67.306 23.4393 61.8996 28.8418 55.2343 28.8418Z" fill="#0088CE"/>
<path d="M55.2338 28.8434C48.5685 28.8434 43.1621 23.4408 43.1621 16.7713C43.1621 10.1058 48.5645 4.69922 55.2338 4.69922C61.8992 4.69922 67.3055 10.1018 67.3055 16.7713C67.3055 23.4408 61.8992 28.8434 55.2338 28.8434Z" fill="white"/>
<path d="M9.10271 49.0934C7.67641 49.0934 6.21027 49.6193 6.21027 51.0457C6.21027 52.4361 7.60071 52.7748 10.1147 53.3724C12.78 54.0099 15.9354 55.2131 15.9354 58.779C15.9354 63.1735 12.3696 64.7871 8.42541 64.7871C6.43338 64.7871 4.18239 64.2253 2.75609 63.1337C1.96725 62.5321 1.74414 61.8587 1.74414 61.3328C1.74414 60.281 2.53298 59.4164 3.62063 59.4164C4.11067 59.4164 4.56087 59.5678 5.15848 60.018C6.21028 60.8428 7.33776 61.293 8.61266 61.293C9.92741 61.293 11.5409 60.7671 11.5409 59.1535C11.5409 57.6514 10.1147 57.2371 7.37362 56.5996C4.70828 55.9621 2.04295 54.8705 2.04295 51.456C2.04295 47.44 5.64852 45.7108 9.21426 45.7108C11.0151 45.7108 12.9314 46.1611 14.2103 47.1013C15.0748 47.7388 15.2979 48.3404 15.2979 48.8663C15.2979 49.8783 14.5848 50.707 13.4573 50.707C13.0429 50.707 12.6326 50.5556 12.1425 50.1811C11.1664 49.3962 10.1904 49.0934 9.10271 49.0934ZM19.8437 48.2687C19.8437 46.2407 21.3099 45.9021 21.9832 45.9021C22.6605 45.9021 24.1226 46.2407 24.1226 48.2687V49.1332H24.1983C24.9872 47.3324 27.1266 45.7148 29.7919 45.7148C34.4852 45.7148 36.4374 49.3205 36.4374 52.9979V62.0858C36.4374 64.2253 34.9354 64.5999 34.1864 64.5999C33.4334 64.5999 31.9314 64.2253 31.9314 62.0858V54.2768C31.9314 52.1373 31.4413 49.4719 28.5529 49.4719C25.7003 49.4719 24.3457 51.9501 24.3457 54.3525V62.0898C24.3457 64.2293 22.8437 64.6038 22.0907 64.6038C21.3378 64.6038 19.8398 64.2293 19.8398 62.0898V48.2687H19.8437ZM54.4254 59.6834C55.5888 59.6834 56.266 60.5479 56.266 61.4842C56.266 62.1217 56.0788 62.7592 55.0629 63.4763C53.7879 64.3767 51.7959 64.7911 50.2581 64.7911C44.8876 64.7911 40.6445 61.2611 40.6445 55.253C40.6445 49.3962 44.9991 45.7148 50.2939 45.7148C52.023 45.7148 53.7481 46.1292 55.027 46.9898C56.0788 47.7029 56.3019 48.4161 56.3019 48.942C56.3019 49.954 55.5489 50.8943 54.3497 50.8943C53.9354 50.8943 53.525 50.7827 52.8477 50.2926C52.2461 49.8424 51.3816 49.4679 50.2939 49.4679C46.9911 49.4679 45.3378 52.4361 45.3378 55.249C45.3378 58.0658 46.9154 60.9942 50.2939 60.9942C51.27 60.9942 52.1704 60.7671 52.9593 60.2412C53.525 59.8706 54.0111 59.6834 54.4254 59.6834ZM61.0071 49.8464C59.278 49.8464 58.9792 48.6432 58.9792 48.0456C58.9792 47.444 59.278 46.2447 61.0071 46.2447H62.7362V43.5793C62.7362 39.2604 64.4254 35.4316 69.6445 35.4316C71.521 35.4316 72.4971 36.0691 72.4971 37.4237C72.4971 38.4357 71.8198 39.2644 70.3935 39.2644C67.9513 39.2644 67.2381 40.8023 67.2381 43.3203V46.2487H69.7162C71.4453 46.2487 71.7441 47.4519 71.7441 48.0496C71.7441 48.6512 71.4453 49.8504 69.7162 49.8504H67.2381V62.0938C67.2381 64.2333 65.7362 64.6078 64.9832 64.6078C64.27 64.6078 62.7322 64.2333 62.7322 62.0938V49.8504H61.0071V49.8464Z" fill="#0088CE"/>
<path d="M92.2654 0.179688C83.1021 0.179688 75.6758 7.60621 75.6758 16.7698C75.6758 25.9335 83.1021 33.36 92.2654 33.36C101.429 33.36 108.855 25.9335 108.855 16.7698C108.855 7.60621 101.429 0.179688 92.2654 0.179688Z" fill="#0C131F"/>
<path d="M89.4826 59.7005C90.6499 59.7005 91.3272 60.5651 91.3272 61.5053C91.3272 62.1468 91.14 62.7843 90.124 63.5014C88.8451 64.4058 86.8491 64.8202 85.3073 64.8202C79.9288 64.8202 75.6738 61.2822 75.6738 55.2621C75.6738 49.3934 80.0404 45.7041 85.3431 45.7041C87.0722 45.7041 88.8053 46.1184 90.0842 46.983C91.136 47.6961 91.3631 48.4133 91.3631 48.9392C91.3631 49.9552 90.6101 50.8955 89.4069 50.8955C88.9926 50.8955 88.5782 50.7839 87.9009 50.2938C87.2993 49.8436 86.4348 49.4651 85.3431 49.4651C82.0324 49.4651 80.375 52.4373 80.375 55.2581C80.375 58.0789 81.9567 61.0153 85.3431 61.0153C86.3232 61.0153 87.2236 60.7882 88.0165 60.2623C88.5822 59.8878 89.0683 59.7005 89.4826 59.7005ZM103.602 64.8162C98.1479 64.8162 93.7814 60.8639 93.7814 55.1824C93.7814 49.501 98.1479 45.7001 103.602 45.7001C109.056 45.7001 113.423 49.501 113.423 55.1824C113.423 60.8679 109.056 64.8162 103.602 64.8162ZM103.602 49.3894C100.028 49.3894 98.371 52.3616 98.371 55.1824C98.371 58.0032 100.028 61.0511 103.602 61.0511C107.176 61.0511 108.833 58.0032 108.833 55.1824C108.833 52.3616 107.176 49.3894 103.602 49.3894ZM117.275 48.2619C117.275 46.23 118.742 45.8913 119.419 45.8913C120.096 45.8913 121.562 46.23 121.562 48.2619V49.1265H121.638C122.427 47.3216 124.574 45.7041 127.244 45.7041C131.949 45.7041 133.905 49.3177 133.905 53.0031V62.107C133.905 64.2504 132.399 64.6289 131.646 64.6289C130.893 64.6289 129.387 64.2544 129.387 62.107V54.282C129.387 52.1385 128.897 49.4651 126.001 49.4651C123.14 49.4651 121.785 51.9473 121.785 54.3577V62.107C121.785 64.2504 120.279 64.6289 119.526 64.6289C118.773 64.6289 117.267 64.2544 117.267 62.107V48.2619H117.275ZM138.407 48.2619C138.407 46.23 139.873 45.8913 140.55 45.8913C141.228 45.8913 142.694 46.23 142.694 48.2619V49.1265H142.769C143.558 47.3216 145.706 45.7041 148.375 45.7041C153.08 45.7041 155.036 49.3177 155.036 53.0031V62.107C155.036 64.2504 153.53 64.6289 152.777 64.6289C152.024 64.6289 150.518 64.2544 150.518 62.107V54.282C150.518 52.1385 150.028 49.4651 147.132 49.4651C144.271 49.4651 142.917 51.9473 142.917 54.3577V62.107C142.917 64.2504 141.411 64.6289 140.658 64.6289C139.905 64.6289 138.399 64.2544 138.399 62.107V48.2619H138.407ZM163.256 56.6885C163.443 59.2463 165.777 61.1268 168.411 61.1268C170.291 61.1268 171.423 60.5252 172.55 59.585C173.192 59.059 173.602 58.9435 174.092 58.9435C175.108 58.9435 175.897 59.6567 175.897 60.7483C175.897 61.1229 175.746 61.8002 175.144 62.3659C173.375 64.0592 171.343 64.8122 168.447 64.8122C162.877 64.8122 158.738 61.2384 158.738 55.3697C158.738 49.5368 162.837 45.7001 168.295 45.7001C172.662 45.7001 176.196 48.1822 176.913 53.4892C176.949 53.8637 176.989 54.1306 176.989 54.4294C176.989 56.0111 176.124 56.6885 174.618 56.6885H163.256ZM172.51 53.4533C172.51 51.1186 171.192 49.0866 168.259 49.0866C165.586 49.0866 163.443 50.9313 163.256 53.4533H172.51ZM193.634 59.7005C194.801 59.7005 195.479 60.5651 195.479 61.5053C195.479 62.1468 195.291 62.7843 194.275 63.5014C192.997 64.4058 191.001 64.8202 189.459 64.8202C184.076 64.8202 179.825 61.2822 179.825 55.2621C179.825 49.3934 184.188 45.7041 189.495 45.7041C191.224 45.7041 192.957 46.1184 194.236 46.983C195.287 47.6961 195.514 48.4133 195.514 48.9392C195.514 49.9552 194.761 50.8955 193.558 50.8955C193.144 50.8955 192.73 50.7839 192.052 50.2938C191.451 49.8436 190.586 49.4651 189.495 49.4651C186.184 49.4651 184.526 52.4373 184.526 55.2581C184.526 58.0789 186.108 61.0153 189.495 61.0153C190.475 61.0153 191.375 60.7882 192.168 60.2623C192.734 59.8878 193.224 59.7005 193.634 59.7005ZM206.917 64.6648C202.14 64.6648 201.084 61.7285 201.084 58.2702V49.8436H199.618C197.889 49.8436 197.586 48.6404 197.586 48.0388C197.586 47.4372 197.889 46.234 199.618 46.234H201.084V43.1104C201.084 41.0426 202.55 40.6641 203.303 40.6641C204.056 40.6641 205.522 41.0386 205.522 43.1104V46.234H208.343C210.072 46.234 210.375 47.4372 210.375 48.0388C210.375 48.6404 210.072 49.8436 208.343 49.8436H205.522V58.2343C205.522 60.0033 206.124 60.9436 207.252 60.9436C207.439 60.9436 207.702 60.9077 207.965 60.8679C208.267 60.832 208.339 60.832 208.491 60.832C209.618 60.832 210.22 61.6607 210.22 62.5253C210.22 63.2385 209.805 63.8441 209.128 64.1827C208.534 64.4775 207.746 64.6648 206.917 64.6648Z" fill="#0C131F"/>
</g>
<defs>
<clipPath id="clip0_1_44718">
<rect width="210" height="86" fill="white"/>
</clipPath>
</defs>
</svg>
