<svg width="592" height="180" viewBox="0 0 592 180" fill="none" xmlns="http://www.w3.org/2000/svg">
<path d="M379.2 167C361.62 167 339.11 164.35 315.26 156.05C290.21 147.34 211 113.09 187.32 102.8C183.05 100.95 179.9 97.1798 178.9 92.7098C177.65 87.1398 176.82 74.3898 182.54 72.7698C182.59 72.7598 182.64 72.7398 182.69 72.7298L183.14 72.6398C183.82 69.7998 185.49 67.6498 187.85 66.6398C192.88 64.4898 210.8 57.6498 225.19 52.1498C234.37 48.6498 242.29 45.6198 243.64 45.0398C248.84 42.8198 255.96 41.9698 261.27 42.8998C265.39 40.7398 270.57 40.6898 276.69 42.7298C289 46.8398 297.22 58.8098 304.26 71.1298C304.26 71.1298 315.04 88.3198 319.42 95.2998C320.53 93.8098 322.87 92.1698 327.83 92.4698C328.46 92.5098 329.41 92.5598 330.48 92.6198C332.88 92.7498 335.87 92.9098 337.55 93.0598C340.62 93.3298 343.85 93.5598 346.7 93.7698C348.99 93.9398 351.04 94.0798 352.6 94.2198C355.16 94.4398 357.43 96.0198 358.53 98.3398L361.43 104.46C362.14 105.94 362.01 107.65 361.1 109.02C360.18 110.39 358.66 111.18 356.99 111.08C350.14 110.76 336.84 109.91 332.47 109.52C331.24 109.41 330.09 109.22 329 108.93C331.04 111.39 333.28 113.87 335.33 115.91C350.48 130.98 383.77 135.66 394.18 135.66C399.64 135.73 414.77 134.55 419.45 128.32C420.97 126.29 421.27 123.87 420.37 120.9C419.31 117.42 417.78 113.61 415.67 109.19C415.17 109.67 414.5 109.95 413.76 109.99C410.56 110.16 408.05 110.45 405.83 110.71C403.13 111.02 400.8 111.29 397.96 111.29C394.2 111.29 392.44 107.52 390.74 103.87C390.3 102.92 389.84 101.93 389.34 100.99C388.51 99.4098 388.52 97.5698 389.36 96.0698C390.16 94.6498 391.57 93.7798 393.22 93.6698L395.88 93.4898C404.2 92.9298 404.65 92.8998 404.8 92.8998C405.35 92.8998 405.9 92.9498 406.45 93.0498C405.52 91.4598 404.75 90.2098 404.37 89.6098C392.48 71.0498 376.87 54.7198 369.52 47.9998C350.15 30.2798 335.3 25.0198 328.16 23.4598C320.39 21.7698 307.8 19.8598 297.95 20.0198C284.39 20.2498 269.26 24.5298 262.84 27.4998C253.51 31.8298 195.81 59.7998 188.05 63.7998C183.03 66.3998 175.75 66.5798 169.52 64.2798C164.89 62.5698 158.64 58.7398 155.19 50.2198C154.94 49.6098 154.68 48.9898 154.41 48.3698C154.03 47.4798 153.65 46.5898 153.31 45.6998C151.04 39.8198 148.72 36.5798 146.02 35.4898C142.3 33.9998 137.12 36.4298 129.95 39.7898C119.46 44.7198 105.09 51.4598 83.8701 51.4598C33.2101 51.4598 13.3601 30.7498 12.5401 29.8598C11.7901 29.0498 11.8301 27.7898 12.6401 27.0298C13.4501 26.2798 14.7101 26.3198 15.4701 27.1298C15.6601 27.3298 35.1301 47.4498 83.8701 47.4498C104.2 47.4498 118.1 40.9198 128.25 36.1598C136.33 32.3698 142.17 29.6198 147.51 31.7698C151.36 33.3198 154.3 37.1698 157.04 44.2498C157.37 45.0998 157.73 45.9398 158.09 46.7898C158.36 47.4298 158.64 48.0698 158.89 48.7098C161.8 55.8798 167.03 59.0898 170.91 60.5198C176.14 62.4498 182.15 62.3398 186.22 60.2398C193.99 56.2198 251.82 28.1998 261.16 23.8598C267.89 20.7398 283.74 16.2398 297.88 16.0098C308.08 15.8198 321.03 17.7998 329.01 19.5398C342 22.3798 357.35 31.4398 372.21 45.0398C379.7 51.8898 395.62 68.5298 407.73 87.4398C408.75 89.0398 411.18 93.0598 413.23 97.0898C414.33 98.2798 415.32 99.6798 416.09 101.15C420.01 108.56 422.58 114.46 424.18 119.71C425.46 123.92 424.94 127.62 422.63 130.7C415.78 139.82 395.03 139.63 394.14 139.63C381.43 139.63 348.22 134.36 332.49 118.72C327.64 113.9 321.96 106.92 319.57 102.82C319.43 102.59 319.31 102.36 319.2 102.13C318.44 101.16 317.66 100.04 316.84 98.7298C313.21 92.9198 300.82 73.1798 300.82 73.1798C291.69 57.1998 284.34 49.4998 275.42 46.5198C272.39 45.5098 269.68 45.0898 267.33 45.2798C270 47.2498 271.11 50.1798 270.38 53.6998C268.84 61.1598 267.11 107.9 268.66 121.8C268.85 123.46 267.79 124.8 266.03 125.14C262.4 125.85 252.29 121.93 251.23 118.09C249.26 110.94 251.21 60.7298 253.78 52.5698C254.52 50.1998 255.57 48.1698 256.89 46.5198C252.99 46.4798 248.63 47.2598 245.21 48.7198C243.79 49.3298 236.21 52.2198 226.62 55.8898C212.26 61.3798 194.38 68.1998 189.42 70.3198C188.72 70.6198 188.2 71.1198 187.83 71.6798L191.52 70.9298C192.56 70.6698 193.67 70.9298 194.49 71.6098C195.34 72.3198 195.78 73.3898 195.67 74.4898C195.64 74.9198 195.63 77.7798 195.69 81.5698L196.01 81.6398C195.92 78.6898 195.82 74.3598 195.93 73.4598C196.14 71.7198 197.36 70.2598 199.05 69.7298L205.89 67.9498C207 67.6798 208.14 67.9598 208.96 68.7098C209.78 69.4598 210.17 70.5498 210 71.6498C209.77 73.1598 209.66 78.6098 209.73 84.4798L212.42 85.0398C212.3 78.7498 212.29 72.0198 212.61 69.6998C212.86 67.8398 214.21 66.3098 216.06 65.8198C218.56 65.1498 222.25 64.2598 226.16 63.3198C230.98 62.1598 236.45 60.8398 240.9 59.6498C242.64 59.1798 243.78 59.7998 244.31 60.1998C245.23 60.9098 245.76 62.0498 245.76 63.3398C245.71 68.9098 245.38 84.2498 245.17 90.7198C245.13 92.0698 244.47 93.2998 243.37 94.0998C242.29 94.8798 240.95 95.1298 239.66 94.7798L216.53 89.9798C216.73 96.7598 217.01 101.2 217.2 102.07C217.55 103.72 216.59 105.15 214.86 105.55C212.27 106.15 207.6 104.44 206.71 100.92C206.12 98.5598 205.88 92.2098 205.78 87.7498L200.18 86.5898C200.41 92.5498 200.67 96.2198 200.81 96.8598C201.12 97.8598 200.63 98.9498 199.64 99.4098C198 100.17 193.51 98.3998 192.77 97.2398C192.42 96.6998 191.99 96.0198 191.75 84.8498L187.83 84.0398C187.77 84.0298 187.71 84.0098 187.64 83.9898C184.94 83.1498 183.41 80.4698 182.95 77.5198C182.03 79.6698 181.35 85.4198 182.8 91.8498C183.52 95.0798 185.81 97.8098 188.91 99.1498C205.75 106.46 291.02 143.4 316.58 152.29C359.7 167.29 398.03 163.52 409.83 159.34C417.71 156.55 421.37 149 422.18 142.87C422.33 141.71 422.73 140.64 423.35 139.69C437.72 118.02 472.21 121.41 508.73 125C534.64 127.55 561.42 130.18 582.45 124.09C583.51 123.78 584.62 124.39 584.93 125.45C585.24 126.51 584.63 127.62 583.57 127.93C561.81 134.24 534.63 131.56 508.35 128.98C473.06 125.51 439.73 122.23 426.69 141.9C426.4 142.34 426.22 142.82 426.15 143.38C425.19 150.69 420.75 159.71 411.17 163.11C405.55 165.1 394.16 167.01 379.21 167.01L379.2 167ZM261.97 47.1498C259.99 48.5698 258.52 50.7998 257.59 53.7698C255.2 61.3498 253.26 110.42 255.08 117.03C255.83 118.45 262.01 121.13 264.58 121.27C263.14 105.68 264.87 60.5598 266.46 52.8998C266.68 51.8098 267.35 48.5998 261.98 47.1598L261.97 47.1498ZM404.79 96.8898C404.52 96.8998 399.87 97.2198 396.14 97.4698L393.47 97.6498C393.17 97.6698 392.96 97.7897 392.84 98.0198C392.71 98.2598 392.64 98.6698 392.88 99.1098C393.42 100.14 393.9 101.17 394.37 102.17C395.54 104.68 396.75 107.28 397.96 107.28C400.56 107.28 402.79 107.02 405.37 106.73C407.41 106.49 409.7 106.23 412.57 106.05C412.4 105.15 411.83 103.23 409.94 99.4398C408.73 98.2298 406.92 96.8998 404.81 96.8998L404.79 96.8898ZM322.63 100.03C325.45 103.49 328.51 105.14 332.81 105.52C337.15 105.91 350.35 106.75 357.17 107.07C357.52 107.1 357.68 106.9 357.76 106.78C357.84 106.66 357.94 106.44 357.81 106.16L354.91 100.04C354.42 98.9998 353.4 98.2998 352.25 98.1998C350.71 98.0698 348.67 97.9198 346.41 97.7598C343.55 97.5498 340.3 97.3198 337.21 97.0498C335.6 96.9098 332.64 96.7498 330.26 96.6198C329.18 96.5598 328.23 96.5098 327.59 96.4698C325.1 96.3198 323.24 96.7998 322.6 97.7298C322.13 98.4198 322.38 99.3998 322.64 100.03H322.63ZM209.8 88.5898C209.94 94.2897 210.24 98.5397 210.59 99.9498C210.68 100.29 211.07 100.7 211.63 101.03C212.14 101.33 212.67 101.51 213.11 101.6C212.85 98.9998 212.64 93.7998 212.51 89.1498L209.8 88.5898ZM196.93 97.8298C196.94 97.8798 196.95 97.9298 196.97 97.9898C196.96 97.9498 196.94 97.8898 196.93 97.8298ZM196.22 94.8798C196.34 94.9298 196.47 94.9798 196.61 95.0398C196.42 92.5898 196.26 89.0598 196.14 85.7498L195.77 85.6698C195.9 91.0098 196.09 93.7498 196.22 94.8798ZM216.43 85.8798L240.54 90.8898C240.59 90.8998 240.64 90.9098 240.69 90.9298C240.84 90.9698 240.95 90.9298 241.02 90.8698C241.08 90.8198 241.16 90.7398 241.17 90.5998C241.38 84.2398 241.7 69.2898 241.75 63.5698C237.28 64.7698 231.87 66.0698 227.09 67.2198C223.2 68.1498 219.54 69.0398 217.08 69.6898C216.8 69.7598 216.6 69.9798 216.56 70.2398C216.31 72.0598 216.26 78.2398 216.43 85.8798ZM200.03 82.4798L205.72 83.6598C205.68 79.2398 205.74 74.5298 205.94 72.0798L200.14 73.5798C200.05 73.6098 199.92 73.7598 199.9 73.9498C199.85 74.4798 199.89 77.8098 200.03 82.4898V82.4798ZM188.75 80.1398L191.67 80.7498C191.64 78.4298 191.63 76.2198 191.65 74.9898L186.8 75.9798C186.9 77.9798 187.69 79.7498 188.75 80.1398Z" fill="#0C131F"/>
</svg>
