<svg width="718" height="356" viewBox="0 0 718 356" fill="none" xmlns="http://www.w3.org/2000/svg">
<path d="M332.718 306.775C337.263 306.583 342.498 306.407 348.473 306.407C370.296 306.407 374.156 310.083 374.156 314.372C374.156 323.564 363.325 324.565 354.588 321.113C348.718 318.793 341.378 313.518 332.718 306.775ZM332.718 306.775C316.51 307.459 309.068 308.339 308.113 302.117C307.4 297.473 309.904 294.118 314.697 292.562M332.718 306.775C327.229 302.5 321.209 297.636 314.697 292.562M372.465 256.465C372.236 257.583 371.985 258.706 371.71 259.837C368.42 273.339 309.336 251.773 309.336 269.029C309.336 278.862 323.401 278.22 339.911 278.984C355.199 278.984 370.163 278.244 370.062 286.186C369.985 292.237 364.929 293.444 360.091 294.151C352.193 295.307 343.619 293.407 333.796 292.313C328.293 291.7 323.784 291.284 319.12 291.7C317.487 291.846 316.006 292.137 314.697 292.562M372.465 256.465C376.698 235.854 373.736 217.376 387.599 195.59C402.213 172.623 411.81 164.61 413.292 138.905C413.292 106.577 391.789 86.0138 379.659 78.2109C370.062 72.0366 345.11 61.5439 312.093 75.7599C279.076 89.9758 271.63 123.78 272.034 138.905C273.029 165.222 292.699 190.18 296.018 195.59C299.915 201.942 305.273 211.227 312.093 235.171C313.554 240.302 317.452 245.599 323.784 245.599C330.117 245.599 336.45 243.478 336.45 231.751V143.197M372.465 256.465C355.254 248.378 350.577 233.149 350.577 223.443V143.194M372.465 256.465C383.852 261.816 400.724 264.04 425.357 259.472C445.091 255.813 554.232 206.523 693.929 208.055M336.45 143.197V134.019C336.45 127.178 329.337 120.63 320.374 125.712C309.17 132.064 318.913 146.235 331.578 143.792C332.968 143.524 334.632 143.329 336.45 143.197ZM336.45 143.197C340.813 142.88 346.067 142.926 350.577 143.194M350.577 143.194C352.983 143.337 355.177 143.544 356.909 143.792C367.139 145.258 377.875 134.939 370.062 126.689C360.806 116.916 350.577 125.712 350.577 134.019V143.194ZM314.697 292.562C287.001 270.982 250.404 245.599 207.859 245.599C160.787 245.599 162.609 294.302 121.308 278.984C90.8885 267.703 66.8175 240.3 52.8817 251.743C38.9459 263.186 74.428 297.702 55.4155 305.143C41.8002 310.472 19.9425 307.57 -7.92908 292.313" stroke="#0C131F" stroke-width="7" stroke-linecap="round" stroke-linejoin="round"/>
<path d="M342.059 55.0328C339.96 55.0328 338.258 53.3251 338.258 51.2185V31.7855C338.258 29.6789 339.96 27.9712 342.059 27.9712C344.158 27.9712 345.86 29.6789 345.86 31.7855V51.2185C345.86 53.3251 344.158 55.0328 342.059 55.0328Z" fill="#0C131F"/>
<path d="M404.236 62.8999C402.599 61.5813 402.337 59.1806 403.651 57.5377L415.751 42.4085C417.065 40.7657 419.457 40.5028 421.094 41.8214C422.731 43.14 422.993 45.5408 421.679 47.1836L409.579 62.3128C408.265 63.9556 405.873 64.2185 404.236 62.8999Z" fill="#0C131F"/>
<path d="M279.106 65.0501C280.402 66.7074 282.791 66.9967 284.442 65.6963C286.094 64.3959 286.382 61.9983 285.086 60.341L272.704 44.503C271.408 42.8457 269.019 42.5564 267.367 43.8568C265.716 45.1572 265.428 47.5548 266.723 49.2121L279.106 65.0501Z" fill="#0C131F"/>
</svg>
