<svg width="1440" height="495" viewBox="0 0 1440 495" fill="none" xmlns="http://www.w3.org/2000/svg">
<path d="M1224.06 235.627C1225.93 241.084 1227.41 247.192 1228.38 254.002C1230.45 268.657 1225.78 283.569 1214.89 293.596C1212.82 295.396 1210.74 297.196 1208.41 298.224C1192.59 305.937 1170.25 299.878 1154.77 288.253L1142.81 278.427C1139.44 275.856 1135.41 272.753 1129.61 268.878C1119.93 262.419 1100.57 257.253 1104.44 286.316C1108.26 314.943 1060.16 296.898 1005.73 268.878C937.985 234.003 835.399 196.411 847.013 266.471C854.478 311.503 802.367 306.331 725.071 270.815C716.149 266.716 707.21 262.853 698.275 259.229M1224.06 235.627C1218.77 220.128 1210.41 209.887 1201.97 203.739M1224.06 235.627C1210.18 240.135 1202.33 232.232 1199.85 221.093C1198.59 215.427 1199.78 209.357 1201.97 203.739M1224.06 235.627C1231.97 233.06 1241.84 226.466 1253.79 214.151C1267.01 200.524 1278.16 186.641 1295.79 192.297C1320.68 200.267 1356.21 202.324 1375.39 187.669C1400.03 168.644 1437.36 103.853 1437.36 103.853C1437.36 103.853 1342.72 50.6325 1283.35 107.196C1283.35 107.196 1261.05 124.164 1268.05 156.302C1270.62 168.127 1279.42 175.138 1298 161.187C1321.23 143.75 1352.2 113.876 1385.1 115.814M1201.97 203.739C1193.52 197.59 1184.99 195.536 1179.37 196.411C1139.18 202.838 1083.95 190.24 1060.36 161.187C1030.02 123.65 996.053 12.0668 996.053 12.0668C996.053 12.0668 1158.89 -35.4975 1228.9 71.2009C1228.9 71.2009 1265.97 119.279 1215.41 182.27C1215.41 182.27 1206.53 192.02 1201.97 203.739ZM1192.46 173.443C1128.49 69.5838 1058.34 36.4714 1058.34 36.4714M699.077 259.713C699.077 259.713 640.577 236.543 606.077 230.043C509.609 211.868 360.721 254.196 544.077 324.043C646.405 363.023 775.077 453.043 0.0771484 493.043" stroke="#8DE8FE" stroke-width="3"/>
</svg>
