<svg width="664" height="88" viewBox="0 0 664 88" fill="none" xmlns="http://www.w3.org/2000/svg">
<path d="M217.556 39.2591C218.533 39.8683 219.325 40.7336 219.846 41.7614C220.367 42.7891 220.597 43.94 220.512 45.0894C220.415 47.0051 219.711 48.8398 218.5 50.3264C217.29 51.813 215.637 52.8739 213.783 53.3544L210.709 54.1687L198.674 57.2019C197.52 57.4947 196.33 57.6168 195.141 57.5643L155.034 55.8095C150.842 55.667 151.469 48.5216 151.469 48.5216V48.4443C151.468 47.7661 151.733 47.1146 152.205 46.6287C152.677 46.1427 153.321 45.8607 153.998 45.8426L182.394 46.3801C183.158 46.3997 183.885 46.7122 184.425 47.2532C184.965 47.7942 185.277 48.5223 185.297 49.2871C185.384 51.1741 185.305 53.0651 185.061 54.9382C184.834 56.2028 184.153 57.3407 183.147 58.1377C182.14 58.9348 180.878 59.3361 179.597 59.2661L155.608 58.289C151.708 58.289 147.952 55.8461 148.387 40.2037C149.375 4.62757 174.156 3.3125 174.156 3.3125L257.78 7.34322C261.752 7.34322 264.009 9.37893 264.009 11.3943L264.237 18.8531C264.237 19.7774 263.696 20.2619 262.793 20.4817L255.446 21.2186C254.019 21.467 253.433 20.9418 253.478 19.1341L253.885 13.1084C253.901 12.5535 253.78 12.0034 253.533 11.5063C253.286 11.0093 252.921 10.5807 252.47 10.2584L251.47 9.54179C250.996 9.20325 250.425 9.02884 249.843 9.04507L247.896 9.11022C247.85 9.11289 247.806 9.12926 247.769 9.15723C247.732 9.18519 247.705 9.22348 247.69 9.26719C247.675 9.31091 247.673 9.35806 247.685 9.40263C247.698 9.44719 247.723 9.48714 247.757 9.51736L249.571 11.0197C249.907 11.2959 250.176 11.6443 250.359 12.039C250.542 12.4337 250.634 12.8646 250.628 13.2997L250.384 20.1641C250.384 21.3286 249.599 21.9393 248.485 22.2731L232.429 24.8096C230.681 25.3308 228.936 25.001 229.014 23.1811L229.961 12.0783C229.979 11.6944 229.916 11.311 229.776 10.9532C229.636 10.5954 229.422 10.2712 229.148 10.0019L227.973 8.83336C227.686 8.5504 227.345 8.32843 226.971 8.1808C226.596 8.03317 226.196 7.96292 225.793 7.97428L223.037 8.05979C222.905 8.06266 222.777 8.10567 222.67 8.18311C222.563 8.26054 222.482 8.36875 222.438 8.49334C222.394 8.61793 222.388 8.75302 222.423 8.88066C222.457 9.00829 222.529 9.12244 222.63 9.20793L224.013 10.3846C224.261 10.5962 224.459 10.8614 224.592 11.1603C224.724 11.4592 224.787 11.7841 224.777 12.1109L224 23.7918C223.984 24.3346 223.802 24.8594 223.479 25.2959C223.157 25.7324 222.709 26.06 222.195 26.2346L201.76 30.3753C201.505 30.4403 201.239 30.4448 200.983 30.3885C200.726 30.3321 200.486 30.2164 200.282 30.0506C200.079 29.8848 199.916 29.6735 199.808 29.4337C199.701 29.1939 199.65 28.9321 199.662 28.6694L199.78 26.1858C199.794 25.7769 199.952 25.3861 200.226 25.0822C200.499 24.7784 200.871 24.5809 201.276 24.5246C202.062 24.4198 202.79 24.0539 203.344 23.4855C203.897 22.9171 204.244 22.1791 204.329 21.3896L205.004 14.9975C205.047 14.5954 205.005 14.189 204.882 13.8039C204.759 13.4189 204.557 13.0638 204.289 12.7612C204.021 12.4586 203.694 12.2152 203.327 12.0464C202.96 11.8777 202.562 11.7873 202.158 11.7811L201.073 11.7566C200.316 11.742 199.582 12.0233 199.029 12.541C198.476 13.0586 198.146 13.7719 198.109 14.5293L197.665 23.7063L197.222 31.0756C197.222 31.0756 187.395 44.3851 174.25 43.6604C161.105 42.9356 145.097 43.5179 136.717 41.3071C128.338 39.0963 127.915 43.2899 125.841 47.4956C121.527 56.2736 108.472 55.7932 95.4078 52.7111C79.0587 48.8514 64.4499 35.3831 49.8167 39.1004C23.4981 45.7856 8.45826 42.1824 0.667969 30.9575" stroke="#1364C3" stroke-width="4" stroke-miterlimit="10"/>
<path d="M261.439 35.4528C260.748 43.3554 255.007 44.9962 252.583 43.7055C251.602 43.1082 250.84 42.2082 250.412 41.1405C249.985 39.9429 249.76 38.6827 249.745 37.4111C249.656 32.444 252.527 27.6071 256.275 26.6096C259.479 25.7587 262.22 27.9858 263.004 31.7478C263.204 32.7005 264.411 33.3763 265.143 32.729C268.339 29.9319 266.81 11.8955 266.81 11.8955C266.808 11.6405 266.754 11.3886 266.653 11.1545C266.552 10.9204 266.406 10.7089 266.222 10.5322C266.038 10.3555 265.821 10.2173 265.584 10.1256C265.346 10.0339 265.093 9.99059 264.838 9.99819L198.206 7.91769C196.702 7.97338 195.233 8.39184 193.925 9.13752C192.617 9.88321 191.508 10.9341 190.692 12.2008C187.098 17.7868 181.308 27.998 181.206 35.8721C181.154 40.0616 181.296 52.0194 181.495 54.6007C181.763 58.0736 184.341 59.3765 188.48 59.4457H197.608C198.633 59.4442 199.631 59.1175 200.459 58.5125C201.286 57.9076 201.901 57.0555 202.215 56.0786L205.569 41.621C206.32 39.2862 207.644 37.1776 209.42 35.4882C211.196 33.7988 213.367 32.5827 215.734 31.9513C215.734 31.9513 241.061 27.314 261.439 23.2222C269.343 21.6303 284.294 25.4859 280.655 33.474L280.634 33.5107C280.488 33.7672 278.17 38.8035 276.028 38.9338C274.295 39.0275 271.962 39.2351 270.77 38.205C270.136 37.6513 269.982 36.2793 270.124 35.3754C270.225 34.728 270.917 34.3453 271.868 34.1906C274.714 33.7305 279.927 35.3225 278.532 37.9648C276.121 42.533 271.661 45.5051 269.803 50.1791C272.145 52.0153 272.649 48.8315 274.409 48.8315C280.508 48.8315 287.29 55.0893 289.392 58.6518C291.23 61.7664 299.224 64.1034 312.836 64.1034C326.449 64.1034 330.824 63.3787 334.662 59.0304C337.914 55.2304 341.916 52.146 346.417 49.9715C347.725 49.2909 349.184 48.9534 350.657 48.9903C352.17 49.0391 355.191 50.5537 355.191 55.5738C355.191 60.83 355.439 62.5685 355.508 67.8247C355.508 68.6878 355.915 72.4254 355.833 75.7558C355.752 78.8705 355.101 81.5943 354.971 82.5551C354.431 86.4963 343.274 85.739 343.274 81.692C343.274 78.7239 338.476 78.9397 335.028 78.842C332.239 78.7524 332.897 77.4333 328.832 77.2134C319.48 76.7289 303.83 77.1768 297.41 76.7818C292.234 76.4643 293.905 77.5188 288.734 77.8811C285.802 78.0847 286.961 77.8363 284.025 77.8811C282.342 77.9055 282.427 84.3954 280.431 84.7741C277.585 85.3156 270.339 86.6143 269.762 82.5592C269.494 80.6701 269.107 78.6262 268.737 75.2754C268.367 71.9246 268.469 55.8465 269.331 52.7156C272.726 58.5459 284.883 59.5638 286.148 59.3602C287.412 59.1566 288.258 57.7805 288.624 56.5468C288.945 55.4595 289.197 54.3525 289.376 53.2327C289.596 51.9054 290.405 51.0423 291.816 50.973C302.932 50.4275 322.513 49.9918 333.471 51.9624C335.065 52.2474 334.926 56.3311 335.679 58.2202C336.431 60.1093 347.523 58.7943 351.202 56.0623C354.882 53.3304 353.093 48.7012 351.06 44.5931C349.515 41.4663 346.221 38.6244 347.079 35.2288C347.214 34.6018 347.566 34.0425 348.071 33.6491C348.478 33.36 350.466 33.3478 350.958 33.4089C353.495 33.7305 355.809 34.2232 355.646 35.6767C355.484 37.1302 355.118 37.2808 353.544 37.7816C351.971 38.2824 349.373 38.4534 347.807 37.9445C345.038 37.0447 344.481 35.8029 341.985 37.2971C337.146 40.1919 321.793 39.63 313.288 39.8051C302.879 40.0209 286.688 40.2123 282.387 36.324C284.05 32.2241 286.416 29.4026 289.16 25.9175C289.974 24.8996 290.852 23.8818 292.007 23.328C293.161 22.7743 294.446 22.7295 295.698 22.6766L324.282 21.5366C328.177 21.3819 332.414 21.329 335.524 23.6904C339.09 26.402 340.167 31.6175 343.936 34.0359C344.75 33.3438 342.717 30.7788 342.261 29.8098C340.444 25.9256 338.098 18.6011 324.371 19.224C323.485 19.2648 321.887 19.2973 318.39 19.3828C317.829 19.3828 317.435 15.6371 315.91 15.6371C314.385 15.6371 308.535 15.9547 307.014 15.9547C305.493 15.9547 305.225 19.7818 304.863 19.7981C298.931 20.0628 292.869 20.474 284.798 21.1213C280.504 21.1213 278.622 8.37776 285.875 8.37776L306.164 7.17669L415.399 2.02633C431.171 1.52555 450.772 8.22305 464.596 17.4041C464.596 17.4041 482.751 29.1583 482.527 35.0782C482.303 40.998 476.062 41.3604 476.062 41.3604L363.245 35.5098C361.599 35.4309 360.035 34.7656 358.836 33.6338C357.636 32.5021 356.88 30.9784 356.703 29.3375L355.484 18.0637C355.436 17.6291 355.48 17.1893 355.612 16.7726C355.743 16.3558 355.961 15.9713 356.25 15.6436C356.539 15.3158 356.893 15.0522 357.29 14.8695C357.686 14.6868 358.117 14.5891 358.553 14.5826V14.5826C359.379 14.5713 360.199 14.7244 360.965 15.033C361.731 15.3415 362.428 15.7995 363.016 16.3802C363.604 16.9609 364.071 17.6528 364.389 18.4157C364.708 19.1786 364.872 19.9972 364.872 20.8241V25.0177C364.872 27.1715 367.718 26.9068 369.869 27.0534C372.231 27.2163 373.052 26.5282 373.052 24.1586V18.7436C373.052 18.187 373.162 17.6358 373.376 17.1219C373.59 16.608 373.903 16.1416 374.298 15.7495C374.692 15.3574 375.16 15.0473 375.675 14.8373C376.19 14.6272 376.741 14.5213 377.297 14.5256L411.5 15.2748C423.909 14.9735 433.008 16.8748 439.831 19.3218C444.758 21.1429 449.369 23.7272 453.496 26.9801C457.4 30.0011 465.694 34.6385 479.616 34.4553L493.367 34.2761C504.065 34.1249 514.733 33.0982 525.264 31.2063L545.447 27.603C550.599 26.6788 554.046 32.5213 551.115 37.2279L543.922 48.7785C540.584 54.1365 545.593 60.5124 551.148 57.9474L579.154 45.0125C612.665 27.1389 663.757 43.8318 663.757 43.8318" stroke="#1364C3" stroke-width="4" stroke-miterlimit="10"/>
<path d="M261.44 34.6343C261.497 37.8914 259.558 41.0468 257.102 41.6982C254.646 42.3496 252.629 40.2447 252.56 36.9957C252.491 33.7467 254.443 30.5832 256.895 29.9318C259.346 29.2803 261.367 31.3853 261.44 34.6343Z" stroke="#1364C3" stroke-width="4" stroke-miterlimit="10"/>
<path d="M222.594 46.7185C221.663 57.3938 213.905 59.6127 210.632 57.8701C209.307 57.0606 208.278 55.8458 207.696 54.4053C207.122 52.7846 206.817 51.0804 206.794 49.3608C206.676 42.6511 210.555 36.1205 215.621 34.7729C220.687 33.4253 225.298 39.4021 225.416 46.1159C225.409 46.3861 225.469 46.6537 225.591 46.8947C225.713 47.1357 225.893 47.3424 226.115 47.4963C226.337 47.6502 226.594 47.7464 226.862 47.7762C227.13 47.8061 227.402 47.7686 227.652 47.6671L252.637 40.9737L254.877 40.3752C256.241 40.0245 257.46 39.2517 258.361 38.1668C259.261 37.082 259.796 35.7404 259.89 34.3332C259.97 33.4674 259.808 32.5964 259.422 31.8177C259.035 31.039 258.44 30.3832 257.703 29.9238" stroke="#1364C3" stroke-width="4" stroke-miterlimit="10"/>
<path d="M222.582 45.6148C222.66 50.0038 220.037 54.2747 216.723 55.1541C213.41 56.0336 210.657 53.1917 210.58 48.8027C210.503 44.4137 213.125 40.1428 216.439 39.2593C219.752 38.3758 222.505 41.2258 222.582 45.6148Z" stroke="#1364C3" stroke-width="4" stroke-miterlimit="10"/>
</svg>
