<svg width="24" height="24" viewBox="0 0 24 24" fill="none" xmlns="http://www.w3.org/2000/svg">
<path d="M21.8365 10.982L12.3365 2.34576C12.2443 2.26233 12.1244 2.21613 12.0001 2.21613C11.8757 2.21613 11.7558 2.26233 11.6636 2.34576L2.16362 10.982C2.11502 11.0262 2.07559 11.0795 2.04759 11.1389C2.0196 11.1984 2.00357 11.2627 2.00045 11.3283C1.99732 11.3939 2.00714 11.4595 2.02936 11.5213C2.05157 11.5831 2.08575 11.64 2.12993 11.6886C2.21915 11.7867 2.34372 11.8454 2.47622 11.8517C2.54183 11.8549 2.60741 11.8451 2.66923 11.8228C2.73104 11.8006 2.78787 11.7664 2.83647 11.7223L4.40581 10.2956V21.2839C4.40578 21.3495 4.41868 21.4146 4.4438 21.4753C4.46891 21.5359 4.50574 21.5911 4.55218 21.6375C4.59861 21.6839 4.65375 21.7208 4.71443 21.7459C4.77511 21.771 4.84014 21.7839 4.90581 21.7839H9.3169C9.38258 21.7839 9.44761 21.771 9.50829 21.7459C9.56897 21.7208 9.6241 21.6839 9.67054 21.6375C9.71698 21.5911 9.7538 21.5359 9.77892 21.4753C9.80403 21.4146 9.81694 21.3495 9.8169 21.2839V15.6769H14.1836V21.2839C14.1836 21.3495 14.1965 21.4146 14.2216 21.4753C14.2467 21.5359 14.2836 21.5911 14.33 21.6375C14.3764 21.6839 14.4316 21.7208 14.4922 21.7459C14.5529 21.771 14.618 21.7839 14.6836 21.7839H19.0943C19.16 21.7839 19.225 21.771 19.2857 21.7459C19.3463 21.7208 19.4015 21.6839 19.4479 21.6375C19.4944 21.5911 19.5312 21.5359 19.5563 21.4753C19.5814 21.4146 19.5943 21.3495 19.5943 21.2839V10.2956L21.1636 11.7223C21.2618 11.8115 21.3914 11.8581 21.5239 11.8518C21.6564 11.8455 21.7809 11.7868 21.8702 11.6886C21.9594 11.5905 22.006 11.4609 21.9997 11.3284C21.9933 11.1959 21.9346 11.0713 21.8365 10.9821L21.8365 10.982ZM18.5943 9.71742V20.7839H15.1836V15.1769C15.1837 15.1112 15.1708 15.0462 15.1456 14.9855C15.1205 14.9248 15.0837 14.8697 15.0373 14.8232C14.9908 14.7768 14.9357 14.74 14.875 14.7149C14.8143 14.6897 14.7493 14.6768 14.6836 14.6769H9.3169C9.25123 14.6768 9.1862 14.6897 9.12552 14.7149C9.06484 14.74 9.0097 14.7768 8.96327 14.8232C8.91683 14.8697 8.88 14.9248 8.85489 14.9855C8.82977 15.0462 8.81687 15.1112 8.8169 15.1769V20.7839H5.40576V9.6559C5.40458 9.57961 5.38556 9.50465 5.35022 9.43702L12 3.39171L18.6756 9.4604C18.6247 9.53667 18.5965 9.62579 18.5943 9.71742Z" fill="#0C131F"/>
</svg>
