<svg width="24" height="24" viewBox="0 0 24 24" fill="none" xmlns="http://www.w3.org/2000/svg">
<path d="M12 3.417C10.1623 3.417 8.36587 3.96195 6.83788 4.98293C5.30988 6.00392 4.11897 7.45508 3.41573 9.15291C2.71249 10.8507 2.52851 12.719 2.88707 14.5214C3.24563 16.3238 4.13061 17.9794 5.4301 19.2788C6.72959 20.5782 8.38523 21.4631 10.1876 21.8215C11.99 22.18 13.8583 21.9959 15.5561 21.2926C17.2539 20.5893 18.705 19.3983 19.7259 17.8702C20.7468 16.3422 21.2916 14.5457 21.2915 12.708C21.2887 10.2447 20.3088 7.88302 18.567 6.14122C16.8251 4.39941 14.4634 3.41969 12 3.417ZM12 21C10.3601 21 8.75707 20.5137 7.39355 19.6027C6.03003 18.6916 4.96728 17.3967 4.3397 15.8816C3.71212 14.3666 3.54789 12.6995 3.86778 11.0911C4.18767 9.4827 4.97731 8.00529 6.13685 6.84568C7.29639 5.68608 8.77375 4.89635 10.3821 4.57636C11.9905 4.25637 13.6576 4.4205 15.1727 5.04799C16.6878 5.67548 17.9828 6.73815 18.8939 8.10162C19.8051 9.46508 20.2914 11.0681 20.2915 12.708C20.2891 14.9063 19.4147 17.014 17.8603 18.5685C16.3059 20.123 14.1984 20.9974 12 21ZM12.5 7.5V12.708C12.5 12.8406 12.4473 12.9678 12.3536 13.0616C12.2598 13.1553 12.1326 13.208 12 13.208C11.8674 13.208 11.7402 13.1553 11.6465 13.0616C11.5527 12.9678 11.5 12.8406 11.5 12.708V7.5C11.5 7.36739 11.5527 7.24021 11.6465 7.14645C11.7402 7.05268 11.8674 7 12 7C12.1326 7 12.2598 7.05268 12.3536 7.14645C12.4473 7.24021 12.5 7.36739 12.5 7.5ZM10.2261 2.5C10.2261 2.43433 10.239 2.36929 10.2641 2.30861C10.2892 2.24794 10.326 2.1928 10.3725 2.14636C10.4189 2.09993 10.474 2.0631 10.5347 2.03799C10.5954 2.01287 10.6604 1.99996 10.7261 2H13.2739C13.4066 2 13.5337 2.05268 13.6275 2.14645C13.7213 2.24021 13.7739 2.36739 13.7739 2.5C13.7739 2.63261 13.7213 2.75979 13.6275 2.85355C13.5337 2.94732 13.4066 3 13.2739 3H10.7261C10.6604 3.00004 10.5954 2.98713 10.5347 2.96201C10.474 2.9369 10.4189 2.90007 10.3725 2.85364C10.326 2.8072 10.2892 2.75206 10.2641 2.69139C10.239 2.63071 10.2261 2.56567 10.2261 2.5ZM3.61672 6.61914C3.57099 6.57202 3.53499 6.51635 3.51078 6.45532C3.48657 6.39428 3.47462 6.32907 3.47562 6.26341C3.47662 6.19776 3.49054 6.13294 3.51659 6.07267C3.54265 6.0124 3.58032 5.95785 3.62746 5.91214L5.45607 4.1377C5.55112 4.04537 5.67896 3.99457 5.81146 3.9965C5.94396 3.99842 6.07028 4.0529 6.16261 4.14795C6.25494 4.243 6.30574 4.37084 6.30381 4.50334C6.30189 4.63584 6.24741 4.76216 6.15236 4.85449L4.32375 6.62891C4.2287 6.72136 4.10081 6.77227 3.96823 6.77044C3.83564 6.76861 3.70921 6.71418 3.61675 6.61914H3.61672Z" fill="#26252D"/>
</svg>
