<svg width="24" height="24" viewBox="0 0 24 24" fill="none" xmlns="http://www.w3.org/2000/svg">
<path d="M9 6.34003H5.47C5.25778 6.3602 5.06116 6.46029 4.92 6.62003C4.77342 6.76958 4.69132 6.97063 4.69132 7.18003C4.69132 7.38944 4.77342 7.59049 4.92 7.74003C5.0671 7.88861 5.26182 7.98066 5.47 8.00003H9C9.21318 7.97344 9.41082 7.87462 9.56 7.72003C9.70201 7.56814 9.781 7.36797 9.781 7.16003C9.781 6.9521 9.70201 6.75193 9.56 6.60003C9.41034 6.44932 9.21171 6.3571 9 6.34003Z" fill="#26252D"/>
<path d="M9 9.69003H5.47C5.25333 9.71792 5.05605 9.82911 4.92 10C4.77342 10.1496 4.69132 10.3506 4.69132 10.56C4.69132 10.7694 4.77342 10.9705 4.92 11.12C5.06116 11.2798 5.25778 11.3799 5.47 11.4H9C9.21442 11.3776 9.41341 11.2781 9.56 11.12C9.6967 10.9631 9.76862 10.7601 9.7612 10.5521C9.75377 10.3442 9.66754 10.1468 9.52 10C9.38822 9.83911 9.20423 9.72943 9 9.69003Z" fill="#26252D"/>
<path d="M5.47 13C5.29834 12.9992 5.13064 13.0516 4.99 13.15C4.84528 13.2374 4.73027 13.3663 4.66 13.52C4.5936 13.6744 4.57622 13.8454 4.6102 14.0099C4.64418 14.1745 4.72789 14.3246 4.85 14.44C4.97916 14.5673 5.14374 14.6525 5.32217 14.6846C5.50061 14.7168 5.68458 14.6942 5.85 14.62C6.00968 14.5608 6.14631 14.4522 6.24 14.31C6.33813 14.1768 6.39073 14.0155 6.39 13.85C6.39074 13.7374 6.36801 13.6259 6.32324 13.5226C6.27847 13.4193 6.21266 13.3265 6.13 13.25C6.04356 13.1646 5.94017 13.0982 5.82649 13.0551C5.71281 13.012 5.59137 12.9933 5.47 13Z" fill="#26252D"/>
<path d="M9 13H8.09C7.97125 12.9755 7.84875 12.9755 7.73 13C7.6146 13.0385 7.50644 13.0959 7.41 13.17C7.32043 13.2509 7.24888 13.3497 7.2 13.46C7.14893 13.5662 7.12162 13.6822 7.12 13.8C7.12027 13.918 7.14764 14.0343 7.2 14.14C7.24888 14.2504 7.32043 14.3492 7.41 14.43C7.5014 14.5117 7.61119 14.57 7.73 14.6C7.84875 14.6246 7.97125 14.6246 8.09 14.6H9C9.21442 14.5776 9.41341 14.4781 9.56 14.32C9.70201 14.1681 9.781 13.968 9.781 13.76C9.781 13.5521 9.70201 13.3519 9.56 13.2C9.39989 13.0745 9.20339 13.0043 9 13Z" fill="#26252D"/>
<path d="M18.58 13H15.09C14.8768 13.0266 14.6792 13.1255 14.53 13.28C14.388 13.4319 14.309 13.6321 14.309 13.84C14.309 14.048 14.388 14.2481 14.53 14.4C14.6766 14.5581 14.8756 14.6576 15.09 14.68H18.58C18.7922 14.6599 18.9888 14.5598 19.13 14.4C19.2766 14.2505 19.3587 14.0494 19.3587 13.84C19.3587 13.6306 19.2766 13.4296 19.13 13.28C18.9859 13.1241 18.7909 13.0248 18.58 13Z" fill="#26252D"/>
<path d="M15.09 8.00003C15.2633 8.00099 15.4333 7.95242 15.58 7.86003C15.7312 7.77871 15.8531 7.65196 15.9285 7.49767C16.0038 7.34337 16.0289 7.16931 16 7.00003C15.9631 6.83416 15.8778 6.68294 15.755 6.56548C15.6322 6.44801 15.4774 6.36956 15.31 6.34003C15.1436 6.29028 14.9664 6.29028 14.8 6.34003C14.6403 6.39922 14.5037 6.50782 14.41 6.65003C14.3113 6.78623 14.2619 6.95201 14.27 7.12003C14.2699 7.23012 14.292 7.3391 14.335 7.44046C14.3779 7.54183 14.4409 7.63351 14.52 7.71003C14.6657 7.87638 14.8698 7.98023 15.09 8.00003Z" fill="#26252D"/>
<path d="M15.09 9.69003C14.8756 9.71246 14.6766 9.81196 14.53 9.97003C14.388 10.1219 14.309 10.3221 14.309 10.53C14.309 10.738 14.388 10.9381 14.53 11.09C14.6766 11.2481 14.8756 11.3476 15.09 11.37H16C16.2144 11.3476 16.4134 11.2481 16.56 11.09C16.702 10.9381 16.781 10.738 16.781 10.53C16.781 10.3221 16.702 10.1219 16.56 9.97003C16.4134 9.81196 16.2144 9.71246 16 9.69003H15.09Z" fill="#26252D"/>
<path d="M17 7.81003C17.0889 7.88934 17.1903 7.95353 17.3 8.00003C17.4187 8.02513 17.5413 8.02513 17.66 8.00003H18.53C18.7409 7.97529 18.9359 7.87598 19.08 7.72003C19.2266 7.57049 19.3087 7.36944 19.3087 7.16003C19.3087 6.95063 19.2266 6.74958 19.08 6.60003C18.9388 6.44029 18.7422 6.3402 18.53 6.32003H17.66C17.5413 6.29494 17.4187 6.29494 17.3 6.32003C17.1812 6.35007 17.0714 6.4084 16.98 6.49003C16.8904 6.5709 16.8189 6.6697 16.77 6.78003C16.7176 6.88574 16.6903 7.00207 16.69 7.12003C16.6916 7.23784 16.7189 7.35387 16.77 7.46003C16.8167 7.59387 16.8957 7.7141 17 7.81003Z" fill="#26252D"/>
<path d="M18.53 9.69003C18.3567 9.68908 18.1867 9.73765 18.04 9.83003C17.8924 9.91845 17.7769 10.0515 17.71 10.21C17.6386 10.3631 17.621 10.5357 17.66 10.7C17.6915 10.8655 17.7757 11.0164 17.9 11.13C18.0232 11.2506 18.1802 11.3308 18.35 11.36C18.5164 11.4098 18.6936 11.4098 18.86 11.36C19.0251 11.2847 19.1618 11.1586 19.25 11C19.3398 10.8596 19.3883 10.6967 19.39 10.53C19.3912 10.4198 19.3697 10.3104 19.3267 10.2089C19.2836 10.1074 19.2201 10.0158 19.14 9.94003C19.0598 9.86029 18.9646 9.79716 18.8599 9.75426C18.7552 9.71136 18.6431 9.68954 18.53 9.69003Z" fill="#26252D"/>
<path d="M21.41 3.57003C21.0334 3.20177 20.5267 2.99695 20 3.00003H15.6C14.8585 2.99906 14.1301 3.19582 13.49 3.57003C12.8612 3.94104 12.3459 4.47707 12 5.12003C11.6541 4.47707 11.1388 3.94104 10.51 3.57003C9.86986 3.19582 9.1415 2.99906 8.4 3.00003H4C3.47328 2.99695 2.9666 3.20177 2.59 3.57003C2.40339 3.74606 2.25478 3.95841 2.15331 4.19402C2.05185 4.42962 1.99967 4.68351 2 4.94003V17C2.00141 17.2563 2.05437 17.5096 2.15573 17.745C2.25709 17.9804 2.40478 18.1929 2.59 18.37C2.97775 18.7147 3.48129 18.9004 4 18.89H7.62C8.47516 18.8961 9.30714 19.1688 10 19.67L10.65 20.14L11.24 20.71C11.3369 20.8013 11.4485 20.8757 11.57 20.93C11.8216 21.0235 12.0984 21.0235 12.35 20.93C12.4715 20.8757 12.5831 20.8013 12.68 20.71L13.27 20.14L13.93 19.67C14.6339 19.1608 15.4812 18.8877 16.35 18.89H20C20.5276 18.8921 21.0358 18.6917 21.42 18.33C21.7808 17.9803 21.9891 17.5024 22 17V5.00003C22.0087 4.73346 21.9606 4.46809 21.8589 4.22154C21.7572 3.97499 21.6042 3.7529 21.41 3.57003ZM11.41 19.46L10.62 18.89C9.74962 18.2503 8.70013 17.9005 7.62 17.89H4C3.73562 17.8942 3.48034 17.7936 3.29 17.61C3.1211 17.4497 3.01776 17.2323 3 17V5.00003C2.99851 4.87129 3.02348 4.74362 3.07336 4.62493C3.12325 4.50623 3.19699 4.39905 3.29 4.31003C3.38178 4.21373 3.49185 4.13671 3.61376 4.08348C3.73568 4.03025 3.86699 4.00188 4 4.00003H8.4C9.1968 3.99393 9.96455 4.29888 10.54 4.85003C10.8202 5.11306 11.0437 5.43058 11.1967 5.78311C11.3498 6.13563 11.4292 6.51572 11.43 6.90003L11.41 19.46ZM21 17C21.0001 17.1271 20.9745 17.2529 20.9247 17.3697C20.8748 17.4866 20.8018 17.5922 20.71 17.68C20.5197 17.8636 20.2644 17.9642 20 17.96H16.4C15.3199 17.9705 14.2704 18.3203 13.4 18.96L12.6 19.53V6.87003C12.6076 6.49417 12.6902 6.12362 12.843 5.78015C12.9959 5.43669 13.2158 5.12725 13.49 4.87003C14.0548 4.31878 14.8108 4.00707 15.6 4.00003H20C20.2644 3.99583 20.5197 4.09651 20.71 4.28003C20.803 4.36905 20.8768 4.47623 20.9266 4.59493C20.9765 4.71362 21.0015 4.84129 21 4.97003V17Z" fill="#26252D"/>
</svg>
