<svg width="24" height="24" viewBox="0 0 24 24" fill="none" xmlns="http://www.w3.org/2000/svg">
<path d="M2 5.64893V3.99463C2.00054 3.5892 2.16184 3.20053 2.44852 2.91385C2.7352 2.62717 3.12387 2.46587 3.5293 2.46533H4.85449C4.9871 2.46533 5.11428 2.51801 5.20804 2.61178C5.30181 2.70555 5.35449 2.83272 5.35449 2.96533C5.35449 3.09794 5.30181 3.22512 5.20804 3.31889C5.11428 3.41265 4.9871 3.46533 4.85449 3.46533H3.5293C3.38895 3.46544 3.25439 3.52124 3.15515 3.62048C3.05591 3.71972 3.00011 3.85429 3 3.99463V5.64893C3 5.78154 2.94732 5.90872 2.85355 6.00249C2.75979 6.09625 2.63261 6.14893 2.5 6.14893C2.36739 6.14893 2.24021 6.09625 2.14645 6.00249C2.05268 5.90872 2 5.78154 2 5.64893ZM20.4707 2.46533H19.1455C19.0129 2.46533 18.8857 2.51801 18.792 2.61178C18.6982 2.70555 18.6455 2.83272 18.6455 2.96533C18.6455 3.09794 18.6982 3.22512 18.792 3.31889C18.8857 3.41265 19.0129 3.46533 19.1455 3.46533H20.4707C20.611 3.46544 20.7456 3.52124 20.8448 3.62048C20.9441 3.71972 20.9999 3.85429 21 3.99463V5.64893C21 5.78154 21.0527 5.90872 21.1464 6.00249C21.2402 6.09625 21.3674 6.14893 21.5 6.14893C21.6326 6.14893 21.7598 6.09625 21.8536 6.00249C21.9473 5.90872 22 5.78154 22 5.64893V3.99463C21.9995 3.5892 21.8382 3.20053 21.5515 2.91385C21.2648 2.62717 20.8761 2.46587 20.4707 2.46533ZM4.85449 20.5347H3.5293C3.38895 20.5346 3.25439 20.4788 3.15515 20.3795C3.05591 20.2803 3.00011 20.1457 3 20.0054V18.352C3 18.2194 2.94732 18.0922 2.85355 17.9984C2.75979 17.9047 2.63261 17.852 2.5 17.852C2.36739 17.852 2.24021 17.9047 2.14645 17.9984C2.05268 18.0922 2 18.2194 2 18.352V20.0053C2.00054 20.4108 2.16184 20.7994 2.44852 21.0861C2.7352 21.3728 3.12387 21.5341 3.5293 21.5346H4.85449C4.9871 21.5346 5.11428 21.4819 5.20804 21.3882C5.30181 21.2944 5.35449 21.1672 5.35449 21.0346C5.35449 20.902 5.30181 20.7748 5.20804 20.6811C5.11428 20.5873 4.9871 20.5346 4.85449 20.5346V20.5347ZM21.5 17.852C21.4343 17.852 21.3693 17.8649 21.3086 17.89C21.2479 17.9151 21.1928 17.9519 21.1464 17.9984C21.0999 18.0448 21.0631 18.0999 21.038 18.1606C21.0129 18.2213 21 18.2863 21 18.352V20.0053C20.9999 20.1457 20.9441 20.2802 20.8448 20.3795C20.7456 20.4787 20.611 20.5345 20.4707 20.5346H19.1455C19.0129 20.5346 18.8857 20.5873 18.792 20.6811C18.6982 20.7748 18.6455 20.902 18.6455 21.0346C18.6455 21.1672 18.6982 21.2944 18.792 21.3882C18.8857 21.4819 19.0129 21.5346 19.1455 21.5346H20.4707C20.8761 21.5341 21.2648 21.3728 21.5515 21.0861C21.8381 20.7994 21.9994 20.4108 22 20.0054V18.352C22 18.2863 21.9871 18.2213 21.962 18.1606C21.9369 18.0999 21.9001 18.0448 21.8536 17.9984C21.8072 17.9519 21.7521 17.9151 21.6914 17.89C21.6307 17.8649 21.5657 17.852 21.5 17.852ZM18.8584 11.268H12.7114V5.12158H18.8584V11.268ZM17.8584 6.12151H13.7114V10.268H17.8584V6.12151ZM16.75 7.229H14.8193V9.15967H16.75V7.229ZM5.1001 12.7319H11.2471V18.8794H5.1001V12.7319ZM6.1001 17.8794H10.2471V13.7319H6.1001V17.8794ZM7.2085 16.771H9.13916V14.8403H7.2085V16.771ZM12.9209 14.7261H14.8994V12.7476H12.9209V14.7261ZM14.9062 16.7114H16.8848V14.7329H14.9062V16.7114ZM18.8994 12.7183H16.9209V14.6968H18.8994V12.7183ZM12.8345 18.7837H14.813V16.8052H12.8345V18.7837ZM5.21147 11.2007H7.18994V9.22217H5.21143L5.21147 11.2007ZM11.1734 5.23878H9.19482V7.21729H11.1733L11.1734 5.23878ZM9.17578 7.23682H7.19727V9.21436H9.17578V7.23682ZM5.18262 7.20068H7.16113V5.22217H5.18262V7.20068ZM9.269 11.2866H11.2475V9.30811H9.269V11.2866Z" fill="#0C131F"/>
</svg>
