<svg width="24" height="24" viewBox="0 0 24 24" fill="none" xmlns="http://www.w3.org/2000/svg">
<path d="M21.2027 2.82171C20.6834 2.3252 19.9927 2.0481 19.2742 2.0481C18.5558 2.0481 17.865 2.3252 17.3458 2.82171L7.72037 12.4466C7.6352 12.5317 7.58369 12.6447 7.57537 12.7648L7.34085 16.1522C7.33624 16.2203 7.34568 16.2887 7.36858 16.3531C7.39147 16.4174 7.42735 16.4763 7.47397 16.5263C7.52059 16.5762 7.57697 16.616 7.63961 16.6432C7.70224 16.6704 7.7698 16.6845 7.8381 16.6845C7.84929 16.6845 7.86097 16.6845 7.87265 16.6835L11.2595 16.449C11.3793 16.4401 11.492 16.3887 11.5772 16.304L21.2027 6.67904C21.7132 6.16703 22 5.47346 22 4.75038C22 4.02729 21.7133 3.33372 21.2027 2.82171ZM20.4981 5.97456L11.0046 15.4671L8.37478 15.6501L8.55678 13.0198L18.0503 3.52624C18.3799 3.21122 18.8183 3.03543 19.2743 3.03543C19.7302 3.03543 20.1686 3.21122 20.4982 3.52624C20.8221 3.85132 21.0039 4.29151 21.0039 4.7504C21.0039 5.2093 20.822 5.64949 20.4981 5.97456ZM19.7863 13.011V19.6504C19.7856 20.2607 19.5428 20.8457 19.1113 21.2771C18.6797 21.7086 18.0947 21.9512 17.4844 21.9518H4.30187C3.69166 21.9512 3.1066 21.7086 2.67507 21.2771C2.24353 20.8457 2.00075 20.2607 2 19.6505V6.37255C2.00054 5.76218 2.24321 5.17695 2.67477 4.7453C3.10632 4.31366 3.6915 4.07086 4.30187 4.0702H10.7511C10.8828 4.07079 11.009 4.12354 11.1019 4.21691C11.1949 4.31028 11.2471 4.43667 11.2471 4.56842C11.2471 4.70018 11.1949 4.82656 11.1019 4.91993C11.009 5.01331 10.8828 5.06606 10.7511 5.06665H4.30187C3.95572 5.06714 3.62389 5.20489 3.37917 5.4497C3.13445 5.69452 2.99681 6.0264 2.99645 6.37255V19.6505C2.99701 19.9965 3.13474 20.3282 3.37945 20.5728C3.62415 20.8174 3.95587 20.955 4.30187 20.9555H17.4844C17.8305 20.955 18.1622 20.8174 18.4069 20.5728C18.6516 20.3282 18.7893 19.9965 18.7899 19.6505V13.011C18.7896 12.9454 18.8022 12.8803 18.8272 12.8196C18.8521 12.7589 18.8887 12.7037 18.935 12.6572C18.9813 12.6107 19.0363 12.5738 19.0969 12.5487C19.1575 12.5235 19.2225 12.5105 19.2881 12.5105C19.3537 12.5105 19.4187 12.5235 19.4793 12.5487C19.5399 12.5738 19.5949 12.6107 19.6412 12.6572C19.6875 12.7037 19.7241 12.7589 19.749 12.8196C19.7739 12.8803 19.7866 12.9454 19.7863 13.011Z" fill="#26252D"/>
</svg>
