<svg width="24" height="24" viewBox="0 0 24 24" fill="none" xmlns="http://www.w3.org/2000/svg">
<path d="M19 15C18.2925 15.0019 17.6083 15.2538 17.0685 15.7113C16.5287 16.1688 16.168 16.8023 16.05 17.5H7.65003C6.84156 17.5297 6.0431 17.3135 5.36003 16.88C5.09371 16.6953 4.87628 16.4485 4.72647 16.1611C4.57665 15.8737 4.49895 15.5541 4.50003 15.23C4.4716 14.8369 4.53649 14.4427 4.68943 14.0795C4.84236 13.7163 5.079 13.3944 5.38003 13.14C6.04631 12.6841 6.84373 12.4593 7.65003 12.5H16C16.8515 12.4777 17.6728 12.1794 18.34 11.65C18.7372 11.2878 19.0477 10.8409 19.2485 10.3423C19.4493 9.84373 19.5353 9.30634 19.5 8.77001C19.5114 8.2984 19.4113 7.83077 19.208 7.40508C19.0048 6.97938 18.7039 6.60763 18.33 6.32001C17.55 5.76186 16.6089 5.47392 15.65 5.50001H8.00003C7.87466 4.75831 7.47523 4.09077 6.8809 3.62968C6.28656 3.1686 5.5407 2.94761 4.79111 3.01051C4.04153 3.07342 3.34293 3.41563 2.83375 3.96932C2.32458 4.52301 2.04199 5.24779 2.04199 6.00001C2.04199 6.75223 2.32458 7.477 2.83375 8.03069C3.34293 8.58438 4.04153 8.92659 4.79111 8.9895C5.5407 9.0524 6.28656 8.83142 6.8809 8.37033C7.47523 7.90924 7.87466 7.2417 8.00003 6.50001H15.7C16.4353 6.4694 17.16 6.68398 17.76 7.11001C18.0149 7.30336 18.2196 7.55501 18.3571 7.84386C18.4945 8.1327 18.5607 8.4503 18.55 8.77001C18.5817 9.15843 18.5253 9.54899 18.3851 9.91259C18.2448 10.2762 18.0243 10.6035 17.74 10.87C17.1688 11.3098 16.4602 11.533 15.74 11.5H7.74003C6.70744 11.4538 5.68938 11.7568 4.85003 12.36C4.41249 12.6961 4.06166 13.132 3.82681 13.6312C3.59197 14.1305 3.47993 14.6786 3.50003 15.23C3.49277 15.714 3.60594 16.1922 3.82937 16.6216C4.05281 17.0511 4.37949 17.4182 4.78003 17.69C5.63042 18.2492 6.63277 18.5321 7.65003 18.5H16.05C16.1454 19.0643 16.4002 19.5896 16.7844 20.0138C17.1686 20.438 17.6661 20.7435 18.2182 20.8941C18.7703 21.0448 19.354 21.0344 19.9004 20.8642C20.4468 20.694 20.9331 20.371 21.302 19.9334C21.6708 19.4958 21.9068 18.9618 21.982 18.3945C22.0573 17.8272 21.9687 17.2501 21.7267 16.7315C21.4847 16.2129 21.0994 15.7743 20.6163 15.4675C20.1331 15.1607 19.5723 14.9985 19 15ZM19 20C18.6045 20 18.2178 19.8827 17.8889 19.6629C17.56 19.4432 17.3036 19.1308 17.1523 18.7654C17.0009 18.3999 16.9613 17.9978 17.0385 17.6098C17.1156 17.2219 17.3061 16.8655 17.5858 16.5858C17.8655 16.3061 18.2219 16.1156 18.6099 16.0384C18.9978 15.9613 19.3999 16.0009 19.7654 16.1522C20.1309 16.3036 20.4432 16.56 20.663 16.8889C20.8827 17.2178 21 17.6044 21 18C21 18.5304 20.7893 19.0391 20.4142 19.4142C20.0392 19.7893 19.5305 20 19 20Z" fill="#0C131F"/>
</svg>
