<svg width="24" height="24" viewBox="0 0 24 24" fill="none" xmlns="http://www.w3.org/2000/svg">
<path d="M21.5 19.7212H17.9377L13.8901 4.29443C13.8136 4.00358 13.6429 3.74624 13.4048 3.56253C13.1667 3.37882 12.8745 3.27906 12.5737 3.27881H11.4258C11.125 3.27906 10.8328 3.37882 10.5947 3.56253C10.3566 3.74624 10.1859 4.00358 10.1094 4.29443L6.06177 19.7212H2.5C2.36739 19.7212 2.24021 19.7739 2.14645 19.8676C2.05268 19.9614 2 20.0886 2 20.2212C2 20.3538 2.05268 20.481 2.14645 20.5747C2.24021 20.6685 2.36739 20.7212 2.5 20.7212H21.5C21.6326 20.7212 21.7598 20.6685 21.8536 20.5747C21.9473 20.481 22 20.3538 22 20.2212C22 20.0886 21.9473 19.9614 21.8536 19.8676C21.7598 19.7739 21.6326 19.7212 21.5 19.7212ZM9.187 11.7485H14.8125L15.4661 14.2397H8.53345L9.187 11.7485ZM11.0762 4.54834C11.0966 4.47119 11.142 4.40296 11.2052 4.35423C11.2684 4.3055 11.346 4.27899 11.4258 4.27881H12.5737C12.6535 4.27899 12.7311 4.3055 12.7943 4.35423C12.8575 4.40296 12.9029 4.47119 12.9233 4.54834L14.55 10.7485H9.44946L11.0762 4.54834ZM7.09516 19.7212L8.271 15.2397H15.7285L16.9043 19.7212H7.09516Z" fill="#26252D"/>
</svg>
