<svg width="24" height="24" viewBox="0 0 24 24" fill="none" xmlns="http://www.w3.org/2000/svg">
<path d="M13.9995 16.3735L14.015 16.3736L13.5582 15.7706C13.2662 15.3873 12.8899 15.0764 12.4584 14.862C12.027 14.6475 11.552 14.5353 11.0702 14.5339H2.59954C2.46695 14.5339 2.33979 14.4812 2.24603 14.3875C2.15227 14.2937 2.0996 14.1666 2.0996 14.034C2.0996 13.9014 2.15227 13.7742 2.24603 13.6805C2.33979 13.5867 2.46695 13.534 2.59954 13.534H11.0702C11.7063 13.5357 12.3336 13.6838 12.9032 13.9671C13.4729 14.2503 13.9696 14.6609 14.3549 15.1671L15.2738 16.38C17.3534 16.3895 19.7347 16.3954 20.4514 16.3833C20.6225 16.2286 20.759 16.0395 20.8518 15.8282C20.9446 15.617 20.9916 15.3885 20.9897 15.1578C20.9878 14.9271 20.9371 14.6994 20.8409 14.4897C20.7446 14.28 20.6051 14.0931 20.4314 13.9412C14.4414 7.63879 5.18029 7.2194 5.08752 7.21599L3.09313 7.21643C3.02729 7.21672 2.96204 7.20401 2.90113 7.17902C2.84021 7.15402 2.78484 7.11725 2.73817 7.07079C2.69151 7.02434 2.65449 6.96913 2.62922 6.90833C2.60396 6.84753 2.59095 6.78233 2.59095 6.71649C2.59095 6.65065 2.60396 6.58546 2.62922 6.52466C2.65449 6.46386 2.69151 6.40864 2.73817 6.36219C2.78484 6.31574 2.84021 6.27896 2.90113 6.25397C2.96204 6.22898 3.02729 6.21626 3.09313 6.21656H5.10607C5.51959 6.2312 14.8793 6.64814 21.1559 13.2528C21.4206 13.4945 21.6325 13.7883 21.7783 14.1159C21.9241 14.4434 22.0005 14.7975 22.0029 15.156C22.0053 15.5144 21.9335 15.8695 21.7921 16.199C21.6507 16.5284 21.4428 16.825 21.1813 17.0702L21.1695 17.0643C21.1485 17.1161 21.1188 17.1638 21.0817 17.2054C20.901 17.4095 20.901 17.4095 13.9971 17.3734H13.5079C13.1928 17.6383 12.7944 17.7835 12.3828 17.7835C11.9711 17.7835 11.5727 17.6383 11.2577 17.3734H5.59575C5.27748 17.6288 4.88163 17.768 4.47358 17.768C4.06552 17.768 3.66967 17.6288 3.3514 17.3734H2.49994C2.36735 17.3734 2.24019 17.3208 2.14643 17.227C2.05267 17.1333 2 17.0061 2 16.8735C2 16.7409 2.05267 16.6138 2.14643 16.52C2.24019 16.4262 2.36735 16.3736 2.49994 16.3736H3.55059C3.62003 16.3736 3.68871 16.388 3.75225 16.416C3.8158 16.444 3.87282 16.4849 3.91969 16.5361C3.99173 16.6106 4.07804 16.6698 4.17347 16.7102C4.2689 16.7506 4.37149 16.7714 4.47512 16.7712C4.57874 16.7711 4.68127 16.75 4.77659 16.7094C4.87191 16.6687 4.95806 16.6093 5.0299 16.5346C5.07676 16.4839 5.1336 16.4434 5.19687 16.4156C5.26014 16.3879 5.32846 16.3736 5.39754 16.3735H11.4544C11.5229 16.3735 11.5906 16.3875 11.6534 16.4148C11.7162 16.442 11.7728 16.4818 11.8196 16.5317C11.8918 16.6077 11.9787 16.6683 12.075 16.7099C12.1713 16.7514 12.275 16.7729 12.3798 16.7733C12.4847 16.7736 12.5885 16.7526 12.6851 16.7117C12.7816 16.6708 12.8689 16.6107 12.9415 16.5351C12.9884 16.4842 13.0453 16.4435 13.1087 16.4157C13.172 16.3879 13.2405 16.3735 13.3097 16.3735H13.9995Z" fill="#26252D"/>
</svg>
